M48
; DRILL file {KiCad 7.0.9} date Wed Apr 10 14:08:54 2024
; FORMAT={-:-/ absolute / metric / decimal}
; #@! TF.CreationDate,2024-04-10T14:08:54+01:00
; #@! TF.GenerationSoftware,Kicad,Pcbnew,7.0.9
; #@! TF.FileFunction,MixedPlating,1,2
FMAT,2
METRIC
; #@! TA.AperFunction,Plated,PTH,ComponentDrill
T1C0.800
; #@! TA.AperFunction,Plated,PTH,ComponentDrill
T2C0.950
; #@! TA.AperFunction,Plated,PTH,ComponentDrill
T3C1.000
; #@! TA.AperFunction,Plated,PTH,ComponentDrill
T4C3.100
; #@! TA.AperFunction,Plated,PTH,ViaDrill
T5C3.200
%
G90
G05
T1
X24.13Y20.244
T2
X-36.5Y-14.981
X-31.42Y-23.779
X-30.912Y24.059
X-30.912Y13.899
X-30.912Y0.432
X-30.912Y-2.108
X-16.185Y-29.54
X-16.18Y-33.096
X-8.565Y-29.54
X-8.56Y-33.096
X-3.81Y22.784
X-1.27Y22.784
X1.27Y22.784
X2.616Y-9.22
X2.616Y-19.38
X3.81Y22.784
X7.95Y-33.985
X8.89Y22.784
X8.89Y20.244
X11.43Y22.784
X11.43Y20.244
X12.395Y-30.81
X13.97Y22.784
X13.97Y20.244
X18.11Y-33.985
X22.555Y-30.81
X24.13Y22.784
X26.395Y-29.368
X29.54Y-1.6
X29.54Y-11.76
X32.925Y-21.584
X33.35Y-6.68
X33.35Y-11.68
T3
X-27.34Y-11.18
X-27.34Y-13.72
X-27.34Y-21.92
X-27.34Y-24.46
X-26.34Y24.059
X-23.8Y24.059
X-22.53Y-29.54
X-19.99Y17.45
X-19.99Y-5.41
X-19.99Y-29.54
X-17.45Y17.45
X-17.45Y-5.41
X-14.91Y17.45
X-14.91Y-5.41
X-12.37Y17.45
X-12.37Y-5.41
X-9.83Y17.45
X-9.83Y-5.41
X-8.56Y-11.18
X-8.56Y-13.72
X-8.56Y-21.92
X-8.56Y-24.46
X-7.29Y17.45
X-7.29Y-5.41
X-4.75Y17.45
X-4.75Y-5.41
X-3.48Y-11.76
X-2.21Y17.45
X-2.21Y-5.41
X-0.94Y-11.76
X6.68Y-11.76
X6.68Y-14.3
X10.49Y11.1
X10.49Y8.56
X10.49Y6.02
X10.49Y3.48
X10.49Y0.94
X10.49Y-1.6
X10.49Y-4.14
X10.49Y-6.68
X10.49Y-9.22
X10.49Y-11.76
X10.49Y-14.3
X10.49Y-16.84
X10.49Y-19.38
X10.49Y-21.92
X10.49Y-24.46
X25.73Y11.1
X25.73Y8.56
X25.73Y6.02
X25.73Y3.48
X25.73Y0.94
X25.73Y-1.6
X25.73Y-4.14
X25.73Y-6.68
X25.73Y-9.22
X25.73Y-11.76
X25.73Y-14.3
X25.73Y-16.84
X25.73Y-19.38
X25.73Y-21.92
X25.73Y-24.46
X30.385Y-16.84
X32.925Y-16.84
T4
X34.62Y7.5
T5
X-40.0Y0.0
X0.0Y0.0
X40.0Y0.0
T3
X-1.4Y-25.38G85X1.4Y-25.38
G05
X-1.0Y-31.38G85X1.0Y-31.38
G05
X4.8Y-28.88G85X4.8Y-26.88
G05
T0
M30
