G04 #@! TF.GenerationSoftware,KiCad,Pcbnew,7.0.9*
G04 #@! TF.CreationDate,2024-04-16T12:52:01+01:00*
G04 #@! TF.ProjectId,headphone-pcb,68656164-7068-46f6-9e65-2d7063622e6b,rev?*
G04 #@! TF.SameCoordinates,PX5f5e100PY5f5e100*
G04 #@! TF.FileFunction,Copper,L2,Bot*
G04 #@! TF.FilePolarity,Positive*
%FSLAX46Y46*%
G04 Gerber Fmt 4.6, Leading zero omitted, Abs format (unit mm)*
G04 Created by KiCad (PCBNEW 7.0.9) date 2024-04-16 12:52:01*
%MOMM*%
%LPD*%
G01*
G04 APERTURE LIST*
G04 Aperture macros list*
%AMRoundRect*
0 Rectangle with rounded corners*
0 $1 Rounding radius*
0 $2 $3 $4 $5 $6 $7 $8 $9 X,Y pos of 4 corners*
0 Add a 4 corners polygon primitive as box body*
4,1,4,$2,$3,$4,$5,$6,$7,$8,$9,$2,$3,0*
0 Add four circle primitives for the rounded corners*
1,1,$1+$1,$2,$3*
1,1,$1+$1,$4,$5*
1,1,$1+$1,$6,$7*
1,1,$1+$1,$8,$9*
0 Add four rect primitives between the rounded corners*
20,1,$1+$1,$2,$3,$4,$5,0*
20,1,$1+$1,$4,$5,$6,$7,0*
20,1,$1+$1,$6,$7,$8,$9,0*
20,1,$1+$1,$8,$9,$2,$3,0*%
%AMHorizOval*
0 Thick line with rounded ends*
0 $1 width*
0 $2 $3 position (X,Y) of the first rounded end (center of the circle)*
0 $4 $5 position (X,Y) of the second rounded end (center of the circle)*
0 Add line between two ends*
20,1,$1,$2,$3,$4,$5,0*
0 Add two circle primitives to create the rounded ends*
1,1,$1,$2,$3*
1,1,$1,$4,$5*%
%AMRotRect*
0 Rectangle, with rotation*
0 The origin of the aperture is its center*
0 $1 length*
0 $2 width*
0 $3 Rotation angle, in degrees counterclockwise*
0 Add horizontal line*
21,1,$1,$2,0,0,$3*%
G04 Aperture macros list end*
G04 #@! TA.AperFunction,ComponentPad*
%ADD10HorizOval,1.800000X0.261630X0.261630X-0.261630X-0.261630X0*%
G04 #@! TD*
G04 #@! TA.AperFunction,ComponentPad*
%ADD11HorizOval,1.700000X-0.296985X-0.296985X0.296985X0.296985X0*%
G04 #@! TD*
G04 #@! TA.AperFunction,ComponentPad*
%ADD12O,1.700000X2.540000*%
G04 #@! TD*
G04 #@! TA.AperFunction,ComponentPad*
%ADD13HorizOval,1.700000X-0.296985X0.296985X0.296985X-0.296985X0*%
G04 #@! TD*
G04 #@! TA.AperFunction,ComponentPad*
%ADD14HorizOval,2.000000X-0.190919X0.190919X0.190919X-0.190919X0*%
G04 #@! TD*
G04 #@! TA.AperFunction,ComponentPad*
%ADD15RoundRect,0.750000X0.750000X-0.750000X0.750000X0.750000X-0.750000X0.750000X-0.750000X-0.750000X0*%
G04 #@! TD*
G04 #@! TA.AperFunction,ComponentPad*
%ADD16HorizOval,1.700000X0.296985X0.296985X-0.296985X-0.296985X0*%
G04 #@! TD*
G04 #@! TA.AperFunction,ComponentPad*
%ADD17RotRect,2.200000X2.200000X225.000000*%
G04 #@! TD*
G04 #@! TA.AperFunction,ComponentPad*
%ADD18HorizOval,2.200000X0.000000X0.000000X0.000000X0.000000X0*%
G04 #@! TD*
G04 #@! TA.AperFunction,ComponentPad*
%ADD19HorizOval,1.800000X-0.424264X-0.424264X0.424264X0.424264X0*%
G04 #@! TD*
G04 #@! TA.AperFunction,ComponentPad*
%ADD20HorizOval,1.900000X-0.388909X0.388909X0.388909X-0.388909X0*%
G04 #@! TD*
G04 #@! TA.AperFunction,ComponentPad*
%ADD21HorizOval,1.900000X0.388909X-0.388909X-0.388909X0.388909X0*%
G04 #@! TD*
G04 #@! TA.AperFunction,ComponentPad*
%ADD22O,2.540000X1.700000*%
G04 #@! TD*
G04 #@! TA.AperFunction,ComponentPad*
%ADD23O,6.000000X3.000000*%
G04 #@! TD*
G04 #@! TA.AperFunction,ComponentPad*
%ADD24O,5.000000X3.000000*%
G04 #@! TD*
G04 #@! TA.AperFunction,ComponentPad*
%ADD25O,3.000000X5.000000*%
G04 #@! TD*
G04 #@! TA.AperFunction,ComponentPad*
%ADD26HorizOval,1.700000X0.296985X-0.296985X-0.296985X0.296985X0*%
G04 #@! TD*
G04 #@! TA.AperFunction,ComponentPad*
%ADD27O,1.800000X3.000000*%
G04 #@! TD*
G04 #@! TA.AperFunction,ComponentPad*
%ADD28HorizOval,1.900000X0.388909X0.388909X-0.388909X-0.388909X0*%
G04 #@! TD*
G04 #@! TA.AperFunction,ComponentPad*
%ADD29RotRect,1.727200X1.727200X315.000000*%
G04 #@! TD*
G04 #@! TA.AperFunction,ComponentPad*
%ADD30C,7.000000*%
G04 #@! TD*
G04 #@! TA.AperFunction,ViaPad*
%ADD31C,6.500000*%
G04 #@! TD*
G04 #@! TA.AperFunction,Conductor*
%ADD32C,1.400000*%
G04 #@! TD*
G04 #@! TA.AperFunction,Conductor*
%ADD33C,1.800000*%
G04 #@! TD*
G04 #@! TA.AperFunction,Conductor*
%ADD34C,1.600000*%
G04 #@! TD*
G04 #@! TA.AperFunction,Conductor*
%ADD35C,2.400000*%
G04 #@! TD*
G04 #@! TA.AperFunction,Conductor*
%ADD36C,1.000000*%
G04 #@! TD*
G04 APERTURE END LIST*
D10*
X11186429Y-27963645D03*
X12982480Y-29759696D03*
X24465895Y-14684179D03*
X26261946Y-16480230D03*
X3592102Y-20369318D03*
X5388154Y-22165369D03*
X16871568Y-7089852D03*
X18667619Y-8885904D03*
D11*
X7633218Y-3037422D03*
X449013Y-10221627D03*
D12*
X-8565000Y7925000D03*
X-6025000Y7925000D03*
D11*
X21552615Y-11568665D03*
X14368410Y-18752870D03*
D13*
X-10686505Y-16867016D03*
X-17870710Y-9682811D03*
D14*
X-6375982Y-10760442D03*
X-2840448Y-7224908D03*
D15*
X8966000Y-37870000D03*
X8966000Y-31370000D03*
D16*
X13304214Y17334325D03*
X15100265Y15538274D03*
X16896316Y13742223D03*
X18692368Y11946171D03*
X20488419Y10150120D03*
X22284470Y8354069D03*
D17*
X4939142Y-14711755D03*
D18*
X-2245063Y-21895960D03*
D11*
X20904000Y-28524000D03*
X13719795Y-35708205D03*
D19*
X-4742929Y-16085071D03*
X-6538980Y-14289020D03*
D13*
X24785507Y-8335773D03*
X26581558Y-6539722D03*
X-9070059Y-8066365D03*
X-7274008Y-6270314D03*
D20*
X-13859293Y-24470537D03*
D21*
X-11285424Y-27044406D03*
D20*
X-12063242Y-22674486D03*
D21*
X-9489373Y-25248355D03*
D20*
X-10267191Y-20878434D03*
D21*
X-7693322Y-23452304D03*
D20*
X-8471140Y-19082383D03*
D21*
X-5897270Y-21656252D03*
D13*
X-15987102Y-3222102D03*
X-14191051Y-1426051D03*
X-12395000Y370000D03*
X-10598948Y2166052D03*
D22*
X4648000Y15545000D03*
X-5512000Y15545000D03*
D23*
X-686000Y-26810210D03*
D24*
X-686000Y-32810210D03*
D25*
X4114000Y-29310210D03*
D19*
X-17192193Y-28979484D03*
X-18988244Y-27183433D03*
D16*
X1091067Y-3859079D03*
X8275272Y3325126D03*
D26*
X-19666761Y-11478862D03*
X-12482556Y-18663067D03*
D27*
X-2210000Y11735000D03*
X330000Y11735000D03*
D20*
X6125667Y-8893680D03*
X7921718Y14454986D03*
X737514Y7270781D03*
X-1058538Y5474730D03*
X-10038794Y-3505526D03*
X-11834845Y-5301578D03*
X-1058538Y-16077885D03*
D28*
X20303157Y6372755D03*
D29*
X2887118Y8713279D03*
X17255528Y1529074D03*
X12765400Y13203407D03*
X10969348Y14999458D03*
D20*
X18698026Y3678678D03*
D28*
X16711055Y9964858D03*
X18507106Y8168807D03*
D20*
X13309872Y-1709475D03*
D28*
X14915004Y11760909D03*
D12*
X-27356000Y-3378000D03*
X-24816000Y-3378000D03*
D30*
X-10561000Y-34680663D03*
D31*
X-21552615Y-16956819D03*
D32*
X-24816000Y-6329623D02*
X-19666761Y-11478862D01*
X-24816000Y-3378000D02*
X-24816000Y-6329622D01*
X-24816000Y-3378000D02*
X-24816000Y-6329623D01*
D33*
X15176633Y-8784785D02*
X22001628Y-1959791D01*
X9249663Y-14711755D02*
X4939142Y-14711755D01*
X15176633Y-8784785D02*
X16871567Y-7089851D01*
X22001628Y-1959791D02*
X26581558Y-6539721D01*
X22001628Y375077D02*
X19051579Y3325126D01*
X18667620Y-8885902D02*
X16871567Y-7089851D01*
X15176633Y-8784785D02*
X9249663Y-14711755D01*
X22001628Y-1959791D02*
X22001628Y375077D01*
D34*
X14561451Y11407356D02*
X14561451Y11407358D01*
X14561451Y11407358D02*
X16896316Y13742223D01*
D33*
X13663425Y-2063028D02*
X8275271Y3325126D01*
D32*
X14545369Y-22165369D02*
X5388154Y-22165369D01*
D33*
X3592103Y-20369316D02*
X5388154Y-22165369D01*
X-5960912Y-21267342D02*
X-6286180Y-21267342D01*
D32*
X20904000Y-28524000D02*
X14545369Y-22165369D01*
D33*
X5388154Y-22165369D02*
X2418745Y-19195960D01*
X-3889530Y-19195960D02*
X-5960912Y-21267342D01*
X2418745Y-19195960D02*
X-3889530Y-19195960D01*
X-608981Y-26810211D02*
X-628618Y-26790574D01*
D35*
X-686000Y-26810210D02*
X-686000Y-23455023D01*
X-686000Y-23455023D02*
X-2245063Y-21895960D01*
D33*
X-9878282Y-21267343D02*
X-9878282Y-21183814D01*
X-9878282Y-21183814D02*
X-12440792Y-18621303D01*
D32*
X-12901179Y-27882343D02*
X-11674333Y-26655497D01*
X-16095052Y-27882343D02*
X-12901179Y-27882343D01*
X-17192193Y-28979484D02*
X-16095052Y-27882343D01*
X-3697447Y-15039589D02*
X-4742929Y-16085071D01*
D33*
X-8082230Y-19471292D02*
X-10686505Y-16867016D01*
D32*
X-8082231Y-19471292D02*
X-8082231Y-19424373D01*
X-8082231Y-19424373D02*
X-4742929Y-16085071D01*
X449013Y-10221627D02*
X-3697447Y-14368087D01*
X-3697447Y-14368087D02*
X-3697447Y-15039589D01*
D36*
X24785507Y-8335773D02*
X21552615Y-11568665D01*
D33*
X-12233318Y-11907705D02*
X-12233318Y-9972389D01*
X-16802614Y-16477001D02*
X-12233318Y-11907705D01*
X-11481292Y-5655130D02*
X-9698677Y-7437747D01*
X-21812508Y-28601809D02*
X-21812507Y-25937075D01*
X-13063386Y-4073036D02*
X-15136168Y-4073036D01*
X-11481292Y-5655130D02*
X-13063386Y-4073036D01*
X-16802614Y-20927181D02*
X-16802614Y-16477001D01*
X-9698677Y-7437747D02*
X-7902625Y-9233798D01*
X-21812507Y-25937075D02*
X-16802614Y-20927181D01*
X-6375982Y-10760442D02*
X-9070059Y-8066365D01*
X-15136168Y-4073036D02*
X-15987102Y-3222102D01*
X-15733653Y-34680664D02*
X-21812508Y-28601809D01*
X-12233318Y-9972389D02*
X-9698677Y-7437747D01*
X-9722988Y-34680663D02*
X-15733653Y-34680664D01*
X-9685241Y-3859079D02*
X-7902625Y-5641696D01*
X-7274007Y-6270314D02*
X-6319413Y-7224908D01*
X-7274007Y-6270314D02*
X-9685241Y-3859079D01*
X-6319413Y-7224908D02*
X-2840448Y-7224908D01*
X-5693498Y2925485D02*
X-9839514Y2925485D01*
X-1885853Y-882159D02*
X-5693498Y2925485D01*
X6479220Y-9247233D02*
X-1885853Y-882159D01*
X-9839514Y2925485D02*
X-10598948Y2166051D01*
D36*
X4041115Y2350732D02*
X4041115Y4562463D01*
X4041115Y554681D02*
X7633218Y-3037422D01*
X8564576Y13812129D02*
X8275271Y14101433D01*
X4041115Y2350732D02*
X4041115Y554681D01*
X4041115Y4562463D02*
X8564576Y9085924D01*
X8564576Y9085924D02*
X8564576Y13812129D01*
D34*
X-8565000Y12492000D02*
X-8565000Y7925000D01*
X-5512000Y15545000D02*
X-8565000Y12492000D01*
X-3508808Y7925000D02*
X-704985Y5121177D01*
X-6025000Y7925000D02*
X-3508808Y7925000D01*
X16357502Y9611305D02*
X18692368Y11946171D01*
X18153553Y7815254D02*
X20488419Y10150120D01*
X19949604Y6019202D02*
X19949604Y6019203D01*
X19949604Y6019203D02*
X22284470Y8354069D01*
X-2210000Y10218295D02*
X-2210000Y11735000D01*
X1091067Y6917228D02*
X-2210000Y10218295D01*
D32*
X-4486000Y-33970008D02*
X-586008Y-37870000D01*
X8966000Y-37870000D02*
X11558000Y-37870000D01*
X6680000Y-37870000D02*
X3124000Y-37870000D01*
X3124000Y-37870000D02*
X1600000Y-37870000D01*
X-9878282Y-24859446D02*
X-8082231Y-23063395D01*
X6680000Y-37870000D02*
X8966000Y-37870000D01*
X1600000Y-37870000D02*
X99992Y-37870000D01*
X-586008Y-37870000D02*
X1600000Y-37870000D01*
X-9878282Y-24859446D02*
X-4486000Y-30251728D01*
X-586008Y-37870000D02*
X3124000Y-37870000D01*
X-4486000Y-30251728D02*
X-4486000Y-33970008D01*
X11558000Y-37870000D02*
X13719795Y-35708205D01*
G04 #@! TA.AperFunction,Conductor*
G36*
X384752Y29980385D02*
G01*
X1158665Y29938903D01*
X1464780Y29922113D01*
X2150826Y29860721D01*
X2363927Y29841204D01*
X2543585Y29824750D01*
X2593622Y29818466D01*
X3189577Y29743611D01*
X3618112Y29688519D01*
X4239979Y29587748D01*
X4687014Y29513593D01*
X5262651Y29399092D01*
X5291933Y29393267D01*
X5748910Y29300198D01*
X6340379Y29160431D01*
X6802390Y29048619D01*
X7382193Y28889557D01*
X7846056Y28759191D01*
X8244650Y28634383D01*
X8415036Y28581032D01*
X8878609Y28432278D01*
X9437267Y28235195D01*
X9898627Y28068333D01*
X10447062Y27852550D01*
X10904854Y27667807D01*
X11443005Y27433558D01*
X11666924Y27333536D01*
X11895942Y27231237D01*
X12423552Y26978808D01*
X12840800Y26773834D01*
X12870614Y26759187D01*
X13387425Y26488848D01*
X13827590Y26252281D01*
X14333269Y25964325D01*
X14765582Y25711208D01*
X15259799Y25405919D01*
X15683409Y25136655D01*
X16165715Y24814388D01*
X16579940Y24529327D01*
X17049803Y24190508D01*
X17453861Y23890123D01*
X17801821Y23619819D01*
X17910959Y23535038D01*
X18304147Y23219800D01*
X18747978Y22848880D01*
X19129668Y22519251D01*
X19349101Y22322145D01*
X19559749Y22132929D01*
X19929323Y21789417D01*
X20345254Y21388076D01*
X20702075Y21031255D01*
X21103416Y20615324D01*
X21446928Y20245750D01*
X21833235Y19815686D01*
X22162874Y19433983D01*
X22323824Y19241397D01*
X22533790Y18990159D01*
X22849037Y18596960D01*
X23127826Y18238077D01*
X23204082Y18139913D01*
X23204109Y18139879D01*
X23504514Y17735794D01*
X23843320Y17265950D01*
X24039677Y16980621D01*
X24128397Y16851702D01*
X24342839Y16530767D01*
X24450639Y16369432D01*
X24719897Y15945835D01*
X24899411Y15655228D01*
X25025207Y15451583D01*
X25278324Y15019270D01*
X25566280Y14513591D01*
X25802847Y14073426D01*
X26073186Y13556615D01*
X26292799Y13109571D01*
X26545230Y12581955D01*
X26747557Y12129006D01*
X26981806Y11590855D01*
X27166547Y11133070D01*
X27382324Y10584650D01*
X27549212Y10123216D01*
X27746276Y9564613D01*
X27895031Y9101037D01*
X28073189Y8532059D01*
X28203569Y8068148D01*
X28362605Y7488437D01*
X28362616Y7488399D01*
X28474451Y7026288D01*
X28545525Y6725519D01*
X28613721Y6436925D01*
X28614192Y6434935D01*
X28644261Y6287298D01*
X28707266Y5977934D01*
X28827588Y5373039D01*
X28901754Y4925937D01*
X29002518Y4304116D01*
X29057650Y3875259D01*
X29138749Y3229586D01*
X29174757Y2836405D01*
X29236111Y2150792D01*
X29252904Y1844641D01*
X29294385Y1070752D01*
X29313500Y0D01*
X29313500Y-12000000D01*
X29294385Y-13070752D01*
X29252904Y-13844640D01*
X29236111Y-14150791D01*
X29174757Y-14836404D01*
X29138749Y-15229585D01*
X29057650Y-15875258D01*
X29002518Y-16304115D01*
X28901754Y-16925936D01*
X28827588Y-17373038D01*
X28707266Y-17977933D01*
X28614199Y-18434902D01*
X28590467Y-18535332D01*
X28474451Y-19026287D01*
X28362616Y-19488398D01*
X28203574Y-20068129D01*
X28073189Y-20532058D01*
X27895031Y-21101036D01*
X27746276Y-21564612D01*
X27549212Y-22123215D01*
X27382324Y-22584649D01*
X27166547Y-23133069D01*
X26981806Y-23590854D01*
X26747557Y-24129005D01*
X26545230Y-24581954D01*
X26292799Y-25109570D01*
X26073186Y-25556614D01*
X25802847Y-26073425D01*
X25566280Y-26513590D01*
X25278324Y-27019269D01*
X25025207Y-27451582D01*
X24719909Y-27945815D01*
X24450646Y-28369421D01*
X24128408Y-28851685D01*
X23843320Y-29265949D01*
X23504514Y-29735793D01*
X23204109Y-30139878D01*
X22849037Y-30596959D01*
X22533790Y-30990158D01*
X22162887Y-31433968D01*
X21833235Y-31815685D01*
X21446928Y-32245749D01*
X21103416Y-32615323D01*
X20702075Y-33031254D01*
X20345254Y-33388075D01*
X19929323Y-33789416D01*
X19559749Y-34132928D01*
X19129685Y-34519235D01*
X18747968Y-34848887D01*
X18304158Y-35219790D01*
X17910959Y-35535037D01*
X17453878Y-35890109D01*
X17049793Y-36190514D01*
X16579949Y-36529320D01*
X16165685Y-36814408D01*
X15683421Y-37136646D01*
X15259815Y-37405909D01*
X14765582Y-37711207D01*
X14333269Y-37964324D01*
X13869272Y-38228544D01*
X13765421Y-38264446D01*
X13655613Y-38260409D01*
X13554679Y-38216977D01*
X13476249Y-38140016D01*
X13430918Y-38039920D01*
X13424806Y-37930208D01*
X13458740Y-37825697D01*
X13509888Y-37757295D01*
X13841208Y-37425975D01*
X13931858Y-37363880D01*
X13943913Y-37358868D01*
X14062048Y-37312773D01*
X14268550Y-37189723D01*
X14406045Y-37073271D01*
X14406046Y-37073271D01*
X14530838Y-36948479D01*
X15084857Y-36394459D01*
X15201313Y-36256960D01*
X15324362Y-36050458D01*
X15411744Y-35826519D01*
X15461074Y-35591251D01*
X15471008Y-35351073D01*
X15441274Y-35112535D01*
X15372684Y-34882145D01*
X15267108Y-34666186D01*
X15127427Y-34470550D01*
X14957450Y-34300573D01*
X14761814Y-34160892D01*
X14545855Y-34055316D01*
X14315465Y-33986726D01*
X14315462Y-33986725D01*
X14315460Y-33986725D01*
X14076929Y-33956992D01*
X14076928Y-33956991D01*
X13836753Y-33966925D01*
X13601479Y-34016256D01*
X13377543Y-34103637D01*
X13377541Y-34103638D01*
X13171047Y-34226681D01*
X13171040Y-34226687D01*
X13033541Y-34343143D01*
X12494540Y-34882143D01*
X12354729Y-35021954D01*
X12354729Y-35021955D01*
X12238275Y-35159452D01*
X12115226Y-35365952D01*
X12069141Y-35484057D01*
X12011068Y-35577340D01*
X12002021Y-35586792D01*
X11247682Y-36341132D01*
X11157030Y-36403230D01*
X11050066Y-36428388D01*
X10941238Y-36413207D01*
X10845242Y-36359738D01*
X10791329Y-36301204D01*
X10754495Y-36248599D01*
X10587400Y-36081504D01*
X10477908Y-36004837D01*
X10393830Y-35945965D01*
X10393828Y-35945964D01*
X10393821Y-35945960D01*
X10179665Y-35846098D01*
X10179663Y-35846097D01*
X10073730Y-35817712D01*
X9951410Y-35784937D01*
X9774968Y-35769500D01*
X9774966Y-35769500D01*
X8157034Y-35769500D01*
X8157032Y-35769500D01*
X7980590Y-35784937D01*
X7980589Y-35784937D01*
X7825404Y-35826519D01*
X7752337Y-35846097D01*
X7752336Y-35846097D01*
X7752334Y-35846098D01*
X7752333Y-35846098D01*
X7538178Y-35945960D01*
X7538171Y-35945964D01*
X7344599Y-36081504D01*
X7177504Y-36248599D01*
X7042085Y-36441999D01*
X6963593Y-36518896D01*
X6862623Y-36562245D01*
X6797158Y-36569500D01*
X76527Y-36569500D01*
X-31484Y-36549309D01*
X-124908Y-36491464D01*
X-134898Y-36481925D01*
X-3097925Y-33518898D01*
X-3160023Y-33428245D01*
X-3185181Y-33321282D01*
X-3185500Y-33307473D01*
X-3185500Y-30372832D01*
X-3185499Y-30372811D01*
X-3185499Y-30137951D01*
X-3185499Y-30137949D01*
X-3194269Y-30088216D01*
X-3195965Y-30075334D01*
X-3200365Y-30025036D01*
X-3213433Y-29976268D01*
X-3216252Y-29963550D01*
X-3225015Y-29913848D01*
X-3234035Y-29889066D01*
X-3242278Y-29866421D01*
X-3246199Y-29853983D01*
X-3259261Y-29805232D01*
X-3273291Y-29775146D01*
X-3280587Y-29759499D01*
X-3285582Y-29747441D01*
X-3299374Y-29709547D01*
X-3302844Y-29700013D01*
X-3328087Y-29656292D01*
X-3334095Y-29644753D01*
X-3355432Y-29598994D01*
X-3384382Y-29557650D01*
X-3391391Y-29546646D01*
X-3402969Y-29526594D01*
X-3416624Y-29502942D01*
X-3438641Y-29476703D01*
X-3449059Y-29464287D01*
X-3457004Y-29453933D01*
X-3485948Y-29412595D01*
X-3485949Y-29412594D01*
X-3485951Y-29412592D01*
X-3485953Y-29412589D01*
X-3646861Y-29251681D01*
X-3646862Y-29251680D01*
X-3651525Y-29247017D01*
X-3651551Y-29246993D01*
X-7054719Y-25843824D01*
X-7116817Y-25753171D01*
X-7141975Y-25646208D01*
X-7126794Y-25537379D01*
X-7073325Y-25441384D01*
X-6988789Y-25371186D01*
X-6920687Y-25343590D01*
X-6782210Y-25306485D01*
X-6553926Y-25203743D01*
X-6345080Y-25065711D01*
X-6161080Y-24895967D01*
X-6006691Y-24698904D01*
X-5885912Y-24479628D01*
X-5801872Y-24243818D01*
X-5756748Y-23997579D01*
X-5755207Y-23921080D01*
X-5754636Y-23892735D01*
X-5732275Y-23785152D01*
X-5672560Y-23692912D01*
X-5583557Y-23628472D01*
X-5485752Y-23601269D01*
X-5477040Y-23600388D01*
X-5477037Y-23600389D01*
X-5227966Y-23575226D01*
X-4986158Y-23510433D01*
X-4757874Y-23407691D01*
X-4549028Y-23269659D01*
X-4365028Y-23099915D01*
X-4211087Y-22903422D01*
X-4128584Y-22830854D01*
X-4025433Y-22792986D01*
X-3915568Y-22794938D01*
X-3813828Y-22836446D01*
X-3733952Y-22911904D01*
X-3722553Y-22928746D01*
X-3697813Y-22968119D01*
X-3697804Y-22968132D01*
X-3565853Y-23121462D01*
X-3565854Y-23121462D01*
X-2574075Y-24113240D01*
X-2511977Y-24203893D01*
X-2486819Y-24310856D01*
X-2486500Y-24324665D01*
X-2486500Y-24484027D01*
X-2506691Y-24592038D01*
X-2564536Y-24685462D01*
X-2652224Y-24751681D01*
X-2724662Y-24776772D01*
X-2754020Y-24782873D01*
X-2754029Y-24782875D01*
X-2754032Y-24782876D01*
X-2754035Y-24782876D01*
X-2754035Y-24782877D01*
X-3024797Y-24879106D01*
X-3024810Y-24879111D01*
X-3279933Y-25011306D01*
X-3514706Y-25177026D01*
X-3724708Y-25373156D01*
X-3906050Y-25596056D01*
X-3906059Y-25596068D01*
X-4055360Y-25841582D01*
X-4055364Y-25841589D01*
X-4169843Y-26105148D01*
X-4247372Y-26381854D01*
X-4286500Y-26666531D01*
X-4286500Y-26953888D01*
X-4247372Y-27238565D01*
X-4247371Y-27238568D01*
X-4182133Y-27471409D01*
X-4169843Y-27515271D01*
X-4055364Y-27778830D01*
X-4055360Y-27778837D01*
X-3932859Y-27980281D01*
X-3906055Y-28024357D01*
X-3906050Y-28024363D01*
X-3724708Y-28247263D01*
X-3514706Y-28443393D01*
X-3514700Y-28443397D01*
X-3514698Y-28443399D01*
X-3378428Y-28539588D01*
X-3279933Y-28609113D01*
X-3024810Y-28741308D01*
X-3024801Y-28741312D01*
X-3024797Y-28741314D01*
X-2871359Y-28795846D01*
X-2754033Y-28837544D01*
X-2538220Y-28882390D01*
X-2472686Y-28896008D01*
X-2257752Y-28910710D01*
X-2257747Y-28910710D01*
X885747Y-28910710D01*
X885752Y-28910710D01*
X1100686Y-28896008D01*
X1382032Y-28837544D01*
X1614374Y-28754969D01*
X1722906Y-28737824D01*
X1830307Y-28761044D01*
X1922067Y-28821493D01*
X1985795Y-28911007D01*
X2012882Y-29017499D01*
X2013500Y-29036706D01*
X2013500Y-30381957D01*
X2028201Y-30596895D01*
X2086665Y-30878242D01*
X2182897Y-31149010D01*
X2182901Y-31149019D01*
X2315096Y-31404142D01*
X2480816Y-31638915D01*
X2645909Y-31815685D01*
X2676947Y-31848918D01*
X2899853Y-32030265D01*
X2899858Y-32030268D01*
X3145372Y-32179569D01*
X3145379Y-32179573D01*
X3277158Y-32236812D01*
X3408942Y-32294054D01*
X3685642Y-32371581D01*
X3970322Y-32410710D01*
X4257678Y-32410710D01*
X4542358Y-32371581D01*
X4819058Y-32294054D01*
X5082625Y-32179571D01*
X5328147Y-32030265D01*
X5551053Y-31848918D01*
X5675534Y-31715631D01*
X5747183Y-31638915D01*
X5747184Y-31638912D01*
X5747189Y-31638908D01*
X5912901Y-31404146D01*
X6045104Y-31149007D01*
X6141334Y-30878242D01*
X6199798Y-30596896D01*
X6214500Y-30381962D01*
X6214500Y-28238458D01*
X6199798Y-28023524D01*
X6180016Y-27928327D01*
X6141334Y-27742177D01*
X6060690Y-27515268D01*
X6045104Y-27471413D01*
X6045102Y-27471409D01*
X6045098Y-27471400D01*
X5912903Y-27216277D01*
X5839417Y-27112170D01*
X5747189Y-26981512D01*
X5747187Y-26981510D01*
X5747183Y-26981504D01*
X5551053Y-26771502D01*
X5526805Y-26751775D01*
X5328147Y-26590155D01*
X5328143Y-26590152D01*
X5328141Y-26590151D01*
X5082627Y-26440850D01*
X5082620Y-26440846D01*
X4819061Y-26326367D01*
X4819059Y-26326366D01*
X4819058Y-26326366D01*
X4680708Y-26287602D01*
X4542355Y-26248838D01*
X4257678Y-26209710D01*
X3970322Y-26209710D01*
X3685644Y-26248838D01*
X3408935Y-26326368D01*
X3233921Y-26402387D01*
X3126808Y-26426900D01*
X3018073Y-26411063D01*
X2922402Y-26357016D01*
X2852715Y-26272058D01*
X2826888Y-26208810D01*
X2797844Y-26105152D01*
X2683363Y-25841589D01*
X2683359Y-25841582D01*
X2628180Y-25750845D01*
X2534055Y-25596063D01*
X2352708Y-25373157D01*
X2341540Y-25362727D01*
X2142705Y-25177026D01*
X2101955Y-25148262D01*
X2047090Y-25109534D01*
X1907932Y-25011306D01*
X1652809Y-24879111D01*
X1652799Y-24879107D01*
X1652797Y-24879106D01*
X1382032Y-24782876D01*
X1382024Y-24782874D01*
X1382019Y-24782873D01*
X1352662Y-24776772D01*
X1251019Y-24735027D01*
X1171319Y-24659382D01*
X1124327Y-24560055D01*
X1114500Y-24484027D01*
X1114500Y-23488698D01*
X1115354Y-23465869D01*
X1118286Y-23387511D01*
X1106950Y-23286904D01*
X1099383Y-23185920D01*
X1093727Y-23161145D01*
X1090917Y-23144602D01*
X1088073Y-23119360D01*
X1088072Y-23119350D01*
X1061868Y-23021559D01*
X1039334Y-22922828D01*
X1030043Y-22899156D01*
X1024806Y-22883242D01*
X1018227Y-22858688D01*
X977736Y-22765880D01*
X940743Y-22671625D01*
X928041Y-22649624D01*
X920480Y-22634646D01*
X910315Y-22611348D01*
X856435Y-22525598D01*
X805815Y-22437921D01*
X789969Y-22418051D01*
X780260Y-22404367D01*
X766741Y-22382851D01*
X737544Y-22348923D01*
X700685Y-22306091D01*
X637564Y-22226941D01*
X637555Y-22226932D01*
X563340Y-22158071D01*
X-387846Y-21206885D01*
X-449944Y-21116232D01*
X-475102Y-21009269D01*
X-459921Y-20900440D01*
X-406452Y-20804445D01*
X-321916Y-20734247D01*
X-217730Y-20699327D01*
X-176421Y-20696460D01*
X1563015Y-20696460D01*
X1671026Y-20716651D01*
X1764450Y-20774496D01*
X1830669Y-20862184D01*
X1855651Y-20934100D01*
X1856872Y-20939926D01*
X1907797Y-21110977D01*
X1927828Y-21178261D01*
X2037043Y-21401664D01*
X2037044Y-21401666D01*
X2037046Y-21401669D01*
X2037050Y-21401676D01*
X2181531Y-21604033D01*
X2181534Y-21604037D01*
X2181537Y-21604040D01*
X2181540Y-21604044D01*
X2357376Y-21779880D01*
X2357379Y-21779882D01*
X2357382Y-21779885D01*
X2357386Y-21779888D01*
X2559743Y-21924369D01*
X2559750Y-21924373D01*
X2559756Y-21924377D01*
X2783159Y-22033592D01*
X3021491Y-22104547D01*
X3129620Y-22118024D01*
X3234303Y-22151419D01*
X3304061Y-22203303D01*
X3554167Y-22453409D01*
X3616265Y-22544062D01*
X3639446Y-22627848D01*
X3642161Y-22649624D01*
X3652925Y-22735980D01*
X3723880Y-22974312D01*
X3833095Y-23197715D01*
X3833096Y-23197717D01*
X3833098Y-23197720D01*
X3833102Y-23197727D01*
X3977583Y-23400084D01*
X3977586Y-23400088D01*
X3977589Y-23400091D01*
X3977592Y-23400095D01*
X4153428Y-23575931D01*
X4153431Y-23575933D01*
X4153434Y-23575936D01*
X4153438Y-23575939D01*
X4355795Y-23720420D01*
X4355802Y-23720424D01*
X4355808Y-23720428D01*
X4579211Y-23829643D01*
X4817543Y-23900598D01*
X5064301Y-23931355D01*
X5064302Y-23931356D01*
X5064302Y-23931355D01*
X5064303Y-23931356D01*
X5312761Y-23921080D01*
X5556138Y-23870048D01*
X5659688Y-23829643D01*
X5787792Y-23779658D01*
X5787795Y-23779655D01*
X5787798Y-23779655D01*
X6001418Y-23652365D01*
X6061747Y-23601269D01*
X6137978Y-23536706D01*
X6233449Y-23482306D01*
X6331220Y-23465869D01*
X13882834Y-23465869D01*
X13990845Y-23486060D01*
X14084269Y-23543905D01*
X14094259Y-23553444D01*
X19070737Y-28529922D01*
X19132835Y-28620575D01*
X19157993Y-28727538D01*
X19158057Y-28753702D01*
X19152787Y-28881132D01*
X19182521Y-29119673D01*
X19244778Y-29328790D01*
X19251111Y-29350061D01*
X19356687Y-29566019D01*
X19496368Y-29761655D01*
X19666345Y-29931632D01*
X19861981Y-30071313D01*
X20077939Y-30176889D01*
X20209140Y-30215949D01*
X20308326Y-30245478D01*
X20308327Y-30245478D01*
X20308330Y-30245479D01*
X20546865Y-30275212D01*
X20546866Y-30275213D01*
X20546867Y-30275212D01*
X20546868Y-30275213D01*
X20787046Y-30265279D01*
X21022314Y-30215949D01*
X21246253Y-30128568D01*
X21452755Y-30005518D01*
X21590250Y-29889066D01*
X21590251Y-29889066D01*
X21756329Y-29722988D01*
X22269062Y-29210254D01*
X22385518Y-29072755D01*
X22508567Y-28866253D01*
X22595949Y-28642314D01*
X22645279Y-28407046D01*
X22655213Y-28166868D01*
X22625479Y-27928330D01*
X22556889Y-27697940D01*
X22451313Y-27481981D01*
X22311632Y-27286345D01*
X22141655Y-27116368D01*
X21946019Y-26976687D01*
X21730060Y-26871111D01*
X21499670Y-26802521D01*
X21499667Y-26802520D01*
X21499665Y-26802520D01*
X21261134Y-26772787D01*
X21261132Y-26772786D01*
X21133702Y-26778057D01*
X21024949Y-26762346D01*
X20929214Y-26708410D01*
X20909922Y-26690737D01*
X15550012Y-21330827D01*
X15550003Y-21330817D01*
X15384509Y-21165323D01*
X15384508Y-21165322D01*
X15343157Y-21136368D01*
X15332817Y-21128433D01*
X15294158Y-21095994D01*
X15294153Y-21095991D01*
X15250441Y-21070754D01*
X15239438Y-21063744D01*
X15235626Y-21061075D01*
X15198103Y-21034801D01*
X15152365Y-21013472D01*
X15140803Y-21007454D01*
X15097084Y-20982213D01*
X15097079Y-20982211D01*
X15049656Y-20964951D01*
X15037599Y-20959956D01*
X14991870Y-20938631D01*
X14943106Y-20925565D01*
X14930672Y-20921644D01*
X14911029Y-20914495D01*
X14883254Y-20904385D01*
X14883249Y-20904384D01*
X14833548Y-20895620D01*
X14820813Y-20892796D01*
X14811122Y-20890200D01*
X14772064Y-20879734D01*
X14772068Y-20879734D01*
X14721786Y-20875334D01*
X14708855Y-20873632D01*
X14659155Y-20864868D01*
X14659148Y-20864868D01*
X14431590Y-20864868D01*
X14425466Y-20864868D01*
X14425442Y-20864869D01*
X6856791Y-20864869D01*
X6748780Y-20844678D01*
X6655356Y-20786833D01*
X6645366Y-20777294D01*
X6622880Y-20754808D01*
X6591302Y-20732261D01*
X6420500Y-20610310D01*
X6197097Y-20501095D01*
X5958765Y-20430141D01*
X5850633Y-20416661D01*
X5745950Y-20383265D01*
X5676196Y-20331383D01*
X5426086Y-20081273D01*
X5363988Y-19990620D01*
X5340807Y-19906831D01*
X5327330Y-19798707D01*
X5256376Y-19560375D01*
X5147161Y-19336972D01*
X5002664Y-19134593D01*
X4826827Y-18958756D01*
X4624448Y-18814259D01*
X4401045Y-18705044D01*
X4401043Y-18705043D01*
X4162714Y-18634090D01*
X4162708Y-18634088D01*
X4054583Y-18620610D01*
X3949899Y-18587213D01*
X3880145Y-18535332D01*
X3552199Y-18207386D01*
X3539930Y-18193493D01*
X3526483Y-18176216D01*
X3526482Y-18176215D01*
X3526475Y-18176208D01*
X3457824Y-18113011D01*
X3435874Y-18091061D01*
X3435871Y-18091058D01*
X3412180Y-18070993D01*
X3372753Y-18034698D01*
X3343534Y-18007799D01*
X3343525Y-18007792D01*
X3325206Y-17995824D01*
X3310344Y-17984742D01*
X3293639Y-17970594D01*
X3293635Y-17970591D01*
X3245209Y-17941736D01*
X3213465Y-17922820D01*
X3135352Y-17871787D01*
X3135347Y-17871784D01*
X3135344Y-17871783D01*
X3115307Y-17862993D01*
X3098825Y-17854509D01*
X3080021Y-17843305D01*
X3080020Y-17843304D01*
X3080019Y-17843304D01*
X2993080Y-17809380D01*
X2970110Y-17799304D01*
X2907631Y-17771898D01*
X2907618Y-17771894D01*
X2886393Y-17766519D01*
X2868741Y-17760863D01*
X2848364Y-17752912D01*
X2757033Y-17733761D01*
X2666569Y-17710852D01*
X2666561Y-17710851D01*
X2644751Y-17709043D01*
X2626413Y-17706371D01*
X2604989Y-17701880D01*
X2604986Y-17701879D01*
X2604982Y-17701879D01*
X2511735Y-17698022D01*
X2480812Y-17695460D01*
X2480809Y-17695460D01*
X2449780Y-17695460D01*
X2356524Y-17691603D01*
X2356523Y-17691603D01*
X2346092Y-17692903D01*
X2334797Y-17694311D01*
X2316289Y-17695460D01*
X929805Y-17695460D01*
X821794Y-17675269D01*
X728370Y-17617424D01*
X662151Y-17529736D01*
X632080Y-17424048D01*
X642219Y-17314635D01*
X667904Y-17252206D01*
X748872Y-17105209D01*
X832912Y-16869399D01*
X878036Y-16623160D01*
X883077Y-16372873D01*
X847904Y-16125018D01*
X773428Y-15886013D01*
X661577Y-15662052D01*
X515248Y-15458933D01*
X-231930Y-14711755D01*
X2777825Y-14711755D01*
X2798463Y-14868517D01*
X2798464Y-14868521D01*
X2858968Y-15014591D01*
X2858975Y-15014602D01*
X2931049Y-15108530D01*
X2931057Y-15108540D01*
X2931061Y-15108544D01*
X2931062Y-15108545D01*
X4542358Y-16719840D01*
X4636299Y-16791925D01*
X4636300Y-16791925D01*
X4636301Y-16791926D01*
X4782380Y-16852434D01*
X4939142Y-16873072D01*
X5095904Y-16852434D01*
X5241983Y-16791926D01*
X5335927Y-16719840D01*
X5755937Y-16299830D01*
X5846590Y-16237732D01*
X5953553Y-16212574D01*
X5967362Y-16212255D01*
X9147207Y-16212255D01*
X9165715Y-16213403D01*
X9187442Y-16216112D01*
X9280698Y-16212255D01*
X9311730Y-16212255D01*
X9342653Y-16209692D01*
X9435900Y-16205836D01*
X9457334Y-16201341D01*
X9475664Y-16198670D01*
X9497484Y-16196863D01*
X9587951Y-16173953D01*
X9679277Y-16154804D01*
X9699661Y-16146849D01*
X9717326Y-16141191D01*
X9727115Y-16138712D01*
X9738544Y-16135818D01*
X9823998Y-16098334D01*
X9910937Y-16064411D01*
X9929748Y-16053201D01*
X9946228Y-16044718D01*
X9966270Y-16035928D01*
X10044383Y-15984894D01*
X10124557Y-15937121D01*
X10141262Y-15922971D01*
X10156113Y-15911897D01*
X10174448Y-15899919D01*
X10243098Y-15836721D01*
X10266787Y-15816659D01*
X10266789Y-15816657D01*
X10288741Y-15794704D01*
X10295002Y-15788940D01*
X10357401Y-15731499D01*
X10370851Y-15714216D01*
X10383121Y-15700324D01*
X11829137Y-14254308D01*
X16191338Y-9892105D01*
X16191351Y-9892094D01*
X16193755Y-9889689D01*
X16193759Y-9889687D01*
X16507498Y-9575946D01*
X16598148Y-9513850D01*
X16705111Y-9488692D01*
X16813940Y-9503873D01*
X16909935Y-9557342D01*
X16980134Y-9641877D01*
X16997776Y-9683740D01*
X16998848Y-9683323D01*
X17003342Y-9694842D01*
X17040672Y-9771200D01*
X17112560Y-9918250D01*
X17112561Y-9918252D01*
X17112563Y-9918255D01*
X17112567Y-9918262D01*
X17257048Y-10120619D01*
X17257051Y-10120623D01*
X17257054Y-10120626D01*
X17257057Y-10120630D01*
X17432893Y-10296466D01*
X17432896Y-10296468D01*
X17432899Y-10296471D01*
X17432903Y-10296474D01*
X17635260Y-10440955D01*
X17635267Y-10440959D01*
X17635273Y-10440963D01*
X17858676Y-10550178D01*
X18097008Y-10621133D01*
X18343766Y-10651890D01*
X18343767Y-10651891D01*
X18343767Y-10651890D01*
X18343768Y-10651891D01*
X18592226Y-10641615D01*
X18835603Y-10590583D01*
X18953123Y-10544727D01*
X19067257Y-10500193D01*
X19067260Y-10500190D01*
X19067263Y-10500190D01*
X19280883Y-10372900D01*
X19382606Y-10286744D01*
X19423112Y-10252439D01*
X19423113Y-10252439D01*
X20034146Y-9641404D01*
X20034147Y-9641403D01*
X20040333Y-9634100D01*
X20154615Y-9499168D01*
X20281904Y-9285548D01*
X20372298Y-9053888D01*
X20423329Y-8810511D01*
X20433606Y-8562053D01*
X20402847Y-8315293D01*
X20395595Y-8290935D01*
X20334892Y-8087035D01*
X20331893Y-8076961D01*
X20222678Y-7853558D01*
X20078181Y-7651179D01*
X19902344Y-7475342D01*
X19699965Y-7330845D01*
X19476562Y-7221630D01*
X19476557Y-7221628D01*
X19476556Y-7221628D01*
X19465037Y-7217133D01*
X19466002Y-7214657D01*
X19386012Y-7173605D01*
X19312978Y-7091507D01*
X19274533Y-6988570D01*
X19275869Y-6878696D01*
X19316806Y-6776724D01*
X19357659Y-6725786D01*
X21790202Y-4293242D01*
X21880855Y-4231145D01*
X21987818Y-4205987D01*
X22096647Y-4221168D01*
X22192642Y-4274637D01*
X22213052Y-4293243D01*
X24100306Y-6180497D01*
X24162404Y-6271150D01*
X24187562Y-6378113D01*
X24172381Y-6486942D01*
X24118912Y-6582937D01*
X24034376Y-6653135D01*
X23974206Y-6678489D01*
X23959453Y-6682881D01*
X23959448Y-6682883D01*
X23959446Y-6682884D01*
X23768732Y-6776119D01*
X23743484Y-6788462D01*
X23547850Y-6928142D01*
X23377876Y-7098116D01*
X23238196Y-7293750D01*
X23132617Y-7509714D01*
X23064028Y-7740099D01*
X23034294Y-7978638D01*
X23034293Y-7978639D01*
X23044227Y-8218814D01*
X23044227Y-8218818D01*
X23044228Y-8218819D01*
X23059033Y-8289429D01*
X23063350Y-8310015D01*
X23065754Y-8419871D01*
X23028311Y-8523177D01*
X22982138Y-8582798D01*
X21818530Y-9746406D01*
X21727877Y-9808504D01*
X21668466Y-9827617D01*
X21591448Y-9843765D01*
X21434298Y-9876716D01*
X21210363Y-9964097D01*
X21210361Y-9964098D01*
X21003867Y-10087141D01*
X21003860Y-10087147D01*
X20866361Y-10203603D01*
X20352197Y-10717766D01*
X20187549Y-10882414D01*
X20187549Y-10882415D01*
X20071095Y-11019912D01*
X19948050Y-11226405D01*
X19948048Y-11226409D01*
X19860665Y-11450353D01*
X19811335Y-11685623D01*
X19801402Y-11925797D01*
X19831136Y-12164338D01*
X19895886Y-12381829D01*
X19899726Y-12394726D01*
X20005302Y-12610684D01*
X20144983Y-12806320D01*
X20314960Y-12976297D01*
X20510596Y-13115978D01*
X20726554Y-13221554D01*
X20857755Y-13260614D01*
X20956941Y-13290143D01*
X20956942Y-13290143D01*
X20956945Y-13290144D01*
X21195480Y-13319877D01*
X21195481Y-13319878D01*
X21195482Y-13319877D01*
X21195483Y-13319878D01*
X21435661Y-13309944D01*
X21670929Y-13260614D01*
X21894868Y-13173233D01*
X22101370Y-13050183D01*
X22238865Y-12933731D01*
X22238866Y-12933731D01*
X22390000Y-12782597D01*
X22917677Y-12254919D01*
X23034133Y-12117420D01*
X23157182Y-11910918D01*
X23244564Y-11686979D01*
X23293663Y-11452808D01*
X23335588Y-11351244D01*
X23374869Y-11302751D01*
X24538482Y-10139138D01*
X24629132Y-10077043D01*
X24736095Y-10051885D01*
X24811263Y-10057930D01*
X24902461Y-10077052D01*
X25142639Y-10086986D01*
X25142639Y-10086985D01*
X25142640Y-10086986D01*
X25142640Y-10086985D01*
X25381177Y-10057252D01*
X25611567Y-9988662D01*
X25827526Y-9883086D01*
X26023162Y-9743405D01*
X26193139Y-9573428D01*
X26332820Y-9377792D01*
X26438396Y-9161833D01*
X26506986Y-8931443D01*
X26536720Y-8692905D01*
X26532799Y-8598113D01*
X26548509Y-8489363D01*
X26602444Y-8393628D01*
X26687320Y-8323842D01*
X26791675Y-8289429D01*
X26843896Y-8287014D01*
X26938690Y-8290935D01*
X27177228Y-8261201D01*
X27407618Y-8192611D01*
X27623577Y-8087035D01*
X27819213Y-7947354D01*
X27989190Y-7777377D01*
X28128871Y-7581741D01*
X28234447Y-7365782D01*
X28303037Y-7135392D01*
X28332771Y-6896854D01*
X28322837Y-6656676D01*
X28273507Y-6421408D01*
X28186125Y-6197469D01*
X28145796Y-6129788D01*
X28063081Y-5990974D01*
X28063078Y-5990970D01*
X28063076Y-5990967D01*
X27946620Y-5853468D01*
X27905443Y-5812291D01*
X27860012Y-5753921D01*
X27806924Y-5664827D01*
X27735551Y-5580557D01*
X27686468Y-5522604D01*
X27686465Y-5522601D01*
X27686460Y-5522595D01*
X23589702Y-1425837D01*
X23527605Y-1335185D01*
X23502447Y-1228222D01*
X23502128Y-1214413D01*
X23502128Y272622D01*
X23503277Y291133D01*
X23505984Y312851D01*
X23505985Y312856D01*
X23503375Y375950D01*
X23502128Y406104D01*
X23502128Y437144D01*
X23499564Y468083D01*
X23495708Y561314D01*
X23491215Y582735D01*
X23488543Y601075D01*
X23486736Y622898D01*
X23463824Y713375D01*
X23444677Y804691D01*
X23436719Y825086D01*
X23431066Y842731D01*
X23425691Y863958D01*
X23388201Y949426D01*
X23363160Y1013601D01*
X23354287Y1036341D01*
X23354286Y1036342D01*
X23354283Y1036351D01*
X23343077Y1055158D01*
X23334598Y1071629D01*
X23325801Y1091684D01*
X23297911Y1134373D01*
X23274762Y1169806D01*
X23226995Y1249969D01*
X23226992Y1249974D01*
X23212844Y1266678D01*
X23201758Y1281546D01*
X23189789Y1299866D01*
X23126594Y1368513D01*
X23106530Y1392203D01*
X23103398Y1395335D01*
X23084577Y1414156D01*
X23021372Y1482815D01*
X23004097Y1496261D01*
X22990198Y1508536D01*
X20465088Y4033645D01*
X20420635Y4090384D01*
X20418145Y4094502D01*
X20418141Y4094511D01*
X20407515Y4109261D01*
X20360763Y4208699D01*
X20353090Y4318313D01*
X20385531Y4423297D01*
X20453707Y4509472D01*
X20516523Y4551525D01*
X20718990Y4652640D01*
X20922109Y4798969D01*
X21832616Y5709476D01*
X21954200Y5852415D01*
X22083710Y6066650D01*
X22132349Y6187506D01*
X22191406Y6280168D01*
X22198273Y6287268D01*
X22683973Y6772968D01*
X22742337Y6818394D01*
X22833225Y6872551D01*
X22970720Y6989003D01*
X22970721Y6989003D01*
X23014127Y7032409D01*
X23649532Y7667815D01*
X23765988Y7805314D01*
X23889037Y8011816D01*
X23976419Y8235755D01*
X24025749Y8471023D01*
X24035683Y8711201D01*
X24005949Y8949739D01*
X23937359Y9180129D01*
X23831783Y9396088D01*
X23692102Y9591724D01*
X23522125Y9761701D01*
X23326489Y9901382D01*
X23110530Y10006958D01*
X22880140Y10075548D01*
X22880137Y10075549D01*
X22880135Y10075549D01*
X22641604Y10105282D01*
X22641602Y10105283D01*
X22546811Y10101362D01*
X22438057Y10117073D01*
X22342323Y10171009D01*
X22272538Y10255886D01*
X22238126Y10360241D01*
X22235711Y10412464D01*
X22239632Y10507252D01*
X22209898Y10745790D01*
X22141308Y10976180D01*
X22035732Y11192139D01*
X21896051Y11387775D01*
X21726074Y11557752D01*
X21530438Y11697433D01*
X21314479Y11803009D01*
X21084089Y11871599D01*
X21084086Y11871600D01*
X21084084Y11871600D01*
X20845553Y11901333D01*
X20845551Y11901334D01*
X20750760Y11897413D01*
X20642006Y11913124D01*
X20546272Y11967060D01*
X20476487Y12051937D01*
X20442075Y12156292D01*
X20439660Y12208515D01*
X20443581Y12303303D01*
X20413847Y12541841D01*
X20345257Y12772231D01*
X20239681Y12988190D01*
X20100000Y13183826D01*
X19930023Y13353803D01*
X19734387Y13493484D01*
X19518428Y13599060D01*
X19288038Y13667650D01*
X19288035Y13667651D01*
X19288033Y13667651D01*
X19049502Y13697384D01*
X19049499Y13697385D01*
X18954707Y13693464D01*
X18845954Y13709175D01*
X18750220Y13763111D01*
X18680435Y13847988D01*
X18646023Y13952343D01*
X18643608Y14004566D01*
X18647529Y14099355D01*
X18617795Y14337893D01*
X18549205Y14568283D01*
X18443629Y14784242D01*
X18303948Y14979878D01*
X18133971Y15149855D01*
X17938335Y15289536D01*
X17722376Y15395112D01*
X17491986Y15463702D01*
X17491983Y15463703D01*
X17491981Y15463703D01*
X17253450Y15493436D01*
X17253448Y15493437D01*
X17158657Y15489516D01*
X17049903Y15505227D01*
X16954169Y15559163D01*
X16884384Y15644040D01*
X16849972Y15748395D01*
X16847557Y15800618D01*
X16851478Y15895406D01*
X16821744Y16133944D01*
X16753154Y16364334D01*
X16647578Y16580293D01*
X16507897Y16775929D01*
X16337920Y16945906D01*
X16142284Y17085587D01*
X15926325Y17191163D01*
X15695935Y17259753D01*
X15695932Y17259754D01*
X15695930Y17259754D01*
X15457399Y17289487D01*
X15457398Y17289488D01*
X15217223Y17279554D01*
X14981949Y17230223D01*
X14758013Y17142842D01*
X14758011Y17142841D01*
X14551517Y17019798D01*
X14551510Y17019792D01*
X14414011Y16903336D01*
X13735202Y16224528D01*
X13719870Y16206425D01*
X13618745Y16087027D01*
X13495700Y15880534D01*
X13495698Y15880530D01*
X13408315Y15656586D01*
X13358985Y15421316D01*
X13349052Y15181142D01*
X13378786Y14942601D01*
X13436134Y14749974D01*
X13447376Y14712213D01*
X13552952Y14496255D01*
X13692633Y14300619D01*
X13862610Y14130642D01*
X14058246Y13990961D01*
X14274204Y13885385D01*
X14274208Y13885384D01*
X14285315Y13879954D01*
X14284575Y13878441D01*
X14365384Y13828138D01*
X14431393Y13740292D01*
X14461211Y13634533D01*
X14450810Y13525144D01*
X14401596Y13426899D01*
X14338196Y13365057D01*
X14296053Y13334697D01*
X13385546Y12424189D01*
X13385545Y12424189D01*
X13263966Y12281259D01*
X13263966Y12281258D01*
X13263961Y12281251D01*
X13263961Y12281250D01*
X13134452Y12067015D01*
X13103247Y11989480D01*
X13040986Y11834782D01*
X12985981Y11590555D01*
X12985981Y11590551D01*
X12970866Y11340681D01*
X12970867Y11340676D01*
X12996030Y11091605D01*
X13050807Y10887179D01*
X13060824Y10849795D01*
X13163564Y10621515D01*
X13163565Y10621513D01*
X13301593Y10412672D01*
X13301597Y10412667D01*
X13471341Y10228667D01*
X13668402Y10074279D01*
X13668404Y10074278D01*
X13887680Y9953499D01*
X14123490Y9869460D01*
X14369729Y9824335D01*
X14474569Y9822224D01*
X14582152Y9799864D01*
X14674392Y9740150D01*
X14738833Y9651147D01*
X14766037Y9553341D01*
X14779395Y9421122D01*
X14792081Y9295554D01*
X14855302Y9059615D01*
X14856875Y9053744D01*
X14959615Y8825464D01*
X14959616Y8825462D01*
X15097644Y8616621D01*
X15097648Y8616616D01*
X15267392Y8432616D01*
X15464453Y8278228D01*
X15464455Y8278227D01*
X15683731Y8157448D01*
X15919541Y8073409D01*
X16165780Y8028284D01*
X16270620Y8026173D01*
X16378203Y8003813D01*
X16470443Y7944099D01*
X16534884Y7855096D01*
X16562088Y7757290D01*
X16571128Y7667815D01*
X16588132Y7499503D01*
X16602734Y7445011D01*
X16652926Y7257693D01*
X16755666Y7029413D01*
X16755667Y7029411D01*
X16893695Y6820570D01*
X16893699Y6820565D01*
X17063443Y6636565D01*
X17260504Y6482177D01*
X17265787Y6479267D01*
X17479782Y6361397D01*
X17715592Y6277358D01*
X17961831Y6232233D01*
X18066671Y6230122D01*
X18174254Y6207762D01*
X18266494Y6148048D01*
X18330935Y6059045D01*
X18358138Y5961242D01*
X18361117Y5931760D01*
X18351887Y5822266D01*
X18303727Y5723501D01*
X18223141Y5648802D01*
X18121012Y5608258D01*
X18093689Y5604216D01*
X18028733Y5597654D01*
X18028725Y5597653D01*
X18028722Y5597652D01*
X17786914Y5532859D01*
X17786912Y5532859D01*
X17786911Y5532858D01*
X17558631Y5430118D01*
X17558629Y5430117D01*
X17349788Y5292089D01*
X17349783Y5292085D01*
X17165783Y5122341D01*
X17011395Y4925280D01*
X16890618Y4706007D01*
X16890615Y4706000D01*
X16806578Y4470197D01*
X16806576Y4470189D01*
X16761452Y4223956D01*
X16761451Y4223944D01*
X16756411Y3973668D01*
X16778369Y3818941D01*
X16791585Y3725810D01*
X16866061Y3486806D01*
X16977911Y3262845D01*
X17124240Y3059726D01*
X18034747Y2149219D01*
X18154052Y2047738D01*
X18177690Y2027632D01*
X18271415Y1970974D01*
X18328157Y1926520D01*
X20413553Y-158876D01*
X20475651Y-249529D01*
X20500809Y-356492D01*
X20501128Y-370301D01*
X20501128Y-1214412D01*
X20480937Y-1322423D01*
X20423092Y-1415847D01*
X20413553Y-1425837D01*
X8715710Y-13123680D01*
X8625057Y-13185778D01*
X8518094Y-13210936D01*
X8504285Y-13211255D01*
X5967361Y-13211255D01*
X5859350Y-13191064D01*
X5765926Y-13133219D01*
X5755936Y-13123680D01*
X5335925Y-12703669D01*
X5241984Y-12631584D01*
X5095904Y-12571076D01*
X4939142Y-12550438D01*
X4782379Y-12571076D01*
X4782375Y-12571077D01*
X4636305Y-12631581D01*
X4636294Y-12631588D01*
X4542366Y-12703662D01*
X4542351Y-12703675D01*
X2931056Y-14314971D01*
X2858971Y-14408912D01*
X2798463Y-14554992D01*
X2777825Y-14711754D01*
X2777825Y-14711755D01*
X-231930Y-14711755D01*
X-395258Y-14548427D01*
X-395258Y-14548426D01*
X-538190Y-14426847D01*
X-538194Y-14426844D01*
X-538197Y-14426842D01*
X-752432Y-14297333D01*
X-845900Y-14259715D01*
X-984669Y-14203865D01*
X-1034071Y-14192739D01*
X-1135006Y-14149309D01*
X-1213437Y-14072349D01*
X-1258770Y-13972254D01*
X-1264883Y-13862542D01*
X-1230952Y-13758030D01*
X-1179801Y-13689624D01*
X570426Y-11939397D01*
X661076Y-11877302D01*
X673131Y-11872290D01*
X791266Y-11826195D01*
X997768Y-11703145D01*
X1135263Y-11586693D01*
X1135264Y-11586693D01*
X1274485Y-11447472D01*
X1814075Y-10907881D01*
X1930531Y-10770382D01*
X1932134Y-10767693D01*
X1972343Y-10700213D01*
X2053580Y-10563880D01*
X2140962Y-10339941D01*
X2190292Y-10104673D01*
X2200226Y-9864495D01*
X2170492Y-9625957D01*
X2101902Y-9395567D01*
X1996326Y-9179608D01*
X1856645Y-8983972D01*
X1686668Y-8813995D01*
X1491032Y-8674314D01*
X1275073Y-8568738D01*
X1252618Y-8562053D01*
X1215650Y-8551047D01*
X1044683Y-8500148D01*
X1044680Y-8500147D01*
X1044678Y-8500147D01*
X806147Y-8470414D01*
X806146Y-8470413D01*
X565971Y-8480347D01*
X330697Y-8529678D01*
X106761Y-8617059D01*
X106759Y-8617060D01*
X-99735Y-8740103D01*
X-99742Y-8740109D01*
X-237241Y-8856565D01*
X-916050Y-9535373D01*
X-950416Y-9575949D01*
X-1032507Y-9672874D01*
X-1155556Y-9879374D01*
X-1201641Y-9997479D01*
X-1259714Y-10090762D01*
X-1268761Y-10100214D01*
X-4536583Y-13368037D01*
X-4697494Y-13528948D01*
X-4697495Y-13528948D01*
X-4726441Y-13570288D01*
X-4734381Y-13580634D01*
X-4766822Y-13619298D01*
X-4766832Y-13619313D01*
X-4792059Y-13663008D01*
X-4799067Y-13674010D01*
X-4828017Y-13715355D01*
X-4849344Y-13761090D01*
X-4855366Y-13772659D01*
X-4880602Y-13816368D01*
X-4897865Y-13863797D01*
X-4902857Y-13875849D01*
X-4924187Y-13921592D01*
X-4937247Y-13970335D01*
X-4941170Y-13982777D01*
X-4958432Y-14030204D01*
X-4967197Y-14079912D01*
X-4970021Y-14092648D01*
X-4983082Y-14141391D01*
X-4983082Y-14141392D01*
X-4985309Y-14166846D01*
X-5014840Y-14272686D01*
X-5080609Y-14360711D01*
X-5130115Y-14397636D01*
X-5193560Y-14435441D01*
X-5193561Y-14435442D01*
X-5335782Y-14555897D01*
X-5335791Y-14555905D01*
X-6272095Y-15492209D01*
X-6272101Y-15492215D01*
X-6272103Y-15492218D01*
X-6392558Y-15634439D01*
X-6392560Y-15634441D01*
X-6519849Y-15848059D01*
X-6519851Y-15848063D01*
X-6608874Y-16076213D01*
X-6666946Y-16169496D01*
X-6675995Y-16178950D01*
X-7752844Y-17255800D01*
X-7843496Y-17317898D01*
X-7950460Y-17343056D01*
X-8059289Y-17327875D01*
X-8155284Y-17274406D01*
X-8175694Y-17255800D01*
X-8870548Y-16560946D01*
X-9669379Y-15762114D01*
X-9671399Y-15760403D01*
X-9811610Y-15641650D01*
X-9811616Y-15641646D01*
X-9900703Y-15588562D01*
X-9959074Y-15543130D01*
X-10000248Y-15501956D01*
X-10000251Y-15501953D01*
X-10137750Y-15385498D01*
X-10137753Y-15385496D01*
X-10344246Y-15262451D01*
X-10344250Y-15262449D01*
X-10344251Y-15262448D01*
X-10344252Y-15262448D01*
X-10568191Y-15175067D01*
X-10568192Y-15175066D01*
X-10568194Y-15175066D01*
X-10706947Y-15145973D01*
X-10803459Y-15125737D01*
X-10803461Y-15125736D01*
X-10803462Y-15125736D01*
X-11043639Y-15115802D01*
X-11043640Y-15115803D01*
X-11282179Y-15145537D01*
X-11512564Y-15214126D01*
X-11728528Y-15319705D01*
X-11924162Y-15459385D01*
X-12094136Y-15629359D01*
X-12233816Y-15824993D01*
X-12339395Y-16040957D01*
X-12407984Y-16271342D01*
X-12437718Y-16509881D01*
X-12437719Y-16509883D01*
X-12433798Y-16604674D01*
X-12449509Y-16713428D01*
X-12503445Y-16809162D01*
X-12588322Y-16878947D01*
X-12692676Y-16913359D01*
X-12744898Y-16915774D01*
X-12839689Y-16911853D01*
X-12839691Y-16911854D01*
X-13078230Y-16941588D01*
X-13308615Y-17010177D01*
X-13524579Y-17115756D01*
X-13720213Y-17255436D01*
X-13890187Y-17425410D01*
X-14029867Y-17621044D01*
X-14135446Y-17837008D01*
X-14204035Y-18067393D01*
X-14233769Y-18305932D01*
X-14233770Y-18305933D01*
X-14223836Y-18546108D01*
X-14223836Y-18546112D01*
X-14223835Y-18546113D01*
X-14174505Y-18781381D01*
X-14128068Y-18900390D01*
X-14087123Y-19005322D01*
X-14087121Y-19005326D01*
X-14010093Y-19134593D01*
X-13964074Y-19211822D01*
X-13847619Y-19349321D01*
X-13168810Y-20028129D01*
X-13121731Y-20068003D01*
X-13089787Y-20095058D01*
X-13080693Y-20103430D01*
X-12858577Y-20325546D01*
X-12796479Y-20416199D01*
X-12771321Y-20523162D01*
X-12786502Y-20631991D01*
X-12839971Y-20727986D01*
X-12924507Y-20798184D01*
X-12969611Y-20818614D01*
X-12974352Y-20820303D01*
X-13202637Y-20923046D01*
X-13202639Y-20923047D01*
X-13411480Y-21061075D01*
X-13411485Y-21061079D01*
X-13595485Y-21230823D01*
X-13749873Y-21427884D01*
X-13870650Y-21647157D01*
X-13870653Y-21647164D01*
X-13954690Y-21882967D01*
X-13954692Y-21882975D01*
X-13999816Y-22129208D01*
X-13999817Y-22129220D01*
X-14004857Y-22379496D01*
X-13969684Y-22627348D01*
X-13969683Y-22627354D01*
X-13895207Y-22866358D01*
X-13783357Y-23090319D01*
X-13637028Y-23293438D01*
X-12726521Y-24203945D01*
X-12583582Y-24325529D01*
X-12583578Y-24325531D01*
X-12583576Y-24325533D01*
X-12369350Y-24455038D01*
X-12369341Y-24455042D01*
X-12137127Y-24548499D01*
X-12137112Y-24548505D01*
X-12051624Y-24567758D01*
X-11950691Y-24611186D01*
X-11872260Y-24688144D01*
X-11826925Y-24788239D01*
X-11820810Y-24897951D01*
X-11854740Y-25002463D01*
X-11924134Y-25087661D01*
X-12019618Y-25142038D01*
X-12039933Y-25148262D01*
X-12196531Y-25190223D01*
X-12196538Y-25190225D01*
X-12424819Y-25292966D01*
X-12424821Y-25292967D01*
X-12633662Y-25430995D01*
X-12633667Y-25430999D01*
X-12817667Y-25600743D01*
X-12972055Y-25797804D01*
X-13092832Y-26017077D01*
X-13092834Y-26017080D01*
X-13176873Y-26252890D01*
X-13179991Y-26264529D01*
X-13183179Y-26263674D01*
X-13214232Y-26344647D01*
X-13257554Y-26399532D01*
X-13352288Y-26494267D01*
X-13442940Y-26556366D01*
X-13549904Y-26581524D01*
X-13563714Y-26581843D01*
X-15975125Y-26581843D01*
X-15975149Y-26581842D01*
X-15981273Y-26581842D01*
X-16208831Y-26581842D01*
X-16208834Y-26581842D01*
X-16208841Y-26581843D01*
X-16258539Y-26590606D01*
X-16271469Y-26592308D01*
X-16312447Y-26595894D01*
X-16321744Y-26596708D01*
X-16321746Y-26596708D01*
X-16321758Y-26596710D01*
X-16370498Y-26609769D01*
X-16383226Y-26612591D01*
X-16432928Y-26621357D01*
X-16432932Y-26621358D01*
X-16480351Y-26638616D01*
X-16492789Y-26642538D01*
X-16541547Y-26655603D01*
X-16541549Y-26655604D01*
X-16587295Y-26676935D01*
X-16599346Y-26681926D01*
X-16646772Y-26699188D01*
X-16690481Y-26724424D01*
X-16702049Y-26730445D01*
X-16747783Y-26751772D01*
X-16789129Y-26780723D01*
X-16800131Y-26787731D01*
X-16843826Y-26812958D01*
X-16843841Y-26812968D01*
X-16882505Y-26845409D01*
X-16892851Y-26853349D01*
X-16934191Y-26882295D01*
X-17098345Y-27046449D01*
X-17189007Y-27108533D01*
X-17201047Y-27113536D01*
X-17429204Y-27202564D01*
X-17642823Y-27329854D01*
X-17642825Y-27329855D01*
X-17785046Y-27450310D01*
X-17785055Y-27450318D01*
X-18721359Y-28386622D01*
X-18721365Y-28386628D01*
X-18721367Y-28386631D01*
X-18841822Y-28528852D01*
X-18841824Y-28528854D01*
X-18969113Y-28742472D01*
X-18974544Y-28753583D01*
X-18977216Y-28752276D01*
X-19023857Y-28827164D01*
X-19111719Y-28893152D01*
X-19217485Y-28922945D01*
X-19326871Y-28912519D01*
X-19425105Y-28863281D01*
X-19455715Y-28836574D01*
X-20224433Y-28067856D01*
X-20286531Y-27977203D01*
X-20311689Y-27870240D01*
X-20312008Y-27856431D01*
X-20312008Y-26682452D01*
X-20291817Y-26574441D01*
X-20233972Y-26481017D01*
X-20224454Y-26471048D01*
X-15814045Y-22060638D01*
X-15800153Y-22048369D01*
X-15782870Y-22034919D01*
X-15719665Y-21966259D01*
X-15697712Y-21944307D01*
X-15677648Y-21920616D01*
X-15614450Y-21851966D01*
X-15602472Y-21833631D01*
X-15591398Y-21818780D01*
X-15577248Y-21802075D01*
X-15529475Y-21721901D01*
X-15478441Y-21643788D01*
X-15469651Y-21623746D01*
X-15461168Y-21607266D01*
X-15449958Y-21588455D01*
X-15416035Y-21501516D01*
X-15378551Y-21416062D01*
X-15373178Y-21394844D01*
X-15367518Y-21377175D01*
X-15359565Y-21356795D01*
X-15340418Y-21265478D01*
X-15317506Y-21175002D01*
X-15315699Y-21153187D01*
X-15313025Y-21134830D01*
X-15308534Y-21113418D01*
X-15304678Y-21020186D01*
X-15302114Y-20989248D01*
X-15302114Y-20958207D01*
X-15300660Y-20923046D01*
X-15298257Y-20864969D01*
X-15298258Y-20864966D01*
X-15298257Y-20864960D01*
X-15300965Y-20843234D01*
X-15302114Y-20824724D01*
X-15302114Y-17222377D01*
X-15281923Y-17114366D01*
X-15224078Y-17020942D01*
X-15214560Y-17010973D01*
X-11244750Y-13041162D01*
X-11230865Y-13028899D01*
X-11213574Y-13015443D01*
X-11150358Y-12946771D01*
X-11128417Y-12924831D01*
X-11108363Y-12901152D01*
X-11045154Y-12832490D01*
X-11033176Y-12814155D01*
X-11022110Y-12799314D01*
X-11007952Y-12782599D01*
X-10960184Y-12702432D01*
X-10909145Y-12624312D01*
X-10900345Y-12604249D01*
X-10891878Y-12587799D01*
X-10880663Y-12568979D01*
X-10846745Y-12482053D01*
X-10809255Y-12396586D01*
X-10803882Y-12375366D01*
X-10798221Y-12357696D01*
X-10790269Y-12337319D01*
X-10771122Y-12246002D01*
X-10748210Y-12155526D01*
X-10746403Y-12133711D01*
X-10743729Y-12115354D01*
X-10739238Y-12093942D01*
X-10735382Y-12000710D01*
X-10732818Y-11969772D01*
X-10732818Y-11938731D01*
X-10732283Y-11925797D01*
X-10728961Y-11845493D01*
X-10728962Y-11845490D01*
X-10728961Y-11845484D01*
X-10731669Y-11823758D01*
X-10732818Y-11805248D01*
X-10732818Y-10717766D01*
X-10712627Y-10609755D01*
X-10654782Y-10516331D01*
X-10645243Y-10506341D01*
X-9910102Y-9771200D01*
X-9819449Y-9709102D01*
X-9712486Y-9683944D01*
X-9603657Y-9699125D01*
X-9507662Y-9752594D01*
X-9487252Y-9771200D01*
X-8065795Y-11192657D01*
X-8003697Y-11283310D01*
X-8000982Y-11289655D01*
X-7997371Y-11298374D01*
X-7997362Y-11298391D01*
X-7865742Y-11513175D01*
X-7865733Y-11513187D01*
X-7791355Y-11600272D01*
X-7743090Y-11656783D01*
X-7272323Y-12127549D01*
X-7128722Y-12250196D01*
X-7128720Y-12250197D01*
X-7128716Y-12250200D01*
X-6939162Y-12366359D01*
X-6913922Y-12381826D01*
X-6797548Y-12430030D01*
X-6681182Y-12478231D01*
X-6681181Y-12478231D01*
X-6681174Y-12478234D01*
X-6436211Y-12537044D01*
X-6436205Y-12537044D01*
X-6436203Y-12537045D01*
X-6185067Y-12556810D01*
X-6185063Y-12556810D01*
X-6185059Y-12556810D01*
X-5933924Y-12537045D01*
X-5933923Y-12537044D01*
X-5933915Y-12537044D01*
X-5688952Y-12478234D01*
X-5456205Y-12381826D01*
X-5241405Y-12250196D01*
X-5049839Y-12086585D01*
X-4886228Y-11895019D01*
X-4754598Y-11680219D01*
X-4658190Y-11447472D01*
X-4599380Y-11202509D01*
X-4599379Y-11202500D01*
X-4579614Y-10951365D01*
X-4579614Y-10951356D01*
X-4599379Y-10700221D01*
X-4599380Y-10700218D01*
X-4599380Y-10700213D01*
X-4658190Y-10455250D01*
X-4664110Y-10440959D01*
X-4754595Y-10222510D01*
X-4754598Y-10222502D01*
X-4766179Y-10203603D01*
X-4886224Y-10007708D01*
X-4886233Y-10007696D01*
X-5008875Y-9864101D01*
X-5479641Y-9393334D01*
X-5623239Y-9270689D01*
X-5629272Y-9266306D01*
X-5704788Y-9186485D01*
X-5746370Y-9084774D01*
X-5748402Y-8974911D01*
X-5710609Y-8871732D01*
X-5638096Y-8789174D01*
X-5540656Y-8738384D01*
X-5453527Y-8725408D01*
X-3659979Y-8725408D01*
X-3551968Y-8745599D01*
X-3503752Y-8769469D01*
X-3378398Y-8846286D01*
X-3378388Y-8846292D01*
X-3262014Y-8894496D01*
X-3145648Y-8942697D01*
X-3145647Y-8942697D01*
X-3145640Y-8942700D01*
X-2900677Y-9001510D01*
X-2900671Y-9001510D01*
X-2900669Y-9001511D01*
X-2649533Y-9021276D01*
X-2649529Y-9021276D01*
X-2649525Y-9021276D01*
X-2398390Y-9001511D01*
X-2398389Y-9001510D01*
X-2398381Y-9001510D01*
X-2153418Y-8942700D01*
X-1920671Y-8846292D01*
X-1705871Y-8714662D01*
X-1514305Y-8551051D01*
X-1350694Y-8359485D01*
X-1219064Y-8144685D01*
X-1122656Y-7911938D01*
X-1063846Y-7666975D01*
X-1062603Y-7651179D01*
X-1044080Y-7415831D01*
X-1044080Y-7415822D01*
X-1063845Y-7164687D01*
X-1063846Y-7164684D01*
X-1063846Y-7164679D01*
X-1122656Y-6919716D01*
X-1138902Y-6880496D01*
X-1219061Y-6686976D01*
X-1219064Y-6686968D01*
X-1221567Y-6682883D01*
X-1350690Y-6472174D01*
X-1350699Y-6472162D01*
X-1473341Y-6328567D01*
X-1944107Y-5857800D01*
X-2087703Y-5735157D01*
X-2087705Y-5735155D01*
X-2087708Y-5735153D01*
X-2177143Y-5680347D01*
X-2302502Y-5603526D01*
X-2302506Y-5603524D01*
X-2302508Y-5603523D01*
X-2412068Y-5558142D01*
X-2535252Y-5507117D01*
X-2554604Y-5502471D01*
X-2780219Y-5448306D01*
X-2780222Y-5448305D01*
X-2780225Y-5448305D01*
X-2780228Y-5448304D01*
X-3031363Y-5428540D01*
X-3031371Y-5428540D01*
X-3282507Y-5448304D01*
X-3282510Y-5448305D01*
X-3282514Y-5448305D01*
X-3282515Y-5448306D01*
X-3404997Y-5477711D01*
X-3527483Y-5507117D01*
X-3760226Y-5603523D01*
X-3760233Y-5603526D01*
X-3885591Y-5680347D01*
X-3988235Y-5719567D01*
X-4041819Y-5724408D01*
X-5574035Y-5724408D01*
X-5682046Y-5704217D01*
X-5775470Y-5646372D01*
X-5785460Y-5636833D01*
X-6257025Y-5165268D01*
X-6257039Y-5165255D01*
X-8271730Y-3150562D01*
X-8316186Y-3093817D01*
X-8318677Y-3089697D01*
X-8318678Y-3089696D01*
X-8318679Y-3089693D01*
X-8465008Y-2886574D01*
X-9375514Y-1976068D01*
X-9375514Y-1976067D01*
X-9518446Y-1854488D01*
X-9518450Y-1854485D01*
X-9518453Y-1854483D01*
X-9732688Y-1724974D01*
X-9964924Y-1631507D01*
X-10209145Y-1576504D01*
X-10209148Y-1576503D01*
X-10209151Y-1576503D01*
X-10459023Y-1561388D01*
X-10708098Y-1586552D01*
X-10949906Y-1651345D01*
X-10949908Y-1651345D01*
X-10949909Y-1651346D01*
X-11178189Y-1754086D01*
X-11178191Y-1754087D01*
X-11387032Y-1892115D01*
X-11387037Y-1892119D01*
X-11571037Y-2061863D01*
X-11725425Y-2258924D01*
X-11846202Y-2478197D01*
X-11891564Y-2605480D01*
X-11946843Y-2700444D01*
X-12032695Y-2769027D01*
X-12137524Y-2801966D01*
X-12247173Y-2794811D01*
X-12336743Y-2755420D01*
X-12346779Y-2748863D01*
X-12346785Y-2748860D01*
X-12346787Y-2748859D01*
X-12366824Y-2740069D01*
X-12383306Y-2731585D01*
X-12402110Y-2720381D01*
X-12402111Y-2720380D01*
X-12402112Y-2720380D01*
X-12489051Y-2686456D01*
X-12512021Y-2676380D01*
X-12574500Y-2648974D01*
X-12574513Y-2648970D01*
X-12595738Y-2643595D01*
X-12613390Y-2637939D01*
X-12633767Y-2629988D01*
X-12725098Y-2610837D01*
X-12815562Y-2587928D01*
X-12815570Y-2587927D01*
X-12837380Y-2586119D01*
X-12855718Y-2583447D01*
X-12877142Y-2578956D01*
X-12877145Y-2578955D01*
X-12877149Y-2578955D01*
X-12970396Y-2575098D01*
X-13001319Y-2572536D01*
X-13001322Y-2572536D01*
X-13032351Y-2572536D01*
X-13125607Y-2568679D01*
X-13125608Y-2568679D01*
X-13136039Y-2569979D01*
X-13147334Y-2571387D01*
X-13165842Y-2572536D01*
X-14390790Y-2572536D01*
X-14498801Y-2552345D01*
X-14592225Y-2494500D01*
X-14602215Y-2484961D01*
X-14775410Y-2311766D01*
X-14969976Y-2117200D01*
X-14969985Y-2117192D01*
X-15112207Y-1996736D01*
X-15112213Y-1996732D01*
X-15201300Y-1943648D01*
X-15259671Y-1898216D01*
X-15300845Y-1857042D01*
X-15300848Y-1857039D01*
X-15438347Y-1740584D01*
X-15440126Y-1739524D01*
X-15644843Y-1617537D01*
X-15644847Y-1617535D01*
X-15644848Y-1617534D01*
X-15644849Y-1617534D01*
X-15868788Y-1530153D01*
X-15868789Y-1530152D01*
X-15868791Y-1530152D01*
X-16007544Y-1501059D01*
X-16104056Y-1480823D01*
X-16104058Y-1480822D01*
X-16104059Y-1480822D01*
X-16344236Y-1470888D01*
X-16344237Y-1470889D01*
X-16582776Y-1500623D01*
X-16813161Y-1569212D01*
X-17029125Y-1674791D01*
X-17224759Y-1814471D01*
X-17394733Y-1984445D01*
X-17534413Y-2180079D01*
X-17534415Y-2180082D01*
X-17534415Y-2180083D01*
X-17547178Y-2206190D01*
X-17639992Y-2396043D01*
X-17708581Y-2626428D01*
X-17738315Y-2864967D01*
X-17738316Y-2864968D01*
X-17728382Y-3105143D01*
X-17682728Y-3322882D01*
X-17679051Y-3340416D01*
X-17591944Y-3563654D01*
X-17591669Y-3564357D01*
X-17591667Y-3564361D01*
X-17538484Y-3653612D01*
X-17468620Y-3770857D01*
X-17390170Y-3863483D01*
X-17352162Y-3908359D01*
X-17310988Y-3949533D01*
X-17265556Y-4007904D01*
X-17212472Y-4096991D01*
X-17212468Y-4096997D01*
X-17092007Y-4239225D01*
X-17092007Y-4239226D01*
X-16269631Y-5061600D01*
X-16257356Y-5075500D01*
X-16243906Y-5092780D01*
X-16175235Y-5155996D01*
X-16153294Y-5177937D01*
X-16129616Y-5197991D01*
X-16060953Y-5261200D01*
X-16042637Y-5273166D01*
X-16027769Y-5284252D01*
X-16011065Y-5298400D01*
X-16011060Y-5298403D01*
X-15930897Y-5346170D01*
X-15883643Y-5377042D01*
X-15852775Y-5397209D01*
X-15832720Y-5406006D01*
X-15816249Y-5414485D01*
X-15797442Y-5425691D01*
X-15797433Y-5425694D01*
X-15797432Y-5425695D01*
X-15739487Y-5448305D01*
X-15710517Y-5459609D01*
X-15625049Y-5497099D01*
X-15603822Y-5502474D01*
X-15586177Y-5508127D01*
X-15565782Y-5516085D01*
X-15474466Y-5535232D01*
X-15383989Y-5558144D01*
X-15362166Y-5559951D01*
X-15343826Y-5562623D01*
X-15322405Y-5567116D01*
X-15229174Y-5570972D01*
X-15198235Y-5573536D01*
X-15167194Y-5573536D01*
X-15073947Y-5577393D01*
X-15053983Y-5574904D01*
X-15052222Y-5574685D01*
X-15033711Y-5573536D01*
X-13810572Y-5573536D01*
X-13702561Y-5593727D01*
X-13609137Y-5651572D01*
X-13562685Y-5708124D01*
X-13562003Y-5707634D01*
X-13554961Y-5717409D01*
X-13554960Y-5717411D01*
X-13408631Y-5920530D01*
X-12498124Y-6831037D01*
X-12355185Y-6952621D01*
X-12355181Y-6952623D01*
X-12355179Y-6952625D01*
X-12261453Y-7009285D01*
X-12204712Y-7053738D01*
X-12032129Y-7226321D01*
X-11970031Y-7316974D01*
X-11944873Y-7423937D01*
X-11960054Y-7532766D01*
X-12013523Y-7628761D01*
X-12032129Y-7649171D01*
X-13221889Y-8838930D01*
X-13235782Y-8851200D01*
X-13253064Y-8864652D01*
X-13316268Y-8933309D01*
X-13338215Y-8955258D01*
X-13338218Y-8955260D01*
X-13358288Y-8978955D01*
X-13421484Y-9047604D01*
X-13433458Y-9065932D01*
X-13444534Y-9080785D01*
X-13458682Y-9097490D01*
X-13458683Y-9097493D01*
X-13506455Y-9177663D01*
X-13557494Y-9255785D01*
X-13566287Y-9275831D01*
X-13574766Y-9292303D01*
X-13585973Y-9311112D01*
X-13585975Y-9311117D01*
X-13619895Y-9398048D01*
X-13657379Y-9483503D01*
X-13657384Y-9483516D01*
X-13662757Y-9504734D01*
X-13668412Y-9522386D01*
X-13676367Y-9542773D01*
X-13695517Y-9634100D01*
X-13718427Y-9724571D01*
X-13718427Y-9724576D01*
X-13720235Y-9746383D01*
X-13722907Y-9764723D01*
X-13727399Y-9786144D01*
X-13727400Y-9786151D01*
X-13731256Y-9879396D01*
X-13733818Y-9910326D01*
X-13733818Y-9941353D01*
X-13737675Y-10034610D01*
X-13734967Y-10056335D01*
X-13733818Y-10074843D01*
X-13733818Y-11162326D01*
X-13754009Y-11270337D01*
X-13811854Y-11363761D01*
X-13821393Y-11373751D01*
X-17791185Y-15343541D01*
X-17805078Y-15355812D01*
X-17822360Y-15369264D01*
X-17885564Y-15437921D01*
X-17907511Y-15459870D01*
X-17907514Y-15459872D01*
X-17927584Y-15483567D01*
X-17990779Y-15552215D01*
X-18002755Y-15570544D01*
X-18013830Y-15585397D01*
X-18027974Y-15602097D01*
X-18027977Y-15602101D01*
X-18044219Y-15629359D01*
X-18075754Y-15682280D01*
X-18096627Y-15714230D01*
X-18126783Y-15760387D01*
X-18126791Y-15760403D01*
X-18135579Y-15780435D01*
X-18144060Y-15796912D01*
X-18155267Y-15815721D01*
X-18155272Y-15815731D01*
X-18189194Y-15902665D01*
X-18226675Y-15988115D01*
X-18226679Y-15988126D01*
X-18232053Y-16009346D01*
X-18237708Y-16026998D01*
X-18245663Y-16047385D01*
X-18264813Y-16138712D01*
X-18287723Y-16229183D01*
X-18287723Y-16229188D01*
X-18289531Y-16250995D01*
X-18292203Y-16269335D01*
X-18296695Y-16290756D01*
X-18296696Y-16290763D01*
X-18300552Y-16384008D01*
X-18303114Y-16414938D01*
X-18303114Y-16445965D01*
X-18306971Y-16539222D01*
X-18304263Y-16560946D01*
X-18303114Y-16579457D01*
X-18303114Y-20181803D01*
X-18323305Y-20289814D01*
X-18381150Y-20383238D01*
X-18390689Y-20393228D01*
X-22801078Y-24803615D01*
X-22814971Y-24815886D01*
X-22832253Y-24829338D01*
X-22895457Y-24897995D01*
X-22917404Y-24919944D01*
X-22917407Y-24919946D01*
X-22937477Y-24943641D01*
X-23000673Y-25012290D01*
X-23012647Y-25030618D01*
X-23023723Y-25045471D01*
X-23037871Y-25062176D01*
X-23037872Y-25062179D01*
X-23085644Y-25142349D01*
X-23136684Y-25220473D01*
X-23145478Y-25240520D01*
X-23153955Y-25256989D01*
X-23165163Y-25275799D01*
X-23165164Y-25275803D01*
X-23199082Y-25362727D01*
X-23236571Y-25448193D01*
X-23236573Y-25448199D01*
X-23241948Y-25469423D01*
X-23247599Y-25487064D01*
X-23255556Y-25507458D01*
X-23274705Y-25598781D01*
X-23297615Y-25689248D01*
X-23297615Y-25689252D01*
X-23299424Y-25711068D01*
X-23302095Y-25729405D01*
X-23306587Y-25750833D01*
X-23306589Y-25750845D01*
X-23306685Y-25753171D01*
X-23310445Y-25844082D01*
X-23313007Y-25875007D01*
X-23313007Y-25875011D01*
X-23313008Y-25906039D01*
X-23316865Y-25999292D01*
X-23316864Y-25999297D01*
X-23314157Y-26021020D01*
X-23313008Y-26039527D01*
X-23313008Y-28499353D01*
X-23314157Y-28517863D01*
X-23316865Y-28539587D01*
X-23313008Y-28632844D01*
X-23313008Y-28663873D01*
X-23310446Y-28694799D01*
X-23306590Y-28788046D01*
X-23306589Y-28788052D01*
X-23302098Y-28809469D01*
X-23299425Y-28827813D01*
X-23297617Y-28849621D01*
X-23297616Y-28849630D01*
X-23281690Y-28912519D01*
X-23274708Y-28940091D01*
X-23258477Y-29017499D01*
X-23255557Y-29031422D01*
X-23255556Y-29031426D01*
X-23247602Y-29051811D01*
X-23241947Y-29069464D01*
X-23236573Y-29090685D01*
X-23236571Y-29090690D01*
X-23223859Y-29119670D01*
X-23199090Y-29176139D01*
X-23191460Y-29195692D01*
X-23165164Y-29263084D01*
X-23153957Y-29281891D01*
X-23145476Y-29298366D01*
X-23136681Y-29318416D01*
X-23085648Y-29396529D01*
X-23037874Y-29476703D01*
X-23023726Y-29493408D01*
X-23012644Y-29508270D01*
X-23000676Y-29526589D01*
X-23000669Y-29526598D01*
X-22982213Y-29546646D01*
X-22937475Y-29595244D01*
X-22917410Y-29618935D01*
X-22917407Y-29618938D01*
X-22895457Y-29640888D01*
X-22832260Y-29709539D01*
X-22832253Y-29709546D01*
X-22832252Y-29709547D01*
X-22814975Y-29722994D01*
X-22801082Y-29735263D01*
X-16867112Y-35669234D01*
X-16854837Y-35683133D01*
X-16841391Y-35700408D01*
X-16772732Y-35763613D01*
X-16750779Y-35785566D01*
X-16727089Y-35805630D01*
X-16658441Y-35868826D01*
X-16640121Y-35880795D01*
X-16625254Y-35891881D01*
X-16608553Y-35906025D01*
X-16608547Y-35906030D01*
X-16528374Y-35953803D01*
X-16472904Y-35990043D01*
X-16450265Y-36004834D01*
X-16450258Y-36004838D01*
X-16430223Y-36013626D01*
X-16413733Y-36022114D01*
X-16394927Y-36033320D01*
X-16307989Y-36067243D01*
X-16222534Y-36104727D01*
X-16201307Y-36110102D01*
X-16183662Y-36115755D01*
X-16163267Y-36123713D01*
X-16071951Y-36142860D01*
X-15981474Y-36165772D01*
X-15959651Y-36167579D01*
X-15941311Y-36170251D01*
X-15919890Y-36174744D01*
X-15826659Y-36178600D01*
X-15795721Y-36181164D01*
X-15795720Y-36181164D01*
X-15764680Y-36181163D01*
X-15671435Y-36185021D01*
X-15671434Y-36185021D01*
X-15671434Y-36185020D01*
X-15671432Y-36185021D01*
X-15665441Y-36184274D01*
X-15649708Y-36182313D01*
X-15631194Y-36181163D01*
X-14576661Y-36181163D01*
X-14468650Y-36201354D01*
X-14375226Y-36259199D01*
X-14309007Y-36346887D01*
X-14306399Y-36352260D01*
X-14203651Y-36569500D01*
X-14181677Y-36615960D01*
X-14181674Y-36615964D01*
X-13974556Y-36961523D01*
X-13734557Y-37285124D01*
X-13734552Y-37285130D01*
X-13463988Y-37583651D01*
X-13225287Y-37799997D01*
X-13165468Y-37854214D01*
X-13165462Y-37854219D01*
X-12841861Y-38094218D01*
X-12645057Y-38212176D01*
X-12496293Y-38301342D01*
X-12132086Y-38473600D01*
X-11813820Y-38587477D01*
X-11752754Y-38609327D01*
X-11752738Y-38609332D01*
X-11490493Y-38675020D01*
X-11361933Y-38707223D01*
X-10963404Y-38766339D01*
X-10561000Y-38786108D01*
X-10158596Y-38766339D01*
X-9760067Y-38707223D01*
X-9498839Y-38641788D01*
X-9369263Y-38609332D01*
X-9369260Y-38609330D01*
X-9369252Y-38609329D01*
X-8989914Y-38473600D01*
X-8625707Y-38301342D01*
X-8280137Y-38094216D01*
X-7956533Y-37854215D01*
X-7658012Y-37583651D01*
X-7387448Y-37285130D01*
X-7147447Y-36961526D01*
X-6940321Y-36615956D01*
X-6768063Y-36251749D01*
X-6632334Y-35872411D01*
X-6631436Y-35868828D01*
X-6561906Y-35591246D01*
X-6534440Y-35481596D01*
X-6475324Y-35083067D01*
X-6455555Y-34680663D01*
X-6475324Y-34278259D01*
X-6534440Y-33879730D01*
X-6606448Y-33592258D01*
X-6632331Y-33488925D01*
X-6632336Y-33488909D01*
X-6697255Y-33307473D01*
X-6768063Y-33109577D01*
X-6771587Y-33102127D01*
X-6815631Y-33009003D01*
X-6940321Y-32745370D01*
X-7122035Y-32442197D01*
X-7147445Y-32399802D01*
X-7387444Y-32076201D01*
X-7387449Y-32076195D01*
X-7429075Y-32030268D01*
X-7658012Y-31777675D01*
X-7956533Y-31507111D01*
X-7956539Y-31507106D01*
X-8280140Y-31267107D01*
X-8625699Y-31059989D01*
X-8625707Y-31059984D01*
X-8687330Y-31030838D01*
X-8989904Y-30887730D01*
X-8989911Y-30887727D01*
X-8989914Y-30887726D01*
X-9121720Y-30840565D01*
X-9369247Y-30751998D01*
X-9369263Y-30751993D01*
X-9760053Y-30654106D01*
X-9760064Y-30654103D01*
X-9760067Y-30654103D01*
X-9760071Y-30654102D01*
X-9760073Y-30654102D01*
X-10158597Y-30594986D01*
X-10561000Y-30575218D01*
X-10963404Y-30594986D01*
X-11361928Y-30654102D01*
X-11361948Y-30654106D01*
X-11752738Y-30751993D01*
X-11752754Y-30751998D01*
X-12132086Y-30887726D01*
X-12132097Y-30887730D01*
X-12496281Y-31059978D01*
X-12496288Y-31059981D01*
X-12496293Y-31059984D01*
X-12496297Y-31059986D01*
X-12496302Y-31059989D01*
X-12841861Y-31267107D01*
X-13165462Y-31507106D01*
X-13165468Y-31507111D01*
X-13463988Y-31777675D01*
X-13734552Y-32076195D01*
X-13734557Y-32076201D01*
X-13974556Y-32399802D01*
X-14181674Y-32745361D01*
X-14181677Y-32745365D01*
X-14181679Y-32745370D01*
X-14306371Y-33009006D01*
X-14370802Y-33098011D01*
X-14463037Y-33157732D01*
X-14570619Y-33180102D01*
X-14576661Y-33180163D01*
X-14988276Y-33180163D01*
X-15096287Y-33159972D01*
X-15189711Y-33102127D01*
X-15199701Y-33092588D01*
X-17049284Y-31243005D01*
X-17111382Y-31152352D01*
X-17136540Y-31045389D01*
X-17121359Y-30936560D01*
X-17067890Y-30840565D01*
X-16983354Y-30770367D01*
X-16966094Y-30762240D01*
X-16966292Y-30761835D01*
X-16955189Y-30756406D01*
X-16955183Y-30756404D01*
X-16741563Y-30629114D01*
X-16599331Y-30508650D01*
X-15663027Y-29572346D01*
X-15542563Y-29430114D01*
X-15482186Y-29328787D01*
X-15409554Y-29246338D01*
X-15312039Y-29195692D01*
X-15225330Y-29182843D01*
X-13021106Y-29182843D01*
X-13021082Y-29182844D01*
X-13014958Y-29182844D01*
X-12787401Y-29182844D01*
X-12787400Y-29182844D01*
X-12737675Y-29174075D01*
X-12724781Y-29172377D01*
X-12674487Y-29167978D01*
X-12625738Y-29154914D01*
X-12613000Y-29152091D01*
X-12580352Y-29146334D01*
X-12563304Y-29143329D01*
X-12563304Y-29143328D01*
X-12563299Y-29143328D01*
X-12515876Y-29126066D01*
X-12503442Y-29122145D01*
X-12454683Y-29109082D01*
X-12408921Y-29087741D01*
X-12396902Y-29082763D01*
X-12349464Y-29065499D01*
X-12305724Y-29040244D01*
X-12294196Y-29034243D01*
X-12248445Y-29012911D01*
X-12207101Y-28983960D01*
X-12196130Y-28976970D01*
X-12152393Y-28951720D01*
X-12113710Y-28919259D01*
X-12103404Y-28911351D01*
X-12062040Y-28882390D01*
X-12014617Y-28834966D01*
X-11923968Y-28772870D01*
X-11817004Y-28747711D01*
X-11708176Y-28762891D01*
X-11648509Y-28790514D01*
X-11591532Y-28824958D01*
X-11591523Y-28824962D01*
X-11373969Y-28912519D01*
X-11359294Y-28918425D01*
X-11115072Y-28973428D01*
X-11002770Y-28980221D01*
X-10865196Y-28988543D01*
X-10865195Y-28988542D01*
X-10865191Y-28988543D01*
X-10616120Y-28963380D01*
X-10374312Y-28898587D01*
X-10146028Y-28795845D01*
X-9937182Y-28657813D01*
X-9753182Y-28488069D01*
X-9598793Y-28291006D01*
X-9478014Y-28071730D01*
X-9393974Y-27835920D01*
X-9393973Y-27835912D01*
X-9390854Y-27824275D01*
X-9388088Y-27825016D01*
X-9356220Y-27741858D01*
X-9282490Y-27660384D01*
X-9184307Y-27611046D01*
X-9074932Y-27600508D01*
X-8969135Y-27630192D01*
X-8890007Y-27686906D01*
X-5874075Y-30702837D01*
X-5811977Y-30793490D01*
X-5786819Y-30900453D01*
X-5786500Y-30914262D01*
X-5786500Y-33849603D01*
X-5786501Y-33849629D01*
X-5786501Y-34083794D01*
X-5777737Y-34133494D01*
X-5776035Y-34146425D01*
X-5771635Y-34196705D01*
X-5758573Y-34245448D01*
X-5755749Y-34258187D01*
X-5746985Y-34307888D01*
X-5746984Y-34307893D01*
X-5741796Y-34322145D01*
X-5729725Y-34355311D01*
X-5725804Y-34367745D01*
X-5712738Y-34416509D01*
X-5691413Y-34462238D01*
X-5686418Y-34474295D01*
X-5669158Y-34521718D01*
X-5669156Y-34521723D01*
X-5643915Y-34565442D01*
X-5637897Y-34577004D01*
X-5620332Y-34614671D01*
X-5616570Y-34622738D01*
X-5616569Y-34622740D01*
X-5587625Y-34664077D01*
X-5580615Y-34675080D01*
X-5555378Y-34718792D01*
X-5555375Y-34718797D01*
X-5522936Y-34757456D01*
X-5515001Y-34767796D01*
X-5486047Y-34809147D01*
X-5486046Y-34809148D01*
X-5320552Y-34974642D01*
X-5320542Y-34974651D01*
X-1590046Y-38705147D01*
X-1590032Y-38705162D01*
X-1425147Y-38870047D01*
X-1383801Y-38898998D01*
X-1373449Y-38906941D01*
X-1334799Y-38939373D01*
X-1334793Y-38939377D01*
X-1291074Y-38964618D01*
X-1280092Y-38971614D01*
X-1238742Y-39000568D01*
X-1192996Y-39021900D01*
X-1181444Y-39027914D01*
X-1137727Y-39053154D01*
X-1137725Y-39053155D01*
X-1137723Y-39053156D01*
X-1090285Y-39070421D01*
X-1078246Y-39075408D01*
X-1032504Y-39096739D01*
X-983751Y-39109802D01*
X-971313Y-39113723D01*
X-923887Y-39130985D01*
X-874171Y-39139751D01*
X-861475Y-39142565D01*
X-812700Y-39155635D01*
X-762402Y-39160035D01*
X-749520Y-39161731D01*
X-699787Y-39170501D01*
X-699785Y-39170501D01*
X-466105Y-39170501D01*
X-466081Y-39170500D01*
X43208Y-39170500D01*
X1543216Y-39170500D01*
X3067216Y-39170500D01*
X6623216Y-39170500D01*
X6797158Y-39170500D01*
X6905169Y-39190691D01*
X6998593Y-39248536D01*
X7042083Y-39297999D01*
X7177505Y-39491401D01*
X7344599Y-39658495D01*
X7538170Y-39794035D01*
X7538175Y-39794037D01*
X7538178Y-39794039D01*
X7604478Y-39824955D01*
X7752337Y-39893903D01*
X7980592Y-39955063D01*
X8123197Y-39967539D01*
X8157032Y-39970500D01*
X8407290Y-39970500D01*
X8515301Y-39990691D01*
X8608725Y-40048536D01*
X8674944Y-40136224D01*
X8705015Y-40241912D01*
X8694876Y-40351325D01*
X8645897Y-40449688D01*
X8564693Y-40523715D01*
X8498646Y-40554202D01*
X8415036Y-40581031D01*
X7846058Y-40759189D01*
X7382129Y-40889574D01*
X6802398Y-41048616D01*
X6340287Y-41160451D01*
X5748926Y-41300193D01*
X5621217Y-41326203D01*
X5291933Y-41393266D01*
X4687038Y-41513588D01*
X4239936Y-41587754D01*
X3618115Y-41688518D01*
X3189258Y-41743650D01*
X2543585Y-41824749D01*
X2150404Y-41860757D01*
X1464791Y-41922111D01*
X1158640Y-41938904D01*
X384752Y-41980385D01*
X-686000Y-41999500D01*
X-1756752Y-41980385D01*
X-2530615Y-41938905D01*
X-2542651Y-41938245D01*
X-2836792Y-41922111D01*
X-3522405Y-41860757D01*
X-3915586Y-41824749D01*
X-4561259Y-41743650D01*
X-4990116Y-41688518D01*
X-5611937Y-41587754D01*
X-6059039Y-41513588D01*
X-6663934Y-41393266D01*
X-6930901Y-41338895D01*
X-7120925Y-41300194D01*
X-7300396Y-41257784D01*
X-7712288Y-41160451D01*
X-8071487Y-41073521D01*
X-8174401Y-41048615D01*
X-8754148Y-40889569D01*
X-9218059Y-40759189D01*
X-9787037Y-40581031D01*
X-10250613Y-40432276D01*
X-10809216Y-40235212D01*
X-11270650Y-40068324D01*
X-11819070Y-39852547D01*
X-12276855Y-39667806D01*
X-12815006Y-39433557D01*
X-13267955Y-39231230D01*
X-13795571Y-38978799D01*
X-14242615Y-38759186D01*
X-14759426Y-38488847D01*
X-15199591Y-38252280D01*
X-15705270Y-37964324D01*
X-16137583Y-37711207D01*
X-16344079Y-37583650D01*
X-16631835Y-37405897D01*
X-17055432Y-37136639D01*
X-17537686Y-36814408D01*
X-17826053Y-36615960D01*
X-17951950Y-36529320D01*
X-18421794Y-36190514D01*
X-18740202Y-35953803D01*
X-18825883Y-35890106D01*
X-18848662Y-35872411D01*
X-19070077Y-35700410D01*
X-19282960Y-35535037D01*
X-19676159Y-35219790D01*
X-19804492Y-35112539D01*
X-20119983Y-34848874D01*
X-20225841Y-34757456D01*
X-20501697Y-34519225D01*
X-20931750Y-34132928D01*
X-21301324Y-33789416D01*
X-21717255Y-33388075D01*
X-22074076Y-33031254D01*
X-22475417Y-32615323D01*
X-22818929Y-32245749D01*
X-23205236Y-31815685D01*
X-23534880Y-31433978D01*
X-23905800Y-30990147D01*
X-23966641Y-30914262D01*
X-24096740Y-30751993D01*
X-24221038Y-30596959D01*
X-24576110Y-30139878D01*
X-24577543Y-30137951D01*
X-24876521Y-29735785D01*
X-24942185Y-29644725D01*
X-25215327Y-29265940D01*
X-25500388Y-28851715D01*
X-25822655Y-28369409D01*
X-26091919Y-27945799D01*
X-26397208Y-27451582D01*
X-26650325Y-27019269D01*
X-26938281Y-26513590D01*
X-27174848Y-26073425D01*
X-27445187Y-25556614D01*
X-27488020Y-25469423D01*
X-27664817Y-25109534D01*
X-27669250Y-25100269D01*
X-27917235Y-24581946D01*
X-27923573Y-24567757D01*
X-28086081Y-24203950D01*
X-28119558Y-24129005D01*
X-28337432Y-23628472D01*
X-28353810Y-23590848D01*
X-28360114Y-23575225D01*
X-28538568Y-23133018D01*
X-28754333Y-22584627D01*
X-28921213Y-22123215D01*
X-29118278Y-21564609D01*
X-29193299Y-21330817D01*
X-29267033Y-21101033D01*
X-29287772Y-21034801D01*
X-29445191Y-20532056D01*
X-29477621Y-20416662D01*
X-29575557Y-20068193D01*
X-29734619Y-19488390D01*
X-29846431Y-19026379D01*
X-29986198Y-18434910D01*
X-30079267Y-17977933D01*
X-30103971Y-17853740D01*
X-30199593Y-17373014D01*
X-30273761Y-16925900D01*
X-30276037Y-16911853D01*
X-30374519Y-16304112D01*
X-30429611Y-15875577D01*
X-30510750Y-15229585D01*
X-30546758Y-14836404D01*
X-30608113Y-14150787D01*
X-30608193Y-14149309D01*
X-30624904Y-13844640D01*
X-30666385Y-13070752D01*
X-30685500Y-12000000D01*
X-30685500Y-11999500D01*
X-30685500Y-3857989D01*
X-26266500Y-3857989D01*
X-26251621Y-4037560D01*
X-26251621Y-4037561D01*
X-26200553Y-4239225D01*
X-26192610Y-4270591D01*
X-26141684Y-4386691D01*
X-26116786Y-4493713D01*
X-26116500Y-4506797D01*
X-26116500Y-6209218D01*
X-26116501Y-6209244D01*
X-26116501Y-6443409D01*
X-26107737Y-6493109D01*
X-26106035Y-6506040D01*
X-26101635Y-6556320D01*
X-26088573Y-6605063D01*
X-26085749Y-6617802D01*
X-26076985Y-6667503D01*
X-26076984Y-6667508D01*
X-26066874Y-6695283D01*
X-26059725Y-6714926D01*
X-26055804Y-6727360D01*
X-26042738Y-6776124D01*
X-26021413Y-6821853D01*
X-26016418Y-6833910D01*
X-25999158Y-6881333D01*
X-25999156Y-6881338D01*
X-25973915Y-6925057D01*
X-25967897Y-6936619D01*
X-25946568Y-6982357D01*
X-25927713Y-7009285D01*
X-25917625Y-7023692D01*
X-25910615Y-7034695D01*
X-25885378Y-7078407D01*
X-25885375Y-7078412D01*
X-25852936Y-7117071D01*
X-25845001Y-7127411D01*
X-25816047Y-7168762D01*
X-25816046Y-7168763D01*
X-25650552Y-7334257D01*
X-25650542Y-7334266D01*
X-21384536Y-11600272D01*
X-21322438Y-11690925D01*
X-21317416Y-11703006D01*
X-21271330Y-11821114D01*
X-21271326Y-11821121D01*
X-21148281Y-12027614D01*
X-21148279Y-12027617D01*
X-21031824Y-12165116D01*
X-20353015Y-12843924D01*
X-20215516Y-12960380D01*
X-20215513Y-12960382D01*
X-20215509Y-12960385D01*
X-20090966Y-13034596D01*
X-20009014Y-13083429D01*
X-19785075Y-13170811D01*
X-19549807Y-13220141D01*
X-19309629Y-13230075D01*
X-19309629Y-13230074D01*
X-19309628Y-13230075D01*
X-19309628Y-13230074D01*
X-19071091Y-13200341D01*
X-18840701Y-13131751D01*
X-18624742Y-13026175D01*
X-18429106Y-12886494D01*
X-18259129Y-12716517D01*
X-18119448Y-12520881D01*
X-18013872Y-12304922D01*
X-17945282Y-12074532D01*
X-17915548Y-11835994D01*
X-17925482Y-11595816D01*
X-17974812Y-11360548D01*
X-18062194Y-11136609D01*
X-18102523Y-11068928D01*
X-18185238Y-10930114D01*
X-18185241Y-10930110D01*
X-18185243Y-10930107D01*
X-18301699Y-10792608D01*
X-18980507Y-10113799D01*
X-18980508Y-10113798D01*
X-18980510Y-10113796D01*
X-18980511Y-10113796D01*
X-19118006Y-9997344D01*
X-19173799Y-9964098D01*
X-19324502Y-9874297D01*
X-19324509Y-9874293D01*
X-19442617Y-9828207D01*
X-19535899Y-9770134D01*
X-19545351Y-9761087D01*
X-23427925Y-5878513D01*
X-23490023Y-5787860D01*
X-23515181Y-5680897D01*
X-23515500Y-5667088D01*
X-23515500Y-4506797D01*
X-23495309Y-4398786D01*
X-23490326Y-4386712D01*
X-23439390Y-4270591D01*
X-23380380Y-4037563D01*
X-23365500Y-3857990D01*
X-23365500Y-2898010D01*
X-23380380Y-2718437D01*
X-23439390Y-2485409D01*
X-23535951Y-2265272D01*
X-23619363Y-2137601D01*
X-23667425Y-2064036D01*
X-23667429Y-2064031D01*
X-23830234Y-1887177D01*
X-23830242Y-1887170D01*
X-24019929Y-1739531D01*
X-24019939Y-1739524D01*
X-24231345Y-1625117D01*
X-24458704Y-1547065D01*
X-24695805Y-1507500D01*
X-24695808Y-1507500D01*
X-24936192Y-1507500D01*
X-24936195Y-1507500D01*
X-25173297Y-1547065D01*
X-25400656Y-1625117D01*
X-25612062Y-1739524D01*
X-25612072Y-1739531D01*
X-25801759Y-1887170D01*
X-25801767Y-1887177D01*
X-25964572Y-2064031D01*
X-25964576Y-2064036D01*
X-26096052Y-2265276D01*
X-26192609Y-2485405D01*
X-26251621Y-2718438D01*
X-26251621Y-2718439D01*
X-26266500Y-2898011D01*
X-26266500Y-3857989D01*
X-30685500Y-3857989D01*
X-30685500Y0D01*
X-30666385Y1070752D01*
X-30624873Y1845222D01*
X-30608112Y2150792D01*
X-30574787Y2523186D01*
X-12350162Y2523186D01*
X-12340228Y2283011D01*
X-12310272Y2140140D01*
X-12290897Y2047738D01*
X-12211649Y1844641D01*
X-12203515Y1823797D01*
X-12203513Y1823793D01*
X-12176116Y1777816D01*
X-12080466Y1617297D01*
X-11964011Y1479798D01*
X-11964008Y1479795D01*
X-11937646Y1453433D01*
X-11900011Y1405080D01*
X-11899562Y1405399D01*
X-11892379Y1395338D01*
X-11892377Y1395335D01*
X-11851019Y1337410D01*
X-11788588Y1249969D01*
X-11747880Y1192955D01*
X-11572044Y1017119D01*
X-11447782Y928397D01*
X-11359599Y865436D01*
X-11359919Y864989D01*
X-11311563Y827351D01*
X-11285202Y800990D01*
X-11147703Y684534D01*
X-11147700Y684532D01*
X-11147696Y684529D01*
X-11044272Y622902D01*
X-10941201Y561485D01*
X-10717262Y474103D01*
X-10481994Y424773D01*
X-10241816Y414839D01*
X-10241816Y414840D01*
X-10241815Y414839D01*
X-10241815Y414840D01*
X-10003278Y444573D01*
X-9772888Y513163D01*
X-9556929Y618739D01*
X-9361293Y758420D01*
X-9191316Y928397D01*
X-9051635Y1124033D01*
X-8986481Y1257308D01*
X-8920906Y1345473D01*
X-8827906Y1403999D01*
X-8720045Y1424977D01*
X-8717864Y1424985D01*
X-6438876Y1424985D01*
X-6330865Y1404794D01*
X-6237441Y1346949D01*
X-6227451Y1337410D01*
X-2990755Y-1899285D01*
X-730780Y-4159260D01*
X-668682Y-4249913D01*
X-645501Y-4333699D01*
X-630412Y-4454752D01*
X-574669Y-4641988D01*
X-561822Y-4685140D01*
X-456246Y-4901098D01*
X-316565Y-5096734D01*
X-146588Y-5266711D01*
X49048Y-5406392D01*
X265006Y-5511968D01*
X495394Y-5580557D01*
X495397Y-5580558D01*
X616445Y-5595646D01*
X721128Y-5629042D01*
X790885Y-5680925D01*
X4358600Y-9248640D01*
X4403051Y-9305377D01*
X4405545Y-9309503D01*
X4405551Y-9309512D01*
X4405552Y-9309513D01*
X4551881Y-9512632D01*
X5462388Y-10423139D01*
X5605327Y-10544723D01*
X5605331Y-10544725D01*
X5605333Y-10544727D01*
X5819559Y-10674232D01*
X5819568Y-10674236D01*
X6051782Y-10767693D01*
X6051797Y-10767699D01*
X6296019Y-10822702D01*
X6420959Y-10830259D01*
X6545895Y-10837817D01*
X6545896Y-10837816D01*
X6545900Y-10837817D01*
X6794971Y-10812654D01*
X7036779Y-10747861D01*
X7265063Y-10645119D01*
X7473909Y-10507087D01*
X7657909Y-10337343D01*
X7812298Y-10140280D01*
X7933077Y-9921004D01*
X8017117Y-9685194D01*
X8062241Y-9438955D01*
X8067282Y-9188668D01*
X8032109Y-8940813D01*
X7957633Y-8701808D01*
X7845782Y-8477847D01*
X7699453Y-8274728D01*
X6788947Y-7364222D01*
X6788947Y-7364221D01*
X6646016Y-7242642D01*
X6646011Y-7242639D01*
X6552275Y-7185973D01*
X6495535Y-7141520D01*
X2912913Y-3558898D01*
X2850815Y-3468245D01*
X2827634Y-3384456D01*
X2824650Y-3360518D01*
X2812546Y-3263409D01*
X2743956Y-3033019D01*
X2638380Y-2817060D01*
X2498699Y-2621424D01*
X2328722Y-2451447D01*
X2133086Y-2311766D01*
X1917127Y-2206190D01*
X1686737Y-2137600D01*
X1565685Y-2122510D01*
X1461003Y-2089114D01*
X1391248Y-2037232D01*
X-868871Y222887D01*
X-868885Y222900D01*
X-4560044Y3914059D01*
X-4572313Y3927952D01*
X-4585760Y3945229D01*
X-4585761Y3945230D01*
X-4585768Y3945237D01*
X-4654419Y4008434D01*
X-4676369Y4030384D01*
X-4676370Y4030385D01*
X-4676372Y4030387D01*
X-4700063Y4050452D01*
X-4739490Y4086747D01*
X-4768709Y4113646D01*
X-4768718Y4113653D01*
X-4787038Y4125622D01*
X-4801905Y4136708D01*
X-4818600Y4150848D01*
X-4818609Y4150854D01*
X-4898773Y4198622D01*
X-4976893Y4249659D01*
X-4976897Y4249661D01*
X-4985508Y4253438D01*
X-4996937Y4258452D01*
X-5013414Y4266933D01*
X-5032222Y4278139D01*
X-5032221Y4278139D01*
X-5032225Y4278141D01*
X-5119158Y4312062D01*
X-5204617Y4349548D01*
X-5204623Y4349550D01*
X-5204626Y4349551D01*
X-5225847Y4354926D01*
X-5243499Y4360580D01*
X-5263884Y4368534D01*
X-5355210Y4387684D01*
X-5445674Y4410593D01*
X-5445682Y4410594D01*
X-5467492Y4412402D01*
X-5485830Y4415074D01*
X-5507254Y4419565D01*
X-5507257Y4419566D01*
X-5507261Y4419566D01*
X-5600508Y4423423D01*
X-5631431Y4425985D01*
X-5631434Y4425985D01*
X-5662463Y4425985D01*
X-5755719Y4429842D01*
X-5755720Y4429842D01*
X-5777444Y4427134D01*
X-5795952Y4425985D01*
X-9737058Y4425985D01*
X-9755567Y4427134D01*
X-9777293Y4429842D01*
X-9870549Y4425985D01*
X-9901581Y4425985D01*
X-9922197Y4424277D01*
X-9932507Y4423423D01*
X-10025752Y4419567D01*
X-10025759Y4419566D01*
X-10047180Y4415074D01*
X-10065520Y4412402D01*
X-10087327Y4410594D01*
X-10087332Y4410594D01*
X-10177803Y4387684D01*
X-10269130Y4368534D01*
X-10289517Y4360579D01*
X-10307169Y4354924D01*
X-10328387Y4349551D01*
X-10328400Y4349546D01*
X-10413855Y4312062D01*
X-10500786Y4278142D01*
X-10500791Y4278140D01*
X-10519600Y4266933D01*
X-10536072Y4258454D01*
X-10556118Y4249661D01*
X-10634240Y4198622D01*
X-10714410Y4150850D01*
X-10714413Y4150849D01*
X-10731118Y4136701D01*
X-10745971Y4125625D01*
X-10764299Y4113651D01*
X-10832948Y4050455D01*
X-10856643Y4030385D01*
X-10856645Y4030382D01*
X-10878596Y4008432D01*
X-10910537Y3979030D01*
X-11003679Y3920732D01*
X-11076052Y3902312D01*
X-11194615Y3887532D01*
X-11194620Y3887531D01*
X-11425007Y3818942D01*
X-11640971Y3713363D01*
X-11836605Y3573683D01*
X-12006579Y3403709D01*
X-12146259Y3208075D01*
X-12251838Y2992111D01*
X-12320427Y2761726D01*
X-12350161Y2523187D01*
X-12350162Y2523186D01*
X-30574787Y2523186D01*
X-30546750Y2836494D01*
X-30510750Y3229586D01*
X-30506573Y3262844D01*
X-30429634Y3875398D01*
X-30423805Y3920732D01*
X-30374523Y4304090D01*
X-30273743Y4926016D01*
X-30199594Y5373011D01*
X-30079262Y5977962D01*
X-29986203Y6434891D01*
X-29846442Y7026331D01*
X-29845696Y7029411D01*
X-29745116Y7445011D01*
X-10015500Y7445011D01*
X-10000621Y7265440D01*
X-10000621Y7265439D01*
X-9941609Y7032406D01*
X-9845052Y6812277D01*
X-9713576Y6611037D01*
X-9713572Y6611032D01*
X-9550773Y6434184D01*
X-9550764Y6434175D01*
X-9361067Y6286528D01*
X-9361064Y6286527D01*
X-9361062Y6286525D01*
X-9149656Y6172118D01*
X-8922297Y6094066D01*
X-8685195Y6054500D01*
X-8685192Y6054500D01*
X-8444805Y6054500D01*
X-8266980Y6084175D01*
X-8207703Y6094066D01*
X-7980344Y6172118D01*
X-7768933Y6286528D01*
X-7579236Y6434175D01*
X-7558038Y6457203D01*
X-7514982Y6503973D01*
X-7426974Y6569765D01*
X-7321142Y6599322D01*
X-7211779Y6588652D01*
X-7113655Y6539196D01*
X-7075018Y6503973D01*
X-7010773Y6434184D01*
X-7010769Y6434180D01*
X-7010764Y6434175D01*
X-6821067Y6286528D01*
X-6821064Y6286527D01*
X-6821062Y6286525D01*
X-6609656Y6172118D01*
X-6382297Y6094066D01*
X-6145195Y6054500D01*
X-6145192Y6054500D01*
X-5904805Y6054500D01*
X-5726980Y6084175D01*
X-5667703Y6094066D01*
X-5440344Y6172118D01*
X-5228933Y6286528D01*
X-5039236Y6434175D01*
X-5039227Y6434185D01*
X-5030134Y6442554D01*
X-5028226Y6440481D01*
X-4956913Y6493795D01*
X-4851082Y6523354D01*
X-4824932Y6524500D01*
X-4212764Y6524500D01*
X-4104753Y6504309D01*
X-4011329Y6446464D01*
X-4001339Y6436925D01*
X-2962184Y5397770D01*
X-2900086Y5307117D01*
X-2895154Y5293973D01*
X-2895000Y5294034D01*
X-2890506Y5282865D01*
X-2890503Y5282858D01*
X-2890500Y5282852D01*
X-2778654Y5058898D01*
X-2769798Y5046605D01*
X-2632324Y4855778D01*
X-1721817Y3945271D01*
X-1578878Y3823687D01*
X-1578874Y3823685D01*
X-1578872Y3823683D01*
X-1364646Y3694178D01*
X-1364637Y3694174D01*
X-1132423Y3600717D01*
X-1132408Y3600711D01*
X-888186Y3545708D01*
X-763246Y3538151D01*
X-638310Y3530593D01*
X-638309Y3530594D01*
X-638305Y3530593D01*
X-389234Y3555756D01*
X-147426Y3620549D01*
X80858Y3723291D01*
X289704Y3861323D01*
X473704Y4031067D01*
X628093Y4228130D01*
X748872Y4447406D01*
X799253Y4588772D01*
X2935923Y4588772D01*
X2939354Y4540790D01*
X2940234Y4528495D01*
X2940615Y4517827D01*
X2940615Y671528D01*
X2938635Y647812D01*
X2939442Y647754D01*
X2938425Y633547D01*
X2940615Y541597D01*
X2940615Y502259D01*
X2941355Y494507D01*
X2941989Y483857D01*
X2943427Y423435D01*
X2943428Y423433D01*
X2949933Y393527D01*
X2952674Y375950D01*
X2955585Y345468D01*
X2955585Y345467D01*
X2972613Y287479D01*
X2975254Y277133D01*
X2988100Y218073D01*
X2988102Y218068D01*
X3000157Y189916D01*
X3006175Y173175D01*
X3014798Y143808D01*
X3042497Y90076D01*
X3047045Y80424D01*
X3070836Y24869D01*
X3087996Y-484D01*
X3097070Y-15778D01*
X3111104Y-43001D01*
X3138297Y-77580D01*
X3148467Y-90511D01*
X3154764Y-99135D01*
X3188638Y-149184D01*
X3210285Y-170831D01*
X3222097Y-184140D01*
X3241019Y-208201D01*
X3241021Y-208203D01*
X3286699Y-247784D01*
X3294513Y-255059D01*
X5829849Y-2790395D01*
X5891947Y-2881048D01*
X5917105Y-2988011D01*
X5911061Y-3063177D01*
X5891938Y-3154378D01*
X5882005Y-3394554D01*
X5911739Y-3633095D01*
X5952752Y-3770854D01*
X5980329Y-3863483D01*
X6085905Y-4079441D01*
X6225586Y-4275077D01*
X6395563Y-4445054D01*
X6591199Y-4584735D01*
X6807157Y-4690311D01*
X6938358Y-4729371D01*
X7037544Y-4758900D01*
X7037545Y-4758900D01*
X7037548Y-4758901D01*
X7276083Y-4788634D01*
X7276084Y-4788635D01*
X7276085Y-4788634D01*
X7276086Y-4788635D01*
X7516264Y-4778701D01*
X7751532Y-4729371D01*
X7975471Y-4641990D01*
X8181973Y-4518940D01*
X8319468Y-4402488D01*
X8319469Y-4402488D01*
X8482732Y-4239225D01*
X8998280Y-3723676D01*
X9114736Y-3586177D01*
X9116339Y-3583488D01*
X9137993Y-3547145D01*
X9237785Y-3379675D01*
X9325167Y-3155736D01*
X9374497Y-2920468D01*
X9384431Y-2680290D01*
X9354697Y-2441752D01*
X9286107Y-2211362D01*
X9180531Y-1995403D01*
X9040850Y-1799767D01*
X8870873Y-1629790D01*
X8675237Y-1490109D01*
X8459278Y-1384533D01*
X8228888Y-1315943D01*
X8228885Y-1315942D01*
X8228883Y-1315942D01*
X7990352Y-1286209D01*
X7990351Y-1286208D01*
X7750174Y-1296142D01*
X7658973Y-1315265D01*
X7549117Y-1317668D01*
X7445811Y-1280225D01*
X7386191Y-1234053D01*
X5229190Y922948D01*
X5167092Y1013601D01*
X5141934Y1120564D01*
X5141615Y1134373D01*
X5141615Y2967994D01*
X6524059Y2967994D01*
X6553793Y2729453D01*
X6622382Y2499068D01*
X6622383Y2499065D01*
X6727959Y2283107D01*
X6727960Y2283105D01*
X6727961Y2283104D01*
X6728031Y2283006D01*
X6867640Y2087471D01*
X7037617Y1917494D01*
X7233253Y1777813D01*
X7449211Y1672237D01*
X7679599Y1603648D01*
X7679602Y1603647D01*
X7800649Y1588559D01*
X7905332Y1555163D01*
X7975089Y1503280D01*
X11542805Y-2064435D01*
X11587256Y-2121172D01*
X11589750Y-2125298D01*
X11589756Y-2125307D01*
X11589757Y-2125308D01*
X11736086Y-2328427D01*
X12646593Y-3238934D01*
X12789532Y-3360518D01*
X12789536Y-3360520D01*
X12789538Y-3360522D01*
X13003764Y-3490027D01*
X13003773Y-3490031D01*
X13188447Y-3564355D01*
X13236002Y-3583494D01*
X13480224Y-3638497D01*
X13605164Y-3646054D01*
X13730100Y-3653612D01*
X13730101Y-3653611D01*
X13730105Y-3653612D01*
X13979176Y-3628449D01*
X14220984Y-3563656D01*
X14449268Y-3460914D01*
X14658114Y-3322882D01*
X14842114Y-3153138D01*
X14996503Y-2956075D01*
X15117282Y-2736799D01*
X15201322Y-2500989D01*
X15246446Y-2254750D01*
X15251487Y-2004463D01*
X15216314Y-1756608D01*
X15141838Y-1517603D01*
X15029987Y-1293642D01*
X14883658Y-1090523D01*
X13973152Y-180017D01*
X13973152Y-180016D01*
X13830220Y-58437D01*
X13830216Y-58434D01*
X13830213Y-58432D01*
X13736477Y-1767D01*
X13679740Y42684D01*
X10097118Y3625307D01*
X10035020Y3715960D01*
X10011839Y3799749D01*
X10004164Y3861323D01*
X9996751Y3920796D01*
X9928161Y4151186D01*
X9822585Y4367145D01*
X9682904Y4562781D01*
X9512927Y4732758D01*
X9317291Y4872439D01*
X9101332Y4978015D01*
X8870942Y5046605D01*
X8870939Y5046606D01*
X8870937Y5046606D01*
X8632406Y5076339D01*
X8632405Y5076340D01*
X8392230Y5066406D01*
X8156956Y5017075D01*
X7933020Y4929694D01*
X7933018Y4929693D01*
X7726524Y4806650D01*
X7589020Y4690190D01*
X7562650Y4663822D01*
X7514298Y4626186D01*
X7514617Y4625739D01*
X7302182Y4474065D01*
X7126332Y4298215D01*
X6974658Y4085780D01*
X6974211Y4086099D01*
X6936581Y4037754D01*
X6910215Y4011386D01*
X6910212Y4011384D01*
X6793752Y3873879D01*
X6670707Y3667386D01*
X6670705Y3667382D01*
X6583322Y3443438D01*
X6533992Y3208168D01*
X6524059Y2967994D01*
X5141615Y2967994D01*
X5141615Y3982772D01*
X5161806Y4090783D01*
X5219651Y4184207D01*
X5229169Y4194176D01*
X9260121Y8225129D01*
X9278286Y8240490D01*
X9277755Y8241103D01*
X9288519Y8250432D01*
X9288528Y8250438D01*
X9352003Y8317010D01*
X9379817Y8344823D01*
X9384782Y8350838D01*
X9391823Y8358773D01*
X9433562Y8402546D01*
X9450117Y8428307D01*
X9460592Y8442654D01*
X9480100Y8466279D01*
X9509081Y8519357D01*
X9514504Y8528496D01*
X9547189Y8579352D01*
X9558568Y8607779D01*
X9566147Y8623865D01*
X9580824Y8650742D01*
X9599228Y8708314D01*
X9602840Y8718363D01*
X9625300Y8774465D01*
X9625299Y8774465D01*
X9625301Y8774467D01*
X9631095Y8804534D01*
X9635495Y8821769D01*
X9636677Y8825464D01*
X9644818Y8850932D01*
X9651994Y8910954D01*
X9653633Y8921473D01*
X9665076Y8980839D01*
X9665076Y9011455D01*
X9666134Y9029217D01*
X9667045Y9036846D01*
X9669768Y9059615D01*
X9665456Y9119902D01*
X9665076Y9130561D01*
X9665076Y13234477D01*
X9685267Y13342488D01*
X9702171Y13378723D01*
X9729128Y13427662D01*
X9813168Y13663472D01*
X9858292Y13909711D01*
X9863333Y14159998D01*
X9828160Y14407853D01*
X9753684Y14646858D01*
X9641833Y14870819D01*
X9495504Y15073938D01*
X8584998Y15984444D01*
X8584998Y15984445D01*
X8442066Y16106024D01*
X8442062Y16106027D01*
X8442059Y16106029D01*
X8227824Y16235538D01*
X7995588Y16329005D01*
X7751367Y16384008D01*
X7751364Y16384009D01*
X7751361Y16384009D01*
X7501489Y16399124D01*
X7252414Y16373960D01*
X7010606Y16309167D01*
X7010604Y16309167D01*
X7010603Y16309166D01*
X6782323Y16206426D01*
X6782321Y16206425D01*
X6573480Y16068397D01*
X6573475Y16068393D01*
X6389475Y15898649D01*
X6235087Y15701588D01*
X6114310Y15482315D01*
X6114307Y15482308D01*
X6030270Y15246505D01*
X6030268Y15246497D01*
X5985144Y15000264D01*
X5985143Y15000252D01*
X5980103Y14749976D01*
X6013649Y14513591D01*
X6015277Y14502118D01*
X6089753Y14263114D01*
X6201603Y14039153D01*
X6347932Y13836034D01*
X7258439Y12925527D01*
X7358804Y12840157D01*
X7427994Y12754797D01*
X7461677Y12650205D01*
X7464076Y12612406D01*
X7464076Y9665617D01*
X7443885Y9557606D01*
X7386040Y9464182D01*
X7376501Y9454192D01*
X3345561Y5423253D01*
X3327396Y5407884D01*
X3327924Y5407274D01*
X3317164Y5397951D01*
X3253687Y5331378D01*
X3225878Y5303569D01*
X3225859Y5303548D01*
X3220893Y5297535D01*
X3213824Y5289572D01*
X3172135Y5245850D01*
X3172128Y5245841D01*
X3155576Y5220087D01*
X3145090Y5205727D01*
X3125592Y5182111D01*
X3125590Y5182108D01*
X3096622Y5129057D01*
X3091177Y5119881D01*
X3058501Y5069034D01*
X3058498Y5069028D01*
X3047122Y5040613D01*
X3039541Y5024523D01*
X3024870Y4997653D01*
X3024864Y4997641D01*
X3006460Y4940065D01*
X3002849Y4930023D01*
X2980390Y4873922D01*
X2980390Y4873921D01*
X2974596Y4843863D01*
X2970198Y4826632D01*
X2960873Y4797459D01*
X2953696Y4737437D01*
X2952052Y4726893D01*
X2940615Y4667555D01*
X2940615Y4636932D01*
X2939557Y4619171D01*
X2935923Y4588773D01*
X2935923Y4588772D01*
X799253Y4588772D01*
X832912Y4683216D01*
X878036Y4929455D01*
X879409Y4997641D01*
X880148Y5034298D01*
X902509Y5141881D01*
X962224Y5234121D01*
X1051227Y5298561D01*
X1149032Y5325764D01*
X1157744Y5326645D01*
X1157747Y5326644D01*
X1406818Y5351807D01*
X1648626Y5416600D01*
X1876910Y5519342D01*
X2085756Y5657374D01*
X2269756Y5827118D01*
X2424145Y6024181D01*
X2544924Y6243457D01*
X2628964Y6479267D01*
X2674088Y6725506D01*
X2679129Y6975793D01*
X2643956Y7223648D01*
X2569480Y7462653D01*
X2457629Y7686614D01*
X2311300Y7889733D01*
X1400794Y8800239D01*
X1400794Y8800240D01*
X1257862Y8921819D01*
X1257858Y8921822D01*
X1257855Y8921824D01*
X1043620Y9051333D01*
X1043614Y9051336D01*
X1043611Y9051337D01*
X922762Y9099975D01*
X830101Y9159033D01*
X822974Y9165927D01*
X-640859Y10629760D01*
X-702957Y10720413D01*
X-728115Y10827376D01*
X-725285Y10874803D01*
X-725914Y10874855D01*
X-724894Y10887175D01*
X-724892Y10887179D01*
X-709500Y11072933D01*
X-709500Y12397067D01*
X-724892Y12582821D01*
X-785937Y12823881D01*
X-885827Y13051607D01*
X-1021836Y13259785D01*
X-1175675Y13426899D01*
X-1190254Y13442736D01*
X-1190257Y13442739D01*
X-1386492Y13595475D01*
X-1605192Y13713830D01*
X-1840387Y13794572D01*
X-2085662Y13835500D01*
X-2085665Y13835500D01*
X-2334335Y13835500D01*
X-2334338Y13835500D01*
X-2579614Y13794572D01*
X-2579615Y13794572D01*
X-2814808Y13713830D01*
X-2814809Y13713830D01*
X-3033509Y13595475D01*
X-3229744Y13442739D01*
X-3229747Y13442736D01*
X-3398165Y13259785D01*
X-3534172Y13051610D01*
X-3534177Y13051600D01*
X-3634062Y12823886D01*
X-3634064Y12823881D01*
X-3674241Y12665224D01*
X-3695108Y12582821D01*
X-3695109Y12582818D01*
X-3695109Y12582815D01*
X-3698504Y12541841D01*
X-3710500Y12397067D01*
X-3710500Y11072933D01*
X-3695108Y10887179D01*
X-3664067Y10764600D01*
X-3634064Y10646120D01*
X-3630048Y10634424D01*
X-3631953Y10633771D01*
X-3610787Y10542795D01*
X-3610500Y10529707D01*
X-3610500Y10267669D01*
X-3610803Y10258153D01*
X-3615247Y10188465D01*
X-3615247Y10188460D01*
X-3604195Y10084718D01*
X-3595346Y9980749D01*
X-3593200Y9968235D01*
X-3593600Y9968167D01*
X-3592802Y9963792D01*
X-3592403Y9963869D01*
X-3589992Y9951402D01*
X-3561563Y9851005D01*
X-3535276Y9750046D01*
X-3531046Y9738076D01*
X-3531429Y9737941D01*
X-3529892Y9733733D01*
X-3529511Y9733876D01*
X-3528066Y9730046D01*
X-3527613Y9727496D01*
X-3523058Y9715029D01*
X-3521583Y9709822D01*
X-3524332Y9709044D01*
X-3508830Y9621861D01*
X-3529973Y9514032D01*
X-3588641Y9421122D01*
X-3676910Y9355680D01*
X-3782859Y9326544D01*
X-3807818Y9325500D01*
X-4824932Y9325500D01*
X-4932943Y9345691D01*
X-5026367Y9403536D01*
X-5032292Y9409432D01*
X-5039233Y9415822D01*
X-5039236Y9415825D01*
X-5046042Y9421122D01*
X-5228929Y9563469D01*
X-5228939Y9563476D01*
X-5440345Y9677883D01*
X-5667704Y9755935D01*
X-5904805Y9795500D01*
X-5904808Y9795500D01*
X-6145192Y9795500D01*
X-6145195Y9795500D01*
X-6382297Y9755935D01*
X-6609657Y9677883D01*
X-6723192Y9616440D01*
X-6827795Y9582790D01*
X-6937490Y9589199D01*
X-7037463Y9634802D01*
X-7114211Y9713439D01*
X-7157369Y9814491D01*
X-7164500Y9879403D01*
X-7164500Y11788045D01*
X-7144309Y11896056D01*
X-7086464Y11989480D01*
X-7076946Y11999449D01*
X-5054868Y14021528D01*
X-4964218Y14083623D01*
X-4868135Y14108079D01*
X-4861773Y14108607D01*
X-4852437Y14109380D01*
X-4619409Y14168390D01*
X-4399272Y14264951D01*
X-4198031Y14396429D01*
X-4021175Y14559236D01*
X-3873528Y14748933D01*
X-3759118Y14960344D01*
X-3681066Y15187703D01*
X-3664073Y15289536D01*
X-3641500Y15424805D01*
X-3641500Y15665196D01*
X-3681066Y15902297D01*
X-3759118Y16129656D01*
X-3873525Y16341062D01*
X-3873527Y16341064D01*
X-3873528Y16341067D01*
X-4021175Y16530764D01*
X-4198031Y16693571D01*
X-4198032Y16693572D01*
X-4198037Y16693576D01*
X-4399277Y16825052D01*
X-4619406Y16921609D01*
X-4619408Y16921610D01*
X-4619409Y16921610D01*
X-4715353Y16945906D01*
X-4852439Y16980621D01*
X-5015787Y16994156D01*
X-5032010Y16995500D01*
X-5991990Y16995500D01*
X-6008214Y16994156D01*
X-6171561Y16980621D01*
X-6171562Y16980621D01*
X-6404595Y16921609D01*
X-6624724Y16825052D01*
X-6825964Y16693576D01*
X-6825969Y16693572D01*
X-7002823Y16530767D01*
X-7002830Y16530759D01*
X-7150469Y16341072D01*
X-7150476Y16341062D01*
X-7264883Y16129656D01*
X-7342935Y15902298D01*
X-7368755Y15747565D01*
X-7406449Y15644351D01*
X-7452252Y15585355D01*
X-9520396Y13517212D01*
X-9527336Y13510700D01*
X-9579757Y13464562D01*
X-9645291Y13383401D01*
X-9712556Y13303620D01*
X-9719889Y13293251D01*
X-9720219Y13293484D01*
X-9722750Y13289824D01*
X-9722414Y13289597D01*
X-9729525Y13279077D01*
X-9780404Y13188000D01*
X-9833211Y13098014D01*
X-9838687Y13086552D01*
X-9839051Y13086726D01*
X-9840928Y13082690D01*
X-9840560Y13082523D01*
X-9845792Y13070950D01*
X-9880555Y12972562D01*
X-9917385Y12874969D01*
X-9920844Y12862752D01*
X-9921234Y12862863D01*
X-9922401Y12858567D01*
X-9922011Y12858465D01*
X-9925210Y12846180D01*
X-9942845Y12743330D01*
X-9962656Y12640904D01*
X-9964001Y12628271D01*
X-9964404Y12628314D01*
X-9964828Y12623892D01*
X-9964423Y12623857D01*
X-9965500Y12611199D01*
X-9965500Y12506889D01*
X-9967715Y12402554D01*
X-9966906Y12389878D01*
X-9967313Y12389853D01*
X-9965500Y12365503D01*
X-9965500Y8760522D01*
X-9974649Y8687123D01*
X-10000620Y8584566D01*
X-10000621Y8584561D01*
X-10015500Y8404989D01*
X-10015500Y7445011D01*
X-29745116Y7445011D01*
X-29734616Y7488399D01*
X-29575567Y8068158D01*
X-29445190Y8532059D01*
X-29267019Y9101080D01*
X-29248422Y9159033D01*
X-29118277Y9564613D01*
X-28921196Y10123266D01*
X-28754324Y10584650D01*
X-28538525Y11133129D01*
X-28353811Y11590847D01*
X-28119550Y12129025D01*
X-27917239Y12581939D01*
X-27664759Y13109656D01*
X-27445187Y13556615D01*
X-27174843Y14073438D01*
X-27169367Y14083623D01*
X-26938281Y14513591D01*
X-26683880Y14960344D01*
X-26650324Y15019273D01*
X-26397222Y15451561D01*
X-26091884Y15945857D01*
X-25822654Y16369410D01*
X-25500379Y16851731D01*
X-25215335Y17265931D01*
X-24876477Y17735847D01*
X-24576109Y18139879D01*
X-24221024Y18596979D01*
X-23905821Y18990123D01*
X-23534851Y19434013D01*
X-23205235Y19815686D01*
X-22818926Y20245755D01*
X-22475444Y20615296D01*
X-22074048Y21031284D01*
X-21717284Y21388048D01*
X-21301296Y21789444D01*
X-20931750Y22132929D01*
X-20501685Y22519236D01*
X-20120013Y22848851D01*
X-19676123Y23219821D01*
X-19282979Y23535024D01*
X-18825867Y23890119D01*
X-18421847Y24190477D01*
X-17951931Y24529335D01*
X-17537731Y24814379D01*
X-17055410Y25136654D01*
X-16631857Y25405884D01*
X-16137561Y25711222D01*
X-15705298Y25964310D01*
X-15199591Y26252281D01*
X-14759426Y26488848D01*
X-14242589Y26759201D01*
X-13795656Y26978759D01*
X-13267939Y27231239D01*
X-12815110Y27433513D01*
X-12276847Y27667811D01*
X-11819129Y27852525D01*
X-11270638Y28068330D01*
X-10809256Y28235199D01*
X-10250595Y28432284D01*
X-9787106Y28581011D01*
X-9218045Y28759195D01*
X-8754158Y28889567D01*
X-8174385Y29048620D01*
X-7712436Y29160417D01*
X-7120891Y29300203D01*
X-6664110Y29393232D01*
X-6059011Y29513594D01*
X-5612032Y29587740D01*
X-4990090Y29688523D01*
X-4561443Y29743628D01*
X-3915586Y29824751D01*
X-3522899Y29860714D01*
X-2836777Y29922114D01*
X-2531222Y29938873D01*
X-1756752Y29980385D01*
X-686000Y29999500D01*
X384752Y29980385D01*
G37*
G04 #@! TD.AperFunction*
M02*
