M48
; DRILL file {KiCad 7.0.9} date Tue Apr 16 12:52:00 2024
; FORMAT={-:-/ absolute / metric / decimal}
; #@! TF.CreationDate,2024-04-16T12:52:00+01:00
; #@! TF.GenerationSoftware,Kicad,Pcbnew,7.0.9
; #@! TF.FileFunction,MixedPlating,1,2
FMAT,2
METRIC
; #@! TA.AperFunction,Plated,PTH,ComponentDrill
T1C0.950
; #@! TA.AperFunction,Plated,PTH,ComponentDrill
T2C1.000
; #@! TA.AperFunction,Plated,PTH,ComponentDrill
T3C1.016
; #@! TA.AperFunction,Plated,PTH,ComponentDrill
T4C1.050
; #@! TA.AperFunction,Plated,PTH,ComponentDrill
T5C1.100
; #@! TA.AperFunction,Plated,PTH,ComponentDrill
T6C1.300
; #@! TA.AperFunction,Plated,PTH,ComponentDrill
T7C3.100
; #@! TA.AperFunction,Plated,PTH,ViaDrill
T8C3.200
%
G90
G05
T1
X-18.988Y-27.183
X-17.192Y-28.979
X-6.539Y-14.289
X-4.743Y-16.085
X-2.21Y11.735
X0.33Y11.735
T2
X-27.356Y-3.378
X-24.816Y-3.378
X-19.667Y-11.479
X-17.871Y-9.683
X-12.483Y-18.663
X-11.481Y-5.655
X-10.687Y-16.867
X-9.685Y-3.859
X-9.07Y-8.066
X-8.565Y7.925
X-7.274Y-6.27
X-6.376Y-10.76
X-6.025Y7.925
X-5.512Y15.545
X-2.84Y-7.225
X-0.705Y5.121
X-0.705Y-16.431
X0.449Y-10.222
X1.091Y6.917
X1.091Y-3.859
X3.592Y-20.369
X4.648Y15.545
X5.388Y-22.165
X6.479Y-9.247
X7.633Y-3.037
X8.275Y14.101
X8.275Y3.325
X11.186Y-27.964
X12.982Y-29.76
X13.663Y-2.063
X13.72Y-35.708
X14.368Y-18.753
X14.561Y11.407
X16.358Y9.611
X16.872Y-7.09
X18.154Y7.815
X18.668Y-8.886
X19.052Y3.325
X19.95Y6.019
X20.904Y-28.524
X21.553Y-11.569
X24.466Y-14.684
X26.262Y-16.48
T3
X2.887Y8.713
X10.969Y14.999
X12.765Y13.203
X17.256Y1.529
T4
X13.304Y17.334
X15.1Y15.538
X16.896Y13.742
X18.692Y11.946
X20.488Y10.15
X22.284Y8.354
X24.786Y-8.336
X26.582Y-6.54
T5
X-15.987Y-3.222
X-14.191Y-1.426
X-13.47Y-24.859
X-12.395Y0.37
X-11.674Y-23.063
X-11.674Y-26.655
X-10.599Y2.166
X-9.878Y-21.267
X-9.878Y-24.859
X-8.082Y-19.471
X-8.082Y-23.063
X-6.286Y-21.267
X-2.245Y-21.896
X4.939Y-14.712
T6
X8.966Y-31.37
X8.966Y-37.87
T7
X-10.561Y-34.681
T8
X-21.553Y-16.957
T2
X-2.086Y-26.81G85X0.714Y-26.81
G05
X-1.686Y-32.81G85X0.314Y-32.81
G05
X4.114Y-30.31G85X4.114Y-28.31
G05
T0
M30
