<?xml version="1.0" standalone="no"?>
<!DOCTYPE svg PUBLIC "-//W3C//DTD SVG 1.1//EN"
"http://www.w3.org/Graphics/SVG/1.1/DTD/svg11.dtd">
<svg width="329.953" height="329.953" viewBox="0 0 6874.02 6874.02" version="1.1"
xmlns="http://www.w3.org/2000/svg"
xmlns:xlink="http://www.w3.org/1999/xlink">
<circle cx="5337.01" cy="1842.99" r="31.4961" style=""/>
<circle cx="3642.99" cy="4162.99" r="37.4016" style=""/>
<circle cx="3642.99" cy="4962.99" r="37.4016" style=""/>
<circle cx="2762.6" cy="5762.99" r="37.4016" style=""/>
<circle cx="2762.99" cy="6042.99" r="37.4016" style=""/>
<circle cx="2162.99" cy="6042.99" r="37.4016" style=""/>
<circle cx="2162.6" cy="5762.99" r="37.4016" style=""/>
<circle cx="962.992" cy="5309.37" r="37.4016" style=""/>
<circle cx="562.992" cy="4616.61" r="37.4016" style=""/>
<circle cx="1002.99" cy="3602.99" r="37.4016" style=""/>
<circle cx="1002.99" cy="3402.99" r="37.4016" style=""/>
<circle cx="1002.99" cy="2342.6" r="37.4016" style=""/>
<circle cx="1002.99" cy="1542.6" r="37.4016" style=""/>
<circle cx="3137.01" cy="1642.99" r="37.4016" style=""/>
<circle cx="3337.01" cy="1642.99" r="37.4016" style=""/>
<circle cx="3537.01" cy="1642.99" r="37.4016" style=""/>
<circle cx="3737.01" cy="1642.99" r="37.4016" style=""/>
<circle cx="4137.01" cy="1642.99" r="37.4016" style=""/>
<circle cx="4137.01" cy="1842.99" r="37.4016" style=""/>
<circle cx="4337.01" cy="1642.99" r="37.4016" style=""/>
<circle cx="4337.01" cy="1842.99" r="37.4016" style=""/>
<circle cx="4537.01" cy="1642.99" r="37.4016" style=""/>
<circle cx="4537.01" cy="1842.99" r="37.4016" style=""/>
<circle cx="5337.01" cy="1642.99" r="37.4016" style=""/>
<circle cx="5762.99" cy="3562.99" r="37.4016" style=""/>
<circle cx="6062.99" cy="3962.99" r="37.4016" style=""/>
<circle cx="6062.99" cy="4356.69" r="37.4016" style=""/>
<circle cx="5762.99" cy="4362.99" r="37.4016" style=""/>
<circle cx="6029.53" cy="5136.54" r="37.4016" style=""/>
<circle cx="5515.35" cy="5749.45" r="37.4016" style=""/>
<circle cx="5212.99" cy="5862.99" r="37.4016" style=""/>
<circle cx="4862.99" cy="6112.99" r="37.4016" style=""/>
<circle cx="4412.99" cy="5862.99" r="37.4016" style=""/>
<circle cx="4062.99" cy="6112.99" r="37.4016" style=""/>
<circle cx="2062.99" cy="2062.99" r="39.3701" style=""/>
<circle cx="1862.99" cy="2062.99" r="39.3701" style=""/>
<circle cx="1362.99" cy="1542.6" r="39.3701" style=""/>
<circle cx="1562.99" cy="1542.6" r="39.3701" style=""/>
<circle cx="2262.99" cy="2062.99" r="39.3701" style=""/>
<circle cx="2462.99" cy="2062.99" r="39.3701" style=""/>
<circle cx="2662.99" cy="2062.99" r="39.3701" style=""/>
<circle cx="2862.99" cy="2062.99" r="39.3701" style=""/>
<circle cx="3062.99" cy="2062.99" r="39.3701" style=""/>
<circle cx="3262.99" cy="2062.99" r="39.3701" style=""/>
<circle cx="4262.99" cy="2562.99" r="39.3701" style=""/>
<circle cx="4262.99" cy="2762.99" r="39.3701" style=""/>
<circle cx="4262.99" cy="2962.99" r="39.3701" style=""/>
<circle cx="4262.99" cy="3162.99" r="39.3701" style=""/>
<circle cx="4262.99" cy="3362.99" r="39.3701" style=""/>
<circle cx="4262.99" cy="3562.99" r="39.3701" style=""/>
<circle cx="4262.99" cy="3762.99" r="39.3701" style=""/>
<circle cx="4262.99" cy="3962.99" r="39.3701" style=""/>
<circle cx="4262.99" cy="4162.99" r="39.3701" style=""/>
<circle cx="4262.99" cy="4362.99" r="39.3701" style=""/>
<circle cx="4262.99" cy="4562.99" r="39.3701" style=""/>
<circle cx="3962.99" cy="4562.99" r="39.3701" style=""/>
<circle cx="3962.99" cy="4362.99" r="39.3701" style=""/>
<circle cx="3362.99" cy="4362.99" r="39.3701" style=""/>
<circle cx="3162.99" cy="4362.99" r="39.3701" style=""/>
<circle cx="2762.99" cy="4517.32" r="39.3701" style=""/>
<circle cx="2762.99" cy="4317.32" r="39.3701" style=""/>
<circle cx="3262.99" cy="3862.99" r="39.3701" style=""/>
<circle cx="3062.99" cy="3862.99" r="39.3701" style=""/>
<circle cx="2862.99" cy="3862.99" r="39.3701" style=""/>
<circle cx="2662.99" cy="3862.99" r="39.3701" style=""/>
<circle cx="2462.99" cy="3862.99" r="39.3701" style=""/>
<circle cx="2262.99" cy="3862.99" r="39.3701" style=""/>
<circle cx="2062.99" cy="3862.99" r="39.3701" style=""/>
<circle cx="1862.99" cy="3862.99" r="39.3701" style=""/>
<circle cx="1284.25" cy="4317.32" r="39.3701" style=""/>
<circle cx="1284.25" cy="4517.32" r="39.3701" style=""/>
<circle cx="1284.25" cy="5162.99" r="39.3701" style=""/>
<circle cx="1284.25" cy="5362.99" r="39.3701" style=""/>
<circle cx="1662.99" cy="5762.99" r="39.3701" style=""/>
<circle cx="1862.99" cy="5762.99" r="39.3701" style=""/>
<circle cx="2762.99" cy="5162.99" r="39.3701" style=""/>
<circle cx="2762.99" cy="5362.99" r="39.3701" style=""/>
<circle cx="3326.77" cy="5435.43" r="39.3701" style=""/>
<circle cx="3547.24" cy="5435.43" r="39.3701" style=""/>
<circle cx="3445.49" cy="5435.43" r="39.3701" style=""/>
<circle cx="3394.61" cy="5435.43" r="39.3701" style=""/>
<circle cx="3496.37" cy="5435.43" r="39.3701" style=""/>
<circle cx="3360.69" cy="5435.43" r="39.3701" style=""/>
<circle cx="3428.53" cy="5435.43" r="39.3701" style=""/>
<circle cx="3462.45" cy="5435.43" r="39.3701" style=""/>
<circle cx="3530.28" cy="5435.43" r="39.3701" style=""/>
<circle cx="3343.73" cy="5435.43" r="39.3701" style=""/>
<circle cx="3377.65" cy="5435.43" r="39.3701" style=""/>
<circle cx="3411.57" cy="5435.43" r="39.3701" style=""/>
<circle cx="3479.41" cy="5435.43" r="39.3701" style=""/>
<circle cx="3513.33" cy="5435.43" r="39.3701" style=""/>
<circle cx="3358.27" cy="5907.87" r="39.3701" style=""/>
<circle cx="3515.75" cy="5907.87" r="39.3701" style=""/>
<circle cx="3445.76" cy="5907.87" r="39.3701" style=""/>
<circle cx="3410.76" cy="5907.87" r="39.3701" style=""/>
<circle cx="3480.75" cy="5907.87" r="39.3701" style=""/>
<circle cx="3393.26" cy="5907.87" r="39.3701" style=""/>
<circle cx="3428.26" cy="5907.87" r="39.3701" style=""/>
<circle cx="3463.25" cy="5907.87" r="39.3701" style=""/>
<circle cx="3498.25" cy="5907.87" r="39.3701" style=""/>
<circle cx="3375.77" cy="5907.87" r="39.3701" style=""/>
<circle cx="3814.96" cy="5711.02" r="39.3701" style=""/>
<circle cx="3814.96" cy="5553.54" r="39.3701" style=""/>
<circle cx="3814.96" cy="5623.53" r="39.3701" style=""/>
<circle cx="3814.96" cy="5658.53" r="39.3701" style=""/>
<circle cx="3814.96" cy="5588.54" r="39.3701" style=""/>
<circle cx="3814.96" cy="5676.03" r="39.3701" style=""/>
<circle cx="3814.96" cy="5641.03" r="39.3701" style=""/>
<circle cx="3814.96" cy="5606.04" r="39.3701" style=""/>
<circle cx="3814.96" cy="5571.04" r="39.3701" style=""/>
<circle cx="3814.96" cy="5693.53" r="39.3701" style=""/>
<circle cx="4262.99" cy="5362.99" r="39.3701" style=""/>
<circle cx="4262.99" cy="5162.99" r="39.3701" style=""/>
<circle cx="4262.99" cy="4962.99" r="39.3701" style=""/>
<circle cx="4262.99" cy="4762.99" r="39.3701" style=""/>
<circle cx="5462.99" cy="5362.99" r="39.3701" style=""/>
<circle cx="5462.99" cy="5162.99" r="39.3701" style=""/>
<circle cx="6029.53" cy="4762.99" r="39.3701" style=""/>
<circle cx="5829.53" cy="4762.99" r="39.3701" style=""/>
<circle cx="5462.99" cy="4962.99" r="39.3701" style=""/>
<circle cx="5462.99" cy="4762.99" r="39.3701" style=""/>
<circle cx="5462.99" cy="4562.99" r="39.3701" style=""/>
<circle cx="5462.99" cy="4362.99" r="39.3701" style=""/>
<circle cx="5462.99" cy="4162.99" r="39.3701" style=""/>
<circle cx="5462.99" cy="3962.99" r="39.3701" style=""/>
<circle cx="5462.99" cy="3762.99" r="39.3701" style=""/>
<circle cx="5462.99" cy="3562.99" r="39.3701" style=""/>
<circle cx="5462.99" cy="3362.99" r="39.3701" style=""/>
<circle cx="5462.99" cy="3162.99" r="39.3701" style=""/>
<circle cx="5462.99" cy="2962.99" r="39.3701" style=""/>
<circle cx="5462.99" cy="2762.99" r="39.3701" style=""/>
<circle cx="5462.99" cy="2562.99" r="39.3701" style=""/>
<circle cx="6162.99" cy="2846.46" r="122.047" style=""/>
<circle cx="287.402" cy="3437.01" r="125.984" style=""/>
<circle cx="3437.01" cy="3437.01" r="125.984" style=""/>
<circle cx="6586.61" cy="3437.01" r="125.984" style=""/>
</svg>
