<?xml version="1.0" standalone="no"?>
<!DOCTYPE svg PUBLIC "-//W3C//DTD SVG 1.1//EN"
"http://www.w3.org/Graphics/SVG/1.1/DTD/svg11.dtd">
<svg width="329.953" height="329.953" viewBox="0 0 6874.02 6874.02" version="1.1"
xmlns="http://www.w3.org/2000/svg"
xmlns:xlink="http://www.w3.org/1999/xlink">
<g fill-rule="evenodd"><path d="M 51.1819,3437.01 L 125.17,2733.06 L 343.902,2059.87 L 697.818,1446.87 L 1171.45,920.85 L 1744.1,504.798 L 2390.73,216.896 L 3083.09,69.7299 L 3790.92,69.7299 L 4483.29,216.896 L 5129.92,504.798 L 5702.57,920.85 L 6176.2,1446.87 L 6530.11,2059.87 L 6748.85,2733.06 L 6822.83,3437.01 L 6748.85,4140.96 L 6530.11,4814.15 L 6176.2,5427.15 L 5702.57,5953.17 L 5129.92,6369.22 L 4483.29,6657.12 L 3790.92,6804.29 L 3083.09,6804.29 L 2390.73,6657.12 L 1744.1,6369.22 L 1171.45,5953.17 L 697.818,5427.15 L 343.902,4814.15 L 125.17,4140.96 L 51.1819,3437.01M 1376.72,3162.99 L 1381.66,3210.04 L 1396.28,3255.03 L 1419.93,3295.99 L 1451.59,3331.15 L 1489.86,3358.95 L 1533.07,3378.19 L 1579.34,3388.03 L 1626.65,3388.03 L 1672.92,3378.19 L 1716.13,3358.95 L 1754.4,3331.15 L 1786.05,3295.99 L 1809.7,3255.03 L 1824.32,3210.04 L 1829.27,3162.99 L 1824.32,3115.95 L 1809.7,3070.96 L 1786.05,3029.99 L 1754.4,2994.84 L 1716.13,2967.03 L 1672.92,2947.79 L 1626.65,2937.96 L 1579.34,2937.96 L 1533.07,2947.79 L 1489.86,2967.03 L 1451.59,2994.84 L 1419.93,3029.99 L 1396.28,3070.96 L 1381.66,3115.95 L 1376.72,3162.99M 2060.63,2962.99 L 2072.68,3077.59 L 2108.28,3187.18 L 2165.9,3286.97 L 2243,3372.6 L 2336.22,3440.33 L 2441.49,3487.2 L 2554.2,3511.15 L 2669.43,3511.15 L 2782.14,3487.2 L 2887.4,3440.33 L 2980.62,3372.6 L 3057.73,3286.97 L 3115.34,3187.18 L 3150.95,3077.59 L 3162.99,2962.99 L 3150.95,2848.4 L 3115.34,2738.81 L 3057.73,2639.02 L 2980.62,2553.39 L 2887.4,2485.66 L 2782.14,2438.79 L 2669.43,2414.83 L 2554.2,2414.83 L 2441.49,2438.79 L 2336.22,2485.66 L 2243,2553.39 L 2165.9,2639.02 L 2108.28,2738.81 L 2072.68,2848.4 L 2060.63,2962.99M 2105.51,4262.99 L 2108.95,4295.73 L 2119.13,4327.04 L 2135.59,4355.56 L 2157.62,4380.02 L 2184.25,4399.37 L 2214.33,4412.76 L 2246.53,4419.61 L 2279.45,4419.61 L 2311.66,4412.76 L 2341.73,4399.37 L 2368.37,4380.02 L 2390.4,4355.56 L 2406.86,4327.04 L 2417.03,4295.73 L 2420.47,4262.99 L 2417.03,4230.25 L 2406.86,4198.94 L 2390.4,4170.43 L 2368.37,4145.96 L 2341.73,4126.61 L 2311.66,4113.22 L 2279.45,4106.37 L 2246.53,4106.37 L 2214.33,4113.22 L 2184.25,4126.61 L 2157.62,4145.96 L 2135.59,4170.43 L 2119.13,4198.94 L 2108.95,4230.25 L 2105.51,4262.99M 3112.99,2462.99 L 3117.36,2504.58 L 3130.28,2544.34 L 3151.19,2580.55 L 3179.17,2611.62 L 3212.99,2636.2 L 3251.19,2653.2 L 3292.09,2661.9 L 3333.9,2661.9 L 3374.8,2653.2 L 3412.99,2636.2 L 3446.82,2611.62 L 3474.79,2580.55 L 3495.7,2544.34 L 3508.62,2504.58 L 3512.99,2462.99 L 3508.62,2421.41 L 3495.7,2381.65 L 3474.79,2345.44 L 3446.82,2314.36 L 3412.99,2289.79 L 3374.8,2272.78 L 3333.9,2264.09 L 3292.09,2264.09 L 3251.19,2272.78 L 3212.99,2289.79 L 3179.17,2314.36 L 3151.19,2345.44 L 3130.28,2381.65 L 3117.36,2421.41 L 3112.99,2462.99M 4600.15,5082.99 L 4606.33,5141.8 L 4624.6,5198.03 L 4654.17,5249.24 L 4693.73,5293.18 L 4741.57,5327.94 L 4795.59,5351.99 L 4853.43,5364.28 L 4912.56,5364.28 L 4970.39,5351.99 L 5024.41,5327.94 L 5072.25,5293.18 L 5111.82,5249.24 L 5141.38,5198.03 L 5159.65,5141.8 L 5165.83,5082.99 L 5159.65,5024.18 L 5141.38,4967.95 L 5111.82,4916.74 L 5072.25,4872.8 L 5024.41,4838.04 L 4970.39,4813.99 L 4912.56,4801.7 L 4853.43,4801.7 L 4795.59,4813.99 L 4741.57,4838.04 L 4693.73,4872.8 L 4654.17,4916.74 L 4624.6,4967.95 L 4606.33,5024.18 L 4600.15,5082.99 z " style="fill-opacity:1.000000;fill:rgb(103,198,105);stroke:rgb(0,0,0);stroke-width:2"/></g>
</svg>
