<?xml version="1.0" standalone="no"?>
<!DOCTYPE svg PUBLIC "-//W3C//DTD SVG 1.1//EN"
"http://www.w3.org/Graphics/SVG/1.1/DTD/svg11.dtd">
<svg width="329.953" height="329.953" viewBox="0 0 6874.02 6874.02" version="1.1"
xmlns="http://www.w3.org/2000/svg"
xmlns:xlink="http://www.w3.org/1999/xlink">
<g fill-rule="evenodd"><path d="M 0,6874.02 L 0,0 L 6874.02,0 L 6874.02,6874.02 L 0,6874.02 z " style="fill-opacity:0.200000;fill:rgb(103,198,105);"/></g>
<polyline points="27.5599,3437.01 27.6899,3439.48 101.678,4143.43 102.066,4145.87 102.706,4148.26 321.438,4821.44 322.324,4823.75 323.446,4825.96 677.362,5438.96 678.708,5441.03 680.264,5442.95 1153.89,5968.97 1155.64,5970.72 1157.56,5972.28 1730.21,6388.33 1732.29,6389.67 1734.49,6390.8 2381.12,6678.7 2383.43,6679.58 2385.82,6680.22 3078.18,6827.39 3080.63,6827.78 3083.09,6827.91 3790.92,6827.91 3793.39,6827.78 3795.83,6827.39 4488.2,6680.22 4490.58,6679.58 4492.89,6678.7 5139.53,6390.8 5141.73,6389.67 5143.8,6388.33 5716.45,5972.28 5718.37,5970.72 5720.12,5968.97 6193.75,5442.95 6195.31,5441.03 6196.65,5438.96 6550.57,4825.96 6551.69,4823.75 6552.58,4821.44 6771.31,4148.26 6771.95,4145.87 6772.34,4143.43 6846.33,3439.48 6846.46,3437.01 6846.33,3434.54 6772.34,2730.59 6771.95,2728.15 6771.31,2725.76 6552.58,2052.57 6551.69,2050.26 6550.57,2048.06 6196.65,1435.06 6195.31,1432.99 6193.75,1431.06 5720.12,905.044 5718.37,903.296 5716.45,901.74 5143.8,485.688 5141.73,484.342 5139.53,483.22 4492.89,195.318 4490.58,194.432 4488.2,193.792 3795.83,46.6259 3793.39,46.2379 3790.92,46.1079 3083.09,46.1079 3080.63,46.2379 3078.18,46.6259 2385.82,193.792 2383.43,194.432 2381.12,195.318 1734.49,483.22 1732.29,484.342 1730.21,485.688 1157.56,901.74 1155.64,903.296 1153.89,905.044 680.264,1431.06 678.708,1432.99 677.362,1435.06 323.446,2048.06 322.324,2050.26 321.438,2052.57 102.706,2725.76 102.066,2728.15 101.678,2730.59 27.6899,3434.54 27.5599,3437.01" style="stroke:rgb(103,198,105);stroke-width:47.244094;fill:none;stroke-opacity:0.5;stroke-linecap:round;stroke-linejoin:round;;fill:none"/>
<polyline points="27.5599,3437.01 27.6899,3439.48 101.678,4143.43 102.066,4145.87 102.706,4148.26 321.438,4821.44 322.324,4823.75 323.446,4825.96 677.362,5438.96 678.708,5441.03 680.264,5442.95 1153.89,5968.97 1155.64,5970.72 1157.56,5972.28 1730.21,6388.33 1732.29,6389.67 1734.49,6390.8 2381.12,6678.7 2383.43,6679.58 2385.82,6680.22 3078.18,6827.39 3080.63,6827.78 3083.09,6827.91 3790.92,6827.91 3793.39,6827.78 3795.83,6827.39 4488.2,6680.22 4490.58,6679.58 4492.89,6678.7 5139.53,6390.8 5141.73,6389.67 5143.8,6388.33 5716.45,5972.28 5718.37,5970.72 5720.12,5968.97 6193.75,5442.95 6195.31,5441.03 6196.65,5438.96 6550.57,4825.96 6551.69,4823.75 6552.58,4821.44 6771.31,4148.26 6771.95,4145.87 6772.34,4143.43 6846.33,3439.48 6846.46,3437.01 6846.33,3434.54 6772.34,2730.59 6771.95,2728.15 6771.31,2725.76 6552.58,2052.57 6551.69,2050.26 6550.57,2048.06 6196.65,1435.06 6195.31,1432.99 6193.75,1431.06 5720.12,905.044 5718.37,903.296 5716.45,901.74 5143.8,485.688 5141.73,484.342 5139.53,483.22 4492.89,195.318 4490.58,194.432 4488.2,193.792 3795.83,46.6259 3793.39,46.2379 3790.92,46.1079 3083.09,46.1079 3080.63,46.2379 3078.18,46.6259 2385.82,193.792 2383.43,194.432 2381.12,195.318 1734.49,483.22 1732.29,484.342 1730.21,485.688 1157.56,901.74 1155.64,903.296 1153.89,905.044 680.264,1431.06 678.708,1432.99 677.362,1435.06 323.446,2048.06 322.324,2050.26 321.438,2052.57 102.706,2725.76 102.066,2728.15 101.678,2730.59 27.6899,3434.54 27.5599,3437.01" style="stroke:rgb(0,0,0);stroke-width:1px;fill:none;stroke-opacity:1;stroke-linecap:round;stroke-linejoin:round;;fill:none"/>
<polyline points="3136.75,2462.99 3140.6,2426.35 3151.98,2391.31 3170.41,2359.4 3195.06,2332.02 3224.87,2310.36 3258.53,2295.37 3294.57,2287.71 3331.42,2287.71 3367.46,2295.37 3401.12,2310.36 3430.93,2332.02 3455.58,2359.4 3474,2391.31 3485.39,2426.35 3489.24,2462.99 3485.39,2499.64 3474,2534.68 3455.58,2566.59 3430.93,2593.97 3401.12,2615.63 3367.46,2630.62 3331.42,2638.28 3294.57,2638.28 3258.53,2630.62 3224.87,2615.63 3195.06,2593.97 3170.41,2566.59 3151.98,2534.68 3140.6,2499.64 3136.75,2462.99" style="stroke:rgb(103,198,105);stroke-width:47.244094;fill:none;stroke-opacity:0.5;stroke-linecap:round;stroke-linejoin:round;;fill:none"/>
<polyline points="3136.75,2462.99 3140.6,2426.35 3151.98,2391.31 3170.41,2359.4 3195.06,2332.02 3224.87,2310.36 3258.53,2295.37 3294.57,2287.71 3331.42,2287.71 3367.46,2295.37 3401.12,2310.36 3430.93,2332.02 3455.58,2359.4 3474,2391.31 3485.39,2426.35 3489.24,2462.99 3485.39,2499.64 3474,2534.68 3455.58,2566.59 3430.93,2593.97 3401.12,2615.63 3367.46,2630.62 3331.42,2638.28 3294.57,2638.28 3258.53,2630.62 3224.87,2615.63 3195.06,2593.97 3170.41,2566.59 3151.98,2534.68 3140.6,2499.64 3136.75,2462.99" style="stroke:rgb(0,0,0);stroke-width:1px;fill:none;stroke-opacity:1;stroke-linecap:round;stroke-linejoin:round;;fill:none"/>
<polyline points="2084.39,2962.99 2095.91,2853.34 2129.98,2748.47 2185.11,2652.98 2258.89,2571.04 2348.1,2506.23 2448.83,2461.38 2556.68,2438.46 2666.94,2438.46 2774.8,2461.38 2875.53,2506.23 2964.73,2571.04 3038.51,2652.98 3093.64,2748.47 3127.72,2853.34 3139.24,2962.99 3127.72,3072.65 3093.64,3177.52 3038.51,3273.01 2964.73,3354.95 2875.53,3419.76 2774.8,3464.61 2666.94,3487.53 2556.68,3487.53 2448.83,3464.61 2348.1,3419.76 2258.89,3354.95 2185.11,3273.01 2129.98,3177.52 2095.91,3072.65 2084.39,2962.99" style="stroke:rgb(103,198,105);stroke-width:47.244094;fill:none;stroke-opacity:0.5;stroke-linecap:round;stroke-linejoin:round;;fill:none"/>
<polyline points="2084.39,2962.99 2095.91,2853.34 2129.98,2748.47 2185.11,2652.98 2258.89,2571.04 2348.1,2506.23 2448.83,2461.38 2556.68,2438.46 2666.94,2438.46 2774.8,2461.38 2875.53,2506.23 2964.73,2571.04 3038.51,2652.98 3093.64,2748.47 3127.72,2853.34 3139.24,2962.99 3127.72,3072.65 3093.64,3177.52 3038.51,3273.01 2964.73,3354.95 2875.53,3419.76 2774.8,3464.61 2666.94,3487.53 2556.68,3487.53 2448.83,3464.61 2348.1,3419.76 2258.89,3354.95 2185.11,3273.01 2129.98,3177.52 2095.91,3072.65 2084.39,2962.99" style="stroke:rgb(0,0,0);stroke-width:1px;fill:none;stroke-opacity:1;stroke-linecap:round;stroke-linejoin:round;;fill:none"/>
<polyline points="2129.27,4262.99 2132.19,4235.19 2140.83,4208.6 2154.81,4184.39 2173.51,4163.61 2196.13,4147.18 2221.67,4135.81 2249.02,4130 2276.97,4130 2304.32,4135.81 2329.86,4147.18 2352.48,4163.61 2371.18,4184.39 2385.16,4208.6 2393.8,4235.19 2396.72,4262.99 2393.8,4290.79 2385.16,4317.38 2371.18,4341.59 2352.48,4362.37 2329.86,4378.8 2304.32,4390.17 2276.97,4395.98 2249.02,4395.98 2221.67,4390.17 2196.13,4378.8 2173.51,4362.37 2154.81,4341.59 2140.83,4317.38 2132.19,4290.79 2129.27,4262.99" style="stroke:rgb(103,198,105);stroke-width:47.244094;fill:none;stroke-opacity:0.5;stroke-linecap:round;stroke-linejoin:round;;fill:none"/>
<polyline points="2129.27,4262.99 2132.19,4235.19 2140.83,4208.6 2154.81,4184.39 2173.51,4163.61 2196.13,4147.18 2221.67,4135.81 2249.02,4130 2276.97,4130 2304.32,4135.81 2329.86,4147.18 2352.48,4163.61 2371.18,4184.39 2385.16,4208.6 2393.8,4235.19 2396.72,4262.99 2393.8,4290.79 2385.16,4317.38 2371.18,4341.59 2352.48,4362.37 2329.86,4378.8 2304.32,4390.17 2276.97,4395.98 2249.02,4395.98 2221.67,4390.17 2196.13,4378.8 2173.51,4362.37 2154.81,4341.59 2140.83,4317.38 2132.19,4290.79 2129.27,4262.99" style="stroke:rgb(0,0,0);stroke-width:1px;fill:none;stroke-opacity:1;stroke-linecap:round;stroke-linejoin:round;;fill:none"/>
<polyline points="1400.47,3162.99 1404.9,3120.89 1417.98,3080.62 1439.15,3043.95 1467.48,3012.49 1501.73,2987.61 1540.41,2970.38 1581.83,2961.58 1624.16,2961.58 1665.58,2970.38 1704.26,2987.61 1738.51,3012.49 1766.84,3043.95 1788.01,3080.62 1801.09,3120.89 1805.52,3162.99 1801.09,3205.1 1788.01,3245.37 1766.84,3282.03 1738.51,3313.5 1704.26,3338.38 1665.58,3355.6 1624.16,3364.41 1581.83,3364.41 1540.41,3355.6 1501.73,3338.38 1467.48,3313.5 1439.15,3282.03 1417.98,3245.37 1404.9,3205.1 1400.47,3162.99" style="stroke:rgb(103,198,105);stroke-width:47.244094;fill:none;stroke-opacity:0.5;stroke-linecap:round;stroke-linejoin:round;;fill:none"/>
<polyline points="1400.47,3162.99 1404.9,3120.89 1417.98,3080.62 1439.15,3043.95 1467.48,3012.49 1501.73,2987.61 1540.41,2970.38 1581.83,2961.58 1624.16,2961.58 1665.58,2970.38 1704.26,2987.61 1738.51,3012.49 1766.84,3043.95 1788.01,3080.62 1801.09,3120.89 1805.52,3162.99 1801.09,3205.1 1788.01,3245.37 1766.84,3282.03 1738.51,3313.5 1704.26,3338.38 1665.58,3355.6 1624.16,3364.41 1581.83,3364.41 1540.41,3355.6 1501.73,3338.38 1467.48,3313.5 1439.15,3282.03 1417.98,3245.37 1404.9,3205.1 1400.47,3162.99" style="stroke:rgb(0,0,0);stroke-width:1px;fill:none;stroke-opacity:1;stroke-linecap:round;stroke-linejoin:round;;fill:none"/>
<polyline points="4623.9,5082.99 4629.56,5029.12 4646.3,4977.61 4673.38,4930.7 4709.62,4890.45 4753.44,4858.61 4802.93,4836.58 4855.91,4825.32 4910.07,4825.32 4963.05,4836.58 5012.54,4858.61 5056.36,4890.45 5092.6,4930.7 5119.68,4977.61 5136.42,5029.12 5142.08,5082.99 5136.42,5136.86 5119.68,5188.37 5092.6,5235.28 5056.36,5275.53 5012.54,5307.37 4963.05,5329.4 4910.07,5340.66 4855.91,5340.66 4802.93,5329.4 4753.44,5307.37 4709.62,5275.53 4673.38,5235.28 4646.3,5188.37 4629.56,5136.86 4623.9,5082.99" style="stroke:rgb(103,198,105);stroke-width:47.244094;fill:none;stroke-opacity:0.5;stroke-linecap:round;stroke-linejoin:round;;fill:none"/>
<polyline points="4623.9,5082.99 4629.56,5029.12 4646.3,4977.61 4673.38,4930.7 4709.62,4890.45 4753.44,4858.61 4802.93,4836.58 4855.91,4825.32 4910.07,4825.32 4963.05,4836.58 5012.54,4858.61 5056.36,4890.45 5092.6,4930.7 5119.68,4977.61 5136.42,5029.12 5142.08,5082.99 5136.42,5136.86 5119.68,5188.37 5092.6,5235.28 5056.36,5275.53 5012.54,5307.37 4963.05,5329.4 4910.07,5340.66 4855.91,5340.66 4802.93,5329.4 4753.44,5307.37 4709.62,5275.53 4673.38,5235.28 4646.3,5188.37 4629.56,5136.86 4623.9,5082.99" style="stroke:rgb(0,0,0);stroke-width:1px;fill:none;stroke-opacity:1;stroke-linecap:round;stroke-linejoin:round;;fill:none"/>
<g fill-rule="evenodd"><path d="M 51.1819,3437.01 L 125.17,2733.06 L 343.902,2059.87 L 697.818,1446.87 L 1171.45,920.85 L 1744.1,504.798 L 2390.73,216.896 L 3083.09,69.7299 L 3790.92,69.7299 L 4483.29,216.896 L 5129.92,504.798 L 5702.57,920.85 L 6176.2,1446.87 L 6530.11,2059.87 L 6748.85,2733.06 L 6822.83,3437.01 L 6748.85,4140.96 L 6530.11,4814.15 L 6176.2,5427.15 L 5702.57,5953.17 L 5129.92,6369.22 L 4483.29,6657.12 L 3790.92,6804.29 L 3083.09,6804.29 L 2390.73,6657.12 L 1744.1,6369.22 L 1171.45,5953.17 L 697.818,5427.15 L 343.902,4814.15 L 125.17,4140.96 L 51.1819,3437.01M 1376.72,3162.99 L 1381.66,3210.04 L 1396.28,3255.03 L 1419.93,3295.99 L 1451.59,3331.15 L 1489.86,3358.95 L 1533.07,3378.19 L 1579.34,3388.03 L 1626.65,3388.03 L 1672.92,3378.19 L 1716.13,3358.95 L 1754.4,3331.15 L 1786.05,3295.99 L 1809.7,3255.03 L 1824.32,3210.04 L 1829.27,3162.99 L 1824.32,3115.95 L 1809.7,3070.96 L 1786.05,3029.99 L 1754.4,2994.84 L 1716.13,2967.03 L 1672.92,2947.79 L 1626.65,2937.96 L 1579.34,2937.96 L 1533.07,2947.79 L 1489.86,2967.03 L 1451.59,2994.84 L 1419.93,3029.99 L 1396.28,3070.96 L 1381.66,3115.95 L 1376.72,3162.99M 2060.63,2962.99 L 2072.68,3077.59 L 2108.28,3187.18 L 2165.9,3286.97 L 2243,3372.6 L 2336.22,3440.33 L 2441.49,3487.2 L 2554.2,3511.15 L 2669.43,3511.15 L 2782.14,3487.2 L 2887.4,3440.33 L 2980.62,3372.6 L 3057.73,3286.97 L 3115.34,3187.18 L 3150.95,3077.59 L 3162.99,2962.99 L 3150.95,2848.4 L 3115.34,2738.81 L 3057.73,2639.02 L 2980.62,2553.39 L 2887.4,2485.66 L 2782.14,2438.79 L 2669.43,2414.83 L 2554.2,2414.83 L 2441.49,2438.79 L 2336.22,2485.66 L 2243,2553.39 L 2165.9,2639.02 L 2108.28,2738.81 L 2072.68,2848.4 L 2060.63,2962.99M 2105.51,4262.99 L 2108.95,4295.73 L 2119.13,4327.04 L 2135.59,4355.56 L 2157.62,4380.02 L 2184.25,4399.37 L 2214.33,4412.76 L 2246.53,4419.61 L 2279.45,4419.61 L 2311.66,4412.76 L 2341.73,4399.37 L 2368.37,4380.02 L 2390.4,4355.56 L 2406.86,4327.04 L 2417.03,4295.73 L 2420.47,4262.99 L 2417.03,4230.25 L 2406.86,4198.94 L 2390.4,4170.43 L 2368.37,4145.96 L 2341.73,4126.61 L 2311.66,4113.22 L 2279.45,4106.37 L 2246.53,4106.37 L 2214.33,4113.22 L 2184.25,4126.61 L 2157.62,4145.96 L 2135.59,4170.43 L 2119.13,4198.94 L 2108.95,4230.25 L 2105.51,4262.99M 3112.99,2462.99 L 3117.36,2504.58 L 3130.28,2544.34 L 3151.19,2580.55 L 3179.17,2611.62 L 3212.99,2636.2 L 3251.19,2653.2 L 3292.09,2661.9 L 3333.9,2661.9 L 3374.8,2653.2 L 3412.99,2636.2 L 3446.82,2611.62 L 3474.79,2580.55 L 3495.7,2544.34 L 3508.62,2504.58 L 3512.99,2462.99 L 3508.62,2421.41 L 3495.7,2381.65 L 3474.79,2345.44 L 3446.82,2314.36 L 3412.99,2289.79 L 3374.8,2272.78 L 3333.9,2264.09 L 3292.09,2264.09 L 3251.19,2272.78 L 3212.99,2289.79 L 3179.17,2314.36 L 3151.19,2345.44 L 3130.28,2381.65 L 3117.36,2421.41 L 3112.99,2462.99M 4600.15,5082.99 L 4606.33,5141.8 L 4624.6,5198.03 L 4654.17,5249.24 L 4693.73,5293.18 L 4741.57,5327.94 L 4795.59,5351.99 L 4853.43,5364.28 L 4912.56,5364.28 L 4970.39,5351.99 L 5024.41,5327.94 L 5072.25,5293.18 L 5111.82,5249.24 L 5141.38,5198.03 L 5159.65,5141.8 L 5165.83,5082.99 L 5159.65,5024.18 L 5141.38,4967.95 L 5111.82,4916.74 L 5072.25,4872.8 L 5024.41,4838.04 L 4970.39,4813.99 L 4912.56,4801.7 L 4853.43,4801.7 L 4795.59,4813.99 L 4741.57,4838.04 L 4693.73,4872.8 L 4654.17,4916.74 L 4624.6,4967.95 L 4606.33,5024.18 L 4600.15,5082.99 z " style="fill-opacity:1.000000;fill:rgb(103,198,105);stroke:rgb(0,0,0);stroke-width:2"/></g>
</svg>
