<?xml version="1.0" standalone="no"?>
<!DOCTYPE svg PUBLIC "-//W3C//DTD SVG 1.1//EN"
"http://www.w3.org/Graphics/SVG/1.1/DTD/svg11.dtd">
<svg width="329.953" height="329.953" viewBox="0 0 6874.02 6874.02" version="1.1"
xmlns="http://www.w3.org/2000/svg"
xmlns:xlink="http://www.w3.org/1999/xlink">
<polyline points="27.5599,3437.01 27.6899,3439.48 101.678,4143.43 102.066,4145.87 102.706,4148.26 321.438,4821.44 322.324,4823.75 323.446,4825.96 677.362,5438.96 678.708,5441.03 680.264,5442.95 1153.89,5968.97 1155.64,5970.72 1157.56,5972.28 1730.21,6388.33 1732.29,6389.67 1734.49,6390.8 2381.12,6678.7 2383.43,6679.58 2385.82,6680.22 3078.18,6827.39 3080.63,6827.78 3083.09,6827.91 3790.92,6827.91 3793.39,6827.78 3795.83,6827.39 4488.2,6680.22 4490.58,6679.58 4492.89,6678.7 5139.53,6390.8 5141.73,6389.67 5143.8,6388.33 5716.45,5972.28 5718.37,5970.72 5720.12,5968.97 6193.75,5442.95 6195.31,5441.03 6196.65,5438.96 6550.57,4825.96 6551.69,4823.75 6552.58,4821.44 6771.31,4148.26 6771.95,4145.87 6772.34,4143.43 6846.33,3439.48 6846.46,3437.01 6846.33,3434.54 6772.34,2730.59 6771.95,2728.15 6771.31,2725.76 6552.58,2052.57 6551.69,2050.26 6550.57,2048.06 6196.65,1435.06 6195.31,1432.99 6193.75,1431.06 5720.12,905.044 5718.37,903.296 5716.45,901.74 5143.8,485.688 5141.73,484.342 5139.53,483.22 4492.89,195.318 4490.58,194.432 4488.2,193.792 3795.83,46.6259 3793.39,46.2379 3790.92,46.1079 3083.09,46.1079 3080.63,46.2379 3078.18,46.6259 2385.82,193.792 2383.43,194.432 2381.12,195.318 1734.49,483.22 1732.29,484.342 1730.21,485.688 1157.56,901.74 1155.64,903.296 1153.89,905.044 680.264,1431.06 678.708,1432.99 677.362,1435.06 323.446,2048.06 322.324,2050.26 321.438,2052.57 102.706,2725.76 102.066,2728.15 101.678,2730.59 27.6899,3434.54 27.5599,3437.01" style="stroke:rgb(103,198,105);stroke-width:47.244094;fill:none;stroke-opacity:0.5;stroke-linecap:round;stroke-linejoin:round;;fill:none"/>
<polyline points="27.5599,3437.01 27.6899,3439.48 101.678,4143.43 102.066,4145.87 102.706,4148.26 321.438,4821.44 322.324,4823.75 323.446,4825.96 677.362,5438.96 678.708,5441.03 680.264,5442.95 1153.89,5968.97 1155.64,5970.72 1157.56,5972.28 1730.21,6388.33 1732.29,6389.67 1734.49,6390.8 2381.12,6678.7 2383.43,6679.58 2385.82,6680.22 3078.18,6827.39 3080.63,6827.78 3083.09,6827.91 3790.92,6827.91 3793.39,6827.78 3795.83,6827.39 4488.2,6680.22 4490.58,6679.58 4492.89,6678.7 5139.53,6390.8 5141.73,6389.67 5143.8,6388.33 5716.45,5972.28 5718.37,5970.72 5720.12,5968.97 6193.75,5442.95 6195.31,5441.03 6196.65,5438.96 6550.57,4825.96 6551.69,4823.75 6552.58,4821.44 6771.31,4148.26 6771.95,4145.87 6772.34,4143.43 6846.33,3439.48 6846.46,3437.01 6846.33,3434.54 6772.34,2730.59 6771.95,2728.15 6771.31,2725.76 6552.58,2052.57 6551.69,2050.26 6550.57,2048.06 6196.65,1435.06 6195.31,1432.99 6193.75,1431.06 5720.12,905.044 5718.37,903.296 5716.45,901.74 5143.8,485.688 5141.73,484.342 5139.53,483.22 4492.89,195.318 4490.58,194.432 4488.2,193.792 3795.83,46.6259 3793.39,46.2379 3790.92,46.1079 3083.09,46.1079 3080.63,46.2379 3078.18,46.6259 2385.82,193.792 2383.43,194.432 2381.12,195.318 1734.49,483.22 1732.29,484.342 1730.21,485.688 1157.56,901.74 1155.64,903.296 1153.89,905.044 680.264,1431.06 678.708,1432.99 677.362,1435.06 323.446,2048.06 322.324,2050.26 321.438,2052.57 102.706,2725.76 102.066,2728.15 101.678,2730.59 27.6899,3434.54 27.5599,3437.01" style="stroke:rgb(0,0,0);stroke-width:1px;fill:none;stroke-opacity:1;stroke-linecap:round;stroke-linejoin:round;;fill:none"/>
<polyline points="3136.75,2462.99 3140.6,2426.35 3151.98,2391.31 3170.41,2359.4 3195.06,2332.02 3224.87,2310.36 3258.53,2295.37 3294.57,2287.71 3331.42,2287.71 3367.46,2295.37 3401.12,2310.36 3430.93,2332.02 3455.58,2359.4 3474,2391.31 3485.39,2426.35 3489.24,2462.99 3485.39,2499.64 3474,2534.68 3455.58,2566.59 3430.93,2593.97 3401.12,2615.63 3367.46,2630.62 3331.42,2638.28 3294.57,2638.28 3258.53,2630.62 3224.87,2615.63 3195.06,2593.97 3170.41,2566.59 3151.98,2534.68 3140.6,2499.64 3136.75,2462.99" style="stroke:rgb(103,198,105);stroke-width:47.244094;fill:none;stroke-opacity:0.5;stroke-linecap:round;stroke-linejoin:round;;fill:none"/>
<polyline points="3136.75,2462.99 3140.6,2426.35 3151.98,2391.31 3170.41,2359.4 3195.06,2332.02 3224.87,2310.36 3258.53,2295.37 3294.57,2287.71 3331.42,2287.71 3367.46,2295.37 3401.12,2310.36 3430.93,2332.02 3455.58,2359.4 3474,2391.31 3485.39,2426.35 3489.24,2462.99 3485.39,2499.64 3474,2534.68 3455.58,2566.59 3430.93,2593.97 3401.12,2615.63 3367.46,2630.62 3331.42,2638.28 3294.57,2638.28 3258.53,2630.62 3224.87,2615.63 3195.06,2593.97 3170.41,2566.59 3151.98,2534.68 3140.6,2499.64 3136.75,2462.99" style="stroke:rgb(0,0,0);stroke-width:1px;fill:none;stroke-opacity:1;stroke-linecap:round;stroke-linejoin:round;;fill:none"/>
<polyline points="2084.39,2962.99 2095.91,2853.34 2129.98,2748.47 2185.11,2652.98 2258.89,2571.04 2348.1,2506.23 2448.83,2461.38 2556.68,2438.46 2666.94,2438.46 2774.8,2461.38 2875.53,2506.23 2964.73,2571.04 3038.51,2652.98 3093.64,2748.47 3127.72,2853.34 3139.24,2962.99 3127.72,3072.65 3093.64,3177.52 3038.51,3273.01 2964.73,3354.95 2875.53,3419.76 2774.8,3464.61 2666.94,3487.53 2556.68,3487.53 2448.83,3464.61 2348.1,3419.76 2258.89,3354.95 2185.11,3273.01 2129.98,3177.52 2095.91,3072.65 2084.39,2962.99" style="stroke:rgb(103,198,105);stroke-width:47.244094;fill:none;stroke-opacity:0.5;stroke-linecap:round;stroke-linejoin:round;;fill:none"/>
<polyline points="2084.39,2962.99 2095.91,2853.34 2129.98,2748.47 2185.11,2652.98 2258.89,2571.04 2348.1,2506.23 2448.83,2461.38 2556.68,2438.46 2666.94,2438.46 2774.8,2461.38 2875.53,2506.23 2964.73,2571.04 3038.51,2652.98 3093.64,2748.47 3127.72,2853.34 3139.24,2962.99 3127.72,3072.65 3093.64,3177.52 3038.51,3273.01 2964.73,3354.95 2875.53,3419.76 2774.8,3464.61 2666.94,3487.53 2556.68,3487.53 2448.83,3464.61 2348.1,3419.76 2258.89,3354.95 2185.11,3273.01 2129.98,3177.52 2095.91,3072.65 2084.39,2962.99" style="stroke:rgb(0,0,0);stroke-width:1px;fill:none;stroke-opacity:1;stroke-linecap:round;stroke-linejoin:round;;fill:none"/>
<polyline points="2129.27,4262.99 2132.19,4235.19 2140.83,4208.6 2154.81,4184.39 2173.51,4163.61 2196.13,4147.18 2221.67,4135.81 2249.02,4130 2276.97,4130 2304.32,4135.81 2329.86,4147.18 2352.48,4163.61 2371.18,4184.39 2385.16,4208.6 2393.8,4235.19 2396.72,4262.99 2393.8,4290.79 2385.16,4317.38 2371.18,4341.59 2352.48,4362.37 2329.86,4378.8 2304.32,4390.17 2276.97,4395.98 2249.02,4395.98 2221.67,4390.17 2196.13,4378.8 2173.51,4362.37 2154.81,4341.59 2140.83,4317.38 2132.19,4290.79 2129.27,4262.99" style="stroke:rgb(103,198,105);stroke-width:47.244094;fill:none;stroke-opacity:0.5;stroke-linecap:round;stroke-linejoin:round;;fill:none"/>
<polyline points="2129.27,4262.99 2132.19,4235.19 2140.83,4208.6 2154.81,4184.39 2173.51,4163.61 2196.13,4147.18 2221.67,4135.81 2249.02,4130 2276.97,4130 2304.32,4135.81 2329.86,4147.18 2352.48,4163.61 2371.18,4184.39 2385.16,4208.6 2393.8,4235.19 2396.72,4262.99 2393.8,4290.79 2385.16,4317.38 2371.18,4341.59 2352.48,4362.37 2329.86,4378.8 2304.32,4390.17 2276.97,4395.98 2249.02,4395.98 2221.67,4390.17 2196.13,4378.8 2173.51,4362.37 2154.81,4341.59 2140.83,4317.38 2132.19,4290.79 2129.27,4262.99" style="stroke:rgb(0,0,0);stroke-width:1px;fill:none;stroke-opacity:1;stroke-linecap:round;stroke-linejoin:round;;fill:none"/>
<polyline points="1400.47,3162.99 1404.9,3120.89 1417.98,3080.62 1439.15,3043.95 1467.48,3012.49 1501.73,2987.61 1540.41,2970.38 1581.83,2961.58 1624.16,2961.58 1665.58,2970.38 1704.26,2987.61 1738.51,3012.49 1766.84,3043.95 1788.01,3080.62 1801.09,3120.89 1805.52,3162.99 1801.09,3205.1 1788.01,3245.37 1766.84,3282.03 1738.51,3313.5 1704.26,3338.38 1665.58,3355.6 1624.16,3364.41 1581.83,3364.41 1540.41,3355.6 1501.73,3338.38 1467.48,3313.5 1439.15,3282.03 1417.98,3245.37 1404.9,3205.1 1400.47,3162.99" style="stroke:rgb(103,198,105);stroke-width:47.244094;fill:none;stroke-opacity:0.5;stroke-linecap:round;stroke-linejoin:round;;fill:none"/>
<polyline points="1400.47,3162.99 1404.9,3120.89 1417.98,3080.62 1439.15,3043.95 1467.48,3012.49 1501.73,2987.61 1540.41,2970.38 1581.83,2961.58 1624.16,2961.58 1665.58,2970.38 1704.26,2987.61 1738.51,3012.49 1766.84,3043.95 1788.01,3080.62 1801.09,3120.89 1805.52,3162.99 1801.09,3205.1 1788.01,3245.37 1766.84,3282.03 1738.51,3313.5 1704.26,3338.38 1665.58,3355.6 1624.16,3364.41 1581.83,3364.41 1540.41,3355.6 1501.73,3338.38 1467.48,3313.5 1439.15,3282.03 1417.98,3245.37 1404.9,3205.1 1400.47,3162.99" style="stroke:rgb(0,0,0);stroke-width:1px;fill:none;stroke-opacity:1;stroke-linecap:round;stroke-linejoin:round;;fill:none"/>
<polyline points="4623.9,5082.99 4629.56,5029.12 4646.3,4977.61 4673.38,4930.7 4709.62,4890.45 4753.44,4858.61 4802.93,4836.58 4855.91,4825.32 4910.07,4825.32 4963.05,4836.58 5012.54,4858.61 5056.36,4890.45 5092.6,4930.7 5119.68,4977.61 5136.42,5029.12 5142.08,5082.99 5136.42,5136.86 5119.68,5188.37 5092.6,5235.28 5056.36,5275.53 5012.54,5307.37 4963.05,5329.4 4910.07,5340.66 4855.91,5340.66 4802.93,5329.4 4753.44,5307.37 4709.62,5275.53 4673.38,5235.28 4646.3,5188.37 4629.56,5136.86 4623.9,5082.99" style="stroke:rgb(103,198,105);stroke-width:47.244094;fill:none;stroke-opacity:0.5;stroke-linecap:round;stroke-linejoin:round;;fill:none"/>
<polyline points="4623.9,5082.99 4629.56,5029.12 4646.3,4977.61 4673.38,4930.7 4709.62,4890.45 4753.44,4858.61 4802.93,4836.58 4855.91,4825.32 4910.07,4825.32 4963.05,4836.58 5012.54,4858.61 5056.36,4890.45 5092.6,4930.7 5119.68,4977.61 5136.42,5029.12 5142.08,5082.99 5136.42,5136.86 5119.68,5188.37 5092.6,5235.28 5056.36,5275.53 5012.54,5307.37 4963.05,5329.4 4910.07,5340.66 4855.91,5340.66 4802.93,5329.4 4753.44,5307.37 4709.62,5275.53 4673.38,5235.28 4646.3,5188.37 4629.56,5136.86 4623.9,5082.99" style="stroke:rgb(0,0,0);stroke-width:1px;fill:none;stroke-opacity:1;stroke-linecap:round;stroke-linejoin:round;;fill:none"/>
</svg>
