<?xml version="1.0" standalone="no"?>
<!DOCTYPE svg PUBLIC "-//W3C//DTD SVG 1.1//EN"
"http://www.w3.org/Graphics/SVG/1.1/DTD/svg11.dtd">
<svg width="232.252" height="277.606" viewBox="0 0 4838.58 5783.46" version="1.1"
xmlns="http://www.w3.org/2000/svg"
xmlns:xlink="http://www.w3.org/1999/xlink">
<circle cx="2299.29" cy="1495.28" r="37.4016" style=""/>
<circle cx="2499.29" cy="1495.28" r="37.4016" style=""/>
<circle cx="1958.43" cy="3544.41" r="37.4016" style=""/>
<circle cx="2099.84" cy="3685.83" r="37.4016" style=""/>
<circle cx="1119.61" cy="4701.1" r="37.4016" style=""/>
<circle cx="978.189" cy="4559.69" r="37.4016" style=""/>
<circle cx="2559.21" cy="1874.65" r="39.3701" style=""/>
<circle cx="2417.8" cy="2016.06" r="39.3701" style=""/>
<circle cx="1998.9" cy="1795.28" r="39.3701" style=""/>
<circle cx="1798.9" cy="1795.28" r="39.3701" style=""/>
<circle cx="2039.29" cy="1195.28" r="39.3701" style=""/>
<circle cx="2839.29" cy="1195.28" r="39.3701" style=""/>
<circle cx="3124.88" cy="1308.98" r="39.3701" style=""/>
<circle cx="3619.84" cy="1521.1" r="39.3701" style=""/>
<circle cx="3761.34" cy="1662.52" r="39.3701" style=""/>
<circle cx="3902.76" cy="1803.94" r="39.3701" style=""/>
<circle cx="4044.17" cy="1945.35" r="39.3701" style=""/>
<circle cx="3973.46" cy="2157.48" r="39.3701" style=""/>
<circle cx="3549.13" cy="2581.73" r="39.3701" style=""/>
<circle cx="3124.88" cy="2157.48" r="39.3701" style=""/>
<circle cx="3074.33" cy="2658.43" r="39.3701" style=""/>
<circle cx="3801.81" cy="2977.56" r="39.3701" style=""/>
<circle cx="3943.23" cy="3118.98" r="39.3701" style=""/>
<circle cx="4170.39" cy="3330.24" r="39.3701" style=""/>
<circle cx="4399.76" cy="3575.51" r="39.3701" style=""/>
<circle cx="4541.18" cy="3716.93" r="39.3701" style=""/>
<circle cx="3604.65" cy="3895.91" r="39.3701" style=""/>
<circle cx="2897.56" cy="4164.57" r="39.3701" style=""/>
<circle cx="2756.14" cy="4023.15" r="39.3701" style=""/>
<circle cx="2417.8" cy="3713.07" r="39.3701" style=""/>
<circle cx="3354.09" cy="4621.18" r="39.3701" style=""/>
<circle cx="3495.51" cy="4762.6" r="39.3701" style=""/>
<circle cx="4119.29" cy="4665.28" r="39.3701" style=""/>
<circle cx="3553.62" cy="5230.94" r="39.3701" style=""/>
<circle cx="2797.24" cy="4648.43" r="39.3701" style=""/>
<circle cx="2797.24" cy="4805.91" r="39.3701" style=""/>
<circle cx="2797.24" cy="4735.91" r="39.3701" style=""/>
<circle cx="2797.24" cy="4700.92" r="39.3701" style=""/>
<circle cx="2797.24" cy="4770.91" r="39.3701" style=""/>
<circle cx="2797.24" cy="4683.42" r="39.3701" style=""/>
<circle cx="2797.24" cy="4718.42" r="39.3701" style=""/>
<circle cx="2797.24" cy="4753.41" r="39.3701" style=""/>
<circle cx="2797.24" cy="4788.41" r="39.3701" style=""/>
<circle cx="2797.24" cy="4665.92" r="39.3701" style=""/>
<circle cx="2498.03" cy="5002.76" r="39.3701" style=""/>
<circle cx="2340.55" cy="5002.76" r="39.3701" style=""/>
<circle cx="2410.54" cy="5002.76" r="39.3701" style=""/>
<circle cx="2445.54" cy="5002.76" r="39.3701" style=""/>
<circle cx="2375.55" cy="5002.76" r="39.3701" style=""/>
<circle cx="2463.04" cy="5002.76" r="39.3701" style=""/>
<circle cx="2428.04" cy="5002.76" r="39.3701" style=""/>
<circle cx="2393.04" cy="5002.76" r="39.3701" style=""/>
<circle cx="2358.05" cy="5002.76" r="39.3701" style=""/>
<circle cx="2480.53" cy="5002.76" r="39.3701" style=""/>
<circle cx="2529.53" cy="4530.31" r="39.3701" style=""/>
<circle cx="2309.06" cy="4530.31" r="39.3701" style=""/>
<circle cx="2410.81" cy="4530.31" r="39.3701" style=""/>
<circle cx="2461.69" cy="4530.31" r="39.3701" style=""/>
<circle cx="2359.93" cy="4530.31" r="39.3701" style=""/>
<circle cx="2495.61" cy="4530.31" r="39.3701" style=""/>
<circle cx="2427.77" cy="4530.31" r="39.3701" style=""/>
<circle cx="2393.85" cy="4530.31" r="39.3701" style=""/>
<circle cx="2326.01" cy="4530.31" r="39.3701" style=""/>
<circle cx="2512.57" cy="4530.31" r="39.3701" style=""/>
<circle cx="2478.65" cy="4530.31" r="39.3701" style=""/>
<circle cx="2444.73" cy="4530.31" r="39.3701" style=""/>
<circle cx="2376.89" cy="4530.31" r="39.3701" style=""/>
<circle cx="2342.97" cy="4530.31" r="39.3701" style=""/>
<circle cx="1490.39" cy="3888.82" r="39.3701" style=""/>
<circle cx="1631.81" cy="3747.4" r="39.3701" style=""/>
<circle cx="2508.66" cy="3224.17" r="39.3701" style=""/>
<circle cx="2983.46" cy="3147.4" r="39.3701" style=""/>
<circle cx="2559.21" cy="2723.15" r="39.3701" style=""/>
<circle cx="2249.69" cy="2988.19" r="39.3701" style=""/>
<circle cx="1971.26" cy="3266.54" r="39.3701" style=""/>
<circle cx="1759.13" cy="3054.41" r="39.3701" style=""/>
<circle cx="1900.55" cy="2912.99" r="39.3701" style=""/>
<circle cx="1710.71" cy="2723.15" r="39.3701" style=""/>
<circle cx="1569.29" cy="2864.57" r="39.3701" style=""/>
<circle cx="1066.14" cy="3181.73" r="39.3701" style=""/>
<circle cx="924.724" cy="3323.15" r="39.3701" style=""/>
<circle cx="519.291" cy="2685.28" r="39.3701" style=""/>
<circle cx="319.291" cy="2685.28" r="39.3701" style=""/>
<circle cx="2700.63" cy="1733.23" r="40" style=""/>
<circle cx="3337.01" cy="1238.27" r="40" style=""/>
<circle cx="3478.43" cy="1379.69" r="40" style=""/>
<circle cx="3832.05" cy="2298.9" r="40" style=""/>
<circle cx="3662.28" cy="1195.83" r="41.3386" style=""/>
<circle cx="3520.87" cy="1054.41" r="41.3386" style=""/>
<circle cx="3803.7" cy="1337.24" r="41.3386" style=""/>
<circle cx="3945.12" cy="1478.66" r="41.3386" style=""/>
<circle cx="4086.54" cy="1620.08" r="41.3386" style=""/>
<circle cx="4227.95" cy="1761.5" r="41.3386" style=""/>
<circle cx="4566.38" cy="2934.25" r="41.3386" style=""/>
<circle cx="4424.96" cy="3075.67" r="41.3386" style=""/>
<circle cx="1638.74" cy="2248.74" r="43.3071" style=""/>
<circle cx="1497.32" cy="2390.16" r="43.3071" style=""/>
<circle cx="1355.91" cy="2531.57" r="43.3071" style=""/>
<circle cx="1214.49" cy="2672.99" r="43.3071" style=""/>
<circle cx="1836.93" cy="3952.44" r="43.3071" style=""/>
<circle cx="1695.51" cy="4093.86" r="43.3071" style=""/>
<circle cx="1554.09" cy="4235.28" r="43.3071" style=""/>
<circle cx="1412.68" cy="4376.69" r="43.3071" style=""/>
<circle cx="1554.09" cy="4518.11" r="43.3071" style=""/>
<circle cx="1695.51" cy="4376.69" r="43.3071" style=""/>
<circle cx="1836.93" cy="4235.28" r="43.3071" style=""/>
<circle cx="1978.35" cy="4093.86" r="43.3071" style=""/>
<circle cx="2296.54" cy="4143.39" r="43.3071" style=""/>
<circle cx="2862.2" cy="3577.72" r="43.3071" style=""/>
<circle cx="3179.29" cy="4889.37" r="51.1811" style=""/>
<circle cx="3179.29" cy="5401.18" r="51.1811" style=""/>
<circle cx="1641.73" cy="5150.08" r="122.047" style=""/>
<circle cx="776.22" cy="3754.49" r="125.984" style=""/>
</svg>
