<?xml version="1.0" standalone="no"?>
<!DOCTYPE svg PUBLIC "-//W3C//DTD SVG 1.1//EN"
"http://www.w3.org/Graphics/SVG/1.1/DTD/svg11.dtd">
<svg width="232.252" height="277.606" viewBox="0 0 4838.58 5783.46" version="1.1"
xmlns="http://www.w3.org/2000/svg"
xmlns:xlink="http://www.w3.org/1999/xlink">
<g fill-rule="evenodd"><path d="M 57.0871,3364.17 L 57.0871,2419.29 L 102.477,1958.45 L 236.899,1515.32 L 455.191,1106.92 L 748.961,748.961 L 1106.92,455.191 L 1515.32,236.899 L 1958.45,102.477 L 2419.29,57.0873 L 2880.13,102.477 L 3323.27,236.899 L 3731.66,455.191 L 4089.62,748.961 L 4383.39,1106.92 L 4601.68,1515.32 L 4736.11,1958.45 L 4781.5,2419.29 L 4781.5,3364.17 L 4736.11,3825.02 L 4601.68,4268.15 L 4383.39,4676.54 L 4089.62,5034.5 L 3731.66,5328.27 L 3323.27,5546.57 L 2880.13,5680.99 L 2419.29,5726.38 L 1958.45,5680.99 L 1515.32,5546.57 L 1106.92,5328.27 L 748.961,5034.5 L 455.191,4676.54 L 236.899,4268.15 L 102.477,3825.02 L 57.0871,3364.17 z " style="fill-opacity:1.000000;fill:rgb(103,198,105);stroke:rgb(0,0,0);stroke-width:2"/></g>
</svg>
