<?xml version="1.0" standalone="no"?>
<!DOCTYPE svg PUBLIC "-//W3C//DTD SVG 1.1//EN"
"http://www.w3.org/Graphics/SVG/1.1/DTD/svg11.dtd">
<svg width="232.252" height="277.606" viewBox="0 0 4838.58 5783.46" version="1.1"
xmlns="http://www.w3.org/2000/svg"
xmlns:xlink="http://www.w3.org/1999/xlink">
<g fill-rule="evenodd"><path d="M 57.1271,3364.17 L 57.1271,2419.29 L 58.6331,2334.98 L 63.2211,2249.94 L 68.0531,2195.95 L 70.8871,2164.99 L 81.6131,2080.39 L 95.3871,1996.22 L 112.189,1912.61 L 123.195,1866.04 L 131.999,1829.66 L 154.789,1747.48 L 180.531,1666.17 L 209.187,1585.86 L 226.181,1542.67 L 240.725,1506.63 L 259.171,1464.25 L 275.101,1428.59 L 294.981,1387.04 L 312.269,1351.84 L 333.557,1311.15 L 352.183,1276.49 L 374.857,1236.67 L 394.787,1202.63 L 418.829,1163.71 L 440.029,1130.36 L 465.405,1092.39 L 487.849,1059.77 L 514.531,1022.77 L 538.181,990.955 L 566.141,954.963 L 590.959,924.007 L 620.171,889.055 L 646.125,859.001 L 676.543,825.139 L 703.587,796.041 L 735.193,763.285 L 763.285,735.193 L 796.041,703.587 L 825.139,676.541 L 859.003,646.123 L 889.055,620.169 L 924.007,590.959 L 954.963,566.141 L 990.957,538.181 L 1022.77,514.531 L 1059.77,487.849 L 1092.39,465.403 L 1130.36,440.027 L 1163.71,418.829 L 1202.63,394.787 L 1236.67,374.859 L 1276.49,352.183 L 1311.15,333.555 L 1351.85,312.269 L 1387.04,294.981 L 1428.59,275.099 L 1464.25,259.173 L 1506.63,240.725 L 1585.86,209.187 L 1666.18,180.529 L 1702.67,168.819 L 1747.48,154.789 L 1829.66,131.999 L 1912.61,112.189 L 1948.58,104.865 L 1996.22,95.3873 L 2080.39,81.6133 L 2165,70.8873 L 2195.92,68.0553 L 2249.94,63.2213 L 2334.98,58.6313 L 2419.29,57.1273 L 2503.6,58.6313 L 2588.64,63.2213 L 2673.59,70.8873 L 2724.45,77.2753 L 2758.2,81.6133 L 2842.36,95.3873 L 2925.98,112.189 L 2972.55,123.195 L 3008.93,131.999 L 3091.11,154.789 L 3172.41,180.529 L 3216.4,196.049 L 3252.73,209.187 L 3331.96,240.725 L 3374.33,259.169 L 3410,275.101 L 3451.54,294.977 L 3486.74,312.269 L 3527.43,333.555 L 3562.09,352.183 L 3601.91,374.857 L 3635.95,394.787 L 3674.87,418.825 L 3708.22,440.027 L 3746.2,465.403 L 3778.81,487.849 L 3815.81,514.527 L 3847.63,538.179 L 3883.62,566.139 L 3914.58,590.961 L 3949.53,620.167 L 3979.58,646.123 L 4013.44,676.541 L 4042.55,703.589 L 4075.3,735.191 L 4103.39,763.287 L 4134.99,796.039 L 4162.04,825.139 L 4192.46,859.001 L 4218.42,889.057 L 4247.62,924.003 L 4272.44,954.965 L 4300.4,990.953 L 4324.06,1022.77 L 4350.73,1059.77 L 4373.18,1092.39 L 4398.55,1130.36 L 4419.76,1163.72 L 4443.8,1202.63 L 4463.73,1236.67 L 4486.4,1276.49 L 4505.03,1311.15 L 4526.31,1351.84 L 4543.61,1387.04 L 4563.48,1428.59 L 4579.41,1464.25 L 4597.86,1506.63 L 4629.4,1585.86 L 4642.54,1622.19 L 4658.05,1666.17 L 4683.79,1747.48 L 4706.58,1829.65 L 4726.36,1912.45 L 4733.72,1948.59 L 4743.2,1996.22 L 4756.97,2080.39 L 4767.7,2164.99 L 4775.36,2249.94 L 4779.95,2334.98 L 4781.46,2419.29 L 4781.46,3364.17 L 4779.95,3448.48 L 4775.36,3533.53 L 4767.7,3618.47 L 4756.97,3703.08 L 4749.04,3752.04 L 4743.2,3787.25 L 4726.39,3870.86 L 4706.58,3953.81 L 4683.79,4035.99 L 4658.05,4117.29 L 4642.54,4161.28 L 4629.4,4197.61 L 4597.86,4276.84 L 4579.41,4319.21 L 4563.48,4354.88 L 4543.61,4396.42 L 4526.31,4431.62 L 4505.03,4472.32 L 4486.4,4506.98 L 4463.73,4546.79 L 4443.8,4580.83 L 4419.76,4619.75 L 4398.55,4653.1 L 4373.18,4691.08 L 4350.73,4723.7 L 4324.06,4760.69 L 4300.4,4792.51 L 4272.44,4828.5 L 4247.62,4859.46 L 4218.42,4894.41 L 4192.46,4924.46 L 4162.04,4958.33 L 4134.99,4987.43 L 4103.39,5020.18 L 4075.3,5048.27 L 4042.55,5079.87 L 4013.44,5106.92 L 3979.58,5137.34 L 3949.52,5163.3 L 3914.58,5192.5 L 3883.62,5217.33 L 3847.63,5245.28 L 3815.81,5268.94 L 3778.81,5295.62 L 3746.2,5318.06 L 3708.22,5343.44 L 3674.87,5364.64 L 3635.95,5388.68 L 3601.91,5408.61 L 3565.38,5429.41 L 3557.2,5432.24 L 3548.55,5431.92 L 3540.6,5428.5 L 3534.43,5422.44 L 3530.86,5414.56 L 3530.38,5405.92 L 3533.05,5397.69 L 3537.08,5392.31 L 3563.17,5366.22 L 3570.3,5361.33 L 3580.55,5357.3 L 3596.81,5347.62 L 3607.64,5338.45 L 3661.09,5285 L 3670.26,5274.17 L 3679.95,5257.91 L 3686.83,5240.28 L 3690.71,5221.75 L 3691.5,5202.84 L 3689.16,5184.06 L 3683.75,5165.92 L 3675.44,5148.91 L 3664.44,5133.51 L 3651.06,5120.12 L 3635.65,5109.13 L 3618.65,5100.81 L 3600.51,5095.41 L 3581.73,5093.07 L 3562.82,5093.85 L 3544.29,5097.74 L 3526.66,5104.62 L 3510.4,5114.31 L 3499.57,5123.48 L 3446.12,5176.93 L 3436.95,5187.75 L 3427.26,5204.01 L 3423.63,5213.31 L 3418.35,5221.4 L 3358.95,5280.8 L 3351.81,5285.69 L 3343.39,5287.67 L 3334.82,5286.47 L 3327.26,5282.26 L 3323.02,5277.65 L 3320.12,5273.51 L 3306.96,5260.35 L 3291.72,5249.68 L 3274.86,5241.82 L 3256.88,5237 L 3242.99,5235.79 L 3115.59,5235.79 L 3101.7,5237 L 3083.73,5241.82 L 3066.86,5249.68 L 3051.62,5260.35 L 3038.46,5273.51 L 3027.8,5288.74 L 3021.62,5294.79 L 3013.67,5298.21 L 3008.52,5298.78 L 2479.33,5298.78 L 2470.83,5297.19 L 2463.47,5292.63 L 2229.38,5058.57 L 2224.49,5051.44 L 2222.48,5041.93 L 2222.48,4792.36 L 2221.31,4783.47 L 2219.37,4774.71 L 2216.67,4766.16 L 2213.24,4757.87 L 2209.1,4749.92 L 2204.28,4742.36 L 2198.82,4735.24 L 1917.82,4454.24 L 1912.93,4447.1 L 1910.95,4438.68 L 1912.14,4430.11 L 1916.35,4422.55 L 1923.01,4417.02 L 1928.37,4414.85 L 1939.28,4411.93 L 1957.25,4403.84 L 1973.7,4392.97 L 1988.18,4379.6 L 2000.34,4364.09 L 2009.85,4346.82 L 2016.47,4328.25 L 2020.02,4308.86 L 2020.19,4300.61 L 2021.95,4292.14 L 2026.65,4284.87 L 2033.66,4279.8 L 2041.36,4277.66 L 2061.66,4275.61 L 2080.7,4270.51 L 2098.67,4262.42 L 2115.12,4251.55 L 2129.61,4238.18 L 2141.73,4222.71 L 2148.22,4217 L 2156.35,4214.01 L 2165,4214.17 L 2173.01,4217.44 L 2179.3,4223.38 L 2182.14,4227.8 L 2192.53,4239.88 L 2270.63,4317.97 L 2275.52,4325.11 L 2277.52,4334.62 L 2277.52,4347.17 L 2275.93,4355.67 L 2271.38,4363.03 L 2264.47,4368.24 L 2258.77,4370.22 L 2256.46,4370.7 L 2235.13,4378.28 L 2215.05,4388.69 L 2196.56,4401.73 L 2180.02,4417.18 L 2165.75,4434.73 L 2153.99,4454.06 L 2144.97,4474.81 L 2138.87,4496.6 L 2135.79,4519.02 L 2135.79,4541.64 L 2138.87,4564.06 L 2144.97,4585.85 L 2153.99,4606.6 L 2165.75,4625.93 L 2180.02,4643.48 L 2196.56,4658.93 L 2215.05,4671.98 L 2235.13,4682.39 L 2256.46,4689.96 L 2278.61,4694.57 L 2295.53,4695.72 L 2543.05,4695.72 L 2559.98,4694.57 L 2582.13,4689.96 L 2600.42,4683.46 L 2608.97,4682.11 L 2617.43,4683.94 L 2624.65,4688.7 L 2629.67,4695.75 L 2631.8,4704.13 L 2631.85,4811.57 L 2633.01,4828.5 L 2637.61,4850.65 L 2645.19,4871.97 L 2655.6,4892.06 L 2668.65,4910.54 L 2684.09,4927.08 L 2701.64,4941.36 L 2720.97,4953.12 L 2741.73,4962.13 L 2763.52,4968.23 L 2785.93,4971.32 L 2808.56,4971.32 L 2830.97,4968.23 L 2852.76,4962.13 L 2873.51,4953.12 L 2892.85,4941.36 L 2910.4,4927.08 L 2925.84,4910.54 L 2938.89,4892.06 L 2949.3,4871.97 L 2956.88,4850.65 L 2961.48,4828.5 L 2962.64,4811.57 L 2962.64,4642.79 L 2961.48,4625.87 L 2956.88,4603.71 L 2949.3,4582.39 L 2938.89,4562.3 L 2925.84,4543.82 L 2910.4,4527.28 L 2892.85,4513 L 2873.51,4501.25 L 2852.76,4492.23 L 2830.97,4486.13 L 2808.56,4483.05 L 2785.93,4483.05 L 2763.52,4486.13 L 2741.73,4492.23 L 2727.95,4498.22 L 2719.51,4500.15 L 2710.95,4498.9 L 2703.42,4494.65 L 2697.93,4487.96 L 2695.9,4482.98 L 2693.61,4474.81 L 2684.6,4454.06 L 2672.84,4434.73 L 2658.56,4417.18 L 2642.02,4401.73 L 2623.54,4388.69 L 2603.45,4378.28 L 2582.13,4370.7 L 2579.82,4370.22 L 2571.81,4366.93 L 2565.54,4360.97 L 2561.84,4353.15 L 2561.06,4347.17 L 2561.06,4268.79 L 2561.36,4260.83 L 2559.87,4244.95 L 2558.98,4239.71 L 2555.14,4224.24 L 2553.48,4219.19 L 2547.38,4204.46 L 2544.99,4199.71 L 2536.76,4186.06 L 2533.68,4181.72 L 2523.51,4169.44 L 2517.66,4164.02 L 2442.77,4089.12 L 2437.88,4081.99 L 2435.9,4073.56 L 2437.09,4064.99 L 2441.3,4057.44 L 2447.96,4051.91 L 2456.16,4049.16 L 2459.42,4048.93 L 2596.38,4048.93 L 2604.88,4050.52 L 2612.24,4055.08 L 2617.45,4061.98 L 2619.42,4067.65 L 2625.1,4086.87 L 2633.7,4104.46 L 2645.08,4120.4 L 2658.93,4134.24 L 2674.86,4145.62 L 2692.45,4154.22 L 2711.22,4159.81 L 2719.73,4160.87 L 2727.98,4163.5 L 2733.47,4167.58 L 2753.16,4187.28 L 2758.05,4194.41 L 2759.88,4201.01 L 2760.94,4209.53 L 2766.53,4228.29 L 2775.13,4245.88 L 2786.5,4261.82 L 2800.35,4275.66 L 2816.28,4287.04 L 2833.87,4295.64 L 2852.64,4301.23 L 2872.07,4303.65 L 2891.63,4302.84 L 2910.8,4298.82 L 2929.04,4291.71 L 2945.86,4281.68 L 2956.61,4272.57 L 2964.13,4268.29 L 2971.83,4267 L 3566.44,4267 L 3574.95,4268.59 L 3583.09,4273.89 L 3974.94,4665.74 L 3979.83,4672.88 L 3981.81,4681.3 L 3981.4,4693.4 L 3983.74,4712.18 L 3989.14,4730.32 L 3997.46,4747.32 L 4008.45,4762.73 L 4021.84,4776.11 L 4037.24,4787.11 L 4054.25,4795.42 L 4072.39,4800.82 L 4091.17,4803.17 L 4110.08,4802.38 L 4128.61,4798.5 L 4146.24,4791.62 L 4162.5,4781.93 L 4173.33,4772.76 L 4186.4,4759.68 L 4226.78,4719.31 L 4235.95,4708.48 L 4245.64,4692.22 L 4252.52,4674.59 L 4256.4,4656.07 L 4257.18,4637.15 L 4254.84,4618.37 L 4249.44,4600.23 L 4241.13,4583.23 L 4230.13,4567.82 L 4216.74,4554.44 L 4201.34,4543.44 L 4184.34,4535.13 L 4166.19,4529.73 L 4147.41,4527.38 L 4137.38,4527.8 L 4128.81,4526.56 L 4121.28,4522.32 L 3684.69,4085.85 L 3677.57,4080.39 L 3670.01,4075.57 L 3662.05,4071.43 L 3653.77,4068 L 3645.22,4065.31 L 3636.46,4063.36 L 3627.57,4062.19 L 3013.21,4062.19 L 3004.71,4060.6 L 2997.35,4056.05 L 2994.79,4053.53 L 2978.86,4042.15 L 2961.27,4033.55 L 2942.5,4027.96 L 2933.99,4026.9 L 2925.74,4024.27 L 2920.25,4020.19 L 2900.56,4000.49 L 2895.67,3993.36 L 2893.84,3986.76 L 2892.78,3978.24 L 2887.19,3959.48 L 2878.6,3941.89 L 2867.22,3925.95 L 2853.37,3912.11 L 2837.44,3900.73 L 2819.85,3892.13 L 2801.08,3886.54 L 2792.57,3885.48 L 2784.32,3882.85 L 2778.83,3878.77 L 2753.01,3852.94 L 2750.98,3850.49 L 2736.58,3837.23 L 2732.65,3834.3 L 2720.18,3826.52 L 2715.83,3824.28 L 2702.25,3818.65 L 2697.59,3817.16 L 2683.27,3813.85 L 2678.42,3813.14 L 2658.86,3812.33 L 2655.69,3812.63 L 2546.52,3812.63 L 2538.02,3811.04 L 2530.66,3806.49 L 2525.44,3799.59 L 2523.08,3791.26 L 2523.88,3782.65 L 2525.9,3777.73 L 2532.27,3766.16 L 2538.89,3747.59 L 2542.44,3728.2 L 2542.84,3708.49 L 2540.07,3688.98 L 2534.21,3670.16 L 2525.4,3652.52 L 2513.88,3636.53 L 2442.19,3564.84 L 2430.93,3555.26 L 2414.06,3545.07 L 2395.78,3537.71 L 2391.89,3536.83 L 2383.94,3533.41 L 2377.76,3527.35 L 2374.19,3519.47 L 2373.71,3510.83 L 2376.38,3502.6 L 2380.41,3497.21 L 2518.22,3359.4 L 2525.36,3354.51 L 2535.61,3350.49 L 2551.87,3340.8 L 2562.7,3331.63 L 2616.15,3278.18 L 2625.32,3267.35 L 2635.01,3251.09 L 2641.89,3233.46 L 2645.77,3214.93 L 2646.55,3196.02 L 2644.21,3177.24 L 2638.81,3159.1 L 2630.5,3142.09 L 2619.5,3126.69 L 2606.12,3113.31 L 2590.71,3102.31 L 2573.71,3093.99 L 2555.57,3088.59 L 2536.78,3086.25 L 2517.87,3087.03 L 2499.35,3090.92 L 2481.71,3097.8 L 2465.46,3107.49 L 2454.63,3116.66 L 2401.18,3170.11 L 2392.01,3180.93 L 2382.32,3197.19 L 2378.69,3206.49 L 2374.12,3213.84 L 2103.43,3484.56 L 2097.97,3491.68 L 2093.15,3499.24 L 2089.01,3507.19 L 2085.58,3515.48 L 2082.88,3524.03 L 2080.94,3532.79 L 2080.76,3534.79 L 2078.44,3543.12 L 2073.26,3550.06 L 2069.36,3552.96 L 2064.37,3555.94 L 2053.17,3565.43 L 1979.44,3639.15 L 1969.96,3650.35 L 1959.93,3667.17 L 1952.93,3685.13 L 1948.35,3692.48 L 1862.85,3778.02 L 1855.71,3782.91 L 1847.29,3784.89 L 1838.72,3783.69 L 1831.16,3779.48 L 1711.94,3660.4 L 1700.74,3650.92 L 1693.73,3646.74 L 1689.13,3643.16 L 1685.89,3639.92 L 1675.06,3630.75 L 1658.8,3621.06 L 1641.17,3614.18 L 1622.64,3610.29 L 1603.73,3609.51 L 1584.95,3611.85 L 1566.81,3617.25 L 1549.8,3625.57 L 1534.4,3636.57 L 1521.01,3649.95 L 1510.02,3665.35 L 1501.7,3682.36 L 1496.3,3700.5 L 1493.96,3719.28 L 1494.27,3726.75 L 1493.03,3735.31 L 1488.79,3742.85 L 1482.1,3748.34 L 1473.89,3751.05 L 1469.77,3751.24 L 1462.31,3750.93 L 1443.53,3753.27 L 1425.39,3758.68 L 1408.38,3766.99 L 1392.98,3777.99 L 1379.59,3791.37 L 1368.6,3806.77 L 1360.28,3823.78 L 1354.88,3841.92 L 1352.54,3860.7 L 1353.32,3879.61 L 1357.21,3898.14 L 1364.09,3915.77 L 1373.78,3932.03 L 1382.95,3942.86 L 1436.39,3996.31 L 1443.33,4002.24 L 1460.82,4019.73 L 1465.71,4026.87 L 1467.69,4035.29 L 1466.5,4043.86 L 1462.29,4051.42 L 1455.63,4056.94 L 1433.73,4066.78 L 1417.29,4077.64 L 1402.8,4091.01 L 1390.64,4106.53 L 1381.13,4123.79 L 1374.51,4142.36 L 1370.96,4161.75 L 1370.56,4181.46 L 1373.33,4200.97 L 1379.2,4219.79 L 1388.01,4237.43 L 1399.53,4253.42 L 1471.22,4325.11 L 1482.48,4334.69 L 1499.34,4344.88 L 1517.63,4352.24 L 1524.36,4353.76 L 1532.31,4357.18 L 1538.49,4363.24 L 1542.06,4371.12 L 1542.54,4379.76 L 1539.86,4387.99 L 1534.4,4394.7 L 1526.88,4398.98 L 1512.95,4402.77 L 1494.98,4410.86 L 1478.53,4421.73 L 1464.04,4435.1 L 1451.89,4450.61 L 1442.38,4467.88 L 1435.51,4487.36 L 1435.26,4487.3 L 1432.82,4493.67 L 1429.41,4497.99 L 1421.95,4505.45 L 1414.81,4510.34 L 1405.3,4512.35 L 1197.02,4512.35 L 1188.13,4513.52 L 1179.38,4515.46 L 1170.82,4518.16 L 1162.54,4521.59 L 1154.59,4525.73 L 1147.02,4530.55 L 1139.91,4536.01 L 1126.98,4548.93 L 1119.84,4553.82 L 1100.93,4561.23 L 1084.11,4571.25 L 1072.91,4580.73 L 999.185,4654.46 L 989.699,4665.66 L 979.249,4683.35 L 979.039,4683.25 L 975.367,4689.15 L 968.449,4694.34 L 960.121,4696.69 L 951.507,4695.87 L 943.773,4691.99 L 941.361,4689.89 L 880.833,4629.36 L 875.943,4622.22 L 873.937,4612.71 L 873.937,4520.27 L 875.527,4511.77 L 880.081,4504.41 L 880.831,4503.63 L 1228.11,4156.35 L 1230.56,4154.32 L 1243.82,4139.92 L 1246.75,4135.99 L 1254.53,4123.53 L 1256.78,4119.17 L 1262.4,4105.6 L 1263.89,4100.93 L 1267.21,4086.61 L 1267.91,4081.76 L 1268.42,4071.99 L 1268.72,4062.2 L 1268.42,4059.03 L 1268.42,3775.38 L 1270.01,3766.88 L 1274.56,3759.52 L 1275.31,3758.74 L 1587.9,3446.15 L 1590.35,3444.13 L 1603.61,3429.72 L 1606.54,3425.79 L 1614.32,3413.33 L 1616.56,3408.97 L 1622.19,3395.4 L 1623.68,3390.73 L 1626.99,3376.42 L 1627.7,3371.57 L 1628.51,3352.01 L 1628.21,3348.84 L 1628.21,3263.21 L 1629.8,3254.7 L 1634.35,3247.35 L 1692.99,3188.68 L 1700.12,3183.79 L 1708.55,3181.81 L 1717.12,3183 L 1724.67,3187.21 L 1726.28,3188.68 L 1838.21,3300.6 L 1843.1,3307.74 L 1853.96,3325.84 L 1863.62,3337.15 L 1900.69,3374.22 L 1911.99,3383.87 L 1928.91,3394.24 L 1938.07,3398.03 L 1947.23,3401.83 L 1966.52,3406.46 L 1986.3,3408.02 L 2006.07,3406.46 L 2025.36,3401.83 L 2043.69,3394.24 L 2060.6,3383.87 L 2075.68,3370.99 L 2088.57,3355.91 L 2098.93,3338.99 L 2106.52,3320.67 L 2111.15,3301.38 L 2112.71,3281.6 L 2111.15,3261.83 L 2106.52,3242.54 L 2098.93,3224.21 L 2088.57,3207.3 L 2078.91,3195.99 L 2041.84,3158.92 L 2030.06,3148.92 L 2024.11,3142.64 L 2020.84,3134.63 L 2020.68,3125.98 L 2023.65,3117.85 L 2029.36,3111.35 L 2037.04,3107.35 L 2043.9,3106.33 L 2185.12,3106.33 L 2193.63,3107.92 L 2197.42,3109.8 L 2207.29,3115.85 L 2225.62,3123.44 L 2244.91,3128.07 L 2264.68,3129.63 L 2284.46,3128.07 L 2303.75,3123.44 L 2322.08,3115.85 L 2338.99,3105.48 L 2354.07,3092.6 L 2366.96,3077.52 L 2377.32,3060.6 L 2384.91,3042.28 L 2389.54,3022.99 L 2391.1,3003.21 L 2389.54,2983.44 L 2384.91,2964.15 L 2377.32,2945.82 L 2366.95,2928.91 L 2357.3,2917.6 L 2320.23,2880.54 L 2308.92,2870.88 L 2292.01,2860.51 L 2273.68,2852.92 L 2254.39,2848.29 L 2234.62,2846.74 L 2214.84,2848.29 L 2195.55,2852.92 L 2177.23,2860.51 L 2167.36,2866.56 L 2159.27,2869.65 L 2155.06,2870.03 L 2034.41,2870.03 L 2025.9,2868.44 L 2017.76,2863.14 L 1821.99,2667.37 L 1806.77,2646.58 L 1735.08,2574.89 L 1723.82,2565.31 L 1706.96,2555.12 L 1688.67,2547.76 L 1669.44,2543.43 L 1649.76,2542.23 L 1630.15,2544.22 L 1611.11,2549.32 L 1593.14,2557.41 L 1576.69,2568.28 L 1562.2,2581.64 L 1550.05,2597.16 L 1540.54,2614.42 L 1536.97,2624.45 L 1532.61,2631.92 L 1525.85,2637.32 L 1517.6,2639.92 L 1508.96,2639.35 L 1501.91,2636.25 L 1496.76,2633.49 L 1483.19,2627.87 L 1478.52,2626.38 L 1464.21,2623.06 L 1459.36,2622.36 L 1439.8,2621.55 L 1436.63,2621.85 L 1340.18,2621.85 L 1331.67,2620.26 L 1324.31,2615.71 L 1294.57,2586 L 1283.37,2576.51 L 1276.36,2572.33 L 1271.76,2568.76 L 1268.52,2565.51 L 1257.69,2556.34 L 1241.43,2546.66 L 1223.8,2539.78 L 1212.87,2537.48 L 1205.27,2535.89 L 1186.36,2535.11 L 1167.58,2537.45 L 1149.44,2542.85 L 1132.43,2551.16 L 1117.03,2562.16 L 1103.64,2575.55 L 1092.65,2590.95 L 1084.33,2607.96 L 1078.93,2626.1 L 1076.59,2644.88 L 1077.37,2663.79 L 1081.26,2682.32 L 1088.14,2699.95 L 1097.83,2716.21 L 1107,2727.04 L 1110.24,2730.28 L 1113.82,2734.87 L 1118,2741.89 L 1127.48,2753.09 L 1192.24,2817.84 L 1194.26,2820.3 L 1201.4,2827 L 1208.67,2833.56 L 1212.6,2836.49 L 1225.06,2844.27 L 1229.42,2846.51 L 1242.99,2852.13 L 1247.66,2853.63 L 1261.97,2856.94 L 1266.82,2857.65 L 1286.38,2858.46 L 1289.55,2858.15 L 1385.86,2858.15 L 1394.37,2859.74 L 1401.72,2864.3 L 1405.43,2868.71 L 1417.51,2885.47 L 1489.2,2957.17 L 1500.46,2966.74 L 1507.84,2971.2 L 1512.31,2974.7 L 1525.9,2988.29 L 1530.79,2995.43 L 1532.77,3003.85 L 1531.57,3012.42 L 1527.36,3019.98 L 1525.9,3021.59 L 1432.22,3115.27 L 1429.76,3117.3 L 1423.06,3124.43 L 1416.5,3131.7 L 1413.57,3135.63 L 1405.79,3148.09 L 1403.55,3152.45 L 1397.92,3166.02 L 1396.43,3170.69 L 1393.12,3185.01 L 1392.41,3189.85 L 1391.6,3209.42 L 1391.91,3212.59 L 1391.91,3298.21 L 1390.32,3306.72 L 1385.76,3314.08 L 1072.43,3627.44 L 1069.97,3629.47 L 1056.71,3643.87 L 1053.78,3647.8 L 1046,3660.27 L 1043.76,3664.62 L 1038.14,3678.2 L 1036.64,3682.86 L 1033.33,3697.18 L 1032.62,3702.03 L 1032.12,3711.81 L 1031.82,3721.59 L 1032.12,3724.76 L 1032.16,3754.47 L 1032.12,4008.41 L 1030.53,4016.91 L 1025.97,4024.27 L 677.947,4372.33 L 675.493,4374.36 L 662.231,4388.76 L 659.303,4392.69 L 651.521,4405.16 L 649.279,4409.51 L 643.657,4423.09 L 642.161,4427.75 L 638.851,4442.07 L 638.143,4446.92 L 637.639,4456.69 L 637.335,4466.48 L 637.639,4469.65 L 637.639,4663.33 L 637.335,4666.5 L 638.143,4686.07 L 638.849,4690.91 L 642.161,4705.23 L 643.657,4709.9 L 649.279,4723.47 L 651.523,4727.83 L 659.303,4740.29 L 662.231,4744.22 L 675.493,4758.62 L 677.947,4760.65 L 1145.19,5227.89 L 1147.22,5230.35 L 1161.62,5243.61 L 1165.55,5246.54 L 1178.01,5254.32 L 1182.37,5256.56 L 1195.94,5262.18 L 1200.61,5263.68 L 1214.93,5266.99 L 1219.77,5267.7 L 1239.34,5268.51 L 1242.51,5268.2 L 1325.54,5268.2 L 1334.05,5269.79 L 1341.4,5274.35 L 1346.62,5281.25 L 1356.64,5302.44 L 1372.95,5329.65 L 1391.85,5355.13 L 1413.15,5378.63 L 1436.66,5399.94 L 1462.14,5418.84 L 1489.35,5435.14 L 1518.03,5448.71 L 1543.09,5457.68 L 1547.9,5459.4 L 1578.67,5467.1 L 1610.05,5471.76 L 1641.73,5473.32 L 1673.42,5471.76 L 1704.8,5467.1 L 1735.57,5459.4 L 1765.44,5448.71 L 1794.12,5435.14 L 1821.33,5418.84 L 1846.81,5399.94 L 1870.32,5378.63 L 1891.62,5355.13 L 1910.52,5329.65 L 1926.83,5302.44 L 1940.39,5273.76 L 1951.08,5243.89 L 1956.62,5221.75 L 1958.79,5213.12 L 1963.44,5181.74 L 1965,5150.05 L 1963.44,5118.37 L 1958.79,5086.99 L 1951.08,5056.21 L 1940.39,5026.34 L 1926.83,4997.67 L 1910.52,4970.46 L 1891.62,4944.98 L 1870.32,4921.47 L 1846.81,4900.17 L 1821.33,4881.27 L 1794.12,4864.96 L 1765.44,4851.4 L 1735.57,4840.71 L 1704.8,4833 L 1673.42,4828.35 L 1641.73,4826.79 L 1610.05,4828.35 L 1578.67,4833 L 1547.9,4840.71 L 1518.03,4851.4 L 1489.35,4864.96 L 1462.14,4881.27 L 1436.66,4900.17 L 1413.15,4921.47 L 1391.85,4944.98 L 1372.95,4970.46 L 1356.64,4997.67 L 1346.82,5018.43 L 1341.75,5025.43 L 1334.49,5030.14 L 1326.02,5031.9 L 1293.13,5031.9 L 1284.62,5030.31 L 1277.27,5025.76 L 1276.48,5025.01 L 1130.85,4879.37 L 1125.96,4872.23 L 1123.98,4863.81 L 1125.17,4855.24 L 1129.38,4847.68 L 1136.04,4842.15 L 1155.08,4831.03 L 1166.28,4821.55 L 1240,4747.82 L 1249.49,4736.62 L 1254.24,4728.64 L 1259.96,4722.15 L 1267.64,4718.16 L 1274.46,4717.15 L 1466.43,4717.15 L 1475.32,4715.98 L 1484.07,4714.04 L 1492.63,4711.34 L 1500.91,4707.91 L 1508.86,4703.77 L 1516.43,4698.95 L 1523.54,4693.49 L 1527.28,4689.76 L 1534.41,4684.87 L 1542.84,4682.89 L 1551.41,4684.09 L 1556.1,4686.26 L 1560.59,4688.97 L 1578.88,4696.33 L 1598.11,4700.66 L 1617.78,4701.85 L 1637.39,4699.87 L 1656.43,4694.77 L 1674.41,4686.68 L 1690.85,4675.81 L 1705.34,4662.45 L 1717.5,4646.93 L 1727.01,4629.66 L 1733.87,4610.18 L 1734.09,4610.24 L 1736.6,4603.69 L 1742.4,4597.27 L 1750.14,4593.39 L 1758.75,4592.56 L 1767.08,4594.9 L 1773.31,4599.36 L 2010.78,4836.84 L 2015.67,4843.98 L 2017.68,4853.48 L 2017.68,5103.05 L 2018.85,5111.94 L 2020.79,5120.7 L 2023.49,5129.25 L 2026.92,5137.54 L 2031.06,5145.49 L 2035.88,5153.05 L 2041.34,5160.17 L 2361.09,5479.92 L 2368.21,5485.38 L 2375.77,5490.2 L 2383.72,5494.34 L 2392.01,5497.77 L 2400.56,5500.47 L 2409.32,5502.41 L 2418.21,5503.58 L 3008.52,5503.58 L 3017.02,5505.17 L 3024.38,5509.73 L 3027.8,5513.62 L 3038.46,5528.85 L 3051.62,5542.01 L 3066.86,5552.68 L 3083.73,5560.54 L 3101.7,5565.36 L 3115.59,5566.57 L 3135.3,5566.57 L 3143.8,5568.16 L 3151.16,5572.72 L 3156.37,5579.62 L 3158.74,5587.95 L 3157.94,5596.56 L 3154.09,5604.31 L 3147.69,5610.13 L 3142.49,5612.54 L 3135.91,5614.65 L 3091.11,5628.68 L 3008.93,5651.47 L 2925.98,5671.27 L 2842.37,5688.08 L 2758.2,5701.85 L 2724.43,5706.19 L 2673.59,5712.58 L 2588.64,5720.24 L 2503.6,5724.83 L 2419.29,5726.34 L 2334.98,5724.83 L 2249.94,5720.24 L 2195.95,5715.41 L 2165,5712.58 L 2080.39,5701.85 L 1996.22,5688.08 L 1912.61,5671.27 L 1866.04,5660.27 L 1829.66,5651.47 L 1747.48,5628.68 L 1666.17,5602.93 L 1585.86,5574.28 L 1542.67,5557.29 L 1506.63,5542.74 L 1464.25,5524.3 L 1428.59,5508.36 L 1387.04,5488.49 L 1351.84,5471.2 L 1311.15,5449.91 L 1276.49,5431.28 L 1236.67,5408.61 L 1202.63,5388.68 L 1163.72,5364.64 L 1130.36,5343.44 L 1092.39,5318.06 L 1059.77,5295.62 L 1022.77,5268.94 L 990.955,5245.28 L 954.965,5217.33 L 924.005,5192.5 L 889.057,5163.3 L 859.001,5137.34 L 825.139,5106.92 L 796.039,5079.87 L 763.287,5048.27 L 735.191,5020.18 L 703.591,4987.43 L 676.541,4958.33 L 646.125,4924.46 L 620.167,4894.41 L 590.961,4859.46 L 566.139,4828.5 L 538.181,4792.51 L 514.527,4760.69 L 487.849,4723.7 L 465.403,4691.08 L 440.029,4653.1 L 418.827,4619.75 L 394.787,4580.83 L 374.857,4546.79 L 352.183,4506.98 L 333.557,4472.32 L 312.269,4431.62 L 294.975,4396.42 L 275.101,4354.88 L 259.169,4319.21 L 240.725,4276.84 L 209.187,4197.61 L 196.047,4161.28 L 180.531,4117.29 L 154.789,4035.99 L 131.999,3953.81 L 123.195,3917.43 L 112.191,3870.86 L 95.3871,3787.24 L 81.6131,3703.08 L 77.2751,3669.34 L 70.8871,3618.47 L 63.2211,3533.53 L 58.6331,3448.48 L 57.1271,3364.17M 405.079,2723.07 L 406.251,2737.21 L 410.897,2755.56 L 414.907,2764.7 L 416.869,2773.13 L 416.891,2926.65 L 418.061,2935.54 L 420.003,2944.29 L 422.699,2952.84 L 426.131,2961.13 L 430.271,2969.08 L 435.089,2976.65 L 440.549,2983.76 L 789.487,3332.7 L 794.375,3339.84 L 798.401,3350.09 L 808.089,3366.35 L 817.259,3377.17 L 870.709,3430.62 L 881.535,3439.79 L 897.795,3449.48 L 915.429,3456.36 L 933.953,3460.25 L 952.865,3461.03 L 971.647,3458.69 L 989.789,3453.29 L 1006.79,3444.97 L 1022.2,3433.98 L 1035.58,3420.59 L 1046.58,3405.19 L 1054.89,3388.18 L 1060.29,3370.04 L 1062.64,3351.26 L 1061.85,3332.35 L 1057.97,3313.82 L 1051.09,3296.19 L 1041.4,3279.93 L 1032.23,3269.1 L 978.779,3215.65 L 967.953,3206.48 L 951.693,3196.79 L 942.393,3193.17 L 934.303,3187.88 L 628.589,2882.17 L 623.699,2875.03 L 621.693,2865.52 L 621.693,2774.16 L 623.283,2765.65 L 627.687,2755.56 L 632.333,2737.21 L 633.505,2723.07 L 633.505,2647.48 L 632.333,2633.34 L 627.687,2614.99 L 620.083,2597.66 L 609.731,2581.81 L 596.911,2567.89 L 581.975,2556.26 L 565.329,2547.25 L 547.425,2541.11 L 528.757,2537.99 L 509.829,2537.99 L 491.159,2541.11 L 473.257,2547.25 L 456.609,2556.26 L 441.673,2567.89 L 428.853,2581.81 L 418.501,2597.66 L 410.897,2614.99 L 406.251,2633.34 L 405.079,2647.48 L 405.079,2723.07M 1500.86,2220.62 L 1501.64,2239.53 L 1504,2250.78 L 1505.52,2258.05 L 1512.4,2275.69 L 1522.09,2291.95 L 1536.34,2308.63 L 1548.28,2325.36 L 1562.12,2339.2 L 1578.85,2351.15 L 1595.54,2365.39 L 1611.8,2375.08 L 1629.43,2381.96 L 1647.96,2385.85 L 1666.87,2386.63 L 1685.65,2384.29 L 1703.79,2378.89 L 1720.79,2370.57 L 1736.2,2359.57 L 1749.58,2346.19 L 1760.58,2330.79 L 1765.71,2320.29 L 1770.88,2313.35 L 1778.2,2308.74 L 1786.69,2307.09 L 1966.31,2307.09 L 1974.82,2308.68 L 1982.17,2313.23 L 2415.77,2746.79 L 2420.66,2753.93 L 2422.48,2760.53 L 2423.67,2770.06 L 2429.07,2788.2 L 2437.38,2805.2 L 2448.38,2820.61 L 2461.77,2833.99 L 2477.17,2844.99 L 2494.17,2853.3 L 2512.31,2858.7 L 2521.85,2859.89 L 2530.09,2862.52 L 2535.58,2866.61 L 2816.5,3147.53 L 2831.72,3168.32 L 2903.42,3240.01 L 2914.67,3249.58 L 2931.54,3259.78 L 2949.83,3267.14 L 2969.06,3271.47 L 2988.73,3272.66 L 3008.34,3270.68 L 3027.38,3265.58 L 3045.36,3257.49 L 3061.8,3246.62 L 3076.29,3233.26 L 3088.45,3217.74 L 3097.96,3200.47 L 3104.58,3181.9 L 3108.13,3162.52 L 3108.53,3142.81 L 3105.76,3123.29 L 3099.89,3104.47 L 3091.09,3086.84 L 3079.56,3070.84 L 3007.87,2999.15 L 2996.61,2989.58 L 2989.23,2985.12 L 2984.77,2981.62 L 2702.67,2699.52 L 2697.78,2692.38 L 2695.96,2685.78 L 2694.77,2676.25 L 2689.37,2658.11 L 2681.05,2641.11 L 2670.05,2625.7 L 2656.67,2612.32 L 2641.27,2601.32 L 2624.26,2593.01 L 2606.12,2587.61 L 2596.59,2586.42 L 2588.35,2583.79 L 2582.85,2579.7 L 2114.25,2111.1 L 2112.22,2108.64 L 2097.82,2095.38 L 2093.89,2092.45 L 2081.43,2084.67 L 2077.07,2082.43 L 2063.5,2076.81 L 2058.83,2075.31 L 2044.52,2072 L 2039.67,2071.3 L 2029.89,2070.79 L 2020.1,2070.49 L 2016.93,2070.79 L 1706.61,2070.79 L 1703.44,2070.49 L 1683.88,2071.3 L 1679.03,2072 L 1664.72,2075.31 L 1660.05,2076.81 L 1646.48,2082.43 L 1642.12,2084.67 L 1629.65,2092.45 L 1625.73,2095.38 L 1614.21,2105.98 L 1606.88,2110.57 L 1601.18,2112.02 L 1591.84,2113.19 L 1573.7,2118.59 L 1556.7,2126.9 L 1541.29,2137.9 L 1527.91,2151.28 L 1516.91,2166.69 L 1508.6,2183.69 L 1503.2,2201.83 L 1500.86,2220.62M 1684.69,1833.07 L 1685.86,1847.21 L 1690.51,1865.56 L 1698.11,1882.89 L 1708.46,1898.74 L 1721.28,1912.66 L 1736.22,1924.29 L 1752.86,1933.3 L 1770.77,1939.45 L 1789.44,1942.56 L 1808.36,1942.56 L 1827.03,1939.45 L 1844.94,1933.3 L 1861.58,1924.29 L 1876.52,1912.67 L 1881.58,1907.17 L 1888.51,1901.99 L 1896.84,1899.66 L 1905.45,1900.5 L 1913.18,1904.4 L 1916.22,1907.17 L 1921.28,1912.66 L 1936.22,1924.29 L 1952.86,1933.3 L 1970.77,1939.45 L 1989.44,1942.56 L 2008.36,1942.56 L 2027.03,1939.45 L 2044.94,1933.3 L 2061.58,1924.29 L 2077.24,1912.01 L 2077.39,1912.17 L 2083,1907.97 L 2091.33,1905.64 L 2141.6,1905.55 L 2150.1,1907.14 L 2158.24,1912.45 L 2240.07,1994.27 L 2244.96,2001.41 L 2254.52,2020.95 L 2266.04,2036.95 L 2337.73,2108.64 L 2348.99,2118.22 L 2365.86,2128.41 L 2384.14,2135.77 L 2403.37,2140.1 L 2423.05,2141.29 L 2442.66,2139.31 L 2461.7,2134.21 L 2479.67,2126.12 L 2496.12,2115.25 L 2510.61,2101.89 L 2522.76,2086.37 L 2532.27,2069.1 L 2538.89,2050.54 L 2542.44,2031.15 L 2542.61,2022.89 L 2544.37,2014.42 L 2549.07,2007.16 L 2556.08,2002.08 L 2563.78,1999.94 L 2584.08,1997.89 L 2603.12,1992.79 L 2621.1,1984.7 L 2637.54,1973.83 L 2652.03,1960.46 L 2664.18,1944.95 L 2673.69,1927.68 L 2680.31,1909.11 L 2683.87,1889.73 L 2684.26,1870.02 L 2681.49,1850.5 L 2675.63,1831.68 L 2666.82,1814.05 L 2655.3,1798.05 L 2583.61,1726.36 L 2572.35,1716.79 L 2555.48,1706.59 L 2545.97,1702.76 L 2538.67,1698.11 L 2422.85,1582.3 L 2417.96,1575.17 L 2415.98,1566.74 L 2417.44,1547.41 L 2417.44,1443.15 L 2416.23,1428.52 L 2411.42,1409.54 L 2403.56,1391.61 L 2392.85,1375.22 L 2379.59,1360.81 L 2364.14,1348.78 L 2346.92,1339.46 L 2328.4,1333.11 L 2309.08,1329.88 L 2289.5,1329.88 L 2270.19,1333.11 L 2251.67,1339.46 L 2234.45,1348.78 L 2219,1360.81 L 2205.74,1375.22 L 2195.03,1391.61 L 2187.16,1409.54 L 2182.36,1428.52 L 2181.14,1443.15 L 2181.14,1547.41 L 2182.36,1562.03 L 2187.48,1581.94 L 2189,1589.15 L 2189.02,1610.82 L 2188.64,1617.05 L 2190.21,1633.41 L 2194.94,1651.57 L 2196.02,1654.74 L 2195.8,1654.8 L 2197.02,1661.67 L 2195.36,1670.16 L 2190.74,1677.47 L 2183.79,1682.63 L 2175.45,1684.92 L 2093.39,1685 L 2084.89,1683.41 L 2077.53,1678.86 L 2061.58,1666.26 L 2044.94,1657.25 L 2027.03,1651.11 L 2008.36,1647.99 L 1989.44,1647.99 L 1970.77,1651.11 L 1952.86,1657.25 L 1943.92,1662.09 L 1935.69,1664.74 L 1927.05,1664.24 L 1919.18,1660.65 L 1913.13,1654.46 L 1909.74,1646.5 L 1909.18,1641.39 L 1909.18,1491.1 L 1910.76,1482.6 L 1915.32,1475.24 L 2075.29,1315.24 L 2082.43,1310.35 L 2109.58,1303.67 L 2126.91,1296.07 L 2142.76,1285.72 L 2156.68,1272.9 L 2168.31,1257.96 L 2177.32,1241.31 L 2183.46,1223.41 L 2186.58,1204.74 L 2186.58,1185.81 L 2183.46,1167.14 L 2177.32,1149.24 L 2168.31,1132.59 L 2156.68,1117.66 L 2142.75,1104.84 L 2126.91,1094.49 L 2109.58,1086.88 L 2091.23,1082.24 L 2077.09,1081.06 L 2001.5,1081.06 L 1987.36,1082.24 L 1969.01,1086.88 L 1951.68,1094.49 L 1935.83,1104.84 L 1921.91,1117.66 L 1910.28,1132.6 L 1901.27,1149.24 L 1895.13,1167.14 L 1893.09,1179.33 L 1890.12,1187.45 L 1886.52,1192.1 L 1723.67,1354.95 L 1719,1359.09 L 1707.74,1372.85 L 1698.58,1388.84 L 1692.02,1406.81 L 1688.62,1426.29 L 1688.62,1729.49 L 1687.9,1735.27 L 1685.86,1743.34 L 1684.69,1757.48 L 1684.69,1833.07M 2692.03,3577.7 L 2693.66,3590.04 L 2698.42,3601.54 L 2704.1,3608.94 L 2830.97,3735.81 L 2838.37,3741.49 L 2849.87,3746.25 L 2862.22,3747.88 L 2874.56,3746.25 L 2886.06,3741.49 L 2893.46,3735.81 L 2926.53,3702.74 L 2933.67,3697.85 L 2942.09,3695.87 L 3193.56,3695.85 L 3196.73,3696.15 L 3206.51,3695.85 L 3216.29,3695.34 L 3221.14,3694.63 L 3235.45,3691.32 L 3240.12,3689.83 L 3253.7,3684.21 L 3258.05,3681.96 L 3270.52,3674.18 L 3274.44,3671.25 L 3288.85,3657.99 L 3290.88,3655.54 L 3773.11,3173.3 L 3780.25,3168.41 L 3788.67,3166.43 L 3797.24,3167.63 L 3804.8,3171.84 L 3810.33,3178.49 L 3820.75,3200.26 L 3832.13,3216.19 L 3845.98,3230.04 L 3861.91,3241.41 L 3879.5,3250.01 L 3898.27,3255.6 L 3917.7,3258.02 L 3937.26,3257.21 L 3956.43,3253.2 L 3974.67,3246.08 L 3991.49,3236.05 L 4002.69,3226.57 L 4050.8,3178.46 L 4060.28,3167.26 L 4070.31,3150.44 L 4077.42,3132.2 L 4081.44,3113.03 L 4082.25,3093.47 L 4079.83,3074.04 L 4079.26,3072.12 L 4074.24,3055.27 L 4065.64,3037.68 L 4054.27,3021.75 L 4040.42,3007.9 L 4024.49,2996.52 L 4005.99,2987.57 L 4006.06,2987.37 L 3999.76,2984.14 L 3994.01,2977.68 L 3990.99,2969.57 L 3991.09,2960.92 L 3994.32,2952.89 L 3997.53,2948.88 L 4189.07,2757.34 L 4196.21,2752.45 L 4204.63,2750.47 L 4213.2,2751.67 L 4220.76,2755.88 L 4222.37,2757.34 L 4370.97,2905.94 L 4375.86,2913.08 L 4377.84,2921.5 L 4376.64,2930.07 L 4372.43,2937.63 L 4365.78,2943.16 L 4359.88,2945.5 L 4342.87,2953.82 L 4327.47,2964.81 L 4314.08,2978.2 L 4303.09,2993.6 L 4294.77,3010.61 L 4289.37,3028.75 L 4287.03,3047.53 L 4287.81,3066.44 L 4289.32,3073.62 L 4289.51,3082.27 L 4286.56,3090.41 L 4282.92,3095.1 L 4191.3,3186.72 L 4184.16,3191.61 L 4179.49,3193.12 L 4161.05,3196.99 L 4143.41,3203.87 L 4127.15,3213.55 L 4116.33,3222.72 L 4062.88,3276.17 L 4053.71,3287 L 4044.02,3303.26 L 4037.14,3320.89 L 4033.25,3339.42 L 4032.47,3358.33 L 4034.81,3377.11 L 4040.21,3395.25 L 4048.53,3412.26 L 4059.53,3427.66 L 4072.91,3441.05 L 4088.31,3452.05 L 4105.32,3460.36 L 4123.46,3465.76 L 4142.24,3468.1 L 4161.15,3467.32 L 4179.68,3463.43 L 4197.31,3456.55 L 4213.57,3446.86 L 4224.4,3437.7 L 4277.85,3384.25 L 4287.02,3373.42 L 4296.71,3357.16 L 4303.59,3339.53 L 4307.45,3321.09 L 4310.75,3313.09 L 4313.85,3309.27 L 4405.47,3217.65 L 4412.61,3212.76 L 4421.03,3210.78 L 4426.95,3211.25 L 4434.13,3212.76 L 4453.04,3213.54 L 4471.82,3211.2 L 4489.97,3205.8 L 4506.97,3197.49 L 4522.37,3186.49 L 4535.76,3173.1 L 4546.76,3157.7 L 4555.07,3140.7 L 4560.47,3122.55 L 4562.81,3103.77 L 4562.5,3096.31 L 4563.74,3087.74 L 4567.99,3080.21 L 4574.67,3074.71 L 4582.89,3072 L 4587,3071.81 L 4594.46,3072.12 L 4613.25,3069.78 L 4631.39,3064.38 L 4648.39,3056.07 L 4663.8,3045.07 L 4677.18,3031.68 L 4688.18,3016.28 L 4696.49,2999.27 L 4701.89,2981.13 L 4704.23,2962.35 L 4703.45,2943.44 L 4699.57,2924.91 L 4692.69,2907.28 L 4683,2891.02 L 4673.83,2880.19 L 4670.59,2876.95 L 4667.01,2872.36 L 4662.83,2865.34 L 4653.34,2854.14 L 4330.76,2531.56 L 4325.87,2524.42 L 4323.87,2514.91 L 4323.87,2397.83 L 4324.17,2394.66 L 4323.36,2375.1 L 4322.66,2370.25 L 4319.34,2355.93 L 4317.85,2351.26 L 4312.23,2337.69 L 4309.98,2333.33 L 4302.2,2320.87 L 4299.27,2316.94 L 4286.01,2302.54 L 4283.56,2300.51 L 4084.73,2101.68 L 4080.2,2095.73 L 4076.52,2087.9 L 4075.91,2079.27 L 4078.47,2071 L 4083.84,2064.22 L 4088.78,2060.91 L 4104.72,2052.94 L 4120.72,2041.42 L 4192.41,1969.73 L 4201.98,1958.47 L 4212.18,1941.6 L 4216.01,1932.09 L 4220.66,1924.79 L 4259.45,1885.99 L 4264.04,1882.41 L 4271.2,1878.15 L 4282.03,1868.98 L 4335.47,1815.53 L 4344.64,1804.7 L 4354.33,1788.44 L 4361.21,1770.81 L 4365.1,1752.28 L 4365.88,1733.37 L 4363.54,1714.59 L 4358.14,1696.45 L 4349.83,1679.44 L 4338.83,1664.04 L 4325.44,1650.66 L 4310.04,1639.66 L 4293.03,1631.34 L 4274.89,1625.94 L 4256.11,1623.6 L 4248.65,1623.91 L 4240.08,1622.67 L 4232.55,1618.43 L 4227.05,1611.74 L 4224.34,1603.53 L 4224.15,1599.41 L 4224.46,1591.95 L 4222.12,1573.17 L 4216.72,1555.03 L 4208.4,1538.02 L 4197.41,1522.62 L 4184.02,1509.23 L 4168.62,1498.24 L 4151.61,1489.92 L 4133.47,1484.52 L 4114.69,1482.18 L 4107.23,1482.49 L 4098.66,1481.25 L 4091.12,1477 L 4085.63,1470.32 L 4082.92,1462.1 L 4082.73,1457.99 L 4083.04,1450.53 L 4080.7,1431.75 L 4075.3,1413.61 L 4066.98,1396.6 L 4055.98,1381.2 L 4042.6,1367.81 L 4027.2,1356.81 L 4010.19,1348.5 L 3992.05,1343.1 L 3973.27,1340.76 L 3965.8,1341.07 L 3957.24,1339.83 L 3949.7,1335.58 L 3944.21,1328.9 L 3941.5,1320.68 L 3941.31,1316.57 L 3941.62,1309.11 L 3939.28,1290.33 L 3933.87,1272.18 L 3925.56,1255.18 L 3914.56,1239.78 L 3901.18,1226.39 L 3885.77,1215.39 L 3868.77,1207.08 L 3850.63,1201.68 L 3831.85,1199.34 L 3824.38,1199.65 L 3815.82,1198.41 L 3808.28,1194.16 L 3802.79,1187.48 L 3800.08,1179.26 L 3799.89,1175.15 L 3800.2,1167.69 L 3797.85,1148.9 L 3792.45,1130.76 L 3784.14,1113.76 L 3773.14,1098.35 L 3759.76,1084.97 L 3744.35,1073.97 L 3727.35,1065.66 L 3709.21,1060.26 L 3690.42,1057.92 L 3671.51,1058.7 L 3652.99,1062.58 L 3635.36,1069.46 L 3619.1,1079.15 L 3608.27,1088.32 L 3554.82,1141.77 L 3545.65,1152.6 L 3535.96,1168.86 L 3529.08,1186.49 L 3525.2,1205.02 L 3524.41,1223.93 L 3526.75,1242.71 L 3532.16,1260.85 L 3540.47,1277.86 L 3551.47,1293.26 L 3564.85,1306.64 L 3580.26,1317.64 L 3598.13,1326.38 L 3604.44,1330.46 L 3609.64,1337.38 L 3611.99,1345.71 L 3611.17,1354.32 L 3607.29,1362.06 L 3602.3,1366.93 L 3598.98,1369.32 L 3527.29,1441.01 L 3517.71,1452.27 L 3507.52,1469.13 L 3500.16,1487.42 L 3495.83,1506.65 L 3494.64,1526.33 L 3496.62,1545.94 L 3501.72,1564.98 L 3509.81,1582.95 L 3520.68,1599.4 L 3534.04,1613.89 L 3549.56,1626.04 L 3566.83,1635.55 L 3585.39,1642.17 L 3604.78,1645.72 L 3613.04,1645.89 L 3621.51,1647.65 L 3628.77,1652.35 L 3633.85,1659.36 L 3635.99,1667.06 L 3638.04,1687.36 L 3643.14,1706.4 L 3651.23,1724.37 L 3662.1,1740.82 L 3675.46,1755.31 L 3690.98,1767.46 L 3708.25,1776.97 L 3726.81,1783.59 L 3746.2,1787.14 L 3754.46,1787.31 L 3762.93,1789.07 L 3770.19,1793.77 L 3775.27,1800.78 L 3777.41,1808.48 L 3779.46,1828.78 L 3784.56,1847.82 L 3792.65,1865.8 L 3803.52,1882.24 L 3816.89,1896.73 L 3832.4,1908.89 L 3849.67,1918.4 L 3868.24,1925.01 L 3887.62,1928.57 L 3895.88,1928.73 L 3904.35,1930.49 L 3911.61,1935.19 L 3916.69,1942.2 L 3918.83,1949.9 L 3919.06,1952.23 L 3918.34,1960.85 L 3914.55,1968.62 L 3908.2,1974.51 L 3900.16,1977.7 L 3892.89,1978.53 L 3873.85,1983.63 L 3855.88,1991.72 L 3839.43,2002.59 L 3824.94,2015.96 L 3812.79,2031.48 L 3803.28,2048.74 L 3796.66,2067.31 L 3793.11,2086.7 L 3792.71,2106.41 L 3795.48,2125.92 L 3801.34,2144.74 L 3810.15,2162.38 L 3821.67,2178.37 L 3893.37,2250.06 L 3904.62,2259.64 L 3912,2264.1 L 3916.47,2267.6 L 4080.67,2431.8 L 4085.56,2438.94 L 4087.54,2447.36 L 4087.57,2514.91 L 4085.98,2523.42 L 4080.67,2531.56 L 3159.58,3452.65 L 3152.45,3457.54 L 3144.02,3459.52 L 2943.18,3459.55 L 2934.67,3457.96 L 2927.32,3453.4 L 2893.46,3419.58 L 2886.06,3413.9 L 2874.56,3409.14 L 2862.22,3407.51 L 2849.87,3409.14 L 2838.37,3413.9 L 2830.97,3419.58 L 2704.1,3546.45 L 2698.42,3553.85 L 2693.66,3565.35 L 2692.03,3577.7M 2704.48,2057.97 L 2704.85,2063.56 L 2704.85,2379.75 L 2705.07,2385.95 L 2706.03,2392.09 L 2708.59,2402.12 L 2710.69,2407.97 L 2715.11,2417.33 L 2718.28,2422.68 L 2724.38,2431.04 L 2728.51,2435.68 L 2732.72,2439.37 L 2932.35,2639.01 L 2937.24,2646.15 L 2939.22,2654.57 L 2938.74,2660.49 L 2937.24,2667.67 L 2936.46,2686.58 L 2938.8,2705.36 L 2944.2,2723.5 L 2952.51,2740.51 L 2963.51,2755.91 L 2976.89,2769.3 L 2992.3,2780.29 L 3009.3,2788.61 L 3027.44,2794.01 L 3046.23,2796.35 L 3065.14,2795.57 L 3083.66,2791.68 L 3101.3,2784.8 L 3117.56,2775.11 L 3128.38,2765.94 L 3181.83,2712.49 L 3191,2701.67 L 3200.69,2685.41 L 3207.57,2667.77 L 3211.46,2649.25 L 3212.24,2630.34 L 3209.9,2611.55 L 3204.5,2593.41 L 3196.18,2576.41 L 3185.18,2561 L 3171.8,2547.62 L 3156.4,2536.62 L 3139.39,2528.31 L 3121.25,2522.91 L 3102.47,2520.57 L 3083.56,2521.35 L 3076.38,2522.86 L 3067.73,2523.04 L 3059.59,2520.1 L 3054.9,2516.46 L 2885.05,2346.62 L 2880.16,2339.48 L 2878.16,2329.97 L 2878.16,2105.69 L 2879.75,2097.18 L 2885.05,2089.04 L 3204.69,1769.65 L 3216.11,1757.68 L 3219.77,1752.66 L 3225.05,1743.75 L 3227.7,1738.13 L 3231.2,1728.39 L 3232.74,1722.37 L 3234.34,1712.14 L 3234.71,1705.94 L 3234.34,1700.35 L 3234.34,1377.21 L 3235.93,1368.7 L 3239.38,1362 L 3246,1343.43 L 3249.55,1324.04 L 3249.95,1304.33 L 3247.18,1284.82 L 3241.31,1266 L 3232.51,1248.36 L 3220.98,1232.37 L 3149.29,1160.68 L 3138.04,1151.1 L 3121.17,1140.9 L 3102.88,1133.54 L 3083.65,1129.21 L 3063.98,1128.02 L 3044.36,1130 L 3025.32,1135.11 L 3007.35,1143.2 L 2990.9,1154.07 L 2976.42,1167.43 L 2964.26,1182.95 L 2954.75,1200.21 L 2948.13,1218.78 L 2944.58,1238.17 L 2944.18,1257.88 L 2946.95,1277.39 L 2952.82,1296.21 L 2961.62,1313.85 L 2973.14,1329.84 L 3044.84,1401.53 L 3052.74,1408.26 L 3058.19,1414.98 L 3060.84,1423.21 L 3061.03,1658.22 L 3059.44,1666.73 L 3054.13,1674.87 L 2734.5,1994.26 L 2723.08,2006.23 L 2719.42,2011.25 L 2714.13,2020.16 L 2711.49,2025.78 L 2707.98,2035.52 L 2706.45,2041.54 L 2704.85,2051.77 L 2704.48,2057.97M 2987.01,2185.59 L 2989.35,2204.38 L 2994.75,2222.52 L 3003.07,2239.52 L 3014.07,2254.93 L 3027.45,2268.31 L 3042.85,2279.31 L 3059.86,2287.62 L 3078,2293.02 L 3087.53,2294.21 L 3095.77,2296.84 L 3101.27,2300.92 L 3382.19,2581.84 L 3397.41,2602.63 L 3469.1,2674.33 L 3480.36,2683.9 L 3497.23,2694.1 L 3515.51,2701.46 L 3534.74,2705.79 L 3544.58,2706.38 L 3554.42,2706.98 L 3574.03,2705 L 3593.07,2699.89 L 3611.04,2691.8 L 3627.49,2680.94 L 3641.98,2667.57 L 3654.13,2652.05 L 3663.64,2634.79 L 3670.26,2616.22 L 3673.81,2596.83 L 3674.21,2577.12 L 3671.44,2557.61 L 3665.58,2538.79 L 3656.77,2521.15 L 3645.25,2505.16 L 3573.56,2433.47 L 3562.3,2423.89 L 3554.92,2419.43 L 3550.45,2415.93 L 3268.36,2133.84 L 3263.47,2126.7 L 3261.64,2120.1 L 3260.45,2110.57 L 3255.05,2092.43 L 3246.74,2075.42 L 3235.74,2060.02 L 3222.36,2046.63 L 3206.95,2035.64 L 3189.95,2027.32 L 3171.81,2021.92 L 3153.02,2019.58 L 3134.11,2020.36 L 3115.59,2024.25 L 3097.95,2031.13 L 3081.69,2040.82 L 3065.01,2055.06 L 3048.28,2067 L 3034.44,2080.85 L 3022.49,2097.58 L 3008.25,2114.26 L 2998.56,2130.52 L 2991.68,2148.16 L 2987.79,2166.68 L 2987.01,2185.59 z " style="fill-opacity:1.000000;fill:rgb(103,198,105);stroke:rgb(0,0,0);stroke-width:2"/></g>
<g fill-rule="evenodd"><path d="M 452.362,2718.35 L 452.362,2652.2 L 453.825,2638.29 L 458.149,2624.98 L 465.145,2612.86 L 474.507,2602.47 L 485.827,2594.24 L 498.609,2588.55 L 512.295,2585.64 L 526.287,2585.64 L 539.974,2588.55 L 552.756,2594.24 L 564.076,2602.47 L 573.438,2612.86 L 580.434,2624.98 L 584.758,2638.29 L 586.22,2652.2 L 586.22,2718.35 L 584.758,2732.26 L 580.434,2745.57 L 574.411,2756 L 574.411,2894.85 L 913.934,3234.38 L 922.041,3236.1 L 934.823,3241.79 L 946.143,3250.02 L 995.454,3299.2 L 995.259,3299.39 L 1002.27,3307.18 L 1009.27,3319.3 L 1013.59,3332.61 L 1015.06,3346.52 L 1013.59,3360.44 L 1009.27,3373.75 L 1002.27,3385.86 L 992.912,3396.26 L 981.592,3404.49 L 968.81,3410.18 L 955.124,3413.09 L 941.132,3413.09 L 927.446,3410.18 L 914.663,3404.49 L 903.344,3396.26 L 854.033,3347.08 L 854.227,3346.89 L 847.212,3339.09 L 840.216,3326.98 L 835.892,3313.67 L 835.723,3312.06 L 480.319,2956.66 L 473.464,2948.31 L 468.371,2938.78 L 465.234,2928.44 L 464.175,2917.69 L 464.175,2756.01 L 458.149,2745.57 L 453.825,2732.26 L 452.362,2718.35 z " style="fill-opacity:1.000000;fill:rgb(115,81,255);stroke:rgb(0,0,0);stroke-width:2"/></g>
<g fill-rule="evenodd"><path d="M 684.921,4671.4 L 684.921,4461.58 L 686.283,4447.75 L 690.315,4434.46 L 696.864,4422.21 L 705.677,4411.47 L 1079.4,4037.75 L 1079.4,3716.69 L 1080.27,3705.61 L 1082.87,3694.79 L 1087.12,3684.52 L 1092.94,3675.04 L 1100.16,3666.58 L 1439.19,3327.55 L 1439.19,3204.52 L 1440.55,3190.69 L 1444.58,3177.4 L 1451.13,3165.15 L 1459.95,3154.41 L 1609.41,3004.94 L 1538.19,2933.72 L 1534.65,2932.14 L 1522,2922.95 L 1519.38,2920.04 L 1519.16,2920.25 L 1457.91,2859.01 L 1458.13,2858.79 L 1450.29,2850.08 L 1444.46,2839.99 L 1415.34,2810.87 L 1281.48,2810.87 L 1267.66,2809.51 L 1254.36,2805.47 L 1242.11,2798.92 L 1231.37,2790.11 L 1164.37,2723.11 L 1155.56,2712.37 L 1151.38,2704.55 L 1143.77,2696.94 L 1143.96,2696.75 L 1136.95,2688.96 L 1129.95,2676.84 L 1125.63,2663.53 L 1124.17,2649.62 L 1125.63,2635.7 L 1129.95,2622.39 L 1136.95,2610.28 L 1146.31,2599.88 L 1157.63,2591.65 L 1170.41,2585.96 L 1184.1,2583.05 L 1198.09,2583.05 L 1211.78,2585.96 L 1224.56,2591.65 L 1235.88,2599.88 L 1238.23,2602.48 L 1238.42,2602.29 L 1246.02,2609.89 L 1253.85,2614.08 L 1264.59,2622.89 L 1310.84,2669.14 L 1444.7,2669.14 L 1458.52,2670.5 L 1471.81,2674.53 L 1484.07,2681.08 L 1494.81,2689.89 L 1544.67,2739.76 L 1548.21,2741.33 L 1560.86,2750.53 L 1563.48,2753.44 L 1563.7,2753.22 L 1624.95,2814.47 L 1624.73,2814.68 L 1632.57,2823.39 L 1638.39,2833.48 L 1982.37,3177.46 L 1995.6,3183.35 L 2008.92,3193.02 L 2011.68,3196.09 L 2011.91,3195.86 L 2041.97,3225.93 L 2041.74,3226.15 L 2050,3235.32 L 2058.23,3249.58 L 2063.31,3265.23 L 2065.03,3281.6 L 2063.31,3297.97 L 2058.23,3313.63 L 2050,3327.89 L 2038.98,3340.12 L 2025.66,3349.79 L 2010.63,3356.49 L 1994.52,3359.91 L 1978.06,3359.91 L 1961.96,3356.49 L 1946.92,3349.79 L 1933.61,3340.12 L 1930.85,3337.05 L 1930.62,3337.28 L 1900.55,3307.21 L 1900.78,3306.99 L 1892.53,3297.82 L 1884.3,3283.56 L 1882.49,3278.02 L 1709.63,3105.16 L 1580.92,3233.87 L 1580.92,3356.91 L 1580.05,3367.99 L 1577.45,3378.8 L 1573.2,3389.08 L 1567.39,3398.56 L 1560.16,3407.02 L 1221.13,3746.05 L 1221.13,4067.1 L 1219.77,4080.92 L 1215.74,4094.22 L 1209.19,4106.47 L 1200.38,4117.21 L 826.653,4490.93 L 826.653,4642.05 L 1263.79,5079.19 L 1376.57,5079.19 L 1389.97,5037.96 L 1418.77,4988.06 L 1457.33,4945.25 L 1503.94,4911.38 L 1556.57,4887.95 L 1612.93,4875.97 L 1670.54,4875.97 L 1726.89,4887.95 L 1779.53,4911.38 L 1826.14,4945.25 L 1864.69,4988.06 L 1893.5,5037.96 L 1911.3,5092.75 L 1917.32,5150.05 L 1911.3,5207.35 L 1893.5,5262.14 L 1864.69,5312.04 L 1826.14,5354.86 L 1779.53,5388.72 L 1726.89,5412.15 L 1670.54,5424.13 L 1612.93,5424.13 L 1556.57,5412.15 L 1503.94,5388.72 L 1457.33,5354.86 L 1418.77,5312.04 L 1389.97,5262.14 L 1376.57,5220.92 L 1234.44,5220.92 L 1220.61,5219.56 L 1207.32,5215.52 L 1195.07,5208.97 L 1184.33,5200.16 L 705.677,4721.51 L 696.864,4710.77 L 690.315,4698.52 L 686.283,4685.23 L 684.921,4671.4 z " style="fill-opacity:1.000000;fill:rgb(74,236,41);stroke:rgb(0,0,0);stroke-width:2"/></g>
<g fill-rule="evenodd"><path d="M 1015.32,4734.55 L 1016.87,4719.81 L 1021.45,4705.72 L 1028.85,4692.89 L 1036.28,4684.64 L 1036.07,4684.44 L 1105.58,4615.07 L 1117.56,4606.36 L 1131.1,4600.34 L 1145.51,4597.27 L 1167.01,4575.78 L 1175.36,4568.92 L 1184.89,4563.83 L 1195.23,4560.69 L 1205.98,4559.63 L 1434.64,4559.63 L 1479.63,4514.64 L 1480.9,4502.6 L 1485.73,4487.72 L 1493.55,4474.18 L 1504.02,4462.56 L 1516.67,4453.37 L 1530.95,4447.01 L 1546.25,4443.76 L 1561.89,4443.76 L 1577.18,4447.01 L 1591.47,4453.37 L 1604.12,4462.56 L 1606.74,4465.47 L 1606.96,4465.26 L 1668.21,4526.5 L 1667.99,4526.72 L 1675.83,4535.43 L 1683.65,4548.97 L 1688.48,4563.84 L 1690.12,4579.39 L 1688.48,4594.95 L 1683.65,4609.82 L 1675.83,4623.36 L 1665.37,4634.98 L 1652.72,4644.18 L 1638.43,4650.54 L 1623.13,4653.79 L 1607.49,4653.79 L 1592.2,4650.54 L 1577.91,4644.18 L 1565.26,4634.98 L 1562.64,4632.07 L 1562.42,4632.29 L 1540.15,4610.02 L 1496.44,4653.73 L 1488.09,4660.58 L 1478.56,4665.67 L 1468.22,4668.81 L 1457.47,4669.87 L 1228.81,4669.87 L 1223.03,4675.65 L 1222.32,4682.47 L 1217.74,4696.56 L 1210.33,4709.39 L 1202.9,4717.64 L 1203.11,4717.84 L 1133.6,4787.21 L 1121.62,4795.92 L 1108.08,4801.94 L 1093.59,4805.03 L 1078.78,4805.03 L 1064.29,4801.94 L 1050.75,4795.92 L 1038.77,4787.21 L 1028.85,4776.2 L 1021.45,4763.37 L 1016.87,4749.28 L 1015.32,4734.55 z " style="fill-opacity:1.000000;fill:rgb(205,186,171);stroke:rgb(0,0,0);stroke-width:2"/></g>
<g fill-rule="evenodd"><path d="M 1400.11,3865.44 L 1401.58,3851.52 L 1405.9,3838.22 L 1412.9,3826.1 L 1422.26,3815.7 L 1433.58,3807.48 L 1446.36,3801.79 L 1460.05,3798.88 L 1474.04,3798.88 L 1487.73,3801.79 L 1500.51,3807.48 L 1511.83,3815.7 L 1513.85,3817.94 L 1520.84,3820.06 L 1533.09,3826.61 L 1543.83,3835.43 L 1745.6,4037.2 L 1756.01,4049.92 L 1763.83,4063.46 L 1768.66,4078.33 L 1770.29,4093.89 L 1768.66,4109.44 L 1763.83,4124.31 L 1756.01,4137.85 L 1745.54,4149.47 L 1732.89,4158.67 L 1718.61,4165.03 L 1703.31,4168.28 L 1687.67,4168.28 L 1672.37,4165.03 L 1658.09,4158.67 L 1645.44,4149.47 L 1642.81,4146.56 L 1642.6,4146.78 L 1581.35,4085.53 L 1581.57,4085.32 L 1573.73,4076.61 L 1565.91,4063.06 L 1563.44,4055.48 L 1472.25,3964.29 L 1469.03,3961.95 L 1466.68,3959.34 L 1466.49,3959.53 L 1419.72,3912.77 L 1419.91,3912.57 L 1412.9,3904.78 L 1405.9,3892.66 L 1401.58,3879.35 L 1400.11,3865.44 z " style="fill-opacity:1.000000;fill:rgb(242,251,227);stroke:rgb(0,0,0);stroke-width:2"/></g>
<g fill-rule="evenodd"><path d="M 1418.02,4174.06 L 1419.65,4158.51 L 1424.49,4143.64 L 1432.31,4130.09 L 1442.77,4118.47 L 1455.42,4109.28 L 1469.71,4102.92 L 1485,4099.67 L 1500.64,4099.67 L 1515.94,4102.92 L 1530.22,4109.28 L 1542.88,4118.47 L 1545.5,4121.38 L 1545.72,4121.17 L 1606.96,4182.41 L 1606.74,4182.63 L 1614.59,4191.34 L 1622.4,4204.88 L 1627.24,4219.75 L 1628.87,4235.31 L 1627.24,4250.86 L 1622.4,4265.73 L 1614.59,4279.27 L 1604.12,4290.9 L 1591.47,4300.09 L 1577.18,4306.45 L 1561.89,4309.7 L 1546.25,4309.7 L 1530.95,4306.45 L 1516.67,4300.09 L 1504.02,4290.9 L 1501.39,4287.98 L 1501.17,4288.2 L 1439.93,4226.95 L 1440.15,4226.74 L 1432.31,4218.03 L 1424.49,4204.49 L 1419.65,4189.61 L 1418.02,4174.06 z " style="fill-opacity:1.000000;fill:rgb(70,124,194);stroke:rgb(0,0,0);stroke-width:2"/></g>
<g fill-rule="evenodd"><path d="M 1541.54,3724.02 L 1543,3710.1 L 1547.32,3696.8 L 1554.32,3684.68 L 1563.68,3674.28 L 1575,3666.06 L 1587.78,3660.36 L 1601.47,3657.46 L 1615.46,3657.46 L 1629.15,3660.36 L 1641.93,3666.06 L 1653.25,3674.28 L 1655.6,3676.89 L 1655.79,3676.69 L 1663.39,3684.29 L 1671.22,3688.48 L 1681.96,3697.29 L 1809.53,3824.86 L 1813.07,3826.44 L 1825.72,3835.63 L 1828.34,3838.54 L 1828.56,3838.32 L 1848.98,3858.75 L 1996.41,3711.32 L 1997.12,3704.51 L 2001.7,3690.42 L 2009.11,3677.58 L 2016.54,3669.34 L 2016.33,3669.13 L 2085.84,3599.76 L 2097.82,3591.05 L 2111.36,3585.03 L 2125.77,3581.96 L 2127.05,3580.68 L 2127.05,3550.64 L 2128.11,3539.88 L 2131.25,3529.54 L 2136.34,3520.01 L 2143.2,3511.66 L 2419.64,3235.21 L 2419.81,3233.61 L 2424.13,3220.31 L 2431.13,3208.19 L 2438.15,3200.4 L 2437.95,3200.2 L 2487.26,3151.02 L 2498.58,3142.8 L 2511.36,3137.11 L 2525.05,3134.2 L 2539.04,3134.2 L 2552.73,3137.11 L 2565.51,3142.8 L 2576.83,3151.02 L 2586.19,3161.42 L 2593.19,3173.54 L 2597.51,3186.84 L 2598.98,3200.76 L 2597.51,3214.67 L 2593.19,3227.98 L 2586.19,3240.1 L 2579.18,3247.89 L 2579.37,3248.09 L 2530.06,3297.27 L 2518.74,3305.49 L 2505.96,3311.18 L 2497.85,3312.91 L 2237.29,3573.47 L 2237.29,3603.51 L 2236.23,3614.26 L 2233.09,3624.6 L 2228,3634.13 L 2221.15,3642.48 L 2203.29,3660.34 L 2202.57,3667.16 L 2197.99,3681.25 L 2190.59,3694.08 L 2183.16,3702.33 L 2183.36,3702.54 L 2113.86,3771.9 L 2101.87,3780.61 L 2088.34,3786.64 L 2073.93,3789.7 L 1911.66,3951.97 L 1910.08,3968.02 L 1905.25,3982.89 L 1897.43,3996.43 L 1886.96,4008.05 L 1874.31,4017.25 L 1860.03,4023.61 L 1844.73,4026.86 L 1829.09,4026.86 L 1813.8,4023.61 L 1799.51,4017.25 L 1786.86,4008.05 L 1784.23,4005.14 L 1784.02,4005.36 L 1722.77,3944.11 L 1722.99,3943.89 L 1715.15,3935.19 L 1709.32,3925.09 L 1581.74,3797.51 L 1572.93,3786.77 L 1568.75,3778.95 L 1561.14,3771.34 L 1561.33,3771.15 L 1554.32,3763.36 L 1547.32,3751.24 L 1543,3737.93 L 1541.54,3724.02 z " style="fill-opacity:1.000000;fill:rgb(84,248,27);stroke:rgb(0,0,0);stroke-width:2"/></g>
<g fill-rule="evenodd"><path d="M 1548.43,2225.35 L 1549.89,2211.44 L 1554.22,2198.13 L 1561.21,2186.01 L 1570.58,2175.61 L 1581.9,2167.39 L 1594.68,2161.7 L 1608.36,2158.79 L 1622.36,2158.79 L 1627.4,2159.86 L 1648.43,2138.83 L 1659.17,2130.02 L 1671.42,2123.47 L 1684.72,2119.43 L 1698.54,2118.07 L 2025,2118.07 L 2038.83,2119.43 L 2052.12,2123.47 L 2064.37,2130.02 L 2075.11,2138.83 L 2570.56,2634.28 L 2575.61,2633.21 L 2589.6,2633.21 L 2603.28,2636.12 L 2616.07,2641.81 L 2627.39,2650.03 L 2636.75,2660.43 L 2643.75,2672.55 L 2648.07,2685.86 L 2649.53,2699.77 L 2648.25,2711.97 L 2958.88,3022.6 L 2962.42,3024.18 L 2975.07,3033.37 L 2977.7,3036.28 L 2977.91,3036.06 L 3039.16,3097.31 L 3038.94,3097.53 L 3046.78,3106.24 L 3054.6,3119.78 L 3059.43,3134.65 L 3061.07,3150.2 L 3059.43,3165.76 L 3054.6,3180.63 L 3046.78,3194.17 L 3036.32,3205.79 L 3023.67,3214.99 L 3009.38,3221.35 L 2994.08,3224.6 L 2978.45,3224.6 L 2963.15,3221.35 L 2948.86,3214.99 L 2936.21,3205.79 L 2933.59,3202.88 L 2933.37,3203.1 L 2872.13,3141.85 L 2872.34,3141.63 L 2864.5,3132.93 L 2858.68,3122.84 L 2547.87,2812.03 L 2542.83,2813.1 L 2528.84,2813.1 L 2515.15,2810.19 L 2502.37,2804.5 L 2491.05,2796.28 L 2481.69,2785.88 L 2474.69,2773.76 L 2470.37,2760.46 L 2468.9,2746.54 L 2470.19,2734.34 L 1995.65,2259.81 L 1727.9,2259.81 L 1729.06,2272.12 L 1727.6,2286.04 L 1723.27,2299.34 L 1716.28,2311.46 L 1706.91,2321.86 L 1695.59,2330.08 L 1682.81,2335.77 L 1669.12,2338.68 L 1655.13,2338.68 L 1641.45,2335.77 L 1628.66,2330.08 L 1617.34,2321.86 L 1615,2319.25 L 1614.8,2319.45 L 1607.2,2311.84 L 1599.37,2307.66 L 1588.64,2298.85 L 1579.82,2288.11 L 1575.64,2280.28 L 1568.03,2272.68 L 1568.23,2272.48 L 1561.21,2264.69 L 1554.22,2252.57 L 1549.89,2239.27 L 1548.43,2225.35 z " style="fill-opacity:1.000000;fill:rgb(232,231,141);stroke:rgb(0,0,0);stroke-width:2"/></g>
<g fill-rule="evenodd"><path d="M 1577.42,2664.69 L 1579.06,2649.14 L 1583.89,2634.27 L 1591.71,2620.73 L 1602.18,2609.1 L 1614.83,2599.91 L 1629.11,2593.55 L 1644.41,2590.3 L 1660.05,2590.3 L 1675.34,2593.55 L 1689.63,2599.91 L 1702.28,2609.1 L 1704.9,2612.02 L 1705.12,2611.8 L 1766.37,2673.05 L 1766.15,2673.26 L 1773.99,2681.97 L 1779.81,2692.06 L 2005.07,2917.32 L 2179.51,2917.32 L 2181.93,2914.63 L 2195.25,2904.96 L 2210.28,2898.26 L 2226.39,2894.84 L 2242.85,2894.84 L 2258.95,2898.26 L 2273.99,2904.96 L 2287.3,2914.63 L 2290.07,2917.7 L 2290.29,2917.47 L 2320.36,2947.54 L 2320.13,2947.77 L 2328.38,2956.93 L 2336.62,2971.19 L 2341.7,2986.84 L 2343.42,3003.21 L 2341.7,3019.59 L 2336.62,3035.24 L 2328.38,3049.5 L 2317.37,3061.73 L 2304.05,3071.41 L 2289.01,3078.1 L 2272.91,3081.52 L 2256.45,3081.52 L 2240.35,3078.1 L 2225.31,3071.41 L 2212,3061.73 L 2209.58,3059.05 L 1975.72,3059.05 L 1961.89,3057.69 L 1948.6,3053.65 L 1936.35,3047.1 L 1925.61,3038.29 L 1679.61,2792.3 L 1676.07,2790.72 L 1663.42,2781.53 L 1660.8,2778.62 L 1660.58,2778.83 L 1599.33,2717.59 L 1599.55,2717.37 L 1591.71,2708.66 L 1583.89,2695.12 L 1579.06,2680.25 L 1577.42,2664.69 z " style="fill-opacity:1.000000;fill:rgb(118,90,46);stroke:rgb(0,0,0);stroke-width:2"/></g>
<g fill-rule="evenodd"><path d="M 1620.69,4376.73 L 1622.32,4361.18 L 1627.15,4346.3 L 1634.97,4332.76 L 1645.44,4321.14 L 1658.09,4311.95 L 1672.37,4305.59 L 1687.67,4302.33 L 1691.93,4302.33 L 1762.48,4231.79 L 1763.74,4219.75 L 1768.57,4204.88 L 1776.39,4191.34 L 1786.86,4179.72 L 1799.51,4170.53 L 1813.8,4164.16 L 1829.09,4160.91 L 1844.73,4160.91 L 1860.03,4164.16 L 1874.31,4170.53 L 1886.96,4179.72 L 1889.59,4182.63 L 1889.8,4182.41 L 1951.05,4243.66 L 1950.83,4243.88 L 1958.67,4252.58 L 1966.49,4266.13 L 1971.32,4281 L 1972.96,4296.55 L 1971.32,4312.1 L 1966.49,4326.98 L 1958.67,4340.52 L 1948.21,4352.14 L 1935.56,4361.33 L 1921.27,4367.69 L 1905.98,4370.95 L 1890.34,4370.95 L 1875.04,4367.69 L 1860.75,4361.33 L 1848.1,4352.14 L 1845.48,4349.23 L 1845.26,4349.45 L 1822.99,4327.17 L 1787.36,4362.81 L 1809.63,4385.08 L 1809.41,4385.3 L 1817.25,4394.01 L 1825.07,4407.55 L 1829.9,4422.42 L 1831.17,4434.46 L 2159.05,4762.34 L 2165.91,4770.69 L 2171,4780.22 L 2174.14,4790.56 L 2175.2,4801.32 L 2175.2,5071.26 L 2450,5346.06 L 3061.18,5346.06 L 3061.18,5342.13 L 3062.47,5329.85 L 3066.29,5318.11 L 3072.46,5307.41 L 3080.72,5298.24 L 3090.71,5290.98 L 3101.99,5285.96 L 3114.06,5283.39 L 3120.24,5283.39 L 3120.24,5283.07 L 3238.35,5283.07 L 3238.35,5283.39 L 3244.52,5283.39 L 3256.6,5285.96 L 3267.87,5290.98 L 3277.86,5298.24 L 3286.12,5307.41 L 3292.3,5318.11 L 3296.11,5329.85 L 3297.4,5342.13 L 3297.4,5346.06 L 3360.55,5346.06 L 3464.59,5242.03 L 3464.75,5240.43 L 3469.08,5227.12 L 3476.07,5215.01 L 3483.09,5207.21 L 3482.9,5207.02 L 3529.66,5160.25 L 3529.86,5160.44 L 3532.21,5157.84 L 3543.53,5149.61 L 3556.31,5143.92 L 3569.99,5141.01 L 3583.99,5141.01 L 3597.67,5143.92 L 3610.46,5149.61 L 3621.77,5157.84 L 3631.14,5168.24 L 3638.13,5180.35 L 3642.46,5193.66 L 3643.92,5207.58 L 3642.46,5221.49 L 3638.13,5234.8 L 3631.14,5246.92 L 3624.12,5254.71 L 3624.32,5254.9 L 3575.01,5304.08 L 3563.69,5312.31 L 3550.9,5318 L 3542.79,5319.72 L 3422.36,5440.15 L 3414.01,5447.01 L 3404.48,5452.1 L 3394.14,5455.24 L 3383.39,5456.3 L 3297.4,5456.3 L 3297.4,5460.24 L 3296.11,5472.51 L 3292.3,5484.26 L 3286.12,5494.95 L 3277.86,5504.12 L 3267.87,5511.38 L 3256.6,5516.4 L 3244.52,5518.97 L 3238.35,5518.97 L 3238.35,5519.29 L 3120.24,5519.29 L 3120.24,5518.97 L 3114.06,5518.97 L 3101.99,5516.4 L 3090.71,5511.38 L 3080.72,5504.12 L 3072.46,5494.95 L 3066.29,5484.26 L 3062.47,5472.51 L 3061.18,5460.24 L 3061.18,5456.3 L 2427.17,5456.3 L 2416.41,5455.24 L 2406.07,5452.1 L 2396.54,5447.01 L 2388.19,5440.15 L 2081.1,5133.07 L 2074.25,5124.72 L 2069.16,5115.19 L 2066.02,5104.85 L 2064.96,5094.09 L 2064.96,4824.15 L 1753.18,4512.37 L 1748.92,4512.37 L 1733.62,4509.12 L 1719.33,4502.75 L 1706.68,4493.56 L 1704.06,4490.65 L 1703.84,4490.87 L 1642.6,4429.62 L 1642.81,4429.4 L 1634.97,4420.7 L 1627.15,4407.15 L 1622.32,4392.28 L 1620.69,4376.73 z " style="fill-opacity:1.000000;fill:rgb(99,51,159);stroke:rgb(0,0,0);stroke-width:2"/></g>
<g fill-rule="evenodd"><path d="M 1731.97,1828.35 L 1731.97,1762.2 L 1733.43,1748.29 L 1735.91,1740.67 L 1735.91,1435.67 L 1736.68,1425.82 L 1738.99,1416.2 L 1742.77,1407.07 L 1747.94,1398.64 L 1754.36,1391.13 L 1940.28,1205.2 L 1939.66,1202.27 L 1939.66,1188.28 L 1942.57,1174.59 L 1948.26,1161.81 L 1956.48,1150.49 L 1966.88,1141.13 L 1979,1134.13 L 1992.31,1129.81 L 2006.22,1128.35 L 2072.36,1128.35 L 2086.28,1129.81 L 2099.58,1134.13 L 2111.7,1141.13 L 2122.1,1150.49 L 2130.32,1161.81 L 2136.02,1174.59 L 2138.92,1188.28 L 2138.92,1202.27 L 2136.02,1215.96 L 2130.32,1228.74 L 2122.1,1240.06 L 2111.7,1249.42 L 2099.58,1256.42 L 2086.28,1260.74 L 2072.36,1262.2 L 2061.45,1262.2 L 1861.89,1461.76 L 1861.89,1740.68 L 1864.36,1748.29 L 1865.83,1762.2 L 1865.83,1828.35 L 1864.36,1842.26 L 1860.04,1855.57 L 1853.04,1867.69 L 1843.68,1878.08 L 1832.36,1886.31 L 1819.58,1892 L 1805.89,1894.91 L 1791.9,1894.91 L 1778.22,1892 L 1765.43,1886.31 L 1754.11,1878.08 L 1744.75,1867.69 L 1737.75,1855.57 L 1733.43,1842.26 L 1731.97,1828.35 z " style="fill-opacity:1.000000;fill:rgb(201,154,102);stroke:rgb(0,0,0);stroke-width:2"/></g>
<g fill-rule="evenodd"><path d="M 1903.53,4093.89 L 1905.16,4078.33 L 1910,4063.46 L 1917.82,4049.92 L 1928.28,4038.3 L 1940.93,4029.1 L 1955.22,4022.74 L 1970.51,4019.49 L 1978.12,4019.49 L 2116.94,3880.67 L 2125.39,3873.45 L 2134.87,3867.64 L 2145.15,3863.39 L 2155.96,3860.79 L 2167.05,3859.92 L 2663.76,3859.92 L 2674.84,3860.79 L 2685.66,3863.39 L 2695.93,3867.64 L 2705.41,3873.45 L 2713.87,3880.67 L 2766,3932.81 L 2769.34,3932.1 L 2784.16,3932.1 L 2798.65,3935.18 L 2812.18,3941.2 L 2824.17,3949.91 L 2834.08,3960.92 L 2841.49,3973.75 L 2846.07,3987.84 L 2847.62,4002.57 L 2846.49,4013.29 L 2907.42,4074.23 L 2910.76,4073.52 L 2925.58,4073.52 L 2940.07,4076.6 L 2953.61,4082.62 L 2965.59,4091.33 L 2975.5,4102.34 L 2979.62,4109.48 L 3618.61,4109.48 L 3629.36,4110.54 L 3639.7,4113.67 L 3649.23,4118.77 L 3657.59,4125.62 L 4113.83,4581.87 L 4121.99,4578.24 L 4135.68,4575.33 L 4149.67,4575.33 L 4163.36,4578.24 L 4176.14,4583.93 L 4187.46,4592.15 L 4196.82,4602.55 L 4203.82,4614.67 L 4208.14,4627.98 L 4209.61,4641.89 L 4208.14,4655.81 L 4203.82,4669.11 L 4196.82,4681.23 L 4189.81,4689.02 L 4190,4689.22 L 4140.69,4738.4 L 4129.37,4746.62 L 4116.59,4752.31 L 4102.9,4755.22 L 4088.91,4755.22 L 4075.22,4752.31 L 4062.44,4746.62 L 4051.12,4738.4 L 4041.76,4728 L 4034.76,4715.88 L 4030.44,4702.58 L 4028.98,4688.66 L 4030.44,4674.74 L 4034.76,4661.44 L 4035.77,4659.7 L 3595.78,4219.71 L 2942.67,4219.71 L 2927.08,4235.31 L 2926.87,4235.1 L 2924.39,4237.86 L 2912.4,4246.57 L 2898.87,4252.59 L 2884.38,4255.67 L 2869.56,4255.67 L 2855.07,4252.59 L 2841.54,4246.57 L 2829.55,4237.86 L 2819.64,4226.85 L 2812.23,4214.02 L 2807.65,4199.93 L 2806.1,4185.2 L 2807.23,4174.48 L 2746.3,4113.54 L 2742.96,4114.25 L 2728.14,4114.25 L 2713.65,4111.17 L 2700.12,4105.15 L 2688.13,4096.44 L 2678.22,4085.43 L 2670.81,4072.6 L 2666.23,4058.51 L 2664.68,4043.78 L 2665.81,4033.05 L 2634.41,4001.65 L 2196.4,4001.65 L 2093.84,4104.21 L 2100.09,4111.16 L 2107.91,4124.71 L 2112.75,4139.58 L 2114.38,4155.13 L 2112.75,4170.68 L 2107.91,4185.56 L 2100.09,4199.1 L 2089.63,4210.72 L 2076.98,4219.91 L 2062.69,4226.27 L 2047.4,4229.52 L 2031.76,4229.52 L 2016.46,4226.27 L 2002.18,4219.91 L 1989.52,4210.72 L 1986.9,4207.81 L 1986.68,4208.02 L 1925.44,4146.78 L 1925.66,4146.56 L 1917.82,4137.85 L 1910,4124.31 L 1905.16,4109.44 L 1903.53,4093.89 z " style="fill-opacity:1.000000;fill:rgb(50,13,183);stroke:rgb(0,0,0);stroke-width:2"/></g>
<g fill-rule="evenodd"><path d="M 1931.97,1828.35 L 1931.97,1762.2 L 1933.43,1748.29 L 1937.75,1734.98 L 1944.75,1722.86 L 1954.11,1712.47 L 1965.43,1704.24 L 1978.22,1698.55 L 1991.9,1695.64 L 2005.89,1695.64 L 2019.58,1698.55 L 2032.36,1704.24 L 2043.68,1712.47 L 2053.04,1722.86 L 2058.48,1732.29 L 2197.02,1732.29 L 2209.31,1733.5 L 2221.13,1737.08 L 2232.02,1742.9 L 2241.57,1750.73 L 2375.88,1885.05 L 2382.45,1886.45 L 2396.74,1892.81 L 2409.39,1902 L 2412.01,1904.91 L 2412.23,1904.69 L 2473.47,1965.94 L 2473.26,1966.16 L 2481.1,1974.86 L 2488.92,1988.41 L 2493.75,2003.28 L 2495.38,2018.83 L 2493.75,2034.39 L 2488.92,2049.26 L 2481.1,2062.8 L 2470.63,2074.42 L 2457.98,2083.61 L 2443.7,2089.98 L 2428.4,2093.23 L 2412.76,2093.23 L 2397.46,2089.98 L 2383.18,2083.61 L 2370.53,2074.42 L 2367.9,2071.51 L 2367.69,2071.73 L 2306.44,2010.48 L 2306.66,2010.26 L 2298.82,2001.56 L 2291,1988.01 L 2286.34,1973.68 L 2170.93,1858.27 L 2058.48,1858.27 L 2053.04,1867.69 L 2043.68,1878.08 L 2032.36,1886.31 L 2019.58,1892 L 2005.89,1894.91 L 1991.9,1894.91 L 1978.22,1892 L 1965.43,1886.31 L 1954.11,1878.08 L 1944.75,1867.69 L 1937.75,1855.57 L 1933.43,1842.26 L 1931.97,1828.35 z " style="fill-opacity:1.000000;fill:rgb(49,88,163);stroke:rgb(0,0,0);stroke-width:2"/></g>
<g fill-rule="evenodd"><path d="M 2183.72,4542.68 L 2183.72,4517.99 L 2188.85,4493.83 L 2198.89,4471.28 L 2213.41,4451.3 L 2231.76,4434.78 L 2253.14,4422.43 L 2276.62,4414.8 L 2301.18,4412.22 L 2324.8,4412.22 L 2324.8,4305.28 L 2229.72,4210.19 L 2217.97,4195.88 L 2209.24,4179.54 L 2203.86,4161.82 L 2202.04,4143.38 L 2203.86,4124.95 L 2209.24,4107.22 L 2217.97,4090.89 L 2229.72,4076.57 L 2244.04,4064.82 L 2260.37,4056.09 L 2278.1,4050.71 L 2296.53,4048.89 L 2314.96,4050.71 L 2332.69,4056.09 L 2349.03,4064.82 L 2363.34,4076.57 L 2486.11,4199.33 L 2495.74,4210.6 L 2503.48,4223.25 L 2509.16,4236.94 L 2512.62,4251.36 L 2513.78,4266.14 L 2513.78,4412.22 L 2537.4,4412.22 L 2561.96,4414.8 L 2585.44,4422.43 L 2606.83,4434.78 L 2625.17,4451.3 L 2639.69,4471.28 L 2649.73,4493.83 L 2654.86,4517.99 L 2654.86,4542.68 L 2649.73,4566.83 L 2639.69,4589.39 L 2625.17,4609.36 L 2606.83,4625.88 L 2585.44,4638.23 L 2561.96,4645.86 L 2537.4,4648.44 L 2301.18,4648.44 L 2276.62,4645.86 L 2253.14,4638.23 L 2231.76,4625.88 L 2213.41,4609.36 L 2198.89,4589.39 L 2188.85,4566.83 L 2183.72,4542.68 z " style="fill-opacity:1.000000;fill:rgb(90,37,93);stroke:rgb(0,0,0);stroke-width:2"/></g>
<g fill-rule="evenodd"><path d="M 2228.43,1542.52 L 2228.43,1448.03 L 2229.97,1433.3 L 2234.55,1419.21 L 2241.96,1406.38 L 2251.87,1395.37 L 2263.86,1386.66 L 2277.39,1380.63 L 2291.88,1377.55 L 2306.7,1377.55 L 2321.19,1380.63 L 2334.72,1386.66 L 2346.71,1395.37 L 2356.62,1406.38 L 2364.03,1419.21 L 2368.61,1433.3 L 2370.16,1448.03 L 2370.16,1542.52 L 2368.61,1557.25 L 2364.03,1571.34 L 2362.29,1574.37 L 2362.29,1588.61 L 2517.3,1743.63 L 2523.87,1745.02 L 2538.16,1751.38 L 2550.81,1760.58 L 2553.43,1763.49 L 2553.65,1763.27 L 2614.9,1824.52 L 2614.68,1824.74 L 2622.52,1833.44 L 2630.34,1846.99 L 2635.17,1861.86 L 2636.8,1877.41 L 2635.17,1892.96 L 2630.34,1907.84 L 2622.52,1921.38 L 2612.05,1933 L 2599.4,1942.19 L 2585.12,1948.55 L 2569.82,1951.81 L 2554.18,1951.81 L 2538.89,1948.55 L 2524.6,1942.19 L 2511.95,1933 L 2509.33,1930.09 L 2509.11,1930.31 L 2447.86,1869.06 L 2448.08,1868.84 L 2440.24,1860.13 L 2432.42,1846.59 L 2427.76,1832.26 L 2254.75,1659.24 L 2246.92,1649.7 L 2241.1,1638.81 L 2237.51,1626.99 L 2236.3,1614.7 L 2236.3,1574.37 L 2234.55,1571.34 L 2229.97,1557.25 L 2228.43,1542.52 z " style="fill-opacity:1.000000;fill:rgb(5,23,88);stroke:rgb(0,0,0);stroke-width:2"/></g>
<g fill-rule="evenodd"><path d="M 2284.53,3654.64 L 2286.17,3639.09 L 2291,3624.22 L 2298.82,3610.68 L 2309.28,3599.05 L 2321.93,3589.86 L 2336.22,3583.5 L 2351.52,3580.25 L 2367.15,3580.25 L 2382.45,3583.5 L 2396.74,3589.86 L 2409.39,3599.05 L 2412.01,3601.97 L 2412.23,3601.75 L 2473.47,3663 L 2473.26,3663.21 L 2481.1,3671.92 L 2488.92,3685.46 L 2493.75,3700.34 L 2495.38,3715.89 L 2493.75,3731.44 L 2488.92,3746.31 L 2481.1,3759.86 L 2470.63,3771.48 L 2457.98,3780.67 L 2443.7,3787.03 L 2428.4,3790.28 L 2412.76,3790.28 L 2397.46,3787.03 L 2383.18,3780.67 L 2370.53,3771.48 L 2367.9,3768.57 L 2367.69,3768.78 L 2306.44,3707.54 L 2306.66,3707.32 L 2298.82,3698.61 L 2291,3685.07 L 2286.17,3670.2 L 2284.53,3654.64 z " style="fill-opacity:1.000000;fill:rgb(233,94,212);stroke:rgb(0,0,0);stroke-width:2"/></g>
<g fill-rule="evenodd"><path d="M 2679.13,4805.92 L 2679.13,4648.44 L 2681.71,4623.89 L 2689.35,4600.4 L 2701.69,4579.02 L 2718.21,4560.67 L 2738.19,4546.16 L 2760.75,4536.11 L 2784.9,4530.98 L 2809.59,4530.98 L 2833.74,4536.11 L 2856.3,4546.16 L 2876.28,4560.67 L 2892.8,4579.02 L 2905.14,4600.4 L 2912.77,4623.89 L 2915.35,4648.44 L 2915.35,4805.92 L 2912.77,4830.48 L 2905.14,4853.96 L 2892.8,4875.35 L 2876.28,4893.7 L 2856.3,4908.21 L 2833.74,4918.25 L 2809.59,4923.39 L 2784.9,4923.39 L 2760.75,4918.25 L 2738.19,4908.21 L 2718.21,4893.7 L 2701.69,4875.35 L 2689.35,4853.96 L 2681.71,4830.48 L 2679.13,4805.92 z " style="fill-opacity:1.000000;fill:rgb(171,178,205);stroke:rgb(0,0,0);stroke-width:2"/></g>
<g fill-rule="evenodd"><path d="M 2739.72,3577.7 L 2862.22,3455.21 L 2913.84,3506.83 L 3172.27,3506.83 L 4134.85,2544.25 L 4134.85,2419.11 L 3942.35,2226.61 L 3938.81,2225.04 L 3926.16,2215.84 L 3923.54,2212.93 L 3923.32,2213.15 L 3862.08,2151.9 L 3862.29,2151.69 L 3854.45,2142.98 L 3846.63,2129.43 L 3841.8,2114.56 L 3840.17,2099.01 L 3841.8,2083.46 L 3846.63,2068.58 L 3854.45,2055.04 L 3864.92,2043.42 L 3877.57,2034.23 L 3891.85,2027.87 L 3907.15,2024.62 L 3922.79,2024.62 L 3938.09,2027.87 L 3952.37,2034.23 L 3965.02,2043.42 L 3967.65,2046.33 L 3967.86,2046.12 L 4029.11,2107.36 L 4028.89,2107.58 L 4036.73,2116.29 L 4042.56,2126.38 L 4255.83,2339.65 L 4264.64,2350.39 L 4271.19,2362.64 L 4275.22,2375.93 L 4276.58,2389.76 L 4276.58,2544.25 L 4616.45,2884.12 L 4625.27,2894.86 L 4629.45,2902.68 L 4637.05,2910.29 L 4636.86,2910.48 L 4643.87,2918.27 L 4650.87,2930.39 L 4655.19,2943.7 L 4656.66,2957.61 L 4655.19,2971.53 L 4650.87,2984.84 L 4643.87,2996.95 L 4634.51,3007.35 L 4623.19,3015.58 L 4610.41,3021.27 L 4596.72,3024.18 L 4582.73,3024.18 L 4569.05,3021.27 L 4556.26,3015.58 L 4544.94,3007.35 L 4542.6,3004.75 L 4542.4,3004.94 L 4534.79,2997.33 L 4526.97,2993.15 L 4516.23,2984.34 L 4205.72,2673.83 L 3901.99,2977.55 L 3953.05,3028.6 L 3956.39,3027.89 L 3971.21,3027.89 L 3985.7,3030.97 L 3999.23,3037 L 4011.22,3045.7 L 4021.13,3056.71 L 4028.54,3069.54 L 4033.12,3083.63 L 4034.67,3098.37 L 4033.12,3113.1 L 4028.54,3127.19 L 4021.13,3140.02 L 4013.7,3148.27 L 4013.91,3148.48 L 3972.71,3189.68 L 3972.5,3189.47 L 3970.02,3192.23 L 3958.03,3200.94 L 3944.5,3206.97 L 3930.01,3210.05 L 3915.19,3210.05 L 3900.7,3206.97 L 3887.16,3200.94 L 3875.18,3192.23 L 3865.27,3181.22 L 3857.86,3168.39 L 3853.28,3154.3 L 3851.73,3139.57 L 3852.86,3128.85 L 3801.77,3077.77 L 3251.73,3627.81 L 3241,3636.62 L 3228.74,3643.17 L 3215.45,3647.2 L 3201.63,3648.56 L 2913.84,3648.56 L 2862.22,3700.19 L 2739.72,3577.7 z " style="fill-opacity:1.000000;fill:rgb(198,155,180);stroke:rgb(0,0,0);stroke-width:2"/></g>
<g fill-rule="evenodd"><path d="M 2752.14,2375.62 L 2752.14,2060.04 L 2752.89,2052.36 L 2755.13,2044.98 L 2758.77,2038.17 L 2763.67,2032.2 L 3108.31,1687.56 L 3108.31,1383.66 L 3104.57,1382.87 L 3090.29,1376.51 L 3077.63,1367.32 L 3075.01,1364.4 L 3074.79,1364.62 L 3013.55,1303.37 L 3013.77,1303.16 L 3005.92,1294.45 L 2998.11,1280.91 L 2993.27,1266.03 L 2991.64,1250.48 L 2993.27,1234.93 L 2998.11,1220.06 L 3005.92,1206.51 L 3016.39,1194.89 L 3029.04,1185.7 L 3043.33,1179.34 L 3058.62,1176.09 L 3074.26,1176.09 L 3089.56,1179.34 L 3103.84,1185.7 L 3116.49,1194.89 L 3119.12,1197.8 L 3119.34,1197.59 L 3180.58,1258.83 L 3180.36,1259.05 L 3188.2,1267.76 L 3196.02,1281.3 L 3200.86,1296.17 L 3202.49,1311.73 L 3200.86,1327.28 L 3196.02,1342.15 L 3188.2,1355.69 L 3187.05,1356.97 L 3187.05,1703.87 L 3186.3,1711.55 L 3184.06,1718.93 L 3180.42,1725.74 L 3175.52,1731.7 L 2830.88,2076.35 L 2830.88,2359.31 L 3055.24,2583.67 L 3064.27,2577.11 L 3077.05,2571.42 L 3090.74,2568.51 L 3104.73,2568.51 L 3118.41,2571.42 L 3131.2,2577.11 L 3142.52,2585.34 L 3151.88,2595.73 L 3158.88,2607.85 L 3163.2,2621.16 L 3164.66,2635.07 L 3163.2,2648.99 L 3158.88,2662.3 L 3151.88,2674.41 L 3144.86,2682.21 L 3145.06,2682.4 L 3095.75,2731.58 L 3084.43,2739.81 L 3071.65,2745.5 L 3057.96,2748.41 L 3043.97,2748.41 L 3030.28,2745.5 L 3017.5,2739.81 L 3006.18,2731.58 L 2996.82,2721.18 L 2989.82,2709.07 L 2985.5,2695.76 L 2984.03,2681.84 L 2985.5,2667.93 L 2989.82,2654.62 L 2996.82,2642.5 L 2999.61,2639.4 L 2763.67,2403.46 L 2759.65,2398.76 L 2756.43,2393.49 L 2754.06,2387.78 L 2752.62,2381.78 L 2752.14,2375.62 z " style="fill-opacity:1.000000;fill:rgb(84,17,14);stroke:rgb(0,0,0);stroke-width:2"/></g>
<g fill-rule="evenodd"><path d="M 3034.59,2180.86 L 3036.05,2166.94 L 3040.38,2153.63 L 3047.37,2141.52 L 3054.39,2133.72 L 3054.19,2133.53 L 3061.8,2125.92 L 3065.98,2118.1 L 3074.79,2107.36 L 3085.53,2098.55 L 3093.35,2094.37 L 3100.96,2086.76 L 3101.16,2086.95 L 3103.5,2084.35 L 3114.82,2076.12 L 3127.61,2070.43 L 3141.29,2067.52 L 3155.28,2067.52 L 3168.97,2070.43 L 3181.75,2076.12 L 3193.07,2084.35 L 3202.43,2094.75 L 3209.43,2106.86 L 3213.75,2120.17 L 3215.22,2134.09 L 3213.94,2146.28 L 3524.57,2456.92 L 3528.11,2458.49 L 3540.76,2467.68 L 3543.38,2470.6 L 3543.6,2470.38 L 3604.85,2531.62 L 3604.63,2531.84 L 3612.47,2540.55 L 3620.29,2554.09 L 3625.12,2568.97 L 3626.75,2584.52 L 3625.12,2600.07 L 3620.29,2614.94 L 3612.47,2628.49 L 3602,2640.11 L 3589.35,2649.3 L 3575.07,2655.66 L 3559.77,2658.91 L 3544.13,2658.91 L 3528.84,2655.66 L 3514.55,2649.3 L 3501.9,2640.11 L 3499.28,2637.19 L 3499.06,2637.41 L 3437.81,2576.17 L 3438.03,2575.95 L 3430.19,2567.24 L 3424.36,2557.15 L 3113.56,2246.35 L 3108.51,2247.42 L 3094.52,2247.42 L 3080.84,2244.51 L 3068.05,2238.82 L 3056.73,2230.59 L 3047.37,2220.19 L 3040.38,2208.08 L 3036.05,2194.77 L 3034.59,2180.86 z " style="fill-opacity:1.000000;fill:rgb(130,116,65);stroke:rgb(0,0,0);stroke-width:2"/></g>
<g fill-rule="evenodd"><path d="M 3542.29,1523.86 L 3543.93,1508.31 L 3548.76,1493.43 L 3556.58,1479.89 L 3564.42,1471.18 L 3564.2,1470.96 L 3625.45,1409.72 L 3625.66,1409.94 L 3628.29,1407.02 L 3640.94,1397.83 L 3655.22,1391.47 L 3661.79,1390.07 L 3720.18,1331.69 L 3726.19,1321.27 L 3733.21,1313.48 L 3733.01,1313.29 L 3782.33,1264.1 L 3793.65,1255.88 L 3806.43,1250.19 L 3820.11,1247.28 L 3834.11,1247.28 L 3847.79,1250.19 L 3860.57,1255.88 L 3871.89,1264.1 L 3881.26,1274.5 L 3888.25,1286.62 L 3892.58,1299.93 L 3894.04,1313.84 L 3892.58,1327.76 L 3888.25,1341.06 L 3881.26,1353.18 L 3874.24,1360.97 L 3874.44,1361.17 L 3827.67,1407.94 L 3827.47,1407.74 L 3825.13,1410.35 L 3813.81,1418.57 L 3809.58,1420.45 L 3751.33,1478.7 L 3746.68,1493.04 L 3738.86,1506.58 L 3731.02,1515.29 L 3731.23,1515.51 L 3669.99,1576.75 L 3669.77,1576.53 L 3667.15,1579.45 L 3654.5,1588.64 L 3640.21,1595 L 3624.91,1598.25 L 3609.28,1598.25 L 3593.98,1595 L 3579.69,1588.64 L 3567.04,1579.45 L 3556.58,1567.83 L 3548.76,1554.28 L 3543.93,1539.41 L 3542.29,1523.86 z " style="fill-opacity:1.000000;fill:rgb(33,61,220);stroke:rgb(0,0,0);stroke-width:2"/></g>
<g fill-rule="evenodd"><path d="M 3571.99,1219.19 L 3573.45,1205.27 L 3577.78,1191.97 L 3584.77,1179.85 L 3591.79,1172.06 L 3591.59,1171.86 L 3640.9,1122.68 L 3652.22,1114.46 L 3665.01,1108.77 L 3678.69,1105.86 L 3692.68,1105.86 L 3706.37,1108.77 L 3719.15,1114.46 L 3730.47,1122.68 L 3739.84,1133.08 L 3746.83,1145.2 L 3751.16,1158.51 L 3752.62,1172.42 L 3751.16,1186.34 L 3746.83,1199.64 L 3739.84,1211.76 L 3732.82,1219.55 L 3733.02,1219.75 L 3683.7,1268.93 L 3672.38,1277.15 L 3659.6,1282.84 L 3645.92,1285.75 L 3631.92,1285.75 L 3618.24,1282.84 L 3605.46,1277.15 L 3594.14,1268.93 L 3584.77,1258.53 L 3577.78,1246.41 L 3573.45,1233.11 L 3571.99,1219.19 z " style="fill-opacity:1.000000;fill:rgb(135,112,233);stroke:rgb(0,0,0);stroke-width:2"/></g>
<g fill-rule="evenodd"><path d="M 3683.71,1665.28 L 3685.35,1649.73 L 3690.18,1634.85 L 3698,1621.31 L 3705.84,1612.6 L 3705.62,1612.39 L 3766.87,1551.14 L 3767.08,1551.36 L 3769.71,1548.44 L 3782.36,1539.25 L 3796.65,1532.89 L 3803.22,1531.5 L 3861.6,1473.11 L 3867.62,1462.69 L 3874.63,1454.9 L 3874.44,1454.71 L 3923.75,1405.53 L 3935.07,1397.3 L 3947.85,1391.61 L 3961.54,1388.7 L 3975.53,1388.7 L 3989.21,1391.61 L 4002,1397.3 L 4013.32,1405.53 L 4022.68,1415.92 L 4029.67,1428.04 L 4034,1441.35 L 4035.46,1455.26 L 4034,1469.18 L 4029.67,1482.49 L 4022.68,1494.6 L 4015.66,1502.39 L 4015.86,1502.59 L 3966.55,1551.77 L 3955.23,1559.99 L 3951.01,1561.87 L 3892.75,1620.13 L 3888.1,1634.46 L 3880.28,1648 L 3872.44,1656.71 L 3872.65,1656.93 L 3811.41,1718.17 L 3811.19,1717.96 L 3808.57,1720.87 L 3795.92,1730.06 L 3781.63,1736.42 L 3766.33,1739.67 L 3750.7,1739.67 L 3735.4,1736.42 L 3721.11,1730.06 L 3708.46,1720.87 L 3698,1709.25 L 3690.18,1695.7 L 3685.35,1680.83 L 3683.71,1665.28 z " style="fill-opacity:1.000000;fill:rgb(62,161,65);stroke:rgb(0,0,0);stroke-width:2"/></g>
<g fill-rule="evenodd"><path d="M 3825.13,1806.7 L 3826.77,1791.15 L 3831.6,1776.28 L 3839.42,1762.73 L 3847.26,1754.02 L 3847.04,1753.81 L 3908.29,1692.56 L 3908.51,1692.78 L 3911.13,1689.87 L 3923.78,1680.67 L 3938.07,1674.31 L 3944.63,1672.92 L 4003.02,1614.53 L 4009.04,1604.11 L 4016.05,1596.32 L 4015.86,1596.13 L 4065.17,1546.95 L 4076.49,1538.72 L 4089.27,1533.03 L 4102.96,1530.12 L 4116.95,1530.12 L 4130.64,1533.03 L 4143.42,1538.72 L 4154.74,1546.95 L 4164.1,1557.34 L 4171.1,1569.46 L 4175.42,1582.77 L 4176.88,1596.68 L 4175.42,1610.6 L 4171.1,1623.91 L 4164.1,1636.02 L 4157.08,1643.82 L 4157.28,1644.01 L 4110.51,1690.78 L 4110.32,1690.59 L 4107.97,1693.19 L 4096.65,1701.42 L 4092.42,1703.3 L 4034.18,1761.54 L 4029.52,1775.88 L 4021.7,1789.42 L 4013.86,1798.13 L 4014.08,1798.35 L 3952.83,1859.59 L 3952.61,1859.38 L 3949.99,1862.29 L 3937.34,1871.48 L 3923.05,1877.84 L 3907.76,1881.09 L 3892.12,1881.09 L 3876.82,1877.84 L 3862.54,1871.48 L 3849.88,1862.29 L 3839.42,1850.67 L 3831.6,1837.13 L 3826.77,1822.25 L 3825.13,1806.7 z " style="fill-opacity:1.000000;fill:rgb(225,252,103);stroke:rgb(0,0,0);stroke-width:2"/></g>
<g fill-rule="evenodd"><path d="M 3966.55,1948.12 L 3968.19,1932.57 L 3973.02,1917.7 L 3980.84,1904.15 L 3988.68,1895.45 L 3988.46,1895.23 L 4049.71,1833.98 L 4049.93,1834.2 L 4052.55,1831.29 L 4065.2,1822.1 L 4079.49,1815.73 L 4086.06,1814.34 L 4144.44,1755.95 L 4150.46,1745.54 L 4157.47,1737.74 L 4157.28,1737.55 L 4206.59,1688.37 L 4217.91,1680.14 L 4230.69,1674.45 L 4244.38,1671.54 L 4258.37,1671.54 L 4272.06,1674.45 L 4284.84,1680.14 L 4296.16,1688.37 L 4305.52,1698.77 L 4312.52,1710.88 L 4316.84,1724.19 L 4318.3,1738.11 L 4316.84,1752.02 L 4312.52,1765.33 L 4305.52,1777.45 L 4298.51,1785.24 L 4298.7,1785.43 L 4249.39,1834.61 L 4238.07,1842.84 L 4233.85,1844.72 L 4175.6,1902.97 L 4170.94,1917.3 L 4163.12,1930.85 L 4155.28,1939.55 L 4155.5,1939.77 L 4094.25,2001.02 L 4094.03,2000.8 L 4091.41,2003.71 L 4078.76,2012.9 L 4064.47,2019.26 L 4049.18,2022.52 L 4033.54,2022.52 L 4018.24,2019.26 L 4003.96,2012.9 L 3991.31,2003.71 L 3980.84,1992.09 L 3973.02,1978.55 L 3968.19,1963.67 L 3966.55,1948.12 z " style="fill-opacity:1.000000;fill:rgb(62,1,126);stroke:rgb(0,0,0);stroke-width:2"/></g>
<g fill-rule="evenodd"><path d="M 4080.05,3353.59 L 4081.51,3339.68 L 4085.84,3326.37 L 4092.83,3314.25 L 4099.85,3306.46 L 4099.65,3306.27 L 4146.42,3259.5 L 4146.62,3259.69 L 4148.96,3257.09 L 4160.28,3248.86 L 4173.07,3243.17 L 4186.75,3240.26 L 4200.74,3240.26 L 4203.95,3240.94 L 4350.18,3094.71 L 4347.39,3091.61 L 4340.39,3079.49 L 4336.07,3066.18 L 4334.61,3052.27 L 4336.07,3038.35 L 4340.39,3025.04 L 4347.39,3012.93 L 4356.75,3002.53 L 4368.07,2994.3 L 4380.85,2988.61 L 4394.54,2985.7 L 4408.53,2985.7 L 4422.22,2988.61 L 4435,2994.3 L 4446.32,3002.53 L 4495.63,3051.71 L 4495.44,3051.9 L 4502.45,3059.7 L 4509.45,3071.81 L 4513.77,3085.12 L 4515.24,3099.04 L 4513.77,3112.95 L 4509.45,3126.26 L 4502.45,3138.38 L 4493.09,3148.77 L 4481.77,3157 L 4468.99,3162.69 L 4455.3,3165.6 L 4441.31,3165.6 L 4427.62,3162.69 L 4414.84,3157 L 4405.81,3150.44 L 4259.61,3296.64 L 4260.68,3306.83 L 4259.21,3320.74 L 4254.89,3334.05 L 4247.89,3346.17 L 4240.88,3353.96 L 4241.07,3354.15 L 4194.3,3400.92 L 4194.11,3400.73 L 4191.76,3403.33 L 4180.44,3411.56 L 4167.66,3417.25 L 4153.97,3420.16 L 4139.98,3420.16 L 4126.3,3417.25 L 4113.51,3411.56 L 4102.19,3403.33 L 4092.83,3392.93 L 4085.84,3380.82 L 4081.51,3367.51 L 4080.05,3353.59 z " style="fill-opacity:1.000000;fill:rgb(151,234,220);stroke:rgb(0,0,0);stroke-width:2"/></g>
</svg>
