<?xml version="1.0" standalone="no"?>
<!DOCTYPE svg PUBLIC "-//W3C//DTD SVG 1.1//EN"
"http://www.w3.org/Graphics/SVG/1.1/DTD/svg11.dtd">
<svg width="232.252" height="277.606" viewBox="0 0 4838.58 5783.46" version="1.1"
xmlns="http://www.w3.org/2000/svg"
xmlns:xlink="http://www.w3.org/1999/xlink">
<g fill-rule="evenodd"><path d="M -4.54747e-13,5783.46 L -4.54747e-13,0 L 4838.58,0 L 4838.58,5783.46 L -4.54747e-13,5783.46 z " style="fill-opacity:0.200000;fill:rgb(103,198,105);"/></g>
<polyline points="33.4651,3364.17 33.5791,3366.49 78.9691,3827.33 79.8731,3831.87 214.295,4275.01 215.077,4277.19 216.067,4279.28 434.359,4687.68 436.931,4691.53 730.701,5049.49 732.259,5051.21 733.977,5052.76 1091.94,5346.53 1095.79,5349.11 1504.18,5567.4 1506.28,5568.39 1508.46,5569.17 1951.59,5703.59 1956.14,5704.5 2416.98,5749.89 2419.3,5750 2421.61,5749.89 2882.45,5704.5 2886.99,5703.59 3330.12,5569.17 3332.31,5568.39 3334.4,5567.4 3742.8,5349.11 3746.65,5346.53 4104.61,5052.76 4106.32,5051.21 4107.88,5049.49 4401.65,4691.53 4404.22,4687.68 4622.52,4279.28 4623.51,4277.19 4624.29,4275.01 4758.71,3831.87 4759.61,3827.33 4805,3366.49 4805.12,3364.17 4805.12,2419.29 4805,2416.98 4759.61,1956.14 4758.71,1951.59 4624.29,1508.46 4623.51,1506.28 4622.52,1504.18 4404.22,1095.79 4401.65,1091.94 4107.88,733.977 4106.32,732.259 4104.61,730.701 3746.65,436.931 3742.8,434.359 3334.4,216.067 3332.31,215.077 3330.12,214.295 2886.99,79.8733 2882.45,78.9693 2421.61,33.5793 2419.3,33.4653 2416.98,33.5793 1956.14,78.9693 1951.59,79.8733 1508.46,214.295 1506.28,215.077 1504.18,216.067 1095.79,434.359 1091.94,436.931 733.977,730.701 732.259,732.259 730.701,733.977 436.931,1091.94 434.359,1095.79 216.067,1504.18 215.077,1506.28 214.295,1508.46 79.8731,1951.59 78.9691,1956.14 33.5791,2416.98 33.4651,2419.29 33.4651,3364.17" style="stroke:rgb(103,198,105);stroke-width:47.244094;fill:none;stroke-opacity:0.5;stroke-linecap:round;stroke-linejoin:round;;fill:none"/>
<polyline points="33.4651,3364.17 33.5791,3366.49 78.9691,3827.33 79.8731,3831.87 214.295,4275.01 215.077,4277.19 216.067,4279.28 434.359,4687.68 436.931,4691.53 730.701,5049.49 732.259,5051.21 733.977,5052.76 1091.94,5346.53 1095.79,5349.11 1504.18,5567.4 1506.28,5568.39 1508.46,5569.17 1951.59,5703.59 1956.14,5704.5 2416.98,5749.89 2419.3,5750 2421.61,5749.89 2882.45,5704.5 2886.99,5703.59 3330.12,5569.17 3332.31,5568.39 3334.4,5567.4 3742.8,5349.11 3746.65,5346.53 4104.61,5052.76 4106.32,5051.21 4107.88,5049.49 4401.65,4691.53 4404.22,4687.68 4622.52,4279.28 4623.51,4277.19 4624.29,4275.01 4758.71,3831.87 4759.61,3827.33 4805,3366.49 4805.12,3364.17 4805.12,2419.29 4805,2416.98 4759.61,1956.14 4758.71,1951.59 4624.29,1508.46 4623.51,1506.28 4622.52,1504.18 4404.22,1095.79 4401.65,1091.94 4107.88,733.977 4106.32,732.259 4104.61,730.701 3746.65,436.931 3742.8,434.359 3334.4,216.067 3332.31,215.077 3330.12,214.295 2886.99,79.8733 2882.45,78.9693 2421.61,33.5793 2419.3,33.4653 2416.98,33.5793 1956.14,78.9693 1951.59,79.8733 1508.46,214.295 1506.28,215.077 1504.18,216.067 1095.79,434.359 1091.94,436.931 733.977,730.701 732.259,732.259 730.701,733.977 436.931,1091.94 434.359,1095.79 216.067,1504.18 215.077,1506.28 214.295,1508.46 79.8731,1951.59 78.9691,1956.14 33.5791,2416.98 33.4651,2419.29 33.4651,3364.17" style="stroke:rgb(0,0,0);stroke-width:1px;fill:none;stroke-opacity:1;stroke-linecap:round;stroke-linejoin:round;;fill:none"/>
<g fill-rule="evenodd"><path d="M 57.0871,3364.17 L 57.0871,2419.29 L 102.477,1958.45 L 236.899,1515.32 L 455.191,1106.92 L 748.961,748.961 L 1106.92,455.191 L 1515.32,236.899 L 1958.45,102.477 L 2419.29,57.0873 L 2880.13,102.477 L 3323.27,236.899 L 3731.66,455.191 L 4089.62,748.961 L 4383.39,1106.92 L 4601.68,1515.32 L 4736.11,1958.45 L 4781.5,2419.29 L 4781.5,3364.17 L 4736.11,3825.02 L 4601.68,4268.15 L 4383.39,4676.54 L 4089.62,5034.5 L 3731.66,5328.27 L 3323.27,5546.57 L 2880.13,5680.99 L 2419.29,5726.38 L 1958.45,5680.99 L 1515.32,5546.57 L 1106.92,5328.27 L 748.961,5034.5 L 455.191,4676.54 L 236.899,4268.15 L 102.477,3825.02 L 57.0871,3364.17 z " style="fill-opacity:1.000000;fill:rgb(103,198,105);stroke:rgb(0,0,0);stroke-width:2"/></g>
</svg>
