<?xml version="1.0" standalone="no"?>
<!DOCTYPE svg PUBLIC "-//W3C//DTD SVG 1.1//EN"
"http://www.w3.org/Graphics/SVG/1.1/DTD/svg11.dtd">
<svg width="232.252" height="277.606" viewBox="0 0 4838.58 5783.46" version="1.1"
xmlns="http://www.w3.org/2000/svg"
xmlns:xlink="http://www.w3.org/1999/xlink">
<polyline points="1537.96,2675.89 1542.42,2668.38 1550.21,2653.95 1557.8,2636.57 1562.31,2624.22 1570.07,2610.39 1574.1,2604.87 1579.91,2597.97 1584.57,2593.25 1591.53,2587.21 1600.89,2580.72 1605.14,2578.14 1619.42,2571.77 1634.49,2567.89 1644.41,2566.6 1650.25,2566.3 1660.05,2566.6 1666.07,2567.15 1681.56,2570.56 1696.22,2576.62 1699.29,2578.22 1709.75,2584.85 1719,2592.31 1783.09,2656.33 1791.64,2666.09 1799.19,2677.19 1805.28,2684.08 2001.04,2879.85 2004.72,2883.16 2015.64,2891.8 2021.38,2892.67 2034.41,2893.67 2155.06,2893.67 2161.43,2893.43 2170.11,2892.29 2188.13,2881.91 2202.93,2875.63 2218.6,2872.01 2226.39,2871.15 2234.62,2870.82 2242.85,2871.15 2250.64,2872.01 2263.89,2875.01 2268.62,2876.55 2281.11,2881.91 2287.91,2885.79 2294.76,2890.37 2301.23,2895.47 2307.01,2900.75 2337.08,2930.82 2347.64,2942.94 2355.92,2956.73 2359.15,2963.87 2362,2971.59 2364.24,2979.52 2365.82,2987.2 2367.06,3000.73 2367.06,3005.7 2365.82,3019.23 2364.24,3026.91 2362,3034.83 2359.15,3042.56 2355.92,3049.7 2347.64,3063.48 2337.09,3075.62 2331.3,3080.9 2324.83,3086 2313.72,3093.11 2311.17,3094.45 2296.37,3100.73 2280.7,3104.35 2272.92,3105.21 2264.69,3105.54 2256.45,3105.21 2248.67,3104.35 2235.41,3101.35 2230.69,3099.81 2218.2,3094.45 2200.22,3083.93 2189.5,3082.89 2043.9,3082.69 2033.47,3083.33 2025.2,3084.65 2016.55,3086.77 2005.69,3090.56 1997.04,3094.47 1982.57,3102.8 1977.74,3106.17" style="stroke:rgb(103,198,105);stroke-width:0.000000;fill:none;stroke-opacity:0.5;stroke-linecap:round;stroke-linejoin:round;;fill:none"/>
<polyline points="1537.96,2675.89 1542.42,2668.38 1550.21,2653.95 1557.8,2636.57 1562.31,2624.22 1570.07,2610.39 1574.1,2604.87 1579.91,2597.97 1584.57,2593.25 1591.53,2587.21 1600.89,2580.72 1605.14,2578.14 1619.42,2571.77 1634.49,2567.89 1644.41,2566.6 1650.25,2566.3 1660.05,2566.6 1666.07,2567.15 1681.56,2570.56 1696.22,2576.62 1699.29,2578.22 1709.75,2584.85 1719,2592.31 1783.09,2656.33 1791.64,2666.09 1799.19,2677.19 1805.28,2684.08 2001.04,2879.85 2004.72,2883.16 2015.64,2891.8 2021.38,2892.67 2034.41,2893.67 2155.06,2893.67 2161.43,2893.43 2170.11,2892.29 2188.13,2881.91 2202.93,2875.63 2218.6,2872.01 2226.39,2871.15 2234.62,2870.82 2242.85,2871.15 2250.64,2872.01 2263.89,2875.01 2268.62,2876.55 2281.11,2881.91 2287.91,2885.79 2294.76,2890.37 2301.23,2895.47 2307.01,2900.75 2337.08,2930.82 2347.64,2942.94 2355.92,2956.73 2359.15,2963.87 2362,2971.59 2364.24,2979.52 2365.82,2987.2 2367.06,3000.73 2367.06,3005.7 2365.82,3019.23 2364.24,3026.91 2362,3034.83 2359.15,3042.56 2355.92,3049.7 2347.64,3063.48 2337.09,3075.62 2331.3,3080.9 2324.83,3086 2313.72,3093.11 2311.17,3094.45 2296.37,3100.73 2280.7,3104.35 2272.92,3105.21 2264.69,3105.54 2256.45,3105.21 2248.67,3104.35 2235.41,3101.35 2230.69,3099.81 2218.2,3094.45 2200.22,3083.93 2189.5,3082.89 2043.9,3082.69 2033.47,3083.33 2025.2,3084.65 2016.55,3086.77 2005.69,3090.56 1997.04,3094.47 1982.57,3102.8 1977.74,3106.17" style="stroke:rgb(0,0,0);stroke-width:1px;fill:none;stroke-opacity:1;stroke-linecap:round;stroke-linejoin:round;;fill:none"/>
<polyline points="2334.46,3538.74 2351.52,3547.29 2364.8,3552.92 2374.1,3556.28 2382.39,3558.91 2388.67,3560.51 2403.32,3566.57 2410.66,3570.69 2416.86,3574.8 2426.11,3582.26 2490.19,3646.28 2498.72,3656.05 2504.8,3664.98 2509.44,3673.61 2511.97,3679.11 2516.76,3694.23 2518.85,3709.94 2518.94,3718.37 2518.48,3725.78 2517.31,3733.92 2515.69,3741.37 2510.5,3756.36 2499.66,3776.57 2494.22,3788.59 2489.56,3800.79 2484.5,3815.86" style="stroke:rgb(103,198,105);stroke-width:0.000000;fill:none;stroke-opacity:0.5;stroke-linecap:round;stroke-linejoin:round;;fill:none"/>
<polyline points="2334.46,3538.74 2351.52,3547.29 2364.8,3552.92 2374.1,3556.28 2382.39,3558.91 2388.67,3560.51 2403.32,3566.57 2410.66,3570.69 2416.86,3574.8 2426.11,3582.26 2490.19,3646.28 2498.72,3656.05 2504.8,3664.98 2509.44,3673.61 2511.97,3679.11 2516.76,3694.23 2518.85,3709.94 2518.94,3718.37 2518.48,3725.78 2517.31,3733.92 2515.69,3741.37 2510.5,3756.36 2499.66,3776.57 2494.22,3788.59 2489.56,3800.79 2484.5,3815.86" style="stroke:rgb(0,0,0);stroke-width:1px;fill:none;stroke-opacity:1;stroke-linecap:round;stroke-linejoin:round;;fill:none"/>
<polyline points="2242.4,3770.27 2329.94,3806.53 2341.79,3811.03 2357.43,3816.11 2366.34,3818.5 2381.98,3821.83 2389.81,3823.07 2405.45,3824.71 2412.76,3825.1 2428.4,3825.1 2435.72,3824.71 2451.36,3823.07 2459.19,3821.83 2474.83,3818.5 2484.5,3815.86 2495.4,3822.27 2504.06,3826.58 2515.46,3831.04 2524.11,3833.5 2533.49,3835.27 2546.52,3836.27 2659.51,3836.15 2676.2,3836.94 2678.86,3837.29 2691.25,3840.19 2694.04,3841.06 2705.05,3845.61 2708.4,3847.29 2719.19,3854 2721.31,3855.63 2733.68,3866.87 2762.11,3895.48 2769.84,3902.32 2775.8,3906.73 2796.14,3910.11 2803.57,3912 2811.11,3914.51 2825.2,3921.26 2837.89,3930.38 2841.79,3934.05 2848.86,3941.5 2854.6,3949.07 2857.91,3954.21 2864.11,3966.4 2869.4,3983.14 2870.73,3993.15 2872.79,4003.94 2883.84,4017.21 2903.53,4036.9 2911.26,4043.75 2917.22,4048.15 2937.56,4051.53 2945,4053.42 2952.53,4055.93 2963.25,4060.94 2966.62,4062.68 2979.38,4071.85 2993.39,4083.73 3000.18,4084.83 3013.21,4085.83 3618.61,4085.83 3626,4086.14 3632.32,4086.87 3639.01,4088.45 3645.59,4090.48 3650.95,4092.64 3658.03,4096.32 3663.88,4099.94 3668.86,4103.89 3674.3,4108.9 4104.53,4539.07 4109.43,4543.34 4120.77,4551.61 4146.42,4551.39 4149.67,4551.59 4161.26,4553.27 4168.28,4555.06 4175.61,4557.5 4189.11,4563.96 4201.27,4572.7 4205.07,4576.29 4211.78,4583.36 4214.45,4586.68 4220.46,4595.54 4224.33,4602.82 4227.09,4608.95 4231.47,4623.27 4233.23,4638.14 4233.17,4644.37 4232.53,4653.09 4231.71,4658.29 4229.47,4667.73 4226.36,4676.44 4224.11,4681.7 4216.51,4694.61 4209.26,4703.19 4157.27,4755.32 4148.52,4762.35 4139.02,4768.3 4135.68,4770.03 4121.78,4775.58 4107.12,4778.66 4092.16,4779.16 4083.99,4778.39 4077.32,4777.27 4070.3,4775.48 4062.98,4773.05 4049.47,4766.59 4037.31,4757.85 4026.8,4747.19 4021.24,4739.85 4018.12,4735.01 4014.25,4727.73 4011.49,4721.6 4007.11,4707.28 4005.34,4692.31 4005.68,4675.69 4005.4,4666.58 4000.16,4658.95 3994.61,4652.27 3991.66,4649.02 3599.81,4257.17 3596.13,4253.87 3585.21,4245.23 3579.48,4244.36 3566.44,4243.36 2967.88,4243.52 2960.07,4244.17 2953.24,4245.22 2944,4252.23 2931.87,4262.09 2926.33,4265.74 2918.48,4270.1 2903.97,4275.89 2888.68,4279.11 2873.06,4279.63 2864.64,4278.85 2857.58,4277.66 2845.41,4274.29 2842.61,4273.26 2828.51,4266.51 2815.82,4257.39 2804.86,4246.27 2799.11,4238.7 2795.81,4233.56 2791.71,4225.87 2788.88,4219.57 2784.31,4204.62 2782.98,4194.62 2780.93,4183.82 2769.88,4170.56 2750.19,4150.86 2742.45,4144.02 2736.5,4139.61 2716.16,4136.24 2708.72,4134.34 2701.19,4131.83 2687.1,4125.09 2674.41,4115.97 2670.51,4112.3 2663.44,4104.85 2660.59,4101.3 2654.38,4092.14 2650.29,4084.44 2647.47,4078.17 2643.65,4065.84 2640.84,4053.85 2637.43,4043.22 2633.67,4038.89 2626.5,4032.05 2622.97,4029.25 2618.79,4028.06 2609.41,4026.3 2596.38,4025.29 2454.52,4025.43 2448.42,4026.04 2439.77,4027.45 2429.81,4030.05 2421.16,4033.18 2408.53,4039.17 2396.42,4046.38" style="stroke:rgb(103,198,105);stroke-width:0.000000;fill:none;stroke-opacity:0.5;stroke-linecap:round;stroke-linejoin:round;;fill:none"/>
<polyline points="2242.4,3770.27 2329.94,3806.53 2341.79,3811.03 2357.43,3816.11 2366.34,3818.5 2381.98,3821.83 2389.81,3823.07 2405.45,3824.71 2412.76,3825.1 2428.4,3825.1 2435.72,3824.71 2451.36,3823.07 2459.19,3821.83 2474.83,3818.5 2484.5,3815.86 2495.4,3822.27 2504.06,3826.58 2515.46,3831.04 2524.11,3833.5 2533.49,3835.27 2546.52,3836.27 2659.51,3836.15 2676.2,3836.94 2678.86,3837.29 2691.25,3840.19 2694.04,3841.06 2705.05,3845.61 2708.4,3847.29 2719.19,3854 2721.31,3855.63 2733.68,3866.87 2762.11,3895.48 2769.84,3902.32 2775.8,3906.73 2796.14,3910.11 2803.57,3912 2811.11,3914.51 2825.2,3921.26 2837.89,3930.38 2841.79,3934.05 2848.86,3941.5 2854.6,3949.07 2857.91,3954.21 2864.11,3966.4 2869.4,3983.14 2870.73,3993.15 2872.79,4003.94 2883.84,4017.21 2903.53,4036.9 2911.26,4043.75 2917.22,4048.15 2937.56,4051.53 2945,4053.42 2952.53,4055.93 2963.25,4060.94 2966.62,4062.68 2979.38,4071.85 2993.39,4083.73 3000.18,4084.83 3013.21,4085.83 3618.61,4085.83 3626,4086.14 3632.32,4086.87 3639.01,4088.45 3645.59,4090.48 3650.95,4092.64 3658.03,4096.32 3663.88,4099.94 3668.86,4103.89 3674.3,4108.9 4104.53,4539.07 4109.43,4543.34 4120.77,4551.61 4146.42,4551.39 4149.67,4551.59 4161.26,4553.27 4168.28,4555.06 4175.61,4557.5 4189.11,4563.96 4201.27,4572.7 4205.07,4576.29 4211.78,4583.36 4214.45,4586.68 4220.46,4595.54 4224.33,4602.82 4227.09,4608.95 4231.47,4623.27 4233.23,4638.14 4233.17,4644.37 4232.53,4653.09 4231.71,4658.29 4229.47,4667.73 4226.36,4676.44 4224.11,4681.7 4216.51,4694.61 4209.26,4703.19 4157.27,4755.32 4148.52,4762.35 4139.02,4768.3 4135.68,4770.03 4121.78,4775.58 4107.12,4778.66 4092.16,4779.16 4083.99,4778.39 4077.32,4777.27 4070.3,4775.48 4062.98,4773.05 4049.47,4766.59 4037.31,4757.85 4026.8,4747.19 4021.24,4739.85 4018.12,4735.01 4014.25,4727.73 4011.49,4721.6 4007.11,4707.28 4005.34,4692.31 4005.68,4675.69 4005.4,4666.58 4000.16,4658.95 3994.61,4652.27 3991.66,4649.02 3599.81,4257.17 3596.13,4253.87 3585.21,4245.23 3579.48,4244.36 3566.44,4243.36 2967.88,4243.52 2960.07,4244.17 2953.24,4245.22 2944,4252.23 2931.87,4262.09 2926.33,4265.74 2918.48,4270.1 2903.97,4275.89 2888.68,4279.11 2873.06,4279.63 2864.64,4278.85 2857.58,4277.66 2845.41,4274.29 2842.61,4273.26 2828.51,4266.51 2815.82,4257.39 2804.86,4246.27 2799.11,4238.7 2795.81,4233.56 2791.71,4225.87 2788.88,4219.57 2784.31,4204.62 2782.98,4194.62 2780.93,4183.82 2769.88,4170.56 2750.19,4150.86 2742.45,4144.02 2736.5,4139.61 2716.16,4136.24 2708.72,4134.34 2701.19,4131.83 2687.1,4125.09 2674.41,4115.97 2670.51,4112.3 2663.44,4104.85 2660.59,4101.3 2654.38,4092.14 2650.29,4084.44 2647.47,4078.17 2643.65,4065.84 2640.84,4053.85 2637.43,4043.22 2633.67,4038.89 2626.5,4032.05 2622.97,4029.25 2618.79,4028.06 2609.41,4026.3 2596.38,4025.29 2454.52,4025.43 2448.42,4026.04 2439.77,4027.45 2429.81,4030.05 2421.16,4033.18 2408.53,4039.17 2396.42,4046.38" style="stroke:rgb(0,0,0);stroke-width:1px;fill:none;stroke-opacity:1;stroke-linecap:round;stroke-linejoin:round;;fill:none"/>
<polyline points="2158.79,4168.49 2165.71,4174.1 2177.13,4184.41 2190.57,4198.85 2201.39,4213.44 2211.4,4225.23 2290.3,4304.49 2295.85,4311.18 2299.29,4315.85 2300.91,4329.68 2301.16,4347.17 2300.16,4360.2 2298.39,4369.58 2294.55,4382.49 2288.27,4385.4 2279.91,4388.69 2262.96,4393.93 2244.65,4400.18 2227.6,4409.33 2215.88,4417.14 2211.77,4420.43 2197.45,4433.57 2185.5,4448.67 2179.73,4457.34 2175.35,4465.13 2167.1,4484.15 2162.55,4501.52 2160.54,4513.06 2159.76,4520.66 2159.94,4542.68 2162.55,4559.14 2167.1,4576.52 2175.35,4595.53 2179.73,4603.31 2185.5,4611.99 2194.21,4623.31 2197.51,4627.16 2211.77,4640.23 2219.91,4646.41 2227.61,4651.33 2244.65,4660.48 2262.97,4666.73 2269.3,4668.41 2281.9,4670.64 2296.35,4671.89 2542.24,4671.89 2556.69,4670.64 2569.28,4668.41 2575.62,4666.73 2604.95,4656.69 2615.01,4654.17 2630.02,4651.64 2639.2,4650.47" style="stroke:rgb(103,198,105);stroke-width:0.000000;fill:none;stroke-opacity:0.5;stroke-linecap:round;stroke-linejoin:round;;fill:none"/>
<polyline points="2158.79,4168.49 2165.71,4174.1 2177.13,4184.41 2190.57,4198.85 2201.39,4213.44 2211.4,4225.23 2290.3,4304.49 2295.85,4311.18 2299.29,4315.85 2300.91,4329.68 2301.16,4347.17 2300.16,4360.2 2298.39,4369.58 2294.55,4382.49 2288.27,4385.4 2279.91,4388.69 2262.96,4393.93 2244.65,4400.18 2227.6,4409.33 2215.88,4417.14 2211.77,4420.43 2197.45,4433.57 2185.5,4448.67 2179.73,4457.34 2175.35,4465.13 2167.1,4484.15 2162.55,4501.52 2160.54,4513.06 2159.76,4520.66 2159.94,4542.68 2162.55,4559.14 2167.1,4576.52 2175.35,4595.53 2179.73,4603.31 2185.5,4611.99 2194.21,4623.31 2197.51,4627.16 2211.77,4640.23 2219.91,4646.41 2227.61,4651.33 2244.65,4660.48 2262.97,4666.73 2269.3,4668.41 2281.9,4670.64 2296.35,4671.89 2542.24,4671.89 2556.69,4670.64 2569.28,4668.41 2575.62,4666.73 2604.95,4656.69 2615.01,4654.17 2630.02,4651.64 2639.2,4650.47" style="stroke:rgb(0,0,0);stroke-width:1px;fill:none;stroke-opacity:1;stroke-linecap:round;stroke-linejoin:round;;fill:none"/>
<polyline points="2692.87,4532.34 2706.39,4530.18 2715.46,4527.94 2733.34,4521.81 2751.06,4514.35 2768.44,4509.81 2779.97,4507.79 2787.57,4507.01 2809.59,4507.19 2826.05,4509.81 2838.67,4512.91 2844.73,4514.82 2862.44,4522.61 2865.96,4524.45 2878.9,4532.76 2894.01,4544.7 2907.15,4559.03 2913.32,4567.17 2918.24,4574.86 2927.4,4591.9 2933.64,4610.22 2935.32,4616.56 2937.55,4629.16 2938.93,4645.96 2939,4805.92 2937.55,4825.21 2935.33,4837.8 2933.64,4844.14 2927.4,4862.45 2918.24,4879.5 2913.32,4887.19 2907.15,4895.34 2894,4909.66 2878.9,4921.6 2865.96,4929.91 2862.44,4931.75 2844.73,4939.54 2838.67,4941.45 2826.05,4944.55 2814.52,4946.57 2806.92,4947.35 2787.57,4947.35 2779.97,4946.57 2768.44,4944.55 2755.82,4941.45 2749.75,4939.54 2732.04,4931.75 2724.26,4927.38 2715.59,4921.6 2700.48,4909.66 2687.34,4895.34 2684.05,4891.22 2676.25,4879.5 2668.77,4865.84 2666.69,4861.32 2660.84,4844.14 2659.16,4837.8 2656.93,4825.21 2655.68,4810.75 2655.47,4704.12 2655.1,4698.21 2654.01,4689.55 2651.87,4679.94 2649.11,4671.28 2643.99,4659.35 2639.2,4650.47 2647.34,4633.98 2655.26,4615.29 2662.88,4599.71 2667.7,4587.91 2673.13,4577.25 2680.44,4559.88 2685.85,4549.26 2692.87,4532.34 2684.75,4517.99 2678.12,4504.2 2675.36,4497.17 2671.02,4482.84 2663.23,4465.13 2661.39,4461.61 2653.08,4448.67 2641.08,4433.5 2626.82,4420.43 2622.7,4417.14 2610.98,4409.33 2597.32,4401.86 2592.8,4399.77 2575.62,4393.93 2562.38,4389.89 2553.14,4386.6 2544.11,4382.43 2540.96,4372.6 2539.02,4363.95 2537.91,4356.25 2537.52,4350.21 2537.46,4264.28 2536.22,4248.07 2532.21,4230.84 2525.67,4214.42 2524.1,4211.26 2516.08,4198.14 2506.09,4185.91 2426.05,4105.84 2417.55,4095.91 2412.17,4088.03 2407.79,4080.17 2402.89,4068.96 2399.81,4059.8 2396.42,4046.38 2371.63,4037.28 2364.85,4035.21 2346.33,4030.57 2340.77,4029.47 2322.25,4026.72 2298.86,4025.33 2275.69,4026.24 2252.3,4029.47 2246.74,4030.57 2228.22,4035.21 2212.48,4040.48 2205.38,4046.92 2200.07,4052.23 2187.61,4065.97 2182.66,4072.01 2171.5,4087.06 2166.66,4094.3 2155.97,4112.18 2157.58,4134.87 2158.79,4159.79 2158.79,4168.49 2151.98,4174.8 2137.99,4189.11 2125.5,4204.26 2117.71,4214.95 2111.91,4221.85 2103.58,4229.91 2100.29,4232.61 2090.93,4239.1 2087.14,4241.47 2072.39,4248.05 2057.32,4251.94 2052.33,4252.72 2026.37,4254.9 2016.53,4256.14 2001.86,4259" style="stroke:rgb(103,198,105);stroke-width:0.000000;fill:none;stroke-opacity:0.5;stroke-linecap:round;stroke-linejoin:round;;fill:none"/>
<polyline points="2692.87,4532.34 2706.39,4530.18 2715.46,4527.94 2733.34,4521.81 2751.06,4514.35 2768.44,4509.81 2779.97,4507.79 2787.57,4507.01 2809.59,4507.19 2826.05,4509.81 2838.67,4512.91 2844.73,4514.82 2862.44,4522.61 2865.96,4524.45 2878.9,4532.76 2894.01,4544.7 2907.15,4559.03 2913.32,4567.17 2918.24,4574.86 2927.4,4591.9 2933.64,4610.22 2935.32,4616.56 2937.55,4629.16 2938.93,4645.96 2939,4805.92 2937.55,4825.21 2935.33,4837.8 2933.64,4844.14 2927.4,4862.45 2918.24,4879.5 2913.32,4887.19 2907.15,4895.34 2894,4909.66 2878.9,4921.6 2865.96,4929.91 2862.44,4931.75 2844.73,4939.54 2838.67,4941.45 2826.05,4944.55 2814.52,4946.57 2806.92,4947.35 2787.57,4947.35 2779.97,4946.57 2768.44,4944.55 2755.82,4941.45 2749.75,4939.54 2732.04,4931.75 2724.26,4927.38 2715.59,4921.6 2700.48,4909.66 2687.34,4895.34 2684.05,4891.22 2676.25,4879.5 2668.77,4865.84 2666.69,4861.32 2660.84,4844.14 2659.16,4837.8 2656.93,4825.21 2655.68,4810.75 2655.47,4704.12 2655.1,4698.21 2654.01,4689.55 2651.87,4679.94 2649.11,4671.28 2643.99,4659.35 2639.2,4650.47 2647.34,4633.98 2655.26,4615.29 2662.88,4599.71 2667.7,4587.91 2673.13,4577.25 2680.44,4559.88 2685.85,4549.26 2692.87,4532.34 2684.75,4517.99 2678.12,4504.2 2675.36,4497.17 2671.02,4482.84 2663.23,4465.13 2661.39,4461.61 2653.08,4448.67 2641.08,4433.5 2626.82,4420.43 2622.7,4417.14 2610.98,4409.33 2597.32,4401.86 2592.8,4399.77 2575.62,4393.93 2562.38,4389.89 2553.14,4386.6 2544.11,4382.43 2540.96,4372.6 2539.02,4363.95 2537.91,4356.25 2537.52,4350.21 2537.46,4264.28 2536.22,4248.07 2532.21,4230.84 2525.67,4214.42 2524.1,4211.26 2516.08,4198.14 2506.09,4185.91 2426.05,4105.84 2417.55,4095.91 2412.17,4088.03 2407.79,4080.17 2402.89,4068.96 2399.81,4059.8 2396.42,4046.38 2371.63,4037.28 2364.85,4035.21 2346.33,4030.57 2340.77,4029.47 2322.25,4026.72 2298.86,4025.33 2275.69,4026.24 2252.3,4029.47 2246.74,4030.57 2228.22,4035.21 2212.48,4040.48 2205.38,4046.92 2200.07,4052.23 2187.61,4065.97 2182.66,4072.01 2171.5,4087.06 2166.66,4094.3 2155.97,4112.18 2157.58,4134.87 2158.79,4159.79 2158.79,4168.49 2151.98,4174.8 2137.99,4189.11 2125.5,4204.26 2117.71,4214.95 2111.91,4221.85 2103.58,4229.91 2100.29,4232.61 2090.93,4239.1 2087.14,4241.47 2072.39,4248.05 2057.32,4251.94 2052.33,4252.72 2026.37,4254.9 2016.53,4256.14 2001.86,4259" style="stroke:rgb(0,0,0);stroke-width:1px;fill:none;stroke-opacity:1;stroke-linecap:round;stroke-linejoin:round;;fill:none"/>
<polyline points="1731.29,4553.61 1725.33,4548.14 1710.81,4533.29 1702.75,4525.59 1695.37,4517.84 1689.61,4512.55 1621.2,4443.57 1615.44,4438.29 1608.06,4430.53 1599.99,4422.83 1585.48,4407.99 1580.41,4403.36" style="stroke:rgb(103,198,105);stroke-width:0.000000;fill:none;stroke-opacity:0.5;stroke-linecap:round;stroke-linejoin:round;;fill:none"/>
<polyline points="1731.29,4553.61 1725.33,4548.14 1710.81,4533.29 1702.75,4525.59 1695.37,4517.84 1689.61,4512.55 1621.2,4443.57 1615.44,4438.29 1608.06,4430.53 1599.99,4422.83 1585.48,4407.99 1580.41,4403.36" style="stroke:rgb(0,0,0);stroke-width:1px;fill:none;stroke-opacity:1;stroke-linecap:round;stroke-linejoin:round;;fill:none"/>
<polyline points="1580.28,4350.21 1569.36,4344.85 1551.71,4337.4 1533.87,4331.66 1524.74,4329.43 1510.08,4323.38 1502.74,4319.25 1496.55,4315.14 1490.09,4310.06 1484.46,4304.92 1423.21,4243.67 1417.86,4237.83 1411.78,4229.88 1408.61,4224.97 1403.96,4216.34 1401.43,4210.84 1396.64,4195.72 1394.56,4180 1394.41,4176.54 1394.92,4164.17 1397.06,4151.16 1402.91,4133.59 1410.66,4119.75 1414.7,4114.24 1420.5,4107.34 1428.83,4099.28 1432.12,4096.58 1445.26,4087.72 1460.01,4081.13 1471.86,4076.49 1485.01,4070.19 1490.64,4067.21 1506.25,4057.89" style="stroke:rgb(103,198,105);stroke-width:0.000000;fill:none;stroke-opacity:0.5;stroke-linecap:round;stroke-linejoin:round;;fill:none"/>
<polyline points="1580.28,4350.21 1569.36,4344.85 1551.71,4337.4 1533.87,4331.66 1524.74,4329.43 1510.08,4323.38 1502.74,4319.25 1496.55,4315.14 1490.09,4310.06 1484.46,4304.92 1423.21,4243.67 1417.86,4237.83 1411.78,4229.88 1408.61,4224.97 1403.96,4216.34 1401.43,4210.84 1396.64,4195.72 1394.56,4180 1394.41,4176.54 1394.92,4164.17 1397.06,4151.16 1402.91,4133.59 1410.66,4119.75 1414.7,4114.24 1420.5,4107.34 1428.83,4099.28 1432.12,4096.58 1445.26,4087.72 1460.01,4081.13 1471.86,4076.49 1485.01,4070.19 1490.64,4067.21 1506.25,4057.89" style="stroke:rgb(0,0,0);stroke-width:1px;fill:none;stroke-opacity:1;stroke-linecap:round;stroke-linejoin:round;;fill:none"/>
<polyline points="1686.16,4226.18 1649.57,4189.2 1641.5,4181.5 1634.12,4173.75 1628.36,4168.46 1559.96,4099.48 1554.19,4094.2 1546.82,4086.44 1533.71,4073.7 1523.53,4067.2 1506.25,4057.89 1503.79,4049.06 1500.71,4039.9 1495.81,4028.68 1491.43,4020.82 1486.04,4012.93 1477.54,4003.01 1460.05,3985.52 1449.77,3976.25 1403,3929.48 1395.26,3920.66 1392.31,3916.67 1385.61,3905.25 1383.37,3899.98 1380.26,3891.28 1378.01,3881.83 1377.19,3876.64 1376.45,3862.95 1378.25,3846.82 1383.29,3830.87 1389.26,3819.09 1392.38,3814.25 1397.94,3806.91 1408.25,3796.42 1420.61,3787.51 1434.12,3781.04 1441.44,3778.61 1448.47,3776.82 1455.12,3775.7 1463.31,3774.93 1479.13,3774.95 1490.69,3774.38 1500.35,3773.44 1514.53,3771.53 1530.93,3787.84 1543.79,3797.47 1687.87,3941.55 1696.34,3952.13 1705.21,3961.68 1763.17,4019.63 1782.92,4040.08 1790.99,4047.78 1799.22,4056.36 1808.55,4065.37 1829.09,4086.14 1836.91,4093.48 1836.91,4094.29 1829.1,4101.62 1808.55,4122.4 1799.22,4131.41 1796.16,4134.81 1782.92,4147.69 1775.54,4155.44 1767.93,4162.67 1764.47,4166.52 1756.86,4173.75 1749.49,4181.5 1741.42,4189.2 1726.9,4204.05 1719.48,4210.97 1713.12,4214.43 1703.31,4219.09 1686.16,4226.18 1680.35,4240.72 1670.87,4260.27 1664.08,4266.56 1649.57,4281.41 1641.5,4289.11 1634.13,4296.86 1626.51,4304.1 1619.26,4311.73 1611.44,4319.17 1608.06,4322.92 1594.83,4335.8 1591.77,4339.2 1580.28,4350.21 1581.04,4356.84 1581.64,4368.92 1581.71,4380.82 1581.32,4392.36 1580.41,4403.36 1557.72,4413.68 1547.39,4417.51 1533.17,4422.07 1521.03,4425.3 1506.51,4431.81 1493.37,4440.66 1490.07,4443.37 1481.75,4451.43 1475.95,4458.32 1471.91,4463.84 1464.18,4477.64 1456.76,4499.29 1455.8,4503.26 1451.69,4508.57 1446.13,4514.71 1438.67,4522.17 1428.74,4530.67 1424.07,4534.12 1410.23,4535.73 1405.3,4535.99 1203.66,4536.05 1192.89,4536.95 1188.31,4537.89 1179.01,4540.64 1173.65,4542.8 1166.57,4546.48 1160.23,4550.48 1151.98,4557.45 1140.46,4568.6 1133.21,4574.61 1121.45,4578.67 1111.5,4582.82 1107.92,4584.68 1098.1,4590.84 1088.97,4598.18 1019.38,4667.7 1011.21,4677 1008.26,4681 999.833,4695.51 996.451,4702.28 986.605,4718.51 978.505,4730.04 975.275,4734.03 984.031,4752.73 987.357,4758.87 995.319,4771.86 998.561,4776.58 1010.96,4792.31 1024.77,4806.48 1036.07,4816.13 1040.31,4819.38 1052.73,4827.91 1058.07,4831.18 1071.65,4838.56 1078.78,4841.95 1086.39,4845.1 1090.96,4859.21 1095.87,4870.42 1100.24,4878.28 1105.62,4886.16 1111.18,4892.84 1260.14,5042.09 1264.65,5046.14 1274.36,5053.67 1280.1,5054.54 1293.13,5055.54 1326.02,5055.54 1339.54,5054.4 1348.98,5052.52 1355.75,5050.52 1362.39,5040.38 1369.43,5026.1 1378.27,5009.23 1393.14,4983.95 1398.23,4976.2 1410.75,4960.49 1430.41,4938.72 1439.72,4929.39 1452.1,4918.99 1475.75,4901.63 1490,4892.2 1500.77,4886.32 1527.42,4874.08 1546.92,4866.27 1554.88,4863.74 1583.47,4857.12 1607.98,4852.7 1612.39,4852.12 1641.74,4851.39 1671.08,4852.12 1675.49,4852.7 1700,4857.12 1728.59,4863.74 1736.55,4866.27 1756.05,4874.08 1782.7,4886.32 1793.47,4892.2 1807.72,4901.63 1831.37,4918.99 1843.76,4929.39 1853.06,4938.72 1872.72,4960.49 1882.31,4972.2 1890.33,4983.95 1905.2,5009.23 1914.04,5026.1 1916.11,5030.61 1918.08,5035.58 1927.56,5063.35 1933.9,5085.41 1935.27,5091.66 1938.96,5120.78 1941.15,5150.05 1938.96,5179.33 1935.02,5209.84 1933.9,5214.69 1927.56,5236.75 1918.08,5264.52 1914.04,5274 1905.2,5290.88 1890.33,5316.15 1882.31,5327.9 1872.72,5339.62 1853.06,5361.38 1843.76,5370.72 1831.37,5381.12 1807.72,5398.47 1793.47,5407.9 1789.19,5410.41 1782.7,5413.78 1756.05,5426.02 1736.55,5433.84 1728.59,5436.37 1700,5442.98 1671.08,5447.98 1641.74,5448.71 1612.39,5447.98 1583.47,5442.98 1554.88,5436.37 1546.92,5433.84 1527.42,5426.02 1500.77,5413.78 1490,5407.9 1475.75,5398.47 1452.1,5381.12 1439.72,5370.72 1430.41,5361.38 1410.75,5339.62 1398.23,5323.9 1393.14,5316.15 1378.27,5290.87 1361.9,5258.87 1355.77,5249.56 1347.95,5247.33 1338.58,5245.56 1325.54,5244.56 1238.69,5244.69 1232.12,5244.49 1219.35,5243.46 1206.99,5240.51 1196.11,5236.5 1189.88,5233.42 1183.86,5229.94 1176.95,5225.13 1164.51,5213.96 688.933,4738.26 678.433,4725.9 671.059,4713.37 666.197,4701.63 663.533,4692.13 662.375,4686.49 661.345,4673.72 661.153,4667.15 661.305,4459.25 662.375,4446.49 665.329,4434.13 669.339,4423.24 672.413,4417.03 675.899,4411 680.715,4404.09 691.877,4391.65 1042.7,4040.99 1046.35,4036.89 1053.89,4027.18 1054.76,4021.44 1055.76,4008.41 1055.76,3714.83 1056.78,3701.59 1059.67,3689.22 1060.85,3685.67 1065.41,3674.66 1066.77,3672.07 1074.8,3659.54 1086.36,3646.76 1402.49,3330.8 1411.55,3319.87 1413.68,3316.98 1414.54,3311.25 1415.55,3298.21 1415.42,3208.77 1416.32,3192.08 1417.8,3183.79 1419.6,3177.07 1421.82,3170.49 1425.33,3162.54 1432.7,3150.02 1443.18,3137.64 1544.89,3035.94 1553.73,3024.76 1558.98,3016.25 1564.51,3004.94 1560.88,2997.24 1556.5,2989.38 1551.12,2981.5 1542.62,2971.57 1529.03,2957.98 1524.4,2953.77 1514.54,2947.2 1508.08,2942.11 1502.44,2936.97 1441.2,2875.73 1432.67,2865.95 1425.15,2854.8 1419.91,2849.02 1414.37,2843.87 1404.76,2836.41 1398.9,2835.51 1385.86,2834.51 1279.16,2834.44 1265.32,2833.24 1254.03,2830.46 1247.46,2828.23 1239.51,2824.73 1230.91,2819.89 1223.9,2815 1216.32,2808.45 1146.06,2738.14 1137.49,2727.97 1131.89,2719.01 1124.52,2710.91 1117.26,2702.33 1109.66,2689.43 1107.42,2684.16 1104.31,2675.45 1102.06,2666.01 1101.24,2660.81 1100.61,2652.09 1100.54,2645.87 1102.3,2631 1106.68,2616.67 1109.44,2610.54 1113.31,2603.26 1119.33,2594.4 1121.99,2591.08 1132.5,2580.43 1144.66,2571.69 1158.17,2565.22 1160.76,2564.26 1172.52,2561 1179.18,2559.88 1187.35,2559.11 1198.1,2559.33 1202.32,2559.61 1216.97,2562.7 1230.88,2568.25 1238.49,2572.48 1243.71,2575.92 1252.46,2582.96 1260.48,2590.4 1269.45,2596 1281.31,2606.17 1307.6,2632.44 1311.7,2636.09 1321.41,2643.62 1327.15,2644.49 1340.18,2645.49 1440.44,2645.36 1447.02,2645.56 1459.78,2646.59 1472.14,2649.54 1478.72,2651.77 1486.49,2655.19 1507.24,2665.8 1515.68,2669.23 1528.15,2673.48 1537.96,2675.89 1541.91,2684.15 1545.67,2691.09 1554.07,2704.81 1561.67,2715.28 1568.18,2722.25 1577.94,2731.53 1646.34,2800.51 1652.11,2805.8 1661.54,2815.72 1662.74,2816.62 1905.01,3058.89 1917.39,3070.2 1921.99,3073.98 1933.27,3082.34 1938.78,3086.02 1951.06,3093.38 1958.01,3097.09 1977.74,3106.17 1978.72,3110.6 1983.77,3126.66 1987.43,3135.24 1993.16,3145.95 1998.51,3153.98 2025.77,3176.36 2058.69,3209.21 2067.66,3219.41 2070.58,3223.44 2078.8,3237.7 2083.61,3249.98 2085.85,3257.91 2087.43,3265.59 2088.67,3279.12 2088.67,3284.08 2087.43,3297.62 2085.85,3305.3 2083.61,3313.22 2078.8,3325.51 2077.53,3328.09 2069.25,3341.87 2058.7,3354.01 2056.64,3356.01 2046.44,3364.38 2039.59,3368.96 2032.78,3372.84 2017.98,3379.12 2002.31,3382.74 1999.47,3383.15 1986.3,3383.93 1978.07,3383.6 1970.28,3382.74 1954.61,3379.12 1939.81,3372.84 1933,3368.96 1926.15,3364.38 1916.78,3356.8 1883.84,3323.93 1874.87,3313.72 1871.96,3309.69 1861.17,3291.09 1854.93,3283.88 1743,3171.96 1736.43,3166.11 1729.46,3160.85 1720.94,3155.6 1709.64,3150.07 1701.93,3153.7 1694.07,3158.07 1686.2,3163.45 1679.51,3169 1617.62,3230.63 1608.56,3241.56 1606.44,3244.44 1605.57,3250.17 1604.57,3263.21 1604.69,3352.65 1603.84,3369.86 1603.21,3373.55 1599.78,3387.18 1594.91,3398.94 1586.84,3412.33 1573.97,3426.83 1258.23,3742.39 1254.18,3746.9 1246.65,3756.61 1245.78,3762.35 1244.78,3775.38 1244.75,4069.43 1243.68,4082.19 1240.73,4094.55 1236.72,4105.43 1233.64,4111.66 1230.16,4117.68 1225.34,4124.59 1214.18,4137.02 864.115,4486.91 859.699,4491.79 852.171,4501.5 851.301,4507.23 850.297,4520.27 850.297,4612.71 850.555,4617.64 852.169,4631.48 855.611,4636.15 864.117,4646.07 928.151,4709.92 932.851,4713.77 939.957,4718.9 948.821,4724.1 957.139,4728.02 970.273,4732.72 975.275,4734.03" style="stroke:rgb(103,198,105);stroke-width:0.000000;fill:none;stroke-opacity:0.5;stroke-linecap:round;stroke-linejoin:round;;fill:none"/>
<polyline points="1686.16,4226.18 1649.57,4189.2 1641.5,4181.5 1634.12,4173.75 1628.36,4168.46 1559.96,4099.48 1554.19,4094.2 1546.82,4086.44 1533.71,4073.7 1523.53,4067.2 1506.25,4057.89 1503.79,4049.06 1500.71,4039.9 1495.81,4028.68 1491.43,4020.82 1486.04,4012.93 1477.54,4003.01 1460.05,3985.52 1449.77,3976.25 1403,3929.48 1395.26,3920.66 1392.31,3916.67 1385.61,3905.25 1383.37,3899.98 1380.26,3891.28 1378.01,3881.83 1377.19,3876.64 1376.45,3862.95 1378.25,3846.82 1383.29,3830.87 1389.26,3819.09 1392.38,3814.25 1397.94,3806.91 1408.25,3796.42 1420.61,3787.51 1434.12,3781.04 1441.44,3778.61 1448.47,3776.82 1455.12,3775.7 1463.31,3774.93 1479.13,3774.95 1490.69,3774.38 1500.35,3773.44 1514.53,3771.53 1530.93,3787.84 1543.79,3797.47 1687.87,3941.55 1696.34,3952.13 1705.21,3961.68 1763.17,4019.63 1782.92,4040.08 1790.99,4047.78 1799.22,4056.36 1808.55,4065.37 1829.09,4086.14 1836.91,4093.48 1836.91,4094.29 1829.1,4101.62 1808.55,4122.4 1799.22,4131.41 1796.16,4134.81 1782.92,4147.69 1775.54,4155.44 1767.93,4162.67 1764.47,4166.52 1756.86,4173.75 1749.49,4181.5 1741.42,4189.2 1726.9,4204.05 1719.48,4210.97 1713.12,4214.43 1703.31,4219.09 1686.16,4226.18 1680.35,4240.72 1670.87,4260.27 1664.08,4266.56 1649.57,4281.41 1641.5,4289.11 1634.13,4296.86 1626.51,4304.1 1619.26,4311.73 1611.44,4319.17 1608.06,4322.92 1594.83,4335.8 1591.77,4339.2 1580.28,4350.21 1581.04,4356.84 1581.64,4368.92 1581.71,4380.82 1581.32,4392.36 1580.41,4403.36 1557.72,4413.68 1547.39,4417.51 1533.17,4422.07 1521.03,4425.3 1506.51,4431.81 1493.37,4440.66 1490.07,4443.37 1481.75,4451.43 1475.95,4458.32 1471.91,4463.84 1464.18,4477.64 1456.76,4499.29 1455.8,4503.26 1451.69,4508.57 1446.13,4514.71 1438.67,4522.17 1428.74,4530.67 1424.07,4534.12 1410.23,4535.73 1405.3,4535.99 1203.66,4536.05 1192.89,4536.95 1188.31,4537.89 1179.01,4540.64 1173.65,4542.8 1166.57,4546.48 1160.23,4550.48 1151.98,4557.45 1140.46,4568.6 1133.21,4574.61 1121.45,4578.67 1111.5,4582.82 1107.92,4584.68 1098.1,4590.84 1088.97,4598.18 1019.38,4667.7 1011.21,4677 1008.26,4681 999.833,4695.51 996.451,4702.28 986.605,4718.51 978.505,4730.04 975.275,4734.03 984.031,4752.73 987.357,4758.87 995.319,4771.86 998.561,4776.58 1010.96,4792.31 1024.77,4806.48 1036.07,4816.13 1040.31,4819.38 1052.73,4827.91 1058.07,4831.18 1071.65,4838.56 1078.78,4841.95 1086.39,4845.1 1090.96,4859.21 1095.87,4870.42 1100.24,4878.28 1105.62,4886.16 1111.18,4892.84 1260.14,5042.09 1264.65,5046.14 1274.36,5053.67 1280.1,5054.54 1293.13,5055.54 1326.02,5055.54 1339.54,5054.4 1348.98,5052.52 1355.75,5050.52 1362.39,5040.38 1369.43,5026.1 1378.27,5009.23 1393.14,4983.95 1398.23,4976.2 1410.75,4960.49 1430.41,4938.72 1439.72,4929.39 1452.1,4918.99 1475.75,4901.63 1490,4892.2 1500.77,4886.32 1527.42,4874.08 1546.92,4866.27 1554.88,4863.74 1583.47,4857.12 1607.98,4852.7 1612.39,4852.12 1641.74,4851.39 1671.08,4852.12 1675.49,4852.7 1700,4857.12 1728.59,4863.74 1736.55,4866.27 1756.05,4874.08 1782.7,4886.32 1793.47,4892.2 1807.72,4901.63 1831.37,4918.99 1843.76,4929.39 1853.06,4938.72 1872.72,4960.49 1882.31,4972.2 1890.33,4983.95 1905.2,5009.23 1914.04,5026.1 1916.11,5030.61 1918.08,5035.58 1927.56,5063.35 1933.9,5085.41 1935.27,5091.66 1938.96,5120.78 1941.15,5150.05 1938.96,5179.33 1935.02,5209.84 1933.9,5214.69 1927.56,5236.75 1918.08,5264.52 1914.04,5274 1905.2,5290.88 1890.33,5316.15 1882.31,5327.9 1872.72,5339.62 1853.06,5361.38 1843.76,5370.72 1831.37,5381.12 1807.72,5398.47 1793.47,5407.9 1789.19,5410.41 1782.7,5413.78 1756.05,5426.02 1736.55,5433.84 1728.59,5436.37 1700,5442.98 1671.08,5447.98 1641.74,5448.71 1612.39,5447.98 1583.47,5442.98 1554.88,5436.37 1546.92,5433.84 1527.42,5426.02 1500.77,5413.78 1490,5407.9 1475.75,5398.47 1452.1,5381.12 1439.72,5370.72 1430.41,5361.38 1410.75,5339.62 1398.23,5323.9 1393.14,5316.15 1378.27,5290.87 1361.9,5258.87 1355.77,5249.56 1347.95,5247.33 1338.58,5245.56 1325.54,5244.56 1238.69,5244.69 1232.12,5244.49 1219.35,5243.46 1206.99,5240.51 1196.11,5236.5 1189.88,5233.42 1183.86,5229.94 1176.95,5225.13 1164.51,5213.96 688.933,4738.26 678.433,4725.9 671.059,4713.37 666.197,4701.63 663.533,4692.13 662.375,4686.49 661.345,4673.72 661.153,4667.15 661.305,4459.25 662.375,4446.49 665.329,4434.13 669.339,4423.24 672.413,4417.03 675.899,4411 680.715,4404.09 691.877,4391.65 1042.7,4040.99 1046.35,4036.89 1053.89,4027.18 1054.76,4021.44 1055.76,4008.41 1055.76,3714.83 1056.78,3701.59 1059.67,3689.22 1060.85,3685.67 1065.41,3674.66 1066.77,3672.07 1074.8,3659.54 1086.36,3646.76 1402.49,3330.8 1411.55,3319.87 1413.68,3316.98 1414.54,3311.25 1415.55,3298.21 1415.42,3208.77 1416.32,3192.08 1417.8,3183.79 1419.6,3177.07 1421.82,3170.49 1425.33,3162.54 1432.7,3150.02 1443.18,3137.64 1544.89,3035.94 1553.73,3024.76 1558.98,3016.25 1564.51,3004.94 1560.88,2997.24 1556.5,2989.38 1551.12,2981.5 1542.62,2971.57 1529.03,2957.98 1524.4,2953.77 1514.54,2947.2 1508.08,2942.11 1502.44,2936.97 1441.2,2875.73 1432.67,2865.95 1425.15,2854.8 1419.91,2849.02 1414.37,2843.87 1404.76,2836.41 1398.9,2835.51 1385.86,2834.51 1279.16,2834.44 1265.32,2833.24 1254.03,2830.46 1247.46,2828.23 1239.51,2824.73 1230.91,2819.89 1223.9,2815 1216.32,2808.45 1146.06,2738.14 1137.49,2727.97 1131.89,2719.01 1124.52,2710.91 1117.26,2702.33 1109.66,2689.43 1107.42,2684.16 1104.31,2675.45 1102.06,2666.01 1101.24,2660.81 1100.61,2652.09 1100.54,2645.87 1102.3,2631 1106.68,2616.67 1109.44,2610.54 1113.31,2603.26 1119.33,2594.4 1121.99,2591.08 1132.5,2580.43 1144.66,2571.69 1158.17,2565.22 1160.76,2564.26 1172.52,2561 1179.18,2559.88 1187.35,2559.11 1198.1,2559.33 1202.32,2559.61 1216.97,2562.7 1230.88,2568.25 1238.49,2572.48 1243.71,2575.92 1252.46,2582.96 1260.48,2590.4 1269.45,2596 1281.31,2606.17 1307.6,2632.44 1311.7,2636.09 1321.41,2643.62 1327.15,2644.49 1340.18,2645.49 1440.44,2645.36 1447.02,2645.56 1459.78,2646.59 1472.14,2649.54 1478.72,2651.77 1486.49,2655.19 1507.24,2665.8 1515.68,2669.23 1528.15,2673.48 1537.96,2675.89 1541.91,2684.15 1545.67,2691.09 1554.07,2704.81 1561.67,2715.28 1568.18,2722.25 1577.94,2731.53 1646.34,2800.51 1652.11,2805.8 1661.54,2815.72 1662.74,2816.62 1905.01,3058.89 1917.39,3070.2 1921.99,3073.98 1933.27,3082.34 1938.78,3086.02 1951.06,3093.38 1958.01,3097.09 1977.74,3106.17 1978.72,3110.6 1983.77,3126.66 1987.43,3135.24 1993.16,3145.95 1998.51,3153.98 2025.77,3176.36 2058.69,3209.21 2067.66,3219.41 2070.58,3223.44 2078.8,3237.7 2083.61,3249.98 2085.85,3257.91 2087.43,3265.59 2088.67,3279.12 2088.67,3284.08 2087.43,3297.62 2085.85,3305.3 2083.61,3313.22 2078.8,3325.51 2077.53,3328.09 2069.25,3341.87 2058.7,3354.01 2056.64,3356.01 2046.44,3364.38 2039.59,3368.96 2032.78,3372.84 2017.98,3379.12 2002.31,3382.74 1999.47,3383.15 1986.3,3383.93 1978.07,3383.6 1970.28,3382.74 1954.61,3379.12 1939.81,3372.84 1933,3368.96 1926.15,3364.38 1916.78,3356.8 1883.84,3323.93 1874.87,3313.72 1871.96,3309.69 1861.17,3291.09 1854.93,3283.88 1743,3171.96 1736.43,3166.11 1729.46,3160.85 1720.94,3155.6 1709.64,3150.07 1701.93,3153.7 1694.07,3158.07 1686.2,3163.45 1679.51,3169 1617.62,3230.63 1608.56,3241.56 1606.44,3244.44 1605.57,3250.17 1604.57,3263.21 1604.69,3352.65 1603.84,3369.86 1603.21,3373.55 1599.78,3387.18 1594.91,3398.94 1586.84,3412.33 1573.97,3426.83 1258.23,3742.39 1254.18,3746.9 1246.65,3756.61 1245.78,3762.35 1244.78,3775.38 1244.75,4069.43 1243.68,4082.19 1240.73,4094.55 1236.72,4105.43 1233.64,4111.66 1230.16,4117.68 1225.34,4124.59 1214.18,4137.02 864.115,4486.91 859.699,4491.79 852.171,4501.5 851.301,4507.23 850.297,4520.27 850.297,4612.71 850.555,4617.64 852.169,4631.48 855.611,4636.15 864.117,4646.07 928.151,4709.92 932.851,4713.77 939.957,4718.9 948.821,4724.1 957.139,4728.02 970.273,4732.72 975.275,4734.03" style="stroke:rgb(0,0,0);stroke-width:1px;fill:none;stroke-opacity:1;stroke-linecap:round;stroke-linejoin:round;;fill:none"/>
<polyline points="1086.39,4845.1 1103.47,4833.25 1112.72,4827.62 1135.53,4815.06 1141.17,4811.37 1150.22,4804.1 1222.47,4731.69 1230.04,4722.74 1236.18,4712.74 1246.64,4697.71 1255.84,4695.46 1264.08,4694.15 1274.46,4693.51 1457.47,4693.51 1464.86,4693.2 1471.18,4692.47 1477.87,4690.9 1485.48,4688.49 1490.8,4686.23 1496.89,4683.02 1502.74,4679.4 1520.49,4664.54 1528.36,4659.16 1540.15,4652.77 1554.92,4658.9 1571.33,4667.47 1582.55,4672.22 1585.99,4673.52 1601.48,4676.93 1607.5,4677.49 1617.3,4677.78 1623.13,4677.49 1633.06,4676.2 1643.36,4673.73 1648.4,4672.22 1662.88,4665.74 1676.02,4656.88 1682.98,4650.84 1687.64,4646.12 1693.44,4639.22 1697.48,4633.7 1705.21,4619.9 1712.55,4598.48 1713.44,4594.82 1716.6,4585.59 1725.77,4564.16 1731.29,4553.61 1732.65,4553.47 1746.65,4557.22 1755.65,4560.45 1766.36,4565.41 1774.08,4569.93 1781.31,4575.04 1790.03,4582.64 2027.5,4820.12 2036.01,4830.05 2039.45,4834.71 2041.06,4848.55 2041.32,4853.48 2041.38,5096.42 2042.36,5107.8 2043.94,5114.5 2046.34,5122.11 2048.6,5127.42 2051.81,5133.51 2055.43,5139.36 2059.38,5144.34 2064.39,5149.78 2371.48,5456.87 2376.92,5461.88 2381.9,5465.83 2387.75,5469.45 2393.83,5472.66 2400.19,5475.29 2406.76,5477.32 2413.46,5478.9 2419.78,5479.63 2427.17,5479.94 3008.52,5479.94 3021.55,5480.94 3030.93,5482.71 3036.8,5484.38 3042.32,5492.04 3051.94,5506.79 3056.87,5513.4 3067.02,5523.66 3078.81,5531.99 3091.92,5538.04 3105.87,5541.7 3116.63,5542.79 3135.3,5542.93 3148.33,5543.94 3157.71,5545.71 3166.36,5548.17 3177.76,5552.63 3186.41,5556.94 3201.93,5566.66 3210.59,5573.19 3216.73,5578.88 3323.27,5546.57 3731.66,5328.27 4089.62,5034.5 4383.39,4676.54 4601.68,4268.15 4736.11,3825.02 4781.5,3364.17 4781.5,2419.29 4736.11,1958.45 4601.68,1515.32 4383.39,1106.92 4089.62,748.961 3731.66,455.191 3323.27,236.899 2880.13,102.477 2419.29,57.0873 1958.45,102.477 1515.32,236.899 1106.92,455.191 748.961,748.961 455.191,1106.92 236.899,1515.32 102.477,1958.45 57.0871,2419.29 57.0871,3364.17 102.477,3825.02 236.899,4268.15 455.191,4676.54 748.961,5034.5 1106.92,5328.27 1515.32,5546.57 1958.45,5680.99 2419.29,5726.38 2880.13,5680.99 3216.73,5578.88" style="stroke:rgb(103,198,105);stroke-width:0.000000;fill:none;stroke-opacity:0.5;stroke-linecap:round;stroke-linejoin:round;;fill:none"/>
<polyline points="1086.39,4845.1 1103.47,4833.25 1112.72,4827.62 1135.53,4815.06 1141.17,4811.37 1150.22,4804.1 1222.47,4731.69 1230.04,4722.74 1236.18,4712.74 1246.64,4697.71 1255.84,4695.46 1264.08,4694.15 1274.46,4693.51 1457.47,4693.51 1464.86,4693.2 1471.18,4692.47 1477.87,4690.9 1485.48,4688.49 1490.8,4686.23 1496.89,4683.02 1502.74,4679.4 1520.49,4664.54 1528.36,4659.16 1540.15,4652.77 1554.92,4658.9 1571.33,4667.47 1582.55,4672.22 1585.99,4673.52 1601.48,4676.93 1607.5,4677.49 1617.3,4677.78 1623.13,4677.49 1633.06,4676.2 1643.36,4673.73 1648.4,4672.22 1662.88,4665.74 1676.02,4656.88 1682.98,4650.84 1687.64,4646.12 1693.44,4639.22 1697.48,4633.7 1705.21,4619.9 1712.55,4598.48 1713.44,4594.82 1716.6,4585.59 1725.77,4564.16 1731.29,4553.61 1732.65,4553.47 1746.65,4557.22 1755.65,4560.45 1766.36,4565.41 1774.08,4569.93 1781.31,4575.04 1790.03,4582.64 2027.5,4820.12 2036.01,4830.05 2039.45,4834.71 2041.06,4848.55 2041.32,4853.48 2041.38,5096.42 2042.36,5107.8 2043.94,5114.5 2046.34,5122.11 2048.6,5127.42 2051.81,5133.51 2055.43,5139.36 2059.38,5144.34 2064.39,5149.78 2371.48,5456.87 2376.92,5461.88 2381.9,5465.83 2387.75,5469.45 2393.83,5472.66 2400.19,5475.29 2406.76,5477.32 2413.46,5478.9 2419.78,5479.63 2427.17,5479.94 3008.52,5479.94 3021.55,5480.94 3030.93,5482.71 3036.8,5484.38 3042.32,5492.04 3051.94,5506.79 3056.87,5513.4 3067.02,5523.66 3078.81,5531.99 3091.92,5538.04 3105.87,5541.7 3116.63,5542.79 3135.3,5542.93 3148.33,5543.94 3157.71,5545.71 3166.36,5548.17 3177.76,5552.63 3186.41,5556.94 3201.93,5566.66 3210.59,5573.19 3216.73,5578.88 3323.27,5546.57 3731.66,5328.27 4089.62,5034.5 4383.39,4676.54 4601.68,4268.15 4736.11,3825.02 4781.5,3364.17 4781.5,2419.29 4736.11,1958.45 4601.68,1515.32 4383.39,1106.92 4089.62,748.961 3731.66,455.191 3323.27,236.899 2880.13,102.477 2419.29,57.0873 1958.45,102.477 1515.32,236.899 1106.92,455.191 748.961,748.961 455.191,1106.92 236.899,1515.32 102.477,1958.45 57.0871,2419.29 57.0871,3364.17 102.477,3825.02 236.899,4268.15 455.191,4676.54 748.961,5034.5 1106.92,5328.27 1515.32,5546.57 1958.45,5680.99 2419.29,5726.38 2880.13,5680.99 3216.73,5578.88" style="stroke:rgb(0,0,0);stroke-width:1px;fill:none;stroke-opacity:1;stroke-linecap:round;stroke-linejoin:round;;fill:none"/>
<polyline points="3488.23,5458.39 3489.49,5442.78 3491.37,5432.43 3495.74,5416.52 3499.12,5407.67 3504.13,5397.4 3508.78,5389.81 3513.63,5383.17 3520.36,5375.59 3546.45,5349.5 3554.97,5342.16 3569.98,5335.72 3573.33,5333.98 3582.83,5328.03 3591.58,5321 3641.01,5271.64 3648.78,5262.8 3650.82,5260.29 3658.43,5247.39 3660.67,5242.12 3663.78,5233.41 3666.03,5223.97 3666.84,5218.78 3667.48,5210.05 3667.55,5203.83 3665.78,5188.96 3661.41,5174.63 3658.65,5168.51 3654.77,5161.23 3648.76,5152.36 3646.1,5149.04 3635.78,5138.56 3623.42,5129.65 3609.92,5123.18 3607.33,5122.22 3595.57,5118.96 3583.99,5117.27 3580.73,5117.07 3565.77,5117.57 3551.11,5120.66 3546.66,5122.26 3537.21,5126.21 3533.87,5127.94 3524.38,5133.89 3518.28,5138.67 3512.95,5143.53 3466.18,5190.3 3458.43,5199.12 3456.39,5201.63 3448.78,5214.53 3442.52,5229.34 3435.06,5238.12 3372.43,5300.47 3365.74,5306.02 3357.86,5311.4 3348.37,5316.65 3339.33,5316.72 3330.68,5316.12 3323.77,5315.24 3309.32,5298.79 3301.71,5288.96 3291.56,5278.7 3279.77,5270.37 3266.66,5264.32 3261.52,5262.78 3252.71,5260.66 3249.45,5260.18 3238.35,5259.43 3120.24,5259.43 3109.13,5260.18 3105.87,5260.66 3097.06,5262.78 3091.92,5264.32 3078.81,5270.37 3067.02,5278.7 3056.87,5288.96 3051.94,5295.57 3036.92,5318.14 3023.51,5321.12 3016.32,5322.06 3008.52,5322.42 2479.33,5322.42 2466.3,5321.41 2460.57,5320.55 2450.85,5313.01 2446.75,5309.36 2212.66,5075.29 2204.16,5065.36 2200.71,5060.69 2199.1,5046.86 2198.84,5041.92 2198.84,4801.32 2198.54,4793.93 2197.81,4787.61 2196.94,4783.65 2193.82,4773.3 2191.56,4767.98 2188.35,4761.9 2184.73,4756.05 2180.78,4751.06 2175.77,4745.62 1901.1,4470.95 1892.6,4461.02 1887.22,4453.15 1882.84,4445.29 1877.93,4434.07 1874.86,4424.9 1872.1,4414.73 1872.37,4411.86 1890.34,4403.3 1897.72,4400.11 1913.82,4394.32 1931.24,4389.38 1945.72,4382.89 1958.86,4374.04 1962.16,4371.34 1970.49,4363.28 1979.28,4352.41 1988.08,4337.02 1993.93,4319.44 1996.06,4306.44 1997.29,4287.01 2000.18,4267.74 2001.86,4259 1998.82,4255.62 1985.59,4242.75 1978.21,4234.99 1972.45,4229.71 1904.05,4160.73 1898.28,4155.44 1890.91,4147.69 1882.84,4139.99 1855.14,4111.98 1836.91,4094.29 1836.91,4093.48 1844.73,4086.14 1865.28,4065.37 1874.61,4056.36 1882.84,4047.78 1890.91,4040.08 1894.28,4036.33 1902.1,4028.89 1909.36,4021.25 1920.97,4010.02 1924.34,4006.27 1956.74,3974.29 1957.14,3973.48 2083.44,3847.18 2097.92,3833.87 2162.59,3803.39 2242.4,3770.27 2242.86,3755.37 2242.68,3747.1 2243.4,3724.57 2243.91,3681.65 2257.95,3637.89 2272.25,3587.95 2283.63,3575.95 2288.88,3570.97 2300.81,3560.78 2306.91,3556.1 2320.02,3547.1 2327.51,3542.51 2334.46,3538.74 2339.07,3521.43 2342.46,3512.57 2347.47,3502.31 2352.12,3494.72 2356.97,3488.08 2363.7,3480.5 2504.74,3339.73 2510.03,3335.34 2525.03,3328.91 2532.67,3324.66 2537.89,3321.22 2546.64,3314.19 2598.63,3262.05 2605.88,3253.47 2613.49,3240.57 2615.73,3235.3 2618.84,3226.6 2621.09,3217.15 2621.9,3211.96 2622.54,3203.23 2622.6,3197.01 2620.84,3182.14 2616.47,3167.82 2613.71,3161.69 2609.83,3154.41 2606.72,3149.57 2601.15,3142.23 2590.65,3131.57 2578.48,3122.83 2564.98,3116.36 2562.39,3115.41 2550.63,3112.14 2543.97,3111.02 2535.79,3110.25 2525.05,3110.48 2520.83,3110.75 2506.17,3113.84 2492.27,3119.39 2484.66,3123.63 2479.43,3127.07 2470.69,3134.1 2421.26,3183.46 2413.49,3192.3 2411.45,3194.81 2403.84,3207.71 2397.61,3222.55 2390.84,3230.56 2126.48,3494.94 2121.47,3500.38 2117.52,3505.37 2115.33,3508.78 2110.69,3517.3 2108.43,3522.62 2105.31,3532.96 2102.17,3550.64 2099.73,3560.29 2093.56,3565.22 2078.36,3575.53 2069.23,3582.87 1999.63,3652.39 1989.4,3664.23 1981.47,3677.7 1972.83,3699.94 1968.7,3705.15 1965.08,3709.2 1879.57,3794.73 1869.64,3803.24 1861.76,3808.62 1848.95,3815.47 1835.07,3809.82 1823.92,3803.99 1819.41,3800.58 1814.42,3796.24 1698.68,3680.57 1686.82,3670.4 1677.85,3664.8 1669.83,3657.36 1661.08,3650.33 1651.59,3644.38 1648.25,3642.65 1634.34,3637.1 1619.69,3634.01 1604.72,3633.51 1596.55,3634.28 1589.89,3635.4 1582.86,3637.19 1575.54,3639.62 1562.03,3646.09 1549.87,3654.83 1539.36,3665.49 1536.69,3668.81 1530.68,3677.67 1524.71,3689.45 1519.67,3705.4 1517.91,3720.27 1517.87,3738.9 1517.3,3748.97 1515.99,3761.42 1514.53,3771.53" style="stroke:rgb(103,198,105);stroke-width:0.000000;fill:none;stroke-opacity:0.5;stroke-linecap:round;stroke-linejoin:round;;fill:none"/>
<polyline points="3488.23,5458.39 3489.49,5442.78 3491.37,5432.43 3495.74,5416.52 3499.12,5407.67 3504.13,5397.4 3508.78,5389.81 3513.63,5383.17 3520.36,5375.59 3546.45,5349.5 3554.97,5342.16 3569.98,5335.72 3573.33,5333.98 3582.83,5328.03 3591.58,5321 3641.01,5271.64 3648.78,5262.8 3650.82,5260.29 3658.43,5247.39 3660.67,5242.12 3663.78,5233.41 3666.03,5223.97 3666.84,5218.78 3667.48,5210.05 3667.55,5203.83 3665.78,5188.96 3661.41,5174.63 3658.65,5168.51 3654.77,5161.23 3648.76,5152.36 3646.1,5149.04 3635.78,5138.56 3623.42,5129.65 3609.92,5123.18 3607.33,5122.22 3595.57,5118.96 3583.99,5117.27 3580.73,5117.07 3565.77,5117.57 3551.11,5120.66 3546.66,5122.26 3537.21,5126.21 3533.87,5127.94 3524.38,5133.89 3518.28,5138.67 3512.95,5143.53 3466.18,5190.3 3458.43,5199.12 3456.39,5201.63 3448.78,5214.53 3442.52,5229.34 3435.06,5238.12 3372.43,5300.47 3365.74,5306.02 3357.86,5311.4 3348.37,5316.65 3339.33,5316.72 3330.68,5316.12 3323.77,5315.24 3309.32,5298.79 3301.71,5288.96 3291.56,5278.7 3279.77,5270.37 3266.66,5264.32 3261.52,5262.78 3252.71,5260.66 3249.45,5260.18 3238.35,5259.43 3120.24,5259.43 3109.13,5260.18 3105.87,5260.66 3097.06,5262.78 3091.92,5264.32 3078.81,5270.37 3067.02,5278.7 3056.87,5288.96 3051.94,5295.57 3036.92,5318.14 3023.51,5321.12 3016.32,5322.06 3008.52,5322.42 2479.33,5322.42 2466.3,5321.41 2460.57,5320.55 2450.85,5313.01 2446.75,5309.36 2212.66,5075.29 2204.16,5065.36 2200.71,5060.69 2199.1,5046.86 2198.84,5041.92 2198.84,4801.32 2198.54,4793.93 2197.81,4787.61 2196.94,4783.65 2193.82,4773.3 2191.56,4767.98 2188.35,4761.9 2184.73,4756.05 2180.78,4751.06 2175.77,4745.62 1901.1,4470.95 1892.6,4461.02 1887.22,4453.15 1882.84,4445.29 1877.93,4434.07 1874.86,4424.9 1872.1,4414.73 1872.37,4411.86 1890.34,4403.3 1897.72,4400.11 1913.82,4394.32 1931.24,4389.38 1945.72,4382.89 1958.86,4374.04 1962.16,4371.34 1970.49,4363.28 1979.28,4352.41 1988.08,4337.02 1993.93,4319.44 1996.06,4306.44 1997.29,4287.01 2000.18,4267.74 2001.86,4259 1998.82,4255.62 1985.59,4242.75 1978.21,4234.99 1972.45,4229.71 1904.05,4160.73 1898.28,4155.44 1890.91,4147.69 1882.84,4139.99 1855.14,4111.98 1836.91,4094.29 1836.91,4093.48 1844.73,4086.14 1865.28,4065.37 1874.61,4056.36 1882.84,4047.78 1890.91,4040.08 1894.28,4036.33 1902.1,4028.89 1909.36,4021.25 1920.97,4010.02 1924.34,4006.27 1956.74,3974.29 1957.14,3973.48 2083.44,3847.18 2097.92,3833.87 2162.59,3803.39 2242.4,3770.27 2242.86,3755.37 2242.68,3747.1 2243.4,3724.57 2243.91,3681.65 2257.95,3637.89 2272.25,3587.95 2283.63,3575.95 2288.88,3570.97 2300.81,3560.78 2306.91,3556.1 2320.02,3547.1 2327.51,3542.51 2334.46,3538.74 2339.07,3521.43 2342.46,3512.57 2347.47,3502.31 2352.12,3494.72 2356.97,3488.08 2363.7,3480.5 2504.74,3339.73 2510.03,3335.34 2525.03,3328.91 2532.67,3324.66 2537.89,3321.22 2546.64,3314.19 2598.63,3262.05 2605.88,3253.47 2613.49,3240.57 2615.73,3235.3 2618.84,3226.6 2621.09,3217.15 2621.9,3211.96 2622.54,3203.23 2622.6,3197.01 2620.84,3182.14 2616.47,3167.82 2613.71,3161.69 2609.83,3154.41 2606.72,3149.57 2601.15,3142.23 2590.65,3131.57 2578.48,3122.83 2564.98,3116.36 2562.39,3115.41 2550.63,3112.14 2543.97,3111.02 2535.79,3110.25 2525.05,3110.48 2520.83,3110.75 2506.17,3113.84 2492.27,3119.39 2484.66,3123.63 2479.43,3127.07 2470.69,3134.1 2421.26,3183.46 2413.49,3192.3 2411.45,3194.81 2403.84,3207.71 2397.61,3222.55 2390.84,3230.56 2126.48,3494.94 2121.47,3500.38 2117.52,3505.37 2115.33,3508.78 2110.69,3517.3 2108.43,3522.62 2105.31,3532.96 2102.17,3550.64 2099.73,3560.29 2093.56,3565.22 2078.36,3575.53 2069.23,3582.87 1999.63,3652.39 1989.4,3664.23 1981.47,3677.7 1972.83,3699.94 1968.7,3705.15 1965.08,3709.2 1879.57,3794.73 1869.64,3803.24 1861.76,3808.62 1848.95,3815.47 1835.07,3809.82 1823.92,3803.99 1819.41,3800.58 1814.42,3796.24 1698.68,3680.57 1686.82,3670.4 1677.85,3664.8 1669.83,3657.36 1661.08,3650.33 1651.59,3644.38 1648.25,3642.65 1634.34,3637.1 1619.69,3634.01 1604.72,3633.51 1596.55,3634.28 1589.89,3635.4 1582.86,3637.19 1575.54,3639.62 1562.03,3646.09 1549.87,3654.83 1539.36,3665.49 1536.69,3668.81 1530.68,3677.67 1524.71,3689.45 1519.67,3705.4 1517.91,3720.27 1517.87,3738.9 1517.3,3748.97 1515.99,3761.42 1514.53,3771.53" style="stroke:rgb(0,0,0);stroke-width:1px;fill:none;stroke-opacity:1;stroke-linecap:round;stroke-linejoin:round;;fill:none"/>
<polyline points="428.723,2718.35 428.787,2649.73 430.167,2635.8 433.651,2622.8 435.611,2617.66 439.649,2609.1 447.751,2596.52 457.851,2585.46 469.743,2576.36 476.193,2572.6 482.925,2569.28 488.975,2566.91 497.057,2564.4 511.805,2561.82 526.783,2561.82 531.219,2562.44 541.529,2564.4 549.615,2566.91 555.665,2569.29 566.723,2575.02 580.735,2585.46 590.837,2596.52 598.937,2609.1 602.977,2617.66 604.935,2622.8 608.419,2635.8 609.799,2649.73 609.865,2718.35 608.683,2733.26 607.293,2739.58 604.929,2747.77 598.925,2762.57 598.053,2774.15 598.053,2865.52 598.311,2870.45 599.927,2884.29 603.369,2888.96 611.873,2898.88 917.587,3204.6 926.151,3211.88 941.139,3218.38 944.477,3220.11 953.973,3226.06 962.723,3233.09 1012.15,3282.46 1021.96,3293.81 1029.9,3307.39 1034.92,3320.68 1036.15,3325.28 1037.99,3335.32 1038.62,3344.05 1038.69,3350.27 1037.23,3362.92 1036.19,3367.78 1032.55,3379.46 1029.79,3385.59 1025.91,3392.87 1022.8,3397.71 1017.24,3405.05 1006.73,3415.71 994.565,3424.45 981.061,3430.92 973.739,3433.35 966.709,3435.14 960.053,3436.26 951.875,3437.02 936.913,3436.53 922.253,3433.43 908.349,3427.89 905.017,3426.16 895.517,3420.21 889.423,3415.43 886.767,3413.18 837.339,3363.82 829.571,3354.98 827.527,3352.47 819.909,3339.54 813.715,3324.71 806.207,3315.98 463.603,2973.38 458.593,2967.93 454.645,2962.95 452.451,2959.54 447.343,2950.02 445.183,2944.66 443.149,2938.09 441.497,2930.78 440.841,2925.07 440.535,2917.69 440.523,2773.12 440.211,2767.7 439.625,2762.58 433.651,2747.75 431.293,2739.58 429.903,2733.26 428.723,2718.35" style="stroke:rgb(103,198,105);stroke-width:0.000000;fill:none;stroke-opacity:0.5;stroke-linecap:round;stroke-linejoin:round;;fill:none"/>
<polyline points="428.723,2718.35 428.787,2649.73 430.167,2635.8 433.651,2622.8 435.611,2617.66 439.649,2609.1 447.751,2596.52 457.851,2585.46 469.743,2576.36 476.193,2572.6 482.925,2569.28 488.975,2566.91 497.057,2564.4 511.805,2561.82 526.783,2561.82 531.219,2562.44 541.529,2564.4 549.615,2566.91 555.665,2569.29 566.723,2575.02 580.735,2585.46 590.837,2596.52 598.937,2609.1 602.977,2617.66 604.935,2622.8 608.419,2635.8 609.799,2649.73 609.865,2718.35 608.683,2733.26 607.293,2739.58 604.929,2747.77 598.925,2762.57 598.053,2774.15 598.053,2865.52 598.311,2870.45 599.927,2884.29 603.369,2888.96 611.873,2898.88 917.587,3204.6 926.151,3211.88 941.139,3218.38 944.477,3220.11 953.973,3226.06 962.723,3233.09 1012.15,3282.46 1021.96,3293.81 1029.9,3307.39 1034.92,3320.68 1036.15,3325.28 1037.99,3335.32 1038.62,3344.05 1038.69,3350.27 1037.23,3362.92 1036.19,3367.78 1032.55,3379.46 1029.79,3385.59 1025.91,3392.87 1022.8,3397.71 1017.24,3405.05 1006.73,3415.71 994.565,3424.45 981.061,3430.92 973.739,3433.35 966.709,3435.14 960.053,3436.26 951.875,3437.02 936.913,3436.53 922.253,3433.43 908.349,3427.89 905.017,3426.16 895.517,3420.21 889.423,3415.43 886.767,3413.18 837.339,3363.82 829.571,3354.98 827.527,3352.47 819.909,3339.54 813.715,3324.71 806.207,3315.98 463.603,2973.38 458.593,2967.93 454.645,2962.95 452.451,2959.54 447.343,2950.02 445.183,2944.66 443.149,2938.09 441.497,2930.78 440.841,2925.07 440.535,2917.69 440.523,2773.12 440.211,2767.7 439.625,2762.58 433.651,2747.75 431.293,2739.58 429.903,2733.26 428.723,2718.35" style="stroke:rgb(0,0,0);stroke-width:1px;fill:none;stroke-opacity:1;stroke-linecap:round;stroke-linejoin:round;;fill:none"/>
<polyline points="1524.77,2222.87 1525.51,2236.55 1527.17,2245.92 1528.57,2251.19 1531.68,2259.9 1533.92,2265.17 1541.5,2278.03 1556.07,2294.8 1561.52,2303.14 1566.63,2309.82 1570.32,2313.89 1577.67,2320.85 1584.35,2325.97 1592.69,2331.41 1603.43,2341.01 1609.56,2345.84 1614.74,2349.25 1622.35,2353.49 1636.26,2359.04 1650.91,2362.13 1665.88,2362.63 1674.05,2361.86 1680.71,2360.74 1687.74,2358.95 1695.06,2356.52 1708.57,2350.05 1720.93,2341.14 1731.24,2330.65 1733.91,2327.33 1739.92,2318.47 1750.44,2298.15 1756.25,2288.57 1764.08,2286.31 1773.48,2284.5 1786.69,2283.45 1966.31,2283.45 1979.35,2284.45 1985.08,2285.32 1994.79,2292.85 1998.9,2296.51 2432.49,2730.07 2440.99,2740 2443.78,2743.69 2445.59,2754.13 2447.04,2765.16 2451.42,2779.48 2454.17,2785.61 2458.05,2792.89 2464.06,2801.75 2466.73,2805.07 2473.43,2812.14 2477.24,2815.73 2489.4,2824.47 2502.9,2830.93 2510.23,2833.37 2517.25,2835.15 2538.42,2838.51 2544.57,2843.05 2549.76,2847.54 2833.22,3130.81 2839.31,3137.7 2846.86,3148.81 2855.41,3158.57 2916.65,3219.81 2922.29,3224.96 2928.75,3230.04 2939.2,3236.67 2942.28,3238.28 2956.93,3244.33 2972.42,3247.74 2978.45,3248.3 2988.25,3248.59 2999.01,3247.79 3004.01,3247.01 3019.08,3243.12 3033.82,3236.54 3046.97,3227.69 3053.93,3221.65 3058.59,3216.93 3064.39,3210.03 3068.43,3204.51 3076.18,3190.67 3081.38,3175.69 3082.99,3168.23 3084.17,3160.09 3084.63,3152.68 3084.53,3144.26 3082.45,3128.54 3077.66,3113.42 3075.12,3107.93 3070.48,3099.29 3067.31,3094.38 3061.23,3086.44 3055.88,3080.59 2991.79,3016.58 2982.54,3009.12 2972.68,3002.55 2968.05,2998.33 2685.95,2716.24 2677.45,2706.31 2674.66,2702.62 2672.32,2688.73 2671.4,2681.15 2667.02,2666.83 2664.26,2660.7 2660.39,2653.42 2654.37,2644.56 2651.71,2641.24 2645,2634.17 2641.2,2630.58 2629.04,2621.84 2615.53,2615.38 2608.21,2612.94 2601.18,2611.15 2580.01,2607.79 2573.86,2603.26 2568.67,2598.77 2094.93,2125.03 2082.49,2113.87 2075.58,2109.05 2069.56,2105.57 2063.34,2102.49 2052.45,2098.48 2040.09,2095.53 2025,2094.36 1702.8,2094.3 1696.22,2094.5 1682.38,2095.7 1671.1,2098.48 1664.52,2100.71 1656.57,2104.21 1647.97,2109.05 1641.06,2113.87 1626.96,2126.35 1617.97,2133.41 1596.78,2136.74 1589.75,2138.53 1582.43,2140.96 1568.93,2147.43 1556.76,2156.17 1546.26,2166.82 1543.59,2170.14 1537.58,2179 1533.7,2186.28 1530.94,2192.41 1526.57,2206.74 1524.77,2222.87" style="stroke:rgb(103,198,105);stroke-width:0.000000;fill:none;stroke-opacity:0.5;stroke-linecap:round;stroke-linejoin:round;;fill:none"/>
<polyline points="1524.77,2222.87 1525.51,2236.55 1527.17,2245.92 1528.57,2251.19 1531.68,2259.9 1533.92,2265.17 1541.5,2278.03 1556.07,2294.8 1561.52,2303.14 1566.63,2309.82 1570.32,2313.89 1577.67,2320.85 1584.35,2325.97 1592.69,2331.41 1603.43,2341.01 1609.56,2345.84 1614.74,2349.25 1622.35,2353.49 1636.26,2359.04 1650.91,2362.13 1665.88,2362.63 1674.05,2361.86 1680.71,2360.74 1687.74,2358.95 1695.06,2356.52 1708.57,2350.05 1720.93,2341.14 1731.24,2330.65 1733.91,2327.33 1739.92,2318.47 1750.44,2298.15 1756.25,2288.57 1764.08,2286.31 1773.48,2284.5 1786.69,2283.45 1966.31,2283.45 1979.35,2284.45 1985.08,2285.32 1994.79,2292.85 1998.9,2296.51 2432.49,2730.07 2440.99,2740 2443.78,2743.69 2445.59,2754.13 2447.04,2765.16 2451.42,2779.48 2454.17,2785.61 2458.05,2792.89 2464.06,2801.75 2466.73,2805.07 2473.43,2812.14 2477.24,2815.73 2489.4,2824.47 2502.9,2830.93 2510.23,2833.37 2517.25,2835.15 2538.42,2838.51 2544.57,2843.05 2549.76,2847.54 2833.22,3130.81 2839.31,3137.7 2846.86,3148.81 2855.41,3158.57 2916.65,3219.81 2922.29,3224.96 2928.75,3230.04 2939.2,3236.67 2942.28,3238.28 2956.93,3244.33 2972.42,3247.74 2978.45,3248.3 2988.25,3248.59 2999.01,3247.79 3004.01,3247.01 3019.08,3243.12 3033.82,3236.54 3046.97,3227.69 3053.93,3221.65 3058.59,3216.93 3064.39,3210.03 3068.43,3204.51 3076.18,3190.67 3081.38,3175.69 3082.99,3168.23 3084.17,3160.09 3084.63,3152.68 3084.53,3144.26 3082.45,3128.54 3077.66,3113.42 3075.12,3107.93 3070.48,3099.29 3067.31,3094.38 3061.23,3086.44 3055.88,3080.59 2991.79,3016.58 2982.54,3009.12 2972.68,3002.55 2968.05,2998.33 2685.95,2716.24 2677.45,2706.31 2674.66,2702.62 2672.32,2688.73 2671.4,2681.15 2667.02,2666.83 2664.26,2660.7 2660.39,2653.42 2654.37,2644.56 2651.71,2641.24 2645,2634.17 2641.2,2630.58 2629.04,2621.84 2615.53,2615.38 2608.21,2612.94 2601.18,2611.15 2580.01,2607.79 2573.86,2603.26 2568.67,2598.77 2094.93,2125.03 2082.49,2113.87 2075.58,2109.05 2069.56,2105.57 2063.34,2102.49 2052.45,2098.48 2040.09,2095.53 2025,2094.36 1702.8,2094.3 1696.22,2094.5 1682.38,2095.7 1671.1,2098.48 1664.52,2100.71 1656.57,2104.21 1647.97,2109.05 1641.06,2113.87 1626.96,2126.35 1617.97,2133.41 1596.78,2136.74 1589.75,2138.53 1582.43,2140.96 1568.93,2147.43 1556.76,2156.17 1546.26,2166.82 1543.59,2170.14 1537.58,2179 1533.7,2186.28 1530.94,2192.41 1526.57,2206.74 1524.77,2222.87" style="stroke:rgb(0,0,0);stroke-width:1px;fill:none;stroke-opacity:1;stroke-linecap:round;stroke-linejoin:round;;fill:none"/>
<polyline points="1898.9,1861.07 1881,1875.1 1867.18,1887.92 1860.34,1895.09 1846.33,1905.53 1835.27,1911.27 1824.52,1915.22 1821.14,1916.15 1806.39,1918.74 1791.41,1918.74 1776.66,1916.15 1768.58,1913.65 1762.53,1911.27 1751.47,1905.53 1737.46,1895.09 1727.36,1884.03 1719.26,1871.45 1715.22,1862.9 1713.26,1857.75 1709.77,1844.75 1708.33,1828.35 1708.39,1759.73 1709.51,1747.29 1711.9,1736.87 1712.27,1729.49 1712.27,1435.67 1712.52,1428.35 1713.07,1423.96 1715.19,1413.01 1720.31,1398.94 1722.56,1394.69 1727.62,1386.19 1736.24,1375.66 1903.24,1208.82 1909.17,1202.23 1914.28,1195.32 1918.42,1173.04 1919.35,1169.66 1923.31,1158.91 1926.62,1152.18 1930.38,1145.73 1939.48,1133.84 1950.54,1123.74 1963.13,1115.63 1971.68,1111.59 1976.82,1109.64 1984.99,1107.28 1991.31,1105.89 2006.22,1104.71 2072.37,1104.71 2087.28,1105.89 2093.6,1107.28 2101.77,1109.64 2111.44,1113.6 2115.47,1115.63 2128.05,1123.74 2139.11,1133.84 2141.3,1136.54 2149.55,1147.85 2155.28,1158.91 2159.23,1169.66 2160.17,1173.04 2162.12,1183.35 2162.75,1187.79 2162.75,1202.77 2160.17,1217.51 2159.23,1220.89 2155.28,1231.65 2149.55,1242.71 2139.11,1256.72 2128.05,1266.82 2115.47,1274.92 2106.91,1278.96 2101.84,1280.89 2088.76,1284.35 2071.9,1287.43 2061.81,1295.57 2058.57,1298.52 1898.59,1458.52 1894.94,1462.62 1887.41,1472.33 1886.54,1478.07 1885.54,1491.1 1885.54,1641.39 1885.89,1649.11 1886.82,1656.29 1888.59,1664.94 1891.76,1675.32 1895.28,1683.97 1902.38,1697.48 1905.75,1702.72 1902.55,1714.66 1900.78,1722.97 1898.9,1734.82 1898.9,1861.07 1917.82,1875.97 1929.4,1886.62 1937.46,1895.09 1951.47,1905.53 1962.53,1911.27 1973.29,1915.22 1976.66,1916.15 1991.41,1918.74 2006.39,1918.74 2010.83,1918.11 2021.14,1916.15 2024.52,1915.22 2035.27,1911.27 2042,1907.95 2048.41,1904.22 2057.62,1897.27 2073,1884.13 2084.85,1882.4 2091.29,1881.96 2141.55,1881.91 2154.63,1882.92 2160.37,1883.79 2171.29,1892.43 2174.96,1895.74 2256.78,1977.56 2264.8,1986.89 2270.52,1999.84 2275.17,2008.58 2278.3,2013.41 2284.37,2021.36 2289.73,2027.2 2350.97,2088.45 2356.6,2093.59 2363.07,2098.68 2369.25,2102.78 2376.6,2106.91 2391.25,2112.96 2407.81,2116.52 2422.56,2117.23 2428.4,2116.93 2438.32,2115.64 2448.63,2113.17 2453.66,2111.66 2468.14,2105.18 2481.28,2096.32 2484.58,2093.62 2492.91,2085.56 2498.71,2078.66 2502.75,2073.14 2510.5,2059.3 2515.69,2044.32 2517.31,2036.87 2518.48,2028.73 2519.71,2009.3 2520.91,2000.43 2524.28,1981.28 2521.24,1977.91 2508.01,1965.03 2500.63,1957.28 2494.86,1951.99 2426.47,1883.01 2420.71,1877.73 2413.33,1869.97 2400.09,1857.1 2395.5,1852.04 2394.69,1851.52 2267.74,1724.57 2255.95,1713.76 2250.14,1709 2240.11,1701.56 2230.16,1695.13 2212.48,1701.36 2199.72,1704.98 2190.49,1707 2181.84,1708.17 2175.47,1708.6 2093.42,1708.64 2080.36,1707.64 2073.02,1706.41 2057.61,1693.31 2048.38,1686.32 2042,1682.6 2035.27,1679.29 2024.52,1675.34 2021.14,1674.4 2010.83,1672.45 2006.39,1671.82 1991.41,1671.82 1976.66,1674.4 1968.58,1676.91 1962.53,1679.29 1943.45,1688.88 1938.56,1691.06 1925.17,1696.43 1905.75,1702.72" style="stroke:rgb(103,198,105);stroke-width:0.000000;fill:none;stroke-opacity:0.5;stroke-linecap:round;stroke-linejoin:round;;fill:none"/>
<polyline points="1898.9,1861.07 1881,1875.1 1867.18,1887.92 1860.34,1895.09 1846.33,1905.53 1835.27,1911.27 1824.52,1915.22 1821.14,1916.15 1806.39,1918.74 1791.41,1918.74 1776.66,1916.15 1768.58,1913.65 1762.53,1911.27 1751.47,1905.53 1737.46,1895.09 1727.36,1884.03 1719.26,1871.45 1715.22,1862.9 1713.26,1857.75 1709.77,1844.75 1708.33,1828.35 1708.39,1759.73 1709.51,1747.29 1711.9,1736.87 1712.27,1729.49 1712.27,1435.67 1712.52,1428.35 1713.07,1423.96 1715.19,1413.01 1720.31,1398.94 1722.56,1394.69 1727.62,1386.19 1736.24,1375.66 1903.24,1208.82 1909.17,1202.23 1914.28,1195.32 1918.42,1173.04 1919.35,1169.66 1923.31,1158.91 1926.62,1152.18 1930.38,1145.73 1939.48,1133.84 1950.54,1123.74 1963.13,1115.63 1971.68,1111.59 1976.82,1109.64 1984.99,1107.28 1991.31,1105.89 2006.22,1104.71 2072.37,1104.71 2087.28,1105.89 2093.6,1107.28 2101.77,1109.64 2111.44,1113.6 2115.47,1115.63 2128.05,1123.74 2139.11,1133.84 2141.3,1136.54 2149.55,1147.85 2155.28,1158.91 2159.23,1169.66 2160.17,1173.04 2162.12,1183.35 2162.75,1187.79 2162.75,1202.77 2160.17,1217.51 2159.23,1220.89 2155.28,1231.65 2149.55,1242.71 2139.11,1256.72 2128.05,1266.82 2115.47,1274.92 2106.91,1278.96 2101.84,1280.89 2088.76,1284.35 2071.9,1287.43 2061.81,1295.57 2058.57,1298.52 1898.59,1458.52 1894.94,1462.62 1887.41,1472.33 1886.54,1478.07 1885.54,1491.1 1885.54,1641.39 1885.89,1649.11 1886.82,1656.29 1888.59,1664.94 1891.76,1675.32 1895.28,1683.97 1902.38,1697.48 1905.75,1702.72 1902.55,1714.66 1900.78,1722.97 1898.9,1734.82 1898.9,1861.07 1917.82,1875.97 1929.4,1886.62 1937.46,1895.09 1951.47,1905.53 1962.53,1911.27 1973.29,1915.22 1976.66,1916.15 1991.41,1918.74 2006.39,1918.74 2010.83,1918.11 2021.14,1916.15 2024.52,1915.22 2035.27,1911.27 2042,1907.95 2048.41,1904.22 2057.62,1897.27 2073,1884.13 2084.85,1882.4 2091.29,1881.96 2141.55,1881.91 2154.63,1882.92 2160.37,1883.79 2171.29,1892.43 2174.96,1895.74 2256.78,1977.56 2264.8,1986.89 2270.52,1999.84 2275.17,2008.58 2278.3,2013.41 2284.37,2021.36 2289.73,2027.2 2350.97,2088.45 2356.6,2093.59 2363.07,2098.68 2369.25,2102.78 2376.6,2106.91 2391.25,2112.96 2407.81,2116.52 2422.56,2117.23 2428.4,2116.93 2438.32,2115.64 2448.63,2113.17 2453.66,2111.66 2468.14,2105.18 2481.28,2096.32 2484.58,2093.62 2492.91,2085.56 2498.71,2078.66 2502.75,2073.14 2510.5,2059.3 2515.69,2044.32 2517.31,2036.87 2518.48,2028.73 2519.71,2009.3 2520.91,2000.43 2524.28,1981.28 2521.24,1977.91 2508.01,1965.03 2500.63,1957.28 2494.86,1951.99 2426.47,1883.01 2420.71,1877.73 2413.33,1869.97 2400.09,1857.1 2395.5,1852.04 2394.69,1851.52 2267.74,1724.57 2255.95,1713.76 2250.14,1709 2240.11,1701.56 2230.16,1695.13 2212.48,1701.36 2199.72,1704.98 2190.49,1707 2181.84,1708.17 2175.47,1708.6 2093.42,1708.64 2080.36,1707.64 2073.02,1706.41 2057.61,1693.31 2048.38,1686.32 2042,1682.6 2035.27,1679.29 2024.52,1675.34 2021.14,1674.4 2010.83,1672.45 2006.39,1671.82 1991.41,1671.82 1976.66,1674.4 1968.58,1676.91 1962.53,1679.29 1943.45,1688.88 1938.56,1691.06 1925.17,1696.43 1905.75,1702.72" style="stroke:rgb(0,0,0);stroke-width:1px;fill:none;stroke-opacity:1;stroke-linecap:round;stroke-linejoin:round;;fill:none"/>
<polyline points="2230.16,1695.13 2228.08,1681.14 2223.53,1662.2 2217.88,1644.69 2213.77,1629.24 2212.55,1616.63 2212.65,1589.13 2212,1580.4 2206.32,1559.74 2204.93,1546.43 2204.79,1448.03 2206.02,1432.47 2207.44,1425.98 2209.93,1417.36 2214.02,1407.35 2216.19,1403.06 2224.25,1390.44 2235.18,1378.39 2247.59,1368.89 2249.9,1367.44 2261.34,1361.52 2272.46,1357.42 2276.09,1356.42 2291.48,1353.72 2307.11,1353.72 2322.49,1356.42 2326.13,1357.42 2337.24,1361.52 2348.69,1367.44 2351,1368.89 2363.41,1378.39 2373.94,1389.93 2377.16,1394.53 2382.4,1403.06 2384.57,1407.36 2388.66,1417.36 2391.15,1425.98 2392.57,1432.47 2393.8,1448.03 2393.8,1542.52 2392.46,1559.77 2390.8,1572.66 2390.57,1578.21 2392.24,1581.21 2397.63,1589.1 2406.13,1599.02 2521.95,1714.83 2529.47,1721.23 2547.81,1729.7 2558.27,1736.33 2564.73,1741.41 2570.37,1746.56 2631.61,1807.8 2640.14,1817.58 2646.22,1826.5 2652.98,1839.63 2657.81,1854.51 2658.78,1859.38 2660.27,1871.47 2660.37,1879.89 2659.9,1887.31 2658.73,1895.44 2657.11,1902.9 2651.92,1917.88 2644.17,1931.72 2640.12,1937.24 2634.33,1944.14 2629.66,1948.86 2622.7,1954.9 2609.56,1963.76 2594.82,1970.33 2579.74,1974.22 2574.75,1975 2548.79,1977.19 2538.95,1978.43 2524.28,1981.28" style="stroke:rgb(103,198,105);stroke-width:0.000000;fill:none;stroke-opacity:0.5;stroke-linecap:round;stroke-linejoin:round;;fill:none"/>
<polyline points="2230.16,1695.13 2228.08,1681.14 2223.53,1662.2 2217.88,1644.69 2213.77,1629.24 2212.55,1616.63 2212.65,1589.13 2212,1580.4 2206.32,1559.74 2204.93,1546.43 2204.79,1448.03 2206.02,1432.47 2207.44,1425.98 2209.93,1417.36 2214.02,1407.35 2216.19,1403.06 2224.25,1390.44 2235.18,1378.39 2247.59,1368.89 2249.9,1367.44 2261.34,1361.52 2272.46,1357.42 2276.09,1356.42 2291.48,1353.72 2307.11,1353.72 2322.49,1356.42 2326.13,1357.42 2337.24,1361.52 2348.69,1367.44 2351,1368.89 2363.41,1378.39 2373.94,1389.93 2377.16,1394.53 2382.4,1403.06 2384.57,1407.36 2388.66,1417.36 2391.15,1425.98 2392.57,1432.47 2393.8,1448.03 2393.8,1542.52 2392.46,1559.77 2390.8,1572.66 2390.57,1578.21 2392.24,1581.21 2397.63,1589.1 2406.13,1599.02 2521.95,1714.83 2529.47,1721.23 2547.81,1729.7 2558.27,1736.33 2564.73,1741.41 2570.37,1746.56 2631.61,1807.8 2640.14,1817.58 2646.22,1826.5 2652.98,1839.63 2657.81,1854.51 2658.78,1859.38 2660.27,1871.47 2660.37,1879.89 2659.9,1887.31 2658.73,1895.44 2657.11,1902.9 2651.92,1917.88 2644.17,1931.72 2640.12,1937.24 2634.33,1944.14 2629.66,1948.86 2622.7,1954.9 2609.56,1963.76 2594.82,1970.33 2579.74,1974.22 2574.75,1975 2548.79,1977.19 2538.95,1978.43 2524.28,1981.28" style="stroke:rgb(0,0,0);stroke-width:1px;fill:none;stroke-opacity:1;stroke-linecap:round;stroke-linejoin:round;;fill:none"/>
<polyline points="2728.38,2057.89 2729.83,2046.34 2733.53,2034.91 2739.33,2024.39 2745.36,2017.18 3070.84,1691.59 3074.16,1687.92 3082.8,1676.99 3083.67,1671.26 3084.67,1658.2 3084.57,1423.2 3083.99,1415.76 3081.55,1401.92 3068.23,1390.05 3060.92,1384.11 3058.08,1381.34 2996.83,1320.09 2988.3,1310.32 2982.22,1301.39 2977.58,1292.76 2975.05,1287.27 2970.26,1272.15 2968.17,1256.43 2968.08,1248 2968.54,1240.59 2969.71,1232.45 2971.33,1225 2976.52,1210.02 2984.27,1196.18 2988.31,1190.66 2994.11,1183.76 2998.78,1179.04 3005.73,1173 3015.1,1166.51 3018.88,1164.14 3033.63,1157.56 3048.7,1153.68 3053.69,1152.9 3064.46,1152.09 3079.21,1152.8 3095.77,1156.35 3099.21,1157.66 3110.43,1162.41 3117.77,1166.54 3123.96,1170.64 3133.21,1178.11 3197.3,1242.12 3205.83,1251.9 3211.9,1260.82 3218.67,1273.95 3223.87,1290.07 3225.95,1305.78 3226.1,1309.25 3225.59,1321.62 3224.42,1329.76 3222.8,1337.21 3218.62,1349.49 3217.48,1352.5 3214.65,1357.75 3211.69,1364.29 3210.69,1377.21 3210.81,1706.02 3209.36,1717.57 3206.83,1725.84 3203.9,1732.53 3199.86,1739.52 3192.24,1748.43 2868.34,2072.32 2865.03,2076 2856.39,2086.92 2855.52,2092.66 2854.52,2105.69 2854.52,2329.97 2854.77,2334.91 2856.39,2348.74 2859.83,2353.41 2868.34,2363.34 3038.18,2533.18 3044.83,2539.16 3051,2543.79 3059.54,2549.21 3076.9,2546.88 3086.51,2545.07 3101.47,2544.57 3109.65,2545.33 3116.31,2546.46 3123.34,2548.25 3130.66,2550.68 3144.17,2557.14 3156.33,2565.88 3160.13,2569.47 3166.84,2576.54 3172.4,2583.88 3175.52,2588.72 3179.39,2596 3182.15,2602.13 3186.53,2616.45 3188.29,2631.33 3188.22,2637.55 3187.59,2646.27 3185.75,2656.31 3184.52,2660.91 3181.41,2669.62 3179.17,2674.89 3171.57,2687.79 3161.75,2699.14 3112.33,2748.5 3103.57,2755.53 3098.36,2758.97 3090.74,2763.21 3076.84,2768.76 3062.18,2771.85 3047.22,2772.35 3039.04,2771.58 3032.38,2770.46 3020.62,2767.19 3007.85,2761.48 3004.53,2759.77 2992.36,2751.03 2988.56,2747.44 2981.86,2740.37 2979.19,2737.05 2973.18,2728.19 2969.3,2720.91 2966.54,2714.78 2962.17,2700.46 2960.41,2685.59 2960.47,2679.37 2961.11,2670.64 2963.54,2656.52 2964.78,2643.38 2962.95,2640.1 2957.57,2632.22 2949.07,2622.29 2745.35,2418.73 2739.36,2411.2 2736.1,2405.95 2732.78,2398.82 2730.91,2393.34 2728.85,2383.68 2728.53,2377.48 2728.38,2057.89" style="stroke:rgb(103,198,105);stroke-width:0.000000;fill:none;stroke-opacity:0.5;stroke-linecap:round;stroke-linejoin:round;;fill:none"/>
<polyline points="2728.38,2057.89 2729.83,2046.34 2733.53,2034.91 2739.33,2024.39 2745.36,2017.18 3070.84,1691.59 3074.16,1687.92 3082.8,1676.99 3083.67,1671.26 3084.67,1658.2 3084.57,1423.2 3083.99,1415.76 3081.55,1401.92 3068.23,1390.05 3060.92,1384.11 3058.08,1381.34 2996.83,1320.09 2988.3,1310.32 2982.22,1301.39 2977.58,1292.76 2975.05,1287.27 2970.26,1272.15 2968.17,1256.43 2968.08,1248 2968.54,1240.59 2969.71,1232.45 2971.33,1225 2976.52,1210.02 2984.27,1196.18 2988.31,1190.66 2994.11,1183.76 2998.78,1179.04 3005.73,1173 3015.1,1166.51 3018.88,1164.14 3033.63,1157.56 3048.7,1153.68 3053.69,1152.9 3064.46,1152.09 3079.21,1152.8 3095.77,1156.35 3099.21,1157.66 3110.43,1162.41 3117.77,1166.54 3123.96,1170.64 3133.21,1178.11 3197.3,1242.12 3205.83,1251.9 3211.9,1260.82 3218.67,1273.95 3223.87,1290.07 3225.95,1305.78 3226.1,1309.25 3225.59,1321.62 3224.42,1329.76 3222.8,1337.21 3218.62,1349.49 3217.48,1352.5 3214.65,1357.75 3211.69,1364.29 3210.69,1377.21 3210.81,1706.02 3209.36,1717.57 3206.83,1725.84 3203.9,1732.53 3199.86,1739.52 3192.24,1748.43 2868.34,2072.32 2865.03,2076 2856.39,2086.92 2855.52,2092.66 2854.52,2105.69 2854.52,2329.97 2854.77,2334.91 2856.39,2348.74 2859.83,2353.41 2868.34,2363.34 3038.18,2533.18 3044.83,2539.16 3051,2543.79 3059.54,2549.21 3076.9,2546.88 3086.51,2545.07 3101.47,2544.57 3109.65,2545.33 3116.31,2546.46 3123.34,2548.25 3130.66,2550.68 3144.17,2557.14 3156.33,2565.88 3160.13,2569.47 3166.84,2576.54 3172.4,2583.88 3175.52,2588.72 3179.39,2596 3182.15,2602.13 3186.53,2616.45 3188.29,2631.33 3188.22,2637.55 3187.59,2646.27 3185.75,2656.31 3184.52,2660.91 3181.41,2669.62 3179.17,2674.89 3171.57,2687.79 3161.75,2699.14 3112.33,2748.5 3103.57,2755.53 3098.36,2758.97 3090.74,2763.21 3076.84,2768.76 3062.18,2771.85 3047.22,2772.35 3039.04,2771.58 3032.38,2770.46 3020.62,2767.19 3007.85,2761.48 3004.53,2759.77 2992.36,2751.03 2988.56,2747.44 2981.86,2740.37 2979.19,2737.05 2973.18,2728.19 2969.3,2720.91 2966.54,2714.78 2962.17,2700.46 2960.41,2685.59 2960.47,2679.37 2961.11,2670.64 2963.54,2656.52 2964.78,2643.38 2962.95,2640.1 2957.57,2632.22 2949.07,2622.29 2745.35,2418.73 2739.36,2411.2 2736.1,2405.95 2732.78,2398.82 2730.91,2393.34 2728.85,2383.68 2728.53,2377.48 2728.38,2057.89" style="stroke:rgb(0,0,0);stroke-width:1px;fill:none;stroke-opacity:1;stroke-linecap:round;stroke-linejoin:round;;fill:none"/>
<polyline points="3010.92,2183.34 3012.72,2199.48 3017.76,2215.43 3023.73,2227.21 3026.85,2232.05 3032.41,2239.39 3039.12,2246.46 3042.92,2250.05 3055.08,2258.79 3068.59,2265.25 3075.91,2267.68 3082.94,2269.47 3104.1,2272.83 3110.25,2277.37 3115.45,2281.85 3398.91,2565.13 3404.99,2572.01 3412.55,2583.12 3421.09,2592.88 3482.34,2654.13 3487.97,2659.27 3494.43,2664.36 3500.62,2668.47 3507.96,2672.59 3519.18,2677.34 3523.88,2678.94 3538.11,2682.05 3544.13,2682.61 3553.93,2682.91 3559.77,2682.61 3569.69,2681.32 3585.03,2677.34 3599.51,2670.86 3603.29,2668.49 3612.66,2662 3619.61,2655.96 3624.28,2651.24 3633.06,2640.38 3641.87,2624.98 3647.06,2610 3648.68,2602.54 3649.85,2594.41 3650.36,2582.04 3650.22,2578.57 3648.13,2562.85 3643.34,2547.74 3640.81,2542.24 3636.17,2533.61 3630.09,2524.68 3621.56,2514.91 3557.48,2450.89 3548.22,2443.43 3538.37,2436.87 3533.73,2432.65 3251.64,2150.55 3243.13,2140.63 3240.34,2136.94 3238,2123.05 3237.08,2115.47 3232.71,2101.15 3229.95,2095.02 3226.07,2087.74 3220.06,2078.88 3217.39,2075.56 3206.88,2064.9 3194.72,2056.16 3181.22,2049.69 3173.9,2047.26 3166.87,2045.47 3155.28,2043.79 3152.03,2043.58 3137.07,2044.08 3122.41,2047.17 3108.51,2052.72 3100.9,2056.96 3095.71,2060.37 3089.59,2065.2 3078.84,2074.8 3070.5,2080.24 3063.82,2085.36 3059.76,2089.05 3052.79,2096.4 3047.67,2103.08 3042.23,2111.41 3027.66,2128.18 3020.08,2141.04 3017.84,2146.31 3014.73,2155.02 3012.48,2164.47 3011.66,2169.66 3010.92,2183.34" style="stroke:rgb(103,198,105);stroke-width:0.000000;fill:none;stroke-opacity:0.5;stroke-linecap:round;stroke-linejoin:round;;fill:none"/>
<polyline points="3010.92,2183.34 3012.72,2199.48 3017.76,2215.43 3023.73,2227.21 3026.85,2232.05 3032.41,2239.39 3039.12,2246.46 3042.92,2250.05 3055.08,2258.79 3068.59,2265.25 3075.91,2267.68 3082.94,2269.47 3104.1,2272.83 3110.25,2277.37 3115.45,2281.85 3398.91,2565.13 3404.99,2572.01 3412.55,2583.12 3421.09,2592.88 3482.34,2654.13 3487.97,2659.27 3494.43,2664.36 3500.62,2668.47 3507.96,2672.59 3519.18,2677.34 3523.88,2678.94 3538.11,2682.05 3544.13,2682.61 3553.93,2682.91 3559.77,2682.61 3569.69,2681.32 3585.03,2677.34 3599.51,2670.86 3603.29,2668.49 3612.66,2662 3619.61,2655.96 3624.28,2651.24 3633.06,2640.38 3641.87,2624.98 3647.06,2610 3648.68,2602.54 3649.85,2594.41 3650.36,2582.04 3650.22,2578.57 3648.13,2562.85 3643.34,2547.74 3640.81,2542.24 3636.17,2533.61 3630.09,2524.68 3621.56,2514.91 3557.48,2450.89 3548.22,2443.43 3538.37,2436.87 3533.73,2432.65 3251.64,2150.55 3243.13,2140.63 3240.34,2136.94 3238,2123.05 3237.08,2115.47 3232.71,2101.15 3229.95,2095.02 3226.07,2087.74 3220.06,2078.88 3217.39,2075.56 3206.88,2064.9 3194.72,2056.16 3181.22,2049.69 3173.9,2047.26 3166.87,2045.47 3155.28,2043.79 3152.03,2043.58 3137.07,2044.08 3122.41,2047.17 3108.51,2052.72 3100.9,2056.96 3095.71,2060.37 3089.59,2065.2 3078.84,2074.8 3070.5,2080.24 3063.82,2085.36 3059.76,2089.05 3052.79,2096.4 3047.67,2103.08 3042.23,2111.41 3027.66,2128.18 3020.08,2141.04 3017.84,2146.31 3014.73,2155.02 3012.48,2164.47 3011.66,2169.66 3010.92,2183.34" style="stroke:rgb(0,0,0);stroke-width:1px;fill:none;stroke-opacity:1;stroke-linecap:round;stroke-linejoin:round;;fill:none"/>
<polyline points="3655.75,1330.85 3645.91,1324.31 3635.42,1318 3626.13,1313 3618.33,1309 3611.29,1306.05 3592.48,1297.12 3580.13,1288.21 3569.81,1277.72 3564.25,1270.38 3561.13,1265.54 3557.26,1258.26 3554.5,1252.13 3550.12,1237.81 3548.36,1222.94 3548.43,1216.71 3549.06,1207.99 3549.88,1202.8 3552.13,1193.35 3555.24,1184.65 3557.48,1179.38 3565.09,1166.48 3572.34,1157.9 3624.32,1105.77 3633.08,1098.73 3638.3,1095.29 3645.91,1091.05 3659.81,1085.51 3674.47,1082.42 3678.69,1082.14 3689.43,1081.92 3697.61,1082.69 3704.27,1083.81 3716.03,1087.07 3718.62,1088.03 3732.12,1094.5 3744.29,1103.24 3754.8,1113.89 3760.36,1121.23 3763.47,1126.07 3769.45,1137.85 3773.74,1151.17 3774.48,1153.81 3776.24,1168.68 3776.01,1180.38 3776.78,1196.05 3777.95,1207.89 3779.62,1219.94" style="stroke:rgb(103,198,105);stroke-width:0.000000;fill:none;stroke-opacity:0.5;stroke-linecap:round;stroke-linejoin:round;;fill:none"/>
<polyline points="3655.75,1330.85 3645.91,1324.31 3635.42,1318 3626.13,1313 3618.33,1309 3611.29,1306.05 3592.48,1297.12 3580.13,1288.21 3569.81,1277.72 3564.25,1270.38 3561.13,1265.54 3557.26,1258.26 3554.5,1252.13 3550.12,1237.81 3548.36,1222.94 3548.43,1216.71 3549.06,1207.99 3549.88,1202.8 3552.13,1193.35 3555.24,1184.65 3557.48,1179.38 3565.09,1166.48 3572.34,1157.9 3624.32,1105.77 3633.08,1098.73 3638.3,1095.29 3645.91,1091.05 3659.81,1085.51 3674.47,1082.42 3678.69,1082.14 3689.43,1081.92 3697.61,1082.69 3704.27,1083.81 3716.03,1087.07 3718.62,1088.03 3732.12,1094.5 3744.29,1103.24 3754.8,1113.89 3760.36,1121.23 3763.47,1126.07 3769.45,1137.85 3773.74,1151.17 3774.48,1153.81 3776.24,1168.68 3776.01,1180.38 3776.78,1196.05 3777.95,1207.89 3779.62,1219.94" style="stroke:rgb(0,0,0);stroke-width:1px;fill:none;stroke-opacity:1;stroke-linecap:round;stroke-linejoin:round;;fill:none"/>
<polyline points="3921.04,1361.36 3943.58,1364.07 3953.64,1364.7 3975.53,1364.96 3987.11,1366.65 3994.14,1368.44 4001.46,1370.87 4014.97,1377.34 4027.13,1386.08 4030.93,1389.67 4037.64,1396.74 4040.3,1400.06 4046.31,1408.92 4050.19,1416.2 4052.95,1422.33 4057.32,1436.65 4059.09,1451.52 4058.85,1463.22 4059.63,1478.89 4060.8,1490.75 4062.46,1502.78" style="stroke:rgb(103,198,105);stroke-width:0.000000;fill:none;stroke-opacity:0.5;stroke-linecap:round;stroke-linejoin:round;;fill:none"/>
<polyline points="3921.04,1361.36 3943.58,1364.07 3953.64,1364.7 3975.53,1364.96 3987.11,1366.65 3994.14,1368.44 4001.46,1370.87 4014.97,1377.34 4027.13,1386.08 4030.93,1389.67 4037.64,1396.74 4040.3,1400.06 4046.31,1408.92 4050.19,1416.2 4052.95,1422.33 4057.32,1436.65 4059.09,1451.52 4058.85,1463.22 4059.63,1478.89 4060.8,1490.75 4062.46,1502.78" style="stroke:rgb(0,0,0);stroke-width:1px;fill:none;stroke-opacity:1;stroke-linecap:round;stroke-linejoin:round;;fill:none"/>
<polyline points="3654.81,1627.73 3636.66,1624.25 3630.27,1623.44 3617.93,1622.32 3607.18,1621.97 3589.04,1618.24 3576.71,1613.59 3565.74,1607.85 3562.81,1605.99 3550.24,1596.33 3539.54,1584.62 3536.05,1579.68 3530.89,1571.34 3526.21,1561.61 3524.39,1556.9 3521.38,1546.74 3520.16,1541.62 3518.54,1525.85 3519.64,1510.03 3521.39,1500.99 3523.15,1494.58 3526.22,1486.11 3528.98,1479.86 3537.09,1466.22 3544.8,1457.17 3608.73,1393 3614.27,1387.74 3619.04,1384.09 3626.39,1377.81 3637.31,1367.43 3644.68,1359.27 3649.42,1349.27 3655.04,1333.57 3655.75,1330.85 3668.35,1324.01 3675.88,1319.4 3690.72,1309.08 3695.72,1303.68 3705.5,1294.29 3760.52,1238.76 3765.13,1234.54 3779.62,1219.94 3802.17,1222.65 3812.22,1223.27 3834.11,1223.54 3845.69,1225.23 3852.71,1227.02 3860.04,1229.45 3873.54,1235.92 3885.71,1244.66 3889.51,1248.24 3896.22,1255.31 3898.88,1258.63 3904.89,1267.5 3908.77,1274.78 3911.53,1280.9 3915.9,1295.23 3917.67,1310.1 3917.43,1321.8 3918.21,1337.48 3919.37,1349.31 3921.04,1361.36 3906.54,1375.96 3901.94,1380.18 3846.93,1435.7 3837.15,1445.1 3832.14,1450.51 3784.41,1497.97 3783.6,1498.48 3779,1503.55 3765.77,1516.42 3758.39,1524.17 3752.63,1529.45 3684.23,1598.44 3678.46,1603.72 3671.09,1611.48 3657.86,1624.35 3654.81,1627.73 3658.91,1652.39 3660.01,1667.77 3661.58,1683.05 3665.81,1698.32 3669.65,1707.56 3672.32,1712.76 3677.47,1721.1 3680.96,1726.04 3691.66,1737.75 3694.51,1740.08 3704.23,1747.41 3711.47,1751.71 3718.13,1755.01 3730.46,1759.67 3748.6,1763.39 3759.36,1763.75 3771.68,1764.86 3778.08,1765.68 3796.23,1769.15 3799.27,1765.78 3812.51,1752.9 3819.88,1745.15 3825.64,1739.86 3894.05,1670.88 3899.81,1665.59 3907.19,1657.84 3920.42,1644.97 3925.02,1639.9 3925.83,1639.39 3973.56,1591.92 3978.57,1586.52 3988.35,1577.12 4043.37,1521.6 4047.97,1517.37 4062.46,1502.78 4085,1505.49 4095.07,1506.12 4116.95,1506.39 4128.53,1508.07 4140.3,1511.34 4142.88,1512.29 4156.39,1518.76 4168.55,1527.5 4179.06,1538.16 4181.73,1541.48 4187.74,1550.34 4193.71,1562.12 4198.75,1578.07 4200.51,1592.94 4200.27,1604.64 4201.05,1620.32 4202.22,1632.16 4203.89,1644.2 4189.39,1658.8 4184.79,1663.02 4129.76,1718.55 4119.99,1727.95 4114.98,1733.35 4067.25,1780.81 4066.45,1781.32 4061.84,1786.39 4048.61,1799.26 4041.23,1807.02 4035.47,1812.3 3967.07,1881.29 3961.3,1886.57 3953.93,1894.32 3940.69,1907.2 3937.65,1910.57 3941.75,1935.23 3943.02,1954.24 3943.11,1962.93 3942.67,1972.71 3942.01,1982.02 3940.6,1992.37 3950.43,2000.14 3956.87,2005.93 3967.03,2014.05 3973.43,2019.8 3993.65,2036.06 4006.75,2045.07 4012.06,2048.32 4026.4,2056.1 4039.8,2062.09 4041.42,2068.61 4045.8,2081.38 4050.94,2093.08 4061.06,2110.31 4065.84,2116.07 4269.63,2319.84 4274.14,2324.62 4282.44,2334.38 4289.09,2345.21 4293.95,2355.74 4296.18,2362.31 4297.97,2369.03 4299.45,2377.33 4300.35,2394.01 4300.22,2514.91 4300.48,2519.85 4302.1,2533.68 4305.54,2538.35 4314.05,2548.28 4633.17,2867.4 4643.34,2879.25 4648.94,2888.23 4656.31,2896.32 4663.56,2904.9 4671.49,2918.48 4676.52,2931.78 4678.77,2941.22 4679.58,2946.41 4680.22,2955.14 4680.28,2961.36 4678.52,2976.23 4674.15,2990.55 4671.39,2996.68 4667.51,3003.96 4664.4,3008.8 4658.83,3016.14 4652.13,3023.21 4648.32,3026.8 4636.16,3035.54 4622.66,3042.01 4615.33,3044.44 4608.31,3046.23 4601.65,3047.35 4593.47,3048.12 4577.65,3048.1 4566.08,3048.67 4556.42,3049.61 4542.24,3051.52 4514.87,3024.19 4506.75,3017.79 4496.44,3008.46 4468.32,2980.47 4454.07,2968.06 4448.56,2963.83 4436.84,2955.78 4430.08,2951.64 4416.42,2944.23 4413.93,2935.28 4410.86,2926.11 4405.95,2914.89 4401.57,2907.03 4396.19,2899.15 4387.68,2889.23 4236.74,2738.37 4225.54,2729.51 4217.02,2724.26 4205.72,2718.73 4198.02,2722.36 4190.16,2726.74 4182.28,2732.12 4172.35,2740.62 3980.81,2932.16 3975.59,2937.88 3971.19,2943.6 3966.32,2950.97 3961.23,2960.55 3957.6,2969.16 3954.63,2977.54 3962.14,2989.58 3965.98,2994.96 3979.6,3002.08 3988.44,3006.2 3992.16,3007.55 4012.29,3017.08 4025.23,3026.42 4035.91,3037.29 4041.65,3044.86 4044.96,3050.01 4049.06,3057.7 4051.88,3064 4056.45,3078.93 4058.29,3094.46 4058.23,3100.85 4057.56,3110.05 4056.69,3115.58 4054.36,3125.33 4049.16,3139.1 4040.84,3153.37 4030.62,3165.19 3989.42,3206.4 3983.94,3211.4 3977.49,3216.46 3967.68,3222.62 3964.1,3224.47 3954.14,3228.63 3949.6,3230.26 3934.3,3233.49 3918.69,3234 3910.26,3233.22 3903.21,3232.03 3895.77,3230.14 3888.23,3227.63 3877.51,3222.62 3873.17,3220.2 3861.17,3211.52 3850.49,3200.64 3844.74,3193.07 3841.48,3188.01 3837.38,3180.22 3832.21,3168.01 3825.82,3154.38 3818.6,3141.53 3813.8,3137.9 3801.77,3130.56 3793.28,3133.41 3782.05,3138.32 3774.2,3142.7 3766.32,3148.08 3756.39,3156.58 3271.55,3641.61 3259.11,3652.77 3252.2,3657.59 3246.18,3661.07 3239.96,3664.15 3229.08,3668.15 3216.71,3671.11 3203.95,3672.18 2942.09,3672.22 2936.6,3672.53 2924.41,3674.08 2919.74,3677.52 2909.81,3686.02 2878.93,3716.9 2874.09,3720.75 2868.36,3723.12 2862.22,3723.93 2856.07,3723.12 2850.34,3720.75 2845.5,3716.9 2721.93,3593.3 2719.16,3589.57 2716.79,3583.84 2715.98,3577.7 2716.79,3571.55 2719.16,3565.82 2721.93,3562.09 2846.61,3437.41 2850.34,3434.64 2856.07,3432.27 2862.22,3431.46 2868.36,3432.27 2874.09,3434.64 2877.82,3437.41 2910.6,3470.14 2914.69,3473.78 2924.41,3481.31 2930.14,3482.18 2943.18,3483.19 3144.03,3483.17 3149.51,3482.86 3161.7,3481.31 3166.37,3477.87 3176.3,3469.37 4097.39,2548.28 4100.7,2544.61 4109.34,2533.68 4110.2,2527.95 4111.21,2514.9 4111.2,2447.35 4110.88,2441.87 4109.34,2429.68 4105.9,2425.01 4097.39,2415.09 3933.18,2250.88 3928.55,2246.66 3918.7,2240.1 3909.44,2232.64 3845.36,2168.62 3836.83,2158.85 3830.75,2149.92 3823.99,2136.79 3819.16,2121.92 3818.19,2117.05 3816.7,2104.95 3816.6,2096.53 3817.07,2089.12 3818.24,2080.98 3819.86,2073.53 3824.04,2061.25 3826.04,2056.7 3833.85,2043.15 3842.64,2032.29 3850.97,2024.23 3854.26,2021.53 3863.63,2015.04 3867.41,2012.67 3881.89,2006.19 3897.39,2002.17 3917.78,1998.65 3940.6,1992.37" style="stroke:rgb(103,198,105);stroke-width:0.000000;fill:none;stroke-opacity:0.5;stroke-linecap:round;stroke-linejoin:round;;fill:none"/>
<polyline points="3654.81,1627.73 3636.66,1624.25 3630.27,1623.44 3617.93,1622.32 3607.18,1621.97 3589.04,1618.24 3576.71,1613.59 3565.74,1607.85 3562.81,1605.99 3550.24,1596.33 3539.54,1584.62 3536.05,1579.68 3530.89,1571.34 3526.21,1561.61 3524.39,1556.9 3521.38,1546.74 3520.16,1541.62 3518.54,1525.85 3519.64,1510.03 3521.39,1500.99 3523.15,1494.58 3526.22,1486.11 3528.98,1479.86 3537.09,1466.22 3544.8,1457.17 3608.73,1393 3614.27,1387.74 3619.04,1384.09 3626.39,1377.81 3637.31,1367.43 3644.68,1359.27 3649.42,1349.27 3655.04,1333.57 3655.75,1330.85 3668.35,1324.01 3675.88,1319.4 3690.72,1309.08 3695.72,1303.68 3705.5,1294.29 3760.52,1238.76 3765.13,1234.54 3779.62,1219.94 3802.17,1222.65 3812.22,1223.27 3834.11,1223.54 3845.69,1225.23 3852.71,1227.02 3860.04,1229.45 3873.54,1235.92 3885.71,1244.66 3889.51,1248.24 3896.22,1255.31 3898.88,1258.63 3904.89,1267.5 3908.77,1274.78 3911.53,1280.9 3915.9,1295.23 3917.67,1310.1 3917.43,1321.8 3918.21,1337.48 3919.37,1349.31 3921.04,1361.36 3906.54,1375.96 3901.94,1380.18 3846.93,1435.7 3837.15,1445.1 3832.14,1450.51 3784.41,1497.97 3783.6,1498.48 3779,1503.55 3765.77,1516.42 3758.39,1524.17 3752.63,1529.45 3684.23,1598.44 3678.46,1603.72 3671.09,1611.48 3657.86,1624.35 3654.81,1627.73 3658.91,1652.39 3660.01,1667.77 3661.58,1683.05 3665.81,1698.32 3669.65,1707.56 3672.32,1712.76 3677.47,1721.1 3680.96,1726.04 3691.66,1737.75 3694.51,1740.08 3704.23,1747.41 3711.47,1751.71 3718.13,1755.01 3730.46,1759.67 3748.6,1763.39 3759.36,1763.75 3771.68,1764.86 3778.08,1765.68 3796.23,1769.15 3799.27,1765.78 3812.51,1752.9 3819.88,1745.15 3825.64,1739.86 3894.05,1670.88 3899.81,1665.59 3907.19,1657.84 3920.42,1644.97 3925.02,1639.9 3925.83,1639.39 3973.56,1591.92 3978.57,1586.52 3988.35,1577.12 4043.37,1521.6 4047.97,1517.37 4062.46,1502.78 4085,1505.49 4095.07,1506.12 4116.95,1506.39 4128.53,1508.07 4140.3,1511.34 4142.88,1512.29 4156.39,1518.76 4168.55,1527.5 4179.06,1538.16 4181.73,1541.48 4187.74,1550.34 4193.71,1562.12 4198.75,1578.07 4200.51,1592.94 4200.27,1604.64 4201.05,1620.32 4202.22,1632.16 4203.89,1644.2 4189.39,1658.8 4184.79,1663.02 4129.76,1718.55 4119.99,1727.95 4114.98,1733.35 4067.25,1780.81 4066.45,1781.32 4061.84,1786.39 4048.61,1799.26 4041.23,1807.02 4035.47,1812.3 3967.07,1881.29 3961.3,1886.57 3953.93,1894.32 3940.69,1907.2 3937.65,1910.57 3941.75,1935.23 3943.02,1954.24 3943.11,1962.93 3942.67,1972.71 3942.01,1982.02 3940.6,1992.37 3950.43,2000.14 3956.87,2005.93 3967.03,2014.05 3973.43,2019.8 3993.65,2036.06 4006.75,2045.07 4012.06,2048.32 4026.4,2056.1 4039.8,2062.09 4041.42,2068.61 4045.8,2081.38 4050.94,2093.08 4061.06,2110.31 4065.84,2116.07 4269.63,2319.84 4274.14,2324.62 4282.44,2334.38 4289.09,2345.21 4293.95,2355.74 4296.18,2362.31 4297.97,2369.03 4299.45,2377.33 4300.35,2394.01 4300.22,2514.91 4300.48,2519.85 4302.1,2533.68 4305.54,2538.35 4314.05,2548.28 4633.17,2867.4 4643.34,2879.25 4648.94,2888.23 4656.31,2896.32 4663.56,2904.9 4671.49,2918.48 4676.52,2931.78 4678.77,2941.22 4679.58,2946.41 4680.22,2955.14 4680.28,2961.36 4678.52,2976.23 4674.15,2990.55 4671.39,2996.68 4667.51,3003.96 4664.4,3008.8 4658.83,3016.14 4652.13,3023.21 4648.32,3026.8 4636.16,3035.54 4622.66,3042.01 4615.33,3044.44 4608.31,3046.23 4601.65,3047.35 4593.47,3048.12 4577.65,3048.1 4566.08,3048.67 4556.42,3049.61 4542.24,3051.52 4514.87,3024.19 4506.75,3017.79 4496.44,3008.46 4468.32,2980.47 4454.07,2968.06 4448.56,2963.83 4436.84,2955.78 4430.08,2951.64 4416.42,2944.23 4413.93,2935.28 4410.86,2926.11 4405.95,2914.89 4401.57,2907.03 4396.19,2899.15 4387.68,2889.23 4236.74,2738.37 4225.54,2729.51 4217.02,2724.26 4205.72,2718.73 4198.02,2722.36 4190.16,2726.74 4182.28,2732.12 4172.35,2740.62 3980.81,2932.16 3975.59,2937.88 3971.19,2943.6 3966.32,2950.97 3961.23,2960.55 3957.6,2969.16 3954.63,2977.54 3962.14,2989.58 3965.98,2994.96 3979.6,3002.08 3988.44,3006.2 3992.16,3007.55 4012.29,3017.08 4025.23,3026.42 4035.91,3037.29 4041.65,3044.86 4044.96,3050.01 4049.06,3057.7 4051.88,3064 4056.45,3078.93 4058.29,3094.46 4058.23,3100.85 4057.56,3110.05 4056.69,3115.58 4054.36,3125.33 4049.16,3139.1 4040.84,3153.37 4030.62,3165.19 3989.42,3206.4 3983.94,3211.4 3977.49,3216.46 3967.68,3222.62 3964.1,3224.47 3954.14,3228.63 3949.6,3230.26 3934.3,3233.49 3918.69,3234 3910.26,3233.22 3903.21,3232.03 3895.77,3230.14 3888.23,3227.63 3877.51,3222.62 3873.17,3220.2 3861.17,3211.52 3850.49,3200.64 3844.74,3193.07 3841.48,3188.01 3837.38,3180.22 3832.21,3168.01 3825.82,3154.38 3818.6,3141.53 3813.8,3137.9 3801.77,3130.56 3793.28,3133.41 3782.05,3138.32 3774.2,3142.7 3766.32,3148.08 3756.39,3156.58 3271.55,3641.61 3259.11,3652.77 3252.2,3657.59 3246.18,3661.07 3239.96,3664.15 3229.08,3668.15 3216.71,3671.11 3203.95,3672.18 2942.09,3672.22 2936.6,3672.53 2924.41,3674.08 2919.74,3677.52 2909.81,3686.02 2878.93,3716.9 2874.09,3720.75 2868.36,3723.12 2862.22,3723.93 2856.07,3723.12 2850.34,3720.75 2845.5,3716.9 2721.93,3593.3 2719.16,3589.57 2716.79,3583.84 2715.98,3577.7 2716.79,3571.55 2719.16,3565.82 2721.93,3562.09 2846.61,3437.41 2850.34,3434.64 2856.07,3432.27 2862.22,3431.46 2868.36,3432.27 2874.09,3434.64 2877.82,3437.41 2910.6,3470.14 2914.69,3473.78 2924.41,3481.31 2930.14,3482.18 2943.18,3483.19 3144.03,3483.17 3149.51,3482.86 3161.7,3481.31 3166.37,3477.87 3176.3,3469.37 4097.39,2548.28 4100.7,2544.61 4109.34,2533.68 4110.2,2527.95 4111.21,2514.9 4111.2,2447.35 4110.88,2441.87 4109.34,2429.68 4105.9,2425.01 4097.39,2415.09 3933.18,2250.88 3928.55,2246.66 3918.7,2240.1 3909.44,2232.64 3845.36,2168.62 3836.83,2158.85 3830.75,2149.92 3823.99,2136.79 3819.16,2121.92 3818.19,2117.05 3816.7,2104.95 3816.6,2096.53 3817.07,2089.12 3818.24,2080.98 3819.86,2073.53 3824.04,2061.25 3826.04,2056.7 3833.85,2043.15 3842.64,2032.29 3850.97,2024.23 3854.26,2021.53 3863.63,2015.04 3867.41,2012.67 3881.89,2006.19 3897.39,2002.17 3917.78,1998.65 3940.6,1992.37" style="stroke:rgb(0,0,0);stroke-width:1px;fill:none;stroke-opacity:1;stroke-linecap:round;stroke-linejoin:round;;fill:none"/>
<polyline points="3937.65,1910.57 3919.49,1907.1 3913.11,1906.28 3900.78,1905.17 3890.02,1904.81 3871.88,1901.09 3859.55,1896.43 3848.58,1890.69 3845.65,1888.83 3833.08,1879.17 3822.39,1867.46 3818.89,1862.52 3813.74,1854.18 3811.07,1848.98 3807.23,1839.75 3803.01,1824.47 3801.43,1809.19 3800.33,1793.81 3796.23,1769.15" style="stroke:rgb(103,198,105);stroke-width:0.000000;fill:none;stroke-opacity:0.5;stroke-linecap:round;stroke-linejoin:round;;fill:none"/>
<polyline points="3937.65,1910.57 3919.49,1907.1 3913.11,1906.28 3900.78,1905.17 3890.02,1904.81 3871.88,1901.09 3859.55,1896.43 3848.58,1890.69 3845.65,1888.83 3833.08,1879.17 3822.39,1867.46 3818.89,1862.52 3813.74,1854.18 3811.07,1848.98 3807.23,1839.75 3803.01,1824.47 3801.43,1809.19 3800.33,1793.81 3796.23,1769.15" style="stroke:rgb(0,0,0);stroke-width:1px;fill:none;stroke-opacity:1;stroke-linecap:round;stroke-linejoin:round;;fill:none"/>
<polyline points="4203.89,1644.2 4226.42,1646.92 4236.49,1647.54 4258.37,1647.81 4269.95,1649.49 4276.98,1651.28 4284.3,1653.71 4297.81,1660.18 4309.97,1668.92 4313.77,1672.51 4320.48,1679.58 4323.15,1682.9 4329.16,1691.76 4333.03,1699.04 4335.79,1705.17 4340.17,1719.49 4341.93,1734.36 4341.87,1740.59 4341.23,1749.31 4339.39,1759.35 4338.16,1763.95 4335.06,1772.65 4332.81,1777.92 4325.21,1790.82 4317.96,1799.4 4265.97,1851.54 4257.22,1858.57 4247.65,1864.8 4244.87,1867.26 4203.94,1908.08 4197.1,1916.15 4190.72,1930.88 4182.61,1944.51 4180.77,1946.74 4172.21,1956.49 4110.97,2017.74 4105.21,2023.19 4092.35,2032.48 4062.57,2047.39 4049.18,2055.61 4039.8,2062.09" style="stroke:rgb(103,198,105);stroke-width:0.000000;fill:none;stroke-opacity:0.5;stroke-linecap:round;stroke-linejoin:round;;fill:none"/>
<polyline points="4203.89,1644.2 4226.42,1646.92 4236.49,1647.54 4258.37,1647.81 4269.95,1649.49 4276.98,1651.28 4284.3,1653.71 4297.81,1660.18 4309.97,1668.92 4313.77,1672.51 4320.48,1679.58 4323.15,1682.9 4329.16,1691.76 4333.03,1699.04 4335.79,1705.17 4340.17,1719.49 4341.93,1734.36 4341.87,1740.59 4341.23,1749.31 4339.39,1759.35 4338.16,1763.95 4335.06,1772.65 4332.81,1777.92 4325.21,1790.82 4317.96,1799.4 4265.97,1851.54 4257.22,1858.57 4247.65,1864.8 4244.87,1867.26 4203.94,1908.08 4197.1,1916.15 4190.72,1930.88 4182.61,1944.51 4180.77,1946.74 4172.21,1956.49 4110.97,2017.74 4105.21,2023.19 4092.35,2032.48 4062.57,2047.39 4049.18,2055.61 4039.8,2062.09" style="stroke:rgb(0,0,0);stroke-width:1px;fill:none;stroke-opacity:1;stroke-linecap:round;stroke-linejoin:round;;fill:none"/>
<polyline points="4416.42,2944.23 4400.69,2953.36 4394.54,2956.58 4381.91,2962.58 4369.57,2967.42 4355.1,2974.34 4342.74,2983.24 4332.43,2993.73 4326.87,3001.08 4323.75,3005.92 4317.78,3017.69 4313.48,3031.01 4312.43,3035.87 4310.98,3048.52 4311.04,3054.74 4311.68,3063.47 4314.66,3081.72 4315.49,3090.75 4310.26,3098.99 4305.62,3105.17 4299.64,3111.82 4204.78,3206.39 4194.13,3214.92 4181.8,3216.97 4167.87,3219.91 4153.97,3225.46 4146.36,3229.69 4141.13,3233.13 4135.04,3237.92 4129.7,3242.78 4082.93,3289.55 4073.14,3300.88 4065.21,3314.46 4060.19,3327.76 4058.96,3332.35 4057.12,3342.39 4056.48,3351.12 4056.42,3357.34 4057.88,3369.99 4058.92,3374.85 4062.56,3386.53 4065.32,3392.66 4069.19,3399.94 4072.31,3404.78 4077.87,3412.12 4088.18,3422.61 4100.54,3431.52 4114.05,3437.99 4121.37,3440.42 4128.4,3442.21 4135.06,3443.33 4143.23,3444.1 4158.2,3443.6 4172.86,3440.51 4186.76,3434.96 4190.09,3433.23 4199.59,3427.28 4205.69,3422.5 4211.02,3417.64 4257.79,3370.87 4267.58,3359.54 4275.51,3345.96 4280.54,3332.66 4282.79,3323.22 4283.9,3316.15 4286.11,3306.12 4292.13,3298 4297.13,3292.55 4391.99,3197.98 4398.68,3192.42 4406.56,3187.04 4410.14,3185.05 4428.87,3187.41 4437.09,3189.04 4452.05,3189.54 4460.22,3188.77 4466.89,3187.65 4478.65,3184.39 4481.24,3183.43 4494.74,3176.96 4507.1,3168.06 4517.41,3157.57 4522.98,3150.22 4526.09,3145.38 4529.97,3138.1 4532.72,3131.97 4537.1,3117.65 4538.86,3102.78 4538.9,3084.16 4539.47,3074.07 4540.78,3061.64 4542.24,3051.52" style="stroke:rgb(103,198,105);stroke-width:0.000000;fill:none;stroke-opacity:0.5;stroke-linecap:round;stroke-linejoin:round;;fill:none"/>
<polyline points="4416.42,2944.23 4400.69,2953.36 4394.54,2956.58 4381.91,2962.58 4369.57,2967.42 4355.1,2974.34 4342.74,2983.24 4332.43,2993.73 4326.87,3001.08 4323.75,3005.92 4317.78,3017.69 4313.48,3031.01 4312.43,3035.87 4310.98,3048.52 4311.04,3054.74 4311.68,3063.47 4314.66,3081.72 4315.49,3090.75 4310.26,3098.99 4305.62,3105.17 4299.64,3111.82 4204.78,3206.39 4194.13,3214.92 4181.8,3216.97 4167.87,3219.91 4153.97,3225.46 4146.36,3229.69 4141.13,3233.13 4135.04,3237.92 4129.7,3242.78 4082.93,3289.55 4073.14,3300.88 4065.21,3314.46 4060.19,3327.76 4058.96,3332.35 4057.12,3342.39 4056.48,3351.12 4056.42,3357.34 4057.88,3369.99 4058.92,3374.85 4062.56,3386.53 4065.32,3392.66 4069.19,3399.94 4072.31,3404.78 4077.87,3412.12 4088.18,3422.61 4100.54,3431.52 4114.05,3437.99 4121.37,3440.42 4128.4,3442.21 4135.06,3443.33 4143.23,3444.1 4158.2,3443.6 4172.86,3440.51 4186.76,3434.96 4190.09,3433.23 4199.59,3427.28 4205.69,3422.5 4211.02,3417.64 4257.79,3370.87 4267.58,3359.54 4275.51,3345.96 4280.54,3332.66 4282.79,3323.22 4283.9,3316.15 4286.11,3306.12 4292.13,3298 4297.13,3292.55 4391.99,3197.98 4398.68,3192.42 4406.56,3187.04 4410.14,3185.05 4428.87,3187.41 4437.09,3189.04 4452.05,3189.54 4460.22,3188.77 4466.89,3187.65 4478.65,3184.39 4481.24,3183.43 4494.74,3176.96 4507.1,3168.06 4517.41,3157.57 4522.98,3150.22 4526.09,3145.38 4529.97,3138.1 4532.72,3131.97 4537.1,3117.65 4538.86,3102.78 4538.9,3084.16 4539.47,3074.07 4540.78,3061.64 4542.24,3051.52" style="stroke:rgb(0,0,0);stroke-width:1px;fill:none;stroke-opacity:1;stroke-linecap:round;stroke-linejoin:round;;fill:none"/>
</svg>
